<svg xmlns="http://www.w3.org/2000/svg" viewBox="0 0 600.01 800.01"><defs><style>.cls-1{fill:#fff;}.cls-2{fill:#8da9c4;}.cls-3{fill:none;}.cls-4{fill:#133c55;}.cls-5{fill:#e09b60;}.cls-6{font-size:34.78px;}.cls-6,.cls-7{fill:#001024;font-family:SoccerLeague-Italic, Soccer League;font-style:italic;}.cls-7{font-size:25.43px;}</style></defs><g id="Layer_2" data-name="Layer 2"><g id="Layer_1-2" data-name="Layer 1"><g id="Background"><rect class="cls-1" width="600" height="800"/></g><g id="Map"><path class="cls-2" d="M500.79,523.18V523a.25.25,0,0,0,0,.11A.21.21,0,0,0,500.79,523.18Z"/><path class="cls-2" d="M122.17,205a14.77,14.77,0,0,0,2.84,4,19.71,19.71,0,0,1,3,3.77,17.66,17.66,0,0,0,2.5-.27,10,10,0,0,0,1.88-.6c.12-1.43.25-2.88.37-4.32l.36-4.31a8.37,8.37,0,0,0,2.34-.79,10.37,10.37,0,0,1,2-.94,82.66,82.66,0,0,0-2.71-9.57c-1.2-3.44-2.6-6.58-3.86-7.71a4.47,4.47,0,0,0-2.72-1.14,3.11,3.11,0,0,1-2.39-1.45,20.7,20.7,0,0,0-6.12,1.33,9.11,9.11,0,0,1-5.55.4,11.3,11.3,0,0,1-2.41-1.24,12,12,0,0,0-2.7-1.35,6.63,6.63,0,0,1-1,.94,13,13,0,0,1-1.19.78c.24,3.19,1.4,4.73,3,5.67s3.69,1.29,5.75,2.11a3.7,3.7,0,0,1-1.83.74,16.31,16.31,0,0,1-2.55.12l.36,1.3c.13.43.25.86.37,1.29-2.36-1.49-4.6-3-6.77-3.35s-4.27.38-6.37,3.35a10,10,0,0,0,1.08,4.42,8.67,8.67,0,0,0,2.57,2.5,1.84,1.84,0,0,1-1.5.59c-.34,0-.66.09-1.42,1.13a15.8,15.8,0,0,1-1.2-1.47,4.09,4.09,0,0,0-1.72-1.12c-.32,1-.59,2.18-.92,3.24a8.76,8.76,0,0,1-1.27,2.81c-.63.58-.94.6-1.21.57a1,1,0,0,0-1,.29H90.79a14.71,14.71,0,0,0,.52,1.62,5.49,5.49,0,0,0,.94,1l-1.46,1.73-1.46,1.73v1.73c2.24.54,4.57.65,6.82,1a12.87,12.87,0,0,1,6.31,2.45c1.75-.15,2.81-.4,3.54-1s1.14-1.63,1.57-3.3a12.67,12.67,0,0,1,3.09.33,4.4,4.4,0,0,1,2,1.4h3.65a19.66,19.66,0,0,0,.44-3.35,4.5,4.5,0,0,0-1.17-2.7,15.79,15.79,0,0,1,3.36-2A10,10,0,0,0,122.17,205Z"/><path class="cls-2" d="M55.32,195.56a4.68,4.68,0,0,0,1.74,1.77c1,.46,3.17.16,5.48-.21a29.3,29.3,0,0,1,6.19-.66c.12.15.25.29.37.43l.36.44a24.56,24.56,0,0,1-1.32,3.23,3.64,3.64,0,0,0-.14,2.81,6.57,6.57,0,0,0,.89,2.55,13.09,13.09,0,0,1,1.3,1.77,5.44,5.44,0,0,0,3.31-1.36,11.23,11.23,0,0,0,1.8-3,4.19,4.19,0,0,0,0-2.38,2.81,2.81,0,0,1,0-1.94c.5-1.18.75-1.72,1.2-2a6.85,6.85,0,0,1,2.45-.57,6.46,6.46,0,0,0-2.69-2.69,5.24,5.24,0,0,1-2.42-2.49,8.38,8.38,0,0,1,0-2.88,9.87,9.87,0,0,0,0-3.17,34.41,34.41,0,0,0-5,.88,2.86,2.86,0,0,1-3-.88c-2.24,0-3.52.23-4.32,1s-1.14,2.09-1.52,4.19c-1.19-.18-3-.38-4.48-.55s-2.74-.28-2.81-.32a8,8,0,0,0-2.59.59,19.08,19.08,0,0,0-1.79,1.14l.36,2.16c.13.72.25,1.44.37,2.16a9.75,9.75,0,0,0,2.19-.53,4.3,4.3,0,0,0,1.46-1.2A4.15,4.15,0,0,1,55.32,195.56Z"/><path class="cls-2" d="M234.92,325l.36,1.29,3.65.44,3.65.43c2.14,1.89,2,3.84,2.52,5.21s1.86,2.16,7,1.7l.36-2.59c.12-.86.24-1.73.37-2.59H255c-.09,1-.12,1.61-.21,2.09a4,4,0,0,1-.52,1.36c0,2.71.14,4.23.69,5.29s1.46,1.65,3,2.49c.45.32.63.34,1,.26a8.18,8.18,0,0,1,1.94-.26v-4.32a5,5,0,0,1,1.81,3.68c.18,1.45.13,3,.38,4.09a8.92,8.92,0,0,0,2.56.54,2.59,2.59,0,0,1,1.82,1.19c1.12-.79,1.86-2.79,2.32-5.1a37,37,0,0,0,.6-7H271c.53,1.38,1,3,1.6,4.56a15.11,15.11,0,0,0,2.05,4.08l.36.43c.13.14.25.28.37.43v-.86l1.09-.44,1.1-.43a18.58,18.58,0,0,0-1.44-8.34c-1-2.39-2.34-4.59-3.67-7.21a19.44,19.44,0,0,1-2.8-1.17c-.68-.23-1.16-.08-1.58,1.17a7.61,7.61,0,0,1-2.73-3.77,10.73,10.73,0,0,0-2.38-4,4.68,4.68,0,0,0-1.87-.86,4.11,4.11,0,0,1-1.78-.86,12.49,12.49,0,0,1-1.15-2.58,20.79,20.79,0,0,1-1-4.33H252.8v-.87l1.82-.86,1.82-.87a8.11,8.11,0,0,0-2-3.87,14.5,14.5,0,0,1-2.39-3,10.33,10.33,0,0,1-1.13-4.45c-.09-1.51-.05-3.12-.33-5.05a24.77,24.77,0,0,0-2.93.08,4.28,4.28,0,0,0-2.18.78c-.35.7-.36.72-.28.88a3.41,3.41,0,0,1,.28,1.71c-.12-.14-.25-.28-.37-.43l-.36-.43c-2.11-2.12-2-3-1.64-3.94a3.8,3.8,0,0,0,.18-3.83c-.59-1.37-2-2.14-3.41-2.83a11.86,11.86,0,0,1-3.89-2.36,74.58,74.58,0,0,1-3.71-7.46c-1.64-3.53-3.25-7.17-3.59-8.09h-2.19c0,1.91.42,3.78.55,5.64a8.63,8.63,0,0,1-1.28,5.59l-.36.87c-.12.28-.24.57-.37.86a7,7,0,0,1-1.61-.79c-.35-.25-.66-.52-1.3-.94a19,19,0,0,1-2.45,2.22,6.11,6.11,0,0,0-1.93,3h-1.46v-.87h-.73a17,17,0,0,1,1.47-3.42,9.66,9.66,0,0,1,2.18-2.63,6.54,6.54,0,0,0-.8-2.68c-.3-.44-.71-.7-1.39-1.63a5.36,5.36,0,0,0,2-1.09,6.48,6.48,0,0,0,.92-2.37,6,6,0,0,0,.41-.63c0-.13.09-.34.32-1.1-1.53-1-2.72-2-4-2.93a13.43,13.43,0,0,0-4.73-2.25,17.52,17.52,0,0,0-.74,3.75,15,15,0,0,0,0,3.16h-1.46v.86a4.29,4.29,0,0,1-1.41-1,14.11,14.11,0,0,1-.78-1.6c-.5-.5-.44-.6-.19-.86a3.18,3.18,0,0,0,.92-1.73c-.48-.22-1.2-.48-1.89-.78a7,7,0,0,1-1.76-.95h-.73l.73-.86.73-.86c-.61-2.9-1.08-3.06-1.8-2.85a2.75,2.75,0,0,1-3.31-.61l-.36-1.73c-.13-.58-.25-1.15-.37-1.73a15,15,0,0,0-3.2-2.41c-1.38-.85-2.79-1.63-3.37-1.91-1.37-.66-3.07-.27-4.57.2s-2.83,1-3.46.67c-.38-.22-.6-1-.8-1.73a4.27,4.27,0,0,0-.65-1.73c-2.5-1.89-9.5-2.14-16-1.79s-12.58,1.29-13.17,1.79a4.07,4.07,0,0,1-1.66-1.09,2.23,2.23,0,0,0-2-.64,19.28,19.28,0,0,0-1.93,1.32c-.88.64-1.72,1.28-1.72,1.28-1.29-.65-2.41-1.62-3.57-2s-2.33-.32-3.73,1.17l-1.09.43-1.1.44a9.57,9.57,0,0,0,1.19,4.69,5.87,5.87,0,0,0,3.19,2.22c-.37,1.78-.43,2-.65,2s-.57-.26-1.54.61a4.83,4.83,0,0,0-.36,1.92,3.94,3.94,0,0,1-1.1,2.4,5.3,5.3,0,0,0,1.21,1.08,9.26,9.26,0,0,0,1.71.65,7.46,7.46,0,0,1-.81,1.1,7,7,0,0,1-1.38.62,9.42,9.42,0,0,0,.78,3.12c.33.63.76,1.09,1.41,2.06,1.25-.36,1.71-.47,2-.75a9.94,9.94,0,0,0,.92-1.84H147c-.64,1-1.09,1.42-1.42,2.06a8.56,8.56,0,0,0-.77,3.13,6.77,6.77,0,0,0-2.12.68c-.43.25-.77.56-1.53,1v3.46h2.92v3.46a32,32,0,0,1,5.39-1,7.89,7.89,0,0,1,5.55,1.86,6.49,6.49,0,0,0,2.14-1.82,14.92,14.92,0,0,0,1.51-2.5,11.24,11.24,0,0,1,1,2.72,5.82,5.82,0,0,0,1.2,2.47,20.48,20.48,0,0,0,4.35.93c2,.32,4.17.61,5.14.79v3.46c1.32-.32,1.83-.3,2.12-.53s.35-.72.8-2.06a3.26,3.26,0,0,1,1.29,1.17,7.82,7.82,0,0,0,.9,1.42,4.61,4.61,0,0,1,1,.25c.07,0,.06-.29.49-1.11a3.6,3.6,0,0,1,.47,1c.08.31.12.72.26,1.62a9.88,9.88,0,0,0,1.37-.62,7,7,0,0,0,.82-1.11,7,7,0,0,1,.9,1.91,17.68,17.68,0,0,1,.55,2.41,7.31,7.31,0,0,0,1.62-.79c.35-.25.66-.52,1.3-.94a5.13,5.13,0,0,1,.28,1.82,3.14,3.14,0,0,0,.45,1.64v.86l.73-.86.73-.87c1,1.16,1.65,2.2,2.44,3.08a7.13,7.13,0,0,0,3.4,2.11l.36.43c.13.14.25.29.37.43V296a3.7,3.7,0,0,0,1.7-1.9,13.25,13.25,0,0,0,.49-3.29c.63-.28.81-.32.92-.38s.17-.13.54-.48a4,4,0,0,1,.53,1.35,21,21,0,0,1,.2,2.11c.45-.29.83-.53,1.18-.79a6.23,6.23,0,0,0,1-.94h.73a30.31,30.31,0,0,0-1,4,34.14,34.14,0,0,0-.48,4.62h2.92c.2-.66.33-1,.43-1.47a15.5,15.5,0,0,0,.3-2h1.46c.2.67.4,1.89.63,3.09a12.68,12.68,0,0,0,.83,3c.8.37,1,.53,1.18.42s.32-.52,1-1.28a7.16,7.16,0,0,1,.91,1.91,21.07,21.07,0,0,1,.55,2.4,5.16,5.16,0,0,0,2.92-1,8.41,8.41,0,0,0,1.46-2.49,3.87,3.87,0,0,1,.33,1.74,3.45,3.45,0,0,0,.4,1.71c.62.45.62.45.65.35s.08-.33.81-.35v1.73h-2.92c.36,2.15.87,3.25,1.68,3.69s1.9.23,3.43-.23c-.09,1-.12,1.61-.21,2.09A4,4,0,0,1,217,315c.79,2,1.63,2.54,2.68,2.87a13.09,13.09,0,0,1,3.88,1.45,26,26,0,0,0,5,1.67,18.31,18.31,0,0,1,6,2.65C234.67,324.11,234.79,324.55,234.92,325Z"/><path class="cls-2" d="M505.89,501.59a7.15,7.15,0,0,0,1.53,2.08c.51.35,1.12.28,2.12-.36h.73v-1.72h-4.38Z"/><path class="cls-2" d="M300.1,534.41l-2.92.43-2.92.44c.24-.44.48-.86.73-1.3s.48-.86.73-1.29a11,11,0,0,0-2.92-.42c-.72-.11-1.32-.53-2.19-2.17a5.24,5.24,0,0,0-1.77,1.41,11.64,11.64,0,0,0-1.15,2,8.85,8.85,0,0,1-.73-1.29,8.49,8.49,0,0,0-.73-1.3c-.64-1.65-1-1.53-1.44-1.48s-.82,0-1.48-2a6.52,6.52,0,0,0-3.66,1.37,10.23,10.23,0,0,0-2.18,3,13.36,13.36,0,0,1-4.92-2.64,8.25,8.25,0,0,1-2.38-6,6.22,6.22,0,0,0-1.75,1.34,5.06,5.06,0,0,1-1.89,1.25,18.63,18.63,0,0,1-.48-3c-.11-1-.18-1.9-.25-2.14s-.25-.58-.37-.86-.24-.58-.37-.87a27,27,0,0,0-3.08,1.7c-.83.53-1.61,1.07-2.75,1.76-.25-.58-.49-1.15-.73-1.73s-.49-1.15-.73-1.73h-1.46v4.32a5,5,0,0,0-3,2.2,14.4,14.4,0,0,1-2.15,3v4.32h1.46c.63-.94,1.28-1.9,1.91-2.9a34.05,34.05,0,0,0,1.74-3.14c2.15.37,2.52.68,2.62,1.18a3,3,0,0,0,1,2.27c.51.32.74.38,1,.23a15.25,15.25,0,0,0,1.19-1.09h2.19a23.41,23.41,0,0,1-1.61,2.35,8.61,8.61,0,0,0-1.31,2.83,5,5,0,0,1,.41.63c.05.13.09.34.32,1.1a10.17,10.17,0,0,0,3.66-1.69,20.71,20.71,0,0,0,2.91-2.63h.73a21.77,21.77,0,0,1,.32,3,20.3,20.3,0,0,1-.32,3A5.86,5.86,0,0,0,272,536c.57-.71,1-1.53,1.85-2.47a8.79,8.79,0,0,0,1.56,3.35,6.42,6.42,0,0,0,2.82,1.84c-.24.86-.48,1.73-.73,2.59s-.48,1.73-.73,2.59c.56.24.87.39,1.24.51a8.94,8.94,0,0,0,1.68.35c.13-1.43.25-2.87.37-4.31l.36-4.32h2.19a15.62,15.62,0,0,1,.52,2.22,22.45,22.45,0,0,1,.21,3c1.52-.48,1.93-.73,2.4-.83a13.2,13.2,0,0,1,2.71,0,17.08,17.08,0,0,1-.31,2c-.1.45-.22.82-.42,1.47h.73v.87a4.4,4.4,0,0,0,1.93-2.11,30.4,30.4,0,0,0,1-3.07l.73-.43.73-.44.37.44.36.43a14.13,14.13,0,0,1-.56,2,5.44,5.44,0,0,1-.9,1.44v2.6a16.75,16.75,0,0,0,3-2.88,11.09,11.09,0,0,0,2.08-4c.93.54,1.33.77,1.57,1.17a10.75,10.75,0,0,1,.62,2.28h2.19l.36-1.3c.12-.43.25-.86.37-1.29a8.4,8.4,0,0,1-1.36-2.25A14.46,14.46,0,0,1,300.1,534.41Z"/><path class="cls-2" d="M240.25,521.46a2.57,2.57,0,0,0-.82-.56,11.79,11.79,0,0,0-1.37-.31,12.19,12.19,0,0,1-.77,2.58,5.72,5.72,0,0,1-1.42,1.74v2.59a18.08,18.08,0,0,0,2.59-1.25,11,11,0,0,0,1.79-1.34h1.46v-1.73l-.73-.86C240.74,522,240.5,521.74,240.25,521.46Z"/><path class="cls-2" d="M300.82,532.69a12.9,12.9,0,0,1-.27-1.87c-.05-.14-.26-.1-1.19-.73v2.6h1.46Z"/><path class="cls-2" d="M309.58,537a5.42,5.42,0,0,0,.53.48c.11.06.29.11.93.38.12-.15.25-.29.37-.43l.36-.44v-3.45h-1.46c-.24.57-.48,1.15-.73,1.72s-.48,1.16-.73,1.73h.73Z"/><path class="cls-2" d="M317.61,534.41l-1.46-.43-1.46-.43c-.15.89-.19,1.3-.27,1.61a3.55,3.55,0,0,1-.46,1c.62,1.51,1.49,1.6,2.33,2s1.61,1.18,2,4c.63-.28.81-.32.92-.38a4.45,4.45,0,0,0,.54-.49c.3-.18-.16-1.2-.73-2.53A17.36,17.36,0,0,1,317.61,534.41Z"/><path class="cls-2" d="M308.12,537.44V537a9.82,9.82,0,0,0-1.88-.6,13.15,13.15,0,0,0-2.5-.26,17,17,0,0,0-.47,1.83,18.34,18.34,0,0,0-.26,2.49,9.4,9.4,0,0,0,2.38-1.44,6.08,6.08,0,0,1,2.73-1.15Z"/><path class="cls-2" d="M323.45,536.14a3.47,3.47,0,0,0-1.3,1.17,7.3,7.3,0,0,1-.89,1.43,5.68,5.68,0,0,0,.67,1.49,9.79,9.79,0,0,1,.79,1.1c.91-.64,1.12-.59,1.18-.72s0-.47.28-1.87l.36.43.37.43c.91-.64,1.12-.58,1.18-.72a17.42,17.42,0,0,1,.28-1.87,14.43,14.43,0,0,1-1.77-.25A2.67,2.67,0,0,1,323.45,536.14Z"/><path class="cls-2" d="M313.23,538.73a10.39,10.39,0,0,1-2.35,2.43c-.91.71-1.89,1.33-2.76,1.89a9.91,9.91,0,0,0,1.7,2.35c.59.62,1.22,1.18,1.95,2,.6-.75.92-1.33,1.29-1.86a5.88,5.88,0,0,1,1.63-1.59v-5.19h-1.46Z"/><path class="cls-2" d="M270.17,543.05h-1.45a8.51,8.51,0,0,0,1.17,3.48c.49.76,1.07,1.37,1.74,2.57h2.19c-.11-1.38-.27-2.07-.32-2.61a3.07,3.07,0,0,1,.32-1.71v-2.59c-.91.47-1.44.87-1.93,1.07A1.94,1.94,0,0,1,270.17,543.05Z"/><path class="cls-2" d="M533.12,613.13c-4.14-.61-9-.1-11.9-2.69a4.73,4.73,0,0,0-2.37,1.18,10.47,10.47,0,0,0-1.28,2.27,7.51,7.51,0,0,1-.86-1.89,3.09,3.09,0,0,0-1.33-1.56,4,4,0,0,0-.53-.49c-.11-.06-.28-.1-.92-.37a32.11,32.11,0,0,0-1,4.11,42.07,42.07,0,0,0-.46,4.52c-.9-.64-1.41-2.07-1.72-3.7a38.42,38.42,0,0,1-.47-4.93l-1.1-.44-1.09-.43-.73.86-.73.86c-.56-.47-.77-1.32-1.19-1.94s-1.05-1-2.46-.65h-.73c-1.47,1-2.5,2.68-3.83,3.58s-3,1.05-5.66-1a8.46,8.46,0,0,0-.36,2.48c0,.67.18,1.37.36,2.71-.63-.28-.81-.32-.92-.38a4,4,0,0,1-.54-.48c-1.88.27-2.38.35-2.52.75a16.11,16.11,0,0,1-.4,2.7h-3.65c-.14.89-.19,1.3-.26,1.61a3.35,3.35,0,0,1-.47,1v.87a46.22,46.22,0,0,1,4.65,1.85,23.5,23.5,0,0,0,4.84,1.61,8,8,0,0,0,3.06-.54,4.69,4.69,0,0,1,2.78-.33l.36,1.3c.12.43.24.86.37,1.29a1.57,1.57,0,0,0,2.32-.58c.5-.66,1-1.41,2.06-1.14,0,0,1,.58,2,1.2s2.09,1.25,2.39,1.39c1-.2,2.22-.65,3.4-.94a4.4,4.4,0,0,1,3.16.07c.12.44.25.87.37,1.3l.36,1.3a1.78,1.78,0,0,0,2,.09,1.41,1.41,0,0,1,1.66-.09,16.92,16.92,0,0,0,2.16-.19,3.17,3.17,0,0,0,1.49-.68c.31-1,.45-1.2.35-1.4s-.43-.38-1.08-1.19v-.87a8.67,8.67,0,0,1,2.18.92,5.57,5.57,0,0,1,1.47,1.67h.73v-3.45a3,3,0,0,1,1.87.78A3.63,3.63,0,0,0,530,626c.73.37,1-.18,1.1-.87s.12-1.53.36-1.72h.73c.32.69,1.66.92,3.25,1s3.43-.07,4.77-.11c.24-.75.27-1,.32-1.1a5,5,0,0,1,.41-.63C540.73,615.48,537.27,613.75,533.12,613.13Z"/><path class="cls-2" d="M198.65,645.86a7.75,7.75,0,0,0-2.91-.63,7.39,7.39,0,0,0-2.92.63,26.13,26.13,0,0,1,2-3.63c.75-1.14,1.55-2.23,2.35-3.29v-.86c-1,.29-2.44.63-3.73.94a22.09,22.09,0,0,0-2.83.79,5.61,5.61,0,0,0-1.22,2.45,12.35,12.35,0,0,1-1,2.73v1.73h-.73c-.06-1.61-.19-3-.24-4.19a6.55,6.55,0,0,1,.24-2.72c-.54-1.08-.5-1.33-.61-1.41a8.71,8.71,0,0,1-1.58-.32c.48-.58,1-1.15,1.46-1.73s1-1.15,1.46-1.73v-.86a15.67,15.67,0,0,0-2.17.18,3.18,3.18,0,0,0-1.48.68c-2.06.09-3.17.4-3.93,1.08a9.56,9.56,0,0,0-1.91,3.24,4.52,4.52,0,0,1-.58-1.76,22.89,22.89,0,0,1-.15-2.56,6.06,6.06,0,0,0-3,1.62,7.74,7.74,0,0,0-1.37,3.56c-1-.75-1.21-.77-1.19-.91a4.3,4.3,0,0,0,.46-1.68l-.36-.43-.37-.44a29,29,0,0,0-5.52,2.42,8.4,8.4,0,0,0-4,4.5l-.72-.87-.73-.86a3.74,3.74,0,0,0-.38,2.76,5.63,5.63,0,0,1-.35,3.29,8.4,8.4,0,0,1-2.06,2.82,6.63,6.63,0,0,0-1.59,4.09,10.52,10.52,0,0,1-5.44-.14,18.39,18.39,0,0,1-4.78-2.45,7.37,7.37,0,0,1,2.37-4.06c.75-.85,1.2-1.79.55-4.58l2.19.43,2.19.43a15.48,15.48,0,0,1,1.49-4.74,14.11,14.11,0,0,0,1.43-4.76c-1.71.44-2.27,1-2.49,1.5s-.1.93-.43,1.09c-.49.24-.83.26-1.06.09a1.28,1.28,0,0,1-.4-.95l-3.65-.43-3.65-.44-.36-1.29c-.13-.43-.25-.87-.37-1.3h-1.46a7.35,7.35,0,0,1,2.19-.87,8.11,8.11,0,0,0,2.19-.85,2.47,2.47,0,0,0,.08-1.44,6.42,6.42,0,0,1-.08-2c-3.64.72-7.34,1.55-11.2,2a40.23,40.23,0,0,1-12.15-.28c-2.37-.44-4.1.49-5.65,1.28s-2.92,1.45-4.57.45h-1.46v3.45h-2.92v2.59c-.76-.48-1.09-.81-1.52-1.06a6.15,6.15,0,0,0-2.13-.66l.73-.86.73-.87a5.51,5.51,0,0,0-.67-1.49,11.36,11.36,0,0,1-.79-1.1,3.27,3.27,0,0,0-1.35,2,9,9,0,0,1-.84,2.37c-.27.64-1-.29-2-1.23s-2.08-1.92-3.16-1.36c-.48.25-.67.9-.83,1.59a4.59,4.59,0,0,1-.63,1.86c-1.12-1.56-5.67-.88-10.22.17S77.9,639,76.78,638.94c-.2.66-.33,1-.43,1.47a15.5,15.5,0,0,0-.3,2c-.64-.42-1-.7-1.3-.95a6.22,6.22,0,0,0-1.62-.78,45.51,45.51,0,0,1-10.24,10c-3.86,2.88-8,5.46-11.65,8.18a15.52,15.52,0,0,0,3,3.68c1.41,1.4,2.9,2.73,3.55,3.23-.15.89-.19,1.3-.27,1.61a3.55,3.55,0,0,1-.46,1,6.29,6.29,0,0,0,2.17,2.84c.57.46,1,1,1.48,3.21a20.62,20.62,0,0,0,6.69-3.11,39.18,39.18,0,0,0,5.71-4.67c5.13.28,7.14,5.13,8,10.94s.44,12.59.8,16.71a38.47,38.47,0,0,1-7.66,6,38.69,38.69,0,0,0-7.67,6.07,16.77,16.77,0,0,0-1.37,3.6,9.41,9.41,0,0,1-1.54,3.31V715c2.29-1.21,7-1.45,11.87-1.27A113.31,113.31,0,0,1,88.46,715a6.88,6.88,0,0,1,4.14-1.55,19.67,19.67,0,0,0,3.89-.18A8.65,8.65,0,0,0,99,711.6a11.52,11.52,0,0,1,2.63-1.81h7.3v-1.73c.63-.44,1.91-.11,3.4.16a7.94,7.94,0,0,0,4.63-.16,45.67,45.67,0,0,1,6.76-2.73,29.85,29.85,0,0,1,7.1-.73v-3.45a3.23,3.23,0,0,1,1.3,1.17,8.22,8.22,0,0,0,.89,1.42,1.52,1.52,0,0,0,1.67-.17c.43-.25.92-.44,2,.17a2.81,2.81,0,0,0,1.42-1.82,22.24,22.24,0,0,0,0-3.36h.73c.2.65.33,1,.44,1.46a16,16,0,0,1,.29,2h2.19c.15-.89.19-1.3.27-1.61a3.55,3.55,0,0,1,.46-1v-.87c1,.36,1,.44.92.61s-.2.42.54,1.12c.44.64,1,.43,1.55-.16a7.93,7.93,0,0,0,1.37-2.43h.73v3.46a23.75,23.75,0,0,0,4.35,0,4.22,4.22,0,0,0,3-1.69c1-.63,1.28-1,1.22-1.73a31,31,0,0,1-.49-3.45,4.73,4.73,0,0,1,1.58,1.63,7.78,7.78,0,0,0,1.34,1.82c.56,0,.72-.06.94-.31a14.15,14.15,0,0,1,1.25-1.42c.24,1,.48,2,.73,3s.48,2,.73,3c1.18-.19,2-.51,2.79-.62a2.91,2.91,0,0,1,2.31.62h2.19a5,5,0,0,0-1-1.86,7.26,7.26,0,0,0-1.93-.73v-5.19c.48.23,1.2.49,1.89.78a7.28,7.28,0,0,1,1.76,1,13.3,13.3,0,0,0,2.1-.31,11.63,11.63,0,0,0,1.55-.55c.12-1.15.24-2.31.37-3.46l.36-3.45h5.11a6.93,6.93,0,0,0-.9-3,3.23,3.23,0,0,1-.56-2.17c.2-1.1,1-1.9,1.59-2.89a3.83,3.83,0,0,0-.13-4,1,1,0,0,1,1.4,0,1.25,1.25,0,0,0,1.52,0,74.2,74.2,0,0,0,6.45-5.82,62.22,62.22,0,0,0,6-6.27,23.71,23.71,0,0,0,1.61-5.38,13,13,0,0,1,2-5v-1.72c-.45.28-.83.52-1.18.78a6.23,6.23,0,0,0-1,.94H195c.59-1.25,1.3-2.52,2-3.82A22.46,22.46,0,0,0,198.65,645.86Z"/><path class="cls-2" d="M197.2,679.55c-.13.43-.25.87-.37,1.3s-.24.86-.37,1.29c.64-.27.81-.32.93-.38a3.53,3.53,0,0,0,.53-.48h.73c-.48-1-.39-1.2-.41-1.23S198.1,680.11,197.2,679.55Z"/><path class="cls-2" d="M188.44,689.92c-.25-.54-.44-1-.66-1.4a7.75,7.75,0,0,0-.8-1.19c-.22.94-.42,1.38-.47,1.79a3,3,0,0,0,.47,1.66V696h1.46a22.69,22.69,0,0,1,.56-2.4,7,7,0,0,1,.9-1.92c.7-.46.91-.53,1.21-.45a7.1,7.1,0,0,0,1.71.45v-1.73a17.24,17.24,0,0,0-2.29-.43A5,5,0,0,0,188.44,689.92Z"/><path class="cls-2" d="M173.84,700.28c.15.89.19,1.31.27,1.62a3.68,3.68,0,0,0,.46,1,7.7,7.7,0,0,0,1.46.86,8.27,8.27,0,0,1,1.46.86,12.23,12.23,0,0,0,1.41-3.13,21.48,21.48,0,0,0,.78-3.78,8.83,8.83,0,0,0-3.12,1.18A13.52,13.52,0,0,1,173.84,700.28Z"/><path class="cls-2" d="M30.07,747.8a8.82,8.82,0,0,1,1-2.36,22.43,22.43,0,0,0,1.19-2A12.78,12.78,0,0,0,31,743a8.76,8.76,0,0,0-1.68-.35,12.64,12.64,0,0,1,.78-2.59,5.68,5.68,0,0,1,1.41-1.73c-.23-.75-.27-1-.32-1.1a3.94,3.94,0,0,0-.41-.63c-.3-1.17-.59-1-.84-.38s-.46,1.61-.61,2.11a17.18,17.18,0,0,1-4.72-3.88,16.2,16.2,0,0,1-3.31-5.63H19.13a2.75,2.75,0,0,1-.82.56c-.26.09-.61.15-1.37.31a24.56,24.56,0,0,0-.66,5.55,12.93,12.93,0,0,1-.8,4.82v1.72c.63-.28.81-.32.92-.38a4.88,4.88,0,0,0,.54-.48h2.19A12.74,12.74,0,0,1,17.5,743c-.67.74-1.28,1.37-1.29,1.39-.83,1.83-.34,2.46-.08,3s.32.89-1.38,2.23c.41.76.86,1.54,1.35,2.27a18.73,18.73,0,0,0,1.57,2.05,61.06,61.06,0,0,1-1.46,10,17.44,17.44,0,0,1-3.65,7.26c.14.88.19,1.3.27,1.61a3.14,3.14,0,0,0,.46,1c.31.48.68.35,1.24.06a7.62,7.62,0,0,1,2.41-.92c.41-1.06.73-1.76,1-2.6a14.76,14.76,0,0,0,.49-3.45,9.78,9.78,0,0,1,5.36-.17c1.44.39,2.91,1.13,5.58,1.9,1-2.64,1.57-6.62,2-10.43s.88-7.46,1.61-9.45c-.55-.23-.86-.38-1.24-.51A8.76,8.76,0,0,0,30.07,747.8Z"/><path class="cls-2" d="M457,738.3c-.63-.44-.63-.45-.65-.34s-.08.32-.81.34c-.35-1-.48-1.84-.73-2.51a3.51,3.51,0,0,0-1.46-1.82v2.6l-1.46-.44-1.46-.43a3.85,3.85,0,0,0-1.21,2.08c-.25.6-.69,1.07-2.44,1.38,1.08,2.27,2.48,2.67,3.82,2.73s2.62-.2,3.48.72a13.33,13.33,0,0,0,2.09-.31,12.26,12.26,0,0,0,1.56-.55c-.09-1-.12-1.61-.21-2.1A4,4,0,0,0,457,738.3Z"/><path class="cls-2" d="M494.22,758.16l.36-.43c.12-.14.25-.28.37-.43a3.17,3.17,0,0,1-.42-1.23s-.14.06-1-.49v2.58h.73Z"/><path class="cls-2" d="M497.14,766.81v1.72a14.87,14.87,0,0,0,2.49-.27,9.79,9.79,0,0,0,1.88-.59c.13-.29.25-.58.37-.87l.36-.86a11,11,0,0,0-2.56-.68,20.65,20.65,0,0,0-3.27-.18c.23.74.27.95.32,1.09A3.78,3.78,0,0,0,497.14,766.81Z"/><path class="cls-3" d="M500.79,523.18V523a.25.25,0,0,0,0,.11A.21.21,0,0,0,500.79,523.18Z"/><path class="cls-2" d="M599.67,335.28l-.36-.43v-4.32a4.48,4.48,0,0,0-2.66,1.73,24.81,24.81,0,0,1-1.72,2.59c-.64.59-.95.6-1.22.57a1,1,0,0,0-1,.3h-1.46c.48-.58,1-1.16,1.46-1.73s1-1.15,1.46-1.73v-.86a29.27,29.27,0,0,0-5.33-.66c-1.75-.08-3.54-.09-5.62-.21-.14.89-.19,1.31-.27,1.62a3,3,0,0,1-.46,1c-.12.2-.81-.15-1.77-.58a13.55,13.55,0,0,0-3.34-1.15,2.81,2.81,0,0,1,1.15-.63,13.43,13.43,0,0,1,1.77-.23v-2.59c2.1,0,4.13.13,5.9,0a6.67,6.67,0,0,0,4.32-1.69,15.13,15.13,0,0,0,2.85,0c.6-.16,1-.59,1.53-1.69a4.3,4.3,0,0,0,.41-.63c0-.13.09-.34.32-1.1a21.78,21.78,0,0,1-2-2.37,15.73,15.73,0,0,1-1.65-2.81,6.07,6.07,0,0,0-2.64.61,3.38,3.38,0,0,1-2.47.26c-.56-.23-1.43-1.51-2.45-2.63s-2.2-2.09-3.39-1.69c-.73.24-.61.76-.91,1.29s-1,1-3.47,1.3v-2.59c-1.27.09-1.77.17-2.16.18a6.21,6.21,0,0,1-1.49-.18c-.24.53-.44,1-.66,1.39a7,7,0,0,1-.8,1.2v1.72a9.87,9.87,0,0,1-1.35-4,24.72,24.72,0,0,1-.11-3.79c-2.14-.18-3.64-.6-4.77-.54s-1.88.57-2.52,2.27a3.56,3.56,0,0,1-.48-1c-.07-.3-.12-.72-.25-1.62l-2.19-.43-2.19-.43-.73.86-.73.87c-1.93-.92-3.78-2.4-5.5-3.12a3.42,3.42,0,0,0-4.72,1.39,13.27,13.27,0,0,1-1.19-1.62c-.36-.59-.69-1.21-1-1.84a10.46,10.46,0,0,0-1.67.37c-.39.12-.69.27-1.25.5,0,2.56-.13,5.29,0,7.74a13.64,13.64,0,0,0,1.44,6.08v2.59a19.72,19.72,0,0,0-2-1.39c-.63-.27-1.3-.22-2.33.53h-1.46a24.6,24.6,0,0,0,1.7-7.77c.11-2.43-.09-5-.24-8.65-2.71-.27-5.07-.87-6.94-.78s-3.25.88-4,3.37h-.73v-4.31c-2.33-.12-3.3-.74-4-1.45a6.67,6.67,0,0,0-2.54-2,3.71,3.71,0,0,0-3.24.64c-.93.57-1.64,1.22-1.87,1.09l-.36-1.3-.36-1.29c-2-1.25-4.23-1-6.18-.89s-3.66.1-4.77-1.7a6.27,6.27,0,0,0-2.22,1.31,9.26,9.26,0,0,0-1.43,2.14,5.32,5.32,0,0,1-.63-2.16,25.2,25.2,0,0,1-.1-3,18.32,18.32,0,0,0-4-.68,11.37,11.37,0,0,1-4-1.05c-.24.57-.49,1.15-.73,1.73s-.48,1.15-.73,1.73h-2.19c-.15-.89-.19-1.31-.27-1.62a3.55,3.55,0,0,0-.46-1,7.5,7.5,0,0,0-4.23-3.35c-2-.65-4.08-.48-5.26,1.62a3.6,3.6,0,0,1-.47-1c-.08-.31-.12-.72-.26-1.62a4.84,4.84,0,0,1-2.36-.87,5.25,5.25,0,0,0-1.29-.86c-1-.24-2.37.3-4,.62a7.62,7.62,0,0,1-5.46-.62v-1.73c-1.68-.5-1.82.15-2,.6s-.47.7-2.36-.6c-.35.77-.59,1.13-.8,1.55a9,9,0,0,0-.66,1.91c-1.43-1.05-3.32-2.1-5.18-3.22a25.84,25.84,0,0,1-5-3.69,3.13,3.13,0,0,0-1.46,2.21,26.64,26.64,0,0,0,0,3.84,8.25,8.25,0,0,1-.8-1.63c-.25-.63-.46-1.28-.66-1.83a9.88,9.88,0,0,0-1.88.47c-.3.17-.46.47-1,1.26h-2.2c.25-.54.45-1,.67-1.4a7,7,0,0,1,.79-1.19V283l-2.18-.43-2.19-.43c-.12,0-1.21.67-2.28,1.31l-2.1,1.28-.73-.87L430,283c-.41,0-.91.45-1.52.77a2.16,2.16,0,0,1-2.13.1l-.36-1.3c-.13-.43-.25-.86-.37-1.3-1.41-.92-3.87-1-6.38-1s-5.09,0-6.75-.73l-1.1-1.3-1.1-1.3a6.34,6.34,0,0,0-2.17,1.06,1.94,1.94,0,0,1-2.21-.19c-1.21-.6-1.58-.67-1.64-.87s.18-.56.18-1.72c-4,.18-5.06.73-5.5,1.61s-.27,2.09-1.79,3.57c-.18.17-1.11-.33-2.17-.83a6.25,6.25,0,0,0-2.94-.9,6.87,6.87,0,0,1-3-.48,5.62,5.62,0,0,0-2.88-.38c-.23.06-1.41.64-2.67,1.24a25.74,25.74,0,0,1-3.17,1.35,3.82,3.82,0,0,1-3.12-.43,13.93,13.93,0,0,0-2-1.3l-9.48-.43-9.49-.43a46.48,46.48,0,0,1-4.9-2.25,36,36,0,0,0-4.59-2.07,2.56,2.56,0,0,0-2.71.83c-.68.61-1.3,1.23-2.39.9-.1,0-.69-.64-1.33-1.25a9.18,9.18,0,0,0-1.59-1.35,30.79,30.79,0,0,0-7.37-1.43c-2.42-.21-4.7-.22-6.5-.29l-.37-.44-.36-.43c-1.78.49-1.77,1.42-1.86,2.2s-.29,1.39-2.52,1.26a20.43,20.43,0,0,0,1.27,3.7c.28.77.25,1.31-.54,2.34.57.78.73,1.09,1,1.27a8.1,8.1,0,0,0,1.89.46,26.92,26.92,0,0,0-.23,3.8,8.69,8.69,0,0,0,1,4,5.51,5.51,0,0,0,2.79,1.81,2.57,2.57,0,0,0,2.32-.95,16.62,16.62,0,0,1,2,4.44,5.3,5.3,0,0,0,3.13,3.34c-.54,1.07-.5,1.33-.61,1.4a10,10,0,0,0-1.58.32c.27,2.49.78,3.8.79,4.8s-.49,1.7-2.25,3c.78,2.69,3.09,4.69,5.69,6a16.42,16.42,0,0,0,7.44,1.79c-.66,1.25-.91,1.46-.95,1.8s.1.78.22,2.51a20.3,20.3,0,0,1-2-1.52,9.52,9.52,0,0,1-1.66-1.93,8.44,8.44,0,0,1-1.38.24c-.08.07.06.36-.08,1.49-4.17,0-6.22,1-7.94,2.24s-3.11,2.73-5.93,3.8a7.27,7.27,0,0,1-.78,2,6,6,0,0,0-.68,1.45,9.83,9.83,0,0,0,.53,5.16c.46,1.48.85,2.82.2,4.34.08,4.09,1.34,5.8,3.22,6.71s4.4,1,7,1.93c-.85.61-3.12,1-5.42,1.15a17.38,17.38,0,0,1-5.52-.29,17.35,17.35,0,0,0-.48,1.84,20.3,20.3,0,0,0-.25,2.48,8.57,8.57,0,0,0-2.21-.69,2.9,2.9,0,0,0-2.17.69,22.87,22.87,0,0,1-2.07-4.49,11.53,11.53,0,0,0-2.31-4.15,10.14,10.14,0,0,0-3.29-1.75,10.68,10.68,0,0,1-3.28-1.7h-.72a64.42,64.42,0,0,0,.22,8.39,13.94,13.94,0,0,0,2,6.3,2.68,2.68,0,0,1-.82.55,12,12,0,0,1-1.36.31c.14.89.18,1.3.26,1.61a3.35,3.35,0,0,0,.47,1c.37.65,1.79,1.32,3.22,1.82a11.71,11.71,0,0,0,3.34.77,9.33,9.33,0,0,1,2.47,3,9.25,9.25,0,0,0,2.64,3.06,2.25,2.25,0,0,0,1.16.42,7.83,7.83,0,0,1,1.76.44c.41-.9.86-1.83,1.34-2.71a19.35,19.35,0,0,1,1.58-2.47c.24-.75.27-1,.32-1.1a5,5,0,0,1,.41-.63v1.73a4.89,4.89,0,0,1,.06,3,7.79,7.79,0,0,1-1.52,3,17.46,17.46,0,0,0,.31,2c.1.45.23.82.42,1.47A11.51,11.51,0,0,0,327,370c.59-.2,1-.6,1.61-1.48a13.27,13.27,0,0,1,1.19,1.62c.36.59.69,1.21,1,1.84h1.46a18.81,18.81,0,0,0-.21-3.28,3.92,3.92,0,0,0-1.25-1.9,8.89,8.89,0,0,1,.76-2.65,8,8,0,0,1,1.43-1.67c.24.53.44,1,.66,1.39a7.58,7.58,0,0,0,.8,1.2c.63.44.63.44.65.34s.08-.33.81-.34c.2.65.33,1,.44,1.46a18.63,18.63,0,0,1,.29,2,7.09,7.09,0,0,0,.8-1.19c.23-.41.42-.86.66-1.4a4.11,4.11,0,0,1,1.46,1.3,3.92,3.92,0,0,0,1.46,1.29,23,23,0,0,0-2.67,3.61c-.63,1.27-1,2.92-1,5.9a7.23,7.23,0,0,0,2.85-.6,5.29,5.29,0,0,0,1.53-2,4.53,4.53,0,0,1,1.26.8,9.53,9.53,0,0,0,.93.93c.23.75.27,1,.32,1.1a3.94,3.94,0,0,0,.41.63v-1.73a2.9,2.9,0,0,0,.15-2.32,6.11,6.11,0,0,0-1.61-2,9.51,9.51,0,0,1,.67-1.9c.21-.43.44-.79.79-1.55L345,369l.37-.44a3,3,0,0,1,.45,1.67c-.06.41-.26.84-.45,1.79a7.68,7.68,0,0,0,2.11,1,13.32,13.32,0,0,0,2.27-.14c-.28,1.34-.57,2.31-.83,3.32a21.67,21.67,0,0,0-.63,3.59c1.85.21,2.68.48,3.17,1.11a12.26,12.26,0,0,1,1.21,3.21,12.52,12.52,0,0,0,3.17-.18,3.52,3.52,0,0,0,1.94-1.54h.73v3.45h2.18a17.06,17.06,0,0,0,.82,3.74,14.74,14.74,0,0,1,.64,4h2.19a26.72,26.72,0,0,1,.3-4,7.29,7.29,0,0,1,1.16-2.88V385H368a21.91,21.91,0,0,0-1.22,3.31,4.83,4.83,0,0,0,.49,3.6c.5,1.18.9,1.44,1.42,1.49a6.19,6.19,0,0,1,2.23.24,17.09,17.09,0,0,1-.77,3.06,3.09,3.09,0,0,0,0,2.12v3.46a8.23,8.23,0,0,0,2.43-2.77c.7-1.14,1.33-2.37,2-3.28H376a12.48,12.48,0,0,1-.53,1.62c-.13.25-.34.39-.93,1a8.55,8.55,0,0,0,1.76,4.45,11.29,11.29,0,0,0,3.35,2.46l.36.43.37.44c.2-.66.32-1,.43-1.47a15.5,15.5,0,0,0,.3-2,13.13,13.13,0,0,1,2.75,2.9,2.16,2.16,0,0,0,3.09.56,3.57,3.57,0,0,1,1.43,1.39c.25.48.39,1.08.76,2.06,6.94,1.41,16.17,2.82,25.61,4.47a242.87,242.87,0,0,1,26.93,5.9l3.28-.86,3.29-.87a74.28,74.28,0,0,1,8.93,3.08,25.69,25.69,0,0,1,7.85,4.7c.06.33.67-.77,1.69-1.84s2.45-2.09,4.15-1.62c3,.85,4.1.91,5.06.51a36.35,36.35,0,0,1,4.43-2.23,11.19,11.19,0,0,1,6.32-.45c1.91.37,3.66,1,5.35,1.31h6.57l1.1,1.3,1.09,1.29c3.56,1.11,7.88-.22,12.07-1.81s8.25-3.44,11.28-3.37a14.07,14.07,0,0,1,2.52.7,5.76,5.76,0,0,0,3.32.16c.21-.06,1.17-.52,2.15-.95a7.6,7.6,0,0,1,2.23-.77c.27.05,1.69.63,3.34,1.11a10.53,10.53,0,0,0,4.69.61c.18,0,1.37-.11,2.65-.25a11.84,11.84,0,0,0,3.18-.61s.33-.83.64-1.55.65-1.35.82-1a46,46,0,0,0,22.11,2.48A76.12,76.12,0,0,0,592,413.46a2.35,2.35,0,0,1,2.14.13,5.32,5.32,0,0,0,1.51.74c1.36.12,2.83.21,4.35.22V335.67Z"/><path class="cls-2" d="M592.74,538.73v2.6c-1.86-1.11-5.88-1.32-10-1.69s-8.29-.9-10.45-2.63a7.86,7.86,0,0,0-2.72.45,8.49,8.49,0,0,0-1.66,1.27c-.37.45-4.92-1.91-9.75-3.21s-9.94-1.52-11.42,3.21H546c.14-.89.18-1.3.26-1.61a3.35,3.35,0,0,1,.47-1v-3.46a5.43,5.43,0,0,0-2.46,2.19,5.92,5.92,0,0,1-1.92,2.13c-2.72,1.47-5.34,1-7.52,1s-3.91.6-4.89,4.19c-2.71-1.82-5-3.7-7.35-5a13,13,0,0,0-8-1.87,7.76,7.76,0,0,1,.56-2.13c.18-.32.41-.51.9-1.33l-.36-.43c-.12-.15-.25-.29-.37-.43a9,9,0,0,0-2.83,2.2,8,8,0,0,1-3,2.12l-.36.43c-.12.14-.24.29-.37.43v-.86c-.89-.51-.91-.95-.52-1.48s1.21-1.14,2-2a12.69,12.69,0,0,0-1.71-5.37,9.75,9.75,0,0,0-3.4-3.27,8.4,8.4,0,0,0-2.23-.44c-1-.09-2-.08-2.14.21v.23a.24.24,0,0,1,0-.13.18.18,0,0,1,0-.1v-3.23a7.62,7.62,0,0,0-3.07-2.82,17.15,17.15,0,0,1-3.5-2.36h-.73v-.86c1.19.53,2.42.93,3.55,1.43a8.63,8.63,0,0,1,3,2,6.66,6.66,0,0,0,3.25-.65,15.66,15.66,0,0,0,1.86-1.94c.62-.53,1.61,0,2.77.67a13.73,13.73,0,0,0,3.8,1.92,8.65,8.65,0,0,0-1.5-3.93,27.93,27.93,0,0,1-2.15-3c-1.19.2-2.19.56-3.12.68a3.35,3.35,0,0,1-2.72-.68,6,6,0,0,1-2.59-3.52,21.81,21.81,0,0,1-1.06-5.12c-.63.28-.81.32-.92.38s-.17.14-.54.48h-3.65c.37-.57.73-1.15,1.1-1.73l1.09-1.72c-1.15-.84-1.88-1.62-2.78-2.23a7.52,7.52,0,0,0-3.79-1.23c.13-.43.25-.86.37-1.29l.36-1.3a10.07,10.07,0,0,0-1.7.66,5,5,0,0,0-1.22,1.07,4.71,4.71,0,0,1-.41-.64c-.05-.13-.09-.34-.31-1.09h-1.46c1.31-.69,1.75-2.44,2.28-4.44s1.16-4.24,2.82-5.93a25.71,25.71,0,0,0-.23-3,14.74,14.74,0,0,0-.5-2.23,7.29,7.29,0,0,1-1.57.33c-.12.06-.08.3-.61,1.4a11.78,11.78,0,0,1-1-1.78,6,6,0,0,0-1.16-1.68,2.68,2.68,0,0,0-1.92.08,6.33,6.33,0,0,0-1.73.79,3.29,3.29,0,0,1-1.36-1.95,8.55,8.55,0,0,0-.83-2.37c-.44-.45-.6-.49-.85-.51a3.5,3.5,0,0,1-1.34-.35l-1.83,2.16c-.6.72-1.21,1.43-1.82,2.15v.87a11.19,11.19,0,0,1-.74-2.59,11.33,11.33,0,0,0-.72-2.59v-1.73l-1.82,1.29L468,472.2c.15.89.19,1.31.27,1.62a3.52,3.52,0,0,0,.46,1v1.73l-2.19-.87-2.19-.86-.36,1.3-.36,1.3L461,477l-2.55-.43-.73.86-.73.87-1.1-1.3c-.36-.43-.73-.86-1.09-1.3-.25.54-.44,1-.67,1.4a7,7,0,0,1-.79,1.19c-.23.47-1.06-.08-2.14-.8a10.32,10.32,0,0,0-3.7-1.79c0-1.18,0-2.16-.11-3a5.42,5.42,0,0,0-.62-2.16v-1.73H444.6v2.59c-3.6,1.95-7.09,3.18-9.94,5a13.45,13.45,0,0,0-6.12,8.78h-1.45a25.55,25.55,0,0,1,.1-4.22,4.72,4.72,0,0,1,1.35-2.69v-2.59a21.17,21.17,0,0,0-4.2.75c-1.61.35-3.16.6-3.82.12h-1.46l.73-.87.73-.86c-.18-1.88-.24-2.74-.59-3.24s-1-.64-2.33-1.08c.49-1.2.95-2.1,1.33-3.11a15,15,0,0,0,.86-3.8H422v-.87a3.6,3.6,0,0,0,.47-1c.08-.31.12-.72.26-1.62h-2.19c.64-1.65.78-2.23.68-3s-.41-1.63-.68-3.94h-2.19a10.77,10.77,0,0,0-.38,2.09,3.45,3.45,0,0,1-.35,1.37c-.32.42-.49.31-.87,0a4.46,4.46,0,0,0-2.05-.91c-.13-.86-.25-1.72-.37-2.59L414,450.6h-2.19c-.2.66-.33,1-.44,1.47a15.69,15.69,0,0,0-.29,2c-.76-.49-1.09-.82-1.52-1.07a6.31,6.31,0,0,0-2.13-.66v3.45l-1.1-1.29-1.09-1.3H403c.19,2.18.11,3.93.38,5.44a6.07,6.07,0,0,0,2.54,4.06v1.73a15.58,15.58,0,0,1-2-.67,5.4,5.4,0,0,1-1.62-1.06,3.32,3.32,0,0,1-.47-1c-.08-.31-.13-.72-.26-1.62-2,.35-2.56.69-3.09.67s-1-.41-2.75-1.53l-.73.86-.73.86c.24.75.27,1,.32,1.1a5,5,0,0,0,.41.63v1.73h-.73a8.36,8.36,0,0,0-1.11-2.62,7.91,7.91,0,0,0-1.81-1.7v-2.59a4.85,4.85,0,0,0-3,1.65,9.16,9.16,0,0,0-1.34,3.53l-1.09-.86-1.1-.87-.36.44c-.12.14-.25.28-.37.43.74,4.28,3.25,7,5.87,9.36s5.37,4.31,6.54,7.05a3.6,3.6,0,0,0,1.58-1.62,13.47,13.47,0,0,0,.61-2.7c.45.29.83.53,1.18.79a6.23,6.23,0,0,1,1,.94h3.65l-.37-.43-.36-.44c.53-1.07.49-1.32.61-1.4a9.08,9.08,0,0,0,1.58-.32v-4.32a8.19,8.19,0,0,1,3.63,2.67,14.69,14.69,0,0,0,3.67,3.38,6.71,6.71,0,0,1-1.28,1.5,10.81,10.81,0,0,1-1.64,1.09,13.09,13.09,0,0,0,2.5,7.92c1.36,1.85,3.1,3.37,4.79,5.9a8,8,0,0,0,2.7-.75,5.1,5.1,0,0,0,1.68-1.84h.73a11.37,11.37,0,0,1-1,3.12,6.73,6.73,0,0,1-1.88,2.06,12.75,12.75,0,0,0,2.41,4c.71,1,1.1,2.14.51,4.61a12,12,0,0,0,3.91.35,4,4,0,0,1,3.39,1.38,3.4,3.4,0,0,1,.66,1.77c.1.57,1.42,3.48-1,5.57-.6.72-1.21,1.45-1.82,2.16l-3.65-.43-3.65-.43a4.34,4.34,0,0,0-1,1.61,6.56,6.56,0,0,1-1.14,1.84v.87c-2.6-2.58-5.72-5.93-9.17-8.79s-7.27-5.24-11.27-5.9v-2.59a19.17,19.17,0,0,1-3.06-3.73,16.87,16.87,0,0,1-2.05-4.91,4.53,4.53,0,0,0-1.26.8,9.53,9.53,0,0,1-.93.93l-.73-.86c-.24-.29-.48-.58-.73-.86v-3.46a22.23,22.23,0,0,0-2.3-.25c-.27.06-.38.35-1.35,1.11-1.79-1.91-2.25-2.65-2.76-2.76s-1.07.41-3.08,1a26.08,26.08,0,0,0-3.3-2.55,14.43,14.43,0,0,0-4-1.77c-.25.54-.45,1-.67,1.4a7,7,0,0,1-.79,1.19l-.37.44-.36.43c-.2-.66-.33-1-.44-1.47a15.76,15.76,0,0,1-.29-2,92.18,92.18,0,0,1-10.83-.3c-4.31-.32-8.29-.84-8.88-1.43h-1.46a20.7,20.7,0,0,0-.26,2.59,26,26,0,0,0,.26,2.59,19.57,19.57,0,0,0-4.43-2.73,8,8,0,0,0-4.32-.73h-1.46a16.3,16.3,0,0,0,.39,2.23c.15.36.4.55,1.07,1.23v2.59c-.54-.38-1.06-.77-1.55-1.19a10.67,10.67,0,0,1-1.37-1.4H334.4c-.2,1.19-.23,1.81-.29,2.25a2.72,2.72,0,0,1-.44,1.21v4.32h-.73c-.25-.54-.44-1-.67-1.4a7,7,0,0,0-.79-1.19v-.87l-.73.87c-.25.28-.49.57-.73.86a9.57,9.57,0,0,1-.73-1.3,8.85,8.85,0,0,0-.73-1.29l-.37-.44-.36-.43v.87a2.61,2.61,0,0,0-1.28,2.37,6.07,6.07,0,0,0,1.28,2.81c-.24.75-.27,1-.32,1.09a4.11,4.11,0,0,1-.41.64c-.12.14-.24.29-.37.43l-.36.43a13.68,13.68,0,0,0-2.06-3.61,10.85,10.85,0,0,0-3.05-2.43,6.17,6.17,0,0,0,1,4.36,13.29,13.29,0,0,1,1.94,5.14,19,19,0,0,0-2.55.13,3.77,3.77,0,0,0-1.83.73,7.11,7.11,0,0,1-.91-3.62,7.37,7.37,0,0,0-.55-3.29v-.86c-.91.63-1.12.58-1.18.72s0,.47-.28,1.87h-2.19v3.45a5.13,5.13,0,0,1-2.72-2.07c-.57-.85-1-1.89-1.66-3.11h-1.45a23,23,0,0,0,1,4,7.57,7.57,0,0,0,1.91,2.92v1.73a73,73,0,0,0-7.26-3.41,8.54,8.54,0,0,0-6.6-.05,16.61,16.61,0,0,1-.48-1.83,18.65,18.65,0,0,1-.25-2.48,13.55,13.55,0,0,0-5.28-.93,9.46,9.46,0,0,0-4.21,1.79c-.45-.88-.56-1.29-.79-1.6a3.86,3.86,0,0,0-1.4-1c-.77-1-1.4-.5-2,.33s-1.11,2-1.67,2.26a5.62,5.62,0,0,1-2.54-.29,17.46,17.46,0,0,0-3.3-.57c.12.72.25,1.43.37,2.15l.36,2.16c.63-.27.81-.31.93-.38a3.53,3.53,0,0,0,.53-.48h2.92a14.65,14.65,0,0,0-.47,1.84,18,18,0,0,0-.26,2.48,80.22,80.22,0,0,1,11.17,3.17c4.54,1.57,8.89,3.39,10,4.6a8.26,8.26,0,0,1,1.37-.24c.08-.07-.05-.35.09-1.48h3.65c-.15.88-.19,1.3-.27,1.61a3.55,3.55,0,0,1-.46,1l.36,1.29c.12.44.24.87.37,1.3,1.27.44,2.54,1.24,3.77,1.74a3.53,3.53,0,0,0,3.52,0,8.23,8.23,0,0,1,2.83,2.5,10,10,0,0,1,2.28,4.42c1.86-.25,3,.57,4.27,1.14s2.73.92,5.22-.28c.44,1.38.56,2.38.88,3.18a3.59,3.59,0,0,0,2,2,6.23,6.23,0,0,1-1,.94,12.72,12.72,0,0,1-1.18.78v2.59c2.36.58,6.28,1.18,9.84,2.2s6.75,2.46,7.67,4.72a6.08,6.08,0,0,0,2.13-1.4,6.2,6.2,0,0,1,1.52-1.2,2.13,2.13,0,0,1,2.11.42c.51.37.92.75,1.54.45,1.18-.72,1.67-1.15,1.81-1.73a7.77,7.77,0,0,0-.35-2.59,26.76,26.76,0,0,1,7.74,2.27,34.26,34.26,0,0,1,6.86,3.77l.36,1.3.36,1.29a1.63,1.63,0,0,0,2.18,0,1.6,1.6,0,0,1,2.2,0c.75.58,1.09,1.85,1.44,3.09s.7,2.47,1.48,3h5.11c1.46.73,2.92,2.79,4.56,4.28s3.47,2.42,5.66.91c1.18.85,2.26,2.81,3.51,4.55s2.67,3.26,4.52,3.22,4.23-1.19,6.63-2.19,4.89-1.84,7.24-1.26a55.83,55.83,0,0,1,6.94,2.51,23.41,23.41,0,0,0,7.65,1.81,19.79,19.79,0,0,0,.27,2.48,14.85,14.85,0,0,0,.46,1.83,35.29,35.29,0,0,1,13.77,2c3.63,1.31,6.92,3.11,11.77,4.88,2.47.91,4.81.73,7.28.63a17.93,17.93,0,0,1,8.05,1.1,30.12,30.12,0,0,1,4.24,2.58,25.52,25.52,0,0,0,4.52,2.61,30.92,30.92,0,0,0,9.17,1.3c3.33.11,6.64.08,9.07.42s6.29-.77,10-2,7.34-2.75,8.92-3.13l2.92.43,2.92.43c9.86-2.81,22.84-4,35.53-3.85s25.1,1.82,33.8,4.72a20.68,20.68,0,0,0,6.84.66H600V537.12C598.19,537.38,596.25,537.87,592.74,538.73Z"/><path class="cls-2" d="M0,0V143.38l.06,0H.79c2.82.44,5.43-1.79,8-.86,1.74.62,2.65,3.35,5.84,2.59,2.8-.67,2.07-2.25,5.84-1.73,1.28-3.3,2.55-4.37,5.1-6-.9-1.93-11-9.62-13.13-10.36v-2.59c5.18.67,4.52,4,8,6,1.57.87,2.32-1.38,3.64-.86.63.24,3,3.22,3.65,3.46,1.52.56,21.27-3.43,23.36-5.19,5.19-.15,5.13-2,8-4.32.06-5.66-1.2-6.06-1.45-13-4.22-.26-10.5-2.84-12.41-1.72h-.73c.24-.58.49-1.16.73-1.73-1.39-.77-3.9-3.16-5.11-3.46-4-1-8.6,1.48-12.4-1.73-.25-1.15-.49-2.3-.73-3.45-1.87-1.22-8.24,2.51-12.41-1.73h-.73V95.9h2.92c.24-3.08,0-2.88,1.46-4.32.2-.29,3.79.6,5.1,1.72h1.46c.25-1.44.49-2.87.73-4.32,4.61.45,7.22,3.67,10.22,5.19l9.49-.87c.48,1.16,1,2.31,1.46,3.46,3.17,0,10.15,1.45,13.13-.86,2,1,2.07,1.82,4.38,2.59-.64,2-.27,1.42-1.46,2.59v1.73c6-.16,8.5-3.37,12.41-4.32l8,.86c.51-.27,7.12-7.57,8-8.64,5.81.84,17,4.13,19,3.46a3.45,3.45,0,0,0,2.19-3.46c2.84-2.22,6.36-1.72,9.48-3.45,1.78-1,3.54-4.34,5.11-5.19,7.53-4,12.47,3.29,19-2.59,4.46-2.88,5-11.06,8-13.82,2.49-2.28,5.65-.76,8.75-2.59L165,59.61c3.2-2.42,11.13-5.49,14.6-6.91,8.34-3.4,16.23,1.79,21.89,3.46l7.3-.87c3.31,1,11.9,1.52,13.13,2.6.25.86.49,1.72.73,2.59,5.8,3.23,11-4.32,16.06-.87,5.18.21,5,2.93,6.57,6.92,11.46.46,18.19,2.91,26.27,4.32.29,1.77.18,1.66.73,2.59v.86c-2.31-.51-5.5-.79-6.57,0h-1.46c.7,3.48,1.94,4,5.11,4.32-3.48,2.5-16.82-.34-18.24-2.59-1.1,1.59-1.36,3.12-1.46,6a9.22,9.22,0,0,0-3.65-.86,18.07,18.07,0,0,1,1.46-3.45v-.87c-6.92.54-5.09,4.26-8,6-1.77,1.08-4.53-.14-5.84.86-.55.93-.46.8-.73,2.6l4.38.86c-.29,1.77-.18,1.66-.73,2.59a14.22,14.22,0,0,1-1.46,3.46c-3.35.75-13.22-.79-15.32,0-3.28,1.23-7.35,5.63-10.22,7.77,1.89,3.43,4.11-.21,7.3,1.73.49,1.15,1,2.3,1.46,3.46,3.18,2.25,8.7,1,11.68.86,3.13-.1,4.29,3.37,8.75,3.46a14.2,14.2,0,0,0-.73-3.46l3.65-4.32c1.85.09,2.7.11,3.65.86h1.46a16.81,16.81,0,0,1,0,6.92c1.26.55.71.17,1.46.86,2.28-.62,1.53-.57,2.92-1.73,1.14-.08,1.09,1.31,2.92,1.73,3.39.79,5.45-1.16,8.75-1.73,2.58-.45,4.32,1.48,5.84,1.73,1.67.27,2.08-1.48,2.92-1.73,2.8-.82,3.84,1.32,5.11,1.73,3.53,1.14,6.38-2.07,8.76-2.59,6.06-1.35,17.29,6,20.43,4.32.57-1.23-.09-1.51-.73-3.46a7.16,7.16,0,0,0,2.92-2.59l3.65.86c.94,3.07.71,8.92,2.19,12.1,2.25,4.82,7.59,6.58,11.67,9.5,3.37,2.41,4.91,8.64,8,11.23l3.65.86L346,152.92h5.84l4.37,5.18c1,.52,2.34-2.37,4.38-1.73,1.18.37,2.72,2.8,3.65,3.46,1.89,1.32,3.64.4,5.84,1.72,4.74,2.86,6.91,7.49,10.22,12.1,1,.79,4.08,1,5.1,1.73l2.19.86c-.24,2.59-.48,5.19-.73,7.78,4.17-.58,4.5-3.23,7.3-4.32,4.1-1.6,8.49,1.9,10.95,2.59,4.28,1.19,10.23-.74,15.32-.86v-2.6c2,1.52,1.72,2.32,3.65,0,9.9,1.28,8.68,17.18,13.87,24.19,1.17,2.47,3.49,2.49,5.11,4.32v1.73h3.64c.49,1.15,1,2.3,1.46,3.46,2.81,1.7,8.67.07,11.68,1.72,1.3.72,3.4,3.7,5.11,4.32,3.19,1.17,5.68-1.27,7.29-1.72,4.9-1.4,9.16,2.08,11.68,3.45l8-.86,2.92,3.45c2.17.84,2.23-1.59,2.92-1.73,2-.38,2.41,2.4,3.65,2.6C503.23,224,505,221,508,222c2.35.8,7.47,3.14,11.68,4.32h18.25c6,1.76,17.1,6.7,21.89,0,5.77.63,5.88,8.53,8.76,13,3.37,5.18,8.31,6.66,13.13,10.36,3.33,2.55,5.21,9.55,6.57,12.1l.73.86c.34,0,.22-.78,1.46,0,1.06.66.8,2.08,1.46,2.59h3.65c1,2,1.94,4,2.92,6a5.72,5.72,0,0,0,1.51,1.11V0Z"/><path class="cls-2" d="M92.09,125.27V127c7.85,4.53,10.85,1.27,16,8.64,1-1.51,0-1.46.73-2.6,3.78-6.92,11.76-1,17.52-6,.3-.59.64-5,.73-7.78,2.75,1.19,3,3.92,5.1,5.18,4.33,2.65,9.11.9,13.14,1.73,2.59.54,4.63,3.49,6.57,4.32l17.51.87c9.52,2.59,35.41-1,41.6-4.32a12.53,12.53,0,0,0,.73-3.46c-3.65-.07-10.75,2.79-13.14,1.73-1.45-.65-4-4.81-5.1-5.18-1.85-.62-1.46,1.42-2.19,1.72-1.91-.49-5.06-.71-7.3-1.72-4.45-2-7.82-8.57-10.95-10.37-2.79-1.62-6.13-.77-8.76-2.6l-3.65-5.18c-3-2.43-9.21-5.63-12.4-6.91-4.45-1.79-9.55,1.68-13.14.86-4.25-1-8.07-3.59-11.67-4.32-7-1.4-13.11,4.54-20.44,5.19v1.72c2.84-.1,7.07-.46,8.76.87,3.7.46,3.58,1.68,5.84,3.46-1.32,3.41-.21,7.72,1.46,13l-2.92,3.46c-4.27-.61-9.56-1.92-13.14-2.59.64,2.78-.39,1.33,1.46,2.59v.87c-5-.89-4.35-5.15-8-6.92-4.95-2.38-12.37.13-17.51.87A50.76,50.76,0,0,0,82.6,124.4C87,128.48,89.86,124.15,92.09,125.27Z"/><path class="cls-2" d="M600,762.88l-1.07-.27c-4.32-1.08-8.28-1.91-8.38-1.85-1-.36-1-.44-.91-.61s.19-.41-.55-1.12c-1-.62-4.43-1.53-8-1.71s-7.26.34-8.79,2.57a23.57,23.57,0,0,1-1.56-3.5c-.48-1.27-.92-2.53-1.36-3.41a6.33,6.33,0,0,0-2.35.76,5.89,5.89,0,0,0-1.29,1.84,7.54,7.54,0,0,1-.69-1.8,4.08,4.08,0,0,0-.77-1.66,3.51,3.51,0,0,0-2.62-.35c-.93.14-1.72.39-1.76.35A2.86,2.86,0,0,1,559,750c-.09-.52-.36-.92-2-1.37v2.6a9.77,9.77,0,0,0-5.71-1.57c-1.59,0-2.87.29-3.78-.16-.48-.58-1-1.15-1.46-1.73l-1.46-1.73c-4.14-2-6.59-2.35-8.51-3.56s-3.32-3.24-5.35-8.53h-2.92v2.59l-2.56-.43-2.55-.43c-.2-.66-.33-1-.44-1.47a16,16,0,0,1-.29-2,7.22,7.22,0,0,0-2,1.09,4.06,4.06,0,0,1-.9.64c-.9.64-1.24.91-1.37,1.42a24.7,24.7,0,0,0-.09,2.9h-.73c-.32-.92-.61-1.88-1-2.78a8.91,8.91,0,0,0-1.24-2.4v-.87c-.93.55-1.33.77-1.56,1.18a10.19,10.19,0,0,0-.63,2.28h-2.92c.25-.54.45-1,.67-1.4a7,7,0,0,1,.79-1.19c-.14-.89-.19-1.31-.27-1.62a3.14,3.14,0,0,0-.46-1,5.79,5.79,0,0,0-1.6-.89,17.3,17.3,0,0,0-2.77-.83v2.59a6.85,6.85,0,0,0-2.81-.1,5.5,5.5,0,0,0-2.3,1.83h-.73l.36-2.17c.12-.72.24-1.43.37-2.15a37.21,37.21,0,0,0-4.68,1.35c-1.32.39-2.31.47-2.62-.49a6.87,6.87,0,0,0-.91,1.91A18.91,18.91,0,0,0,492,734l-1.83.43-1.82.43v-4.32H484a20,20,0,0,0,.31,2c.1.45.23.81.42,1.47l-.36-.43c-.12-.15-.24-.29-.37-.43-1.77.27-2.41.6-2.84,1.12s-.64,1.25-1.53,2.33c-.64.58-.95.6-1.22.57a1,1,0,0,0-1,.29c-1.55-.6-1.94-.62-1.94-.91A8.91,8.91,0,0,0,476,734l-.37-.44-.36-.43c-1.16-.08-2.8-.08-4.15-.06s-2.42.06-2.42.06c-2.08.24-2.88.64-3.4,1.31s-.76,1.64-1.71,3c-.7.4-.83.48-1,.43a3.65,3.65,0,0,0-1.19-.43l-.36.44-.37.43a10.79,10.79,0,0,0,.58,2.51c.21.51.48.9.88,1.81a22.06,22.06,0,0,0,4.41,0,8.72,8.72,0,0,0,2.89-1.7c.47,1.24,1.06,3.05,1.69,4.83a33.09,33.09,0,0,0,2,4.68v.86a6.52,6.52,0,0,0,2.07-3.19,19,19,0,0,1,1.58-3.72c.7-.4.83-.48,1-.43a3.65,3.65,0,0,0,1.19.43l.36-2.16c.12-.72.24-1.44.37-2.16a14.36,14.36,0,0,1,3.8,1.81,4.89,4.89,0,0,0,3.49.78v5.19c1-.5,1.38-.53,1.57-.74a9.23,9.23,0,0,0,.62-1.86,3.53,3.53,0,0,1,1.38,2.36,9.77,9.77,0,0,0,.81,2.83,7.56,7.56,0,0,0,1.82.87,7.88,7.88,0,0,1,1.83.86c1.09.79,1.43,1.45,1.41,2.23a16.49,16.49,0,0,1-.68,2.95,4.81,4.81,0,0,0,2.7-.24,14.81,14.81,0,0,0,1.68-.63c1.69.87,3.93,2.56,6.17,3.3s4.51.52,6.23-2.43a8.75,8.75,0,0,1,1.37.62,5.72,5.72,0,0,1,.82,1.1,2.68,2.68,0,0,1,0,2,21.74,21.74,0,0,0-.7,3.24,40.17,40.17,0,0,0,4.24,1c1.15.06,2.23-.35,3.79-1.9a2.81,2.81,0,0,0,.31-1.74,6.25,6.25,0,0,0-1-1.71V759h1.46c.19.92.35,1.7.56,2.4a7,7,0,0,0,.9,1.92,12.6,12.6,0,0,1-2.39,3.55,8.6,8.6,0,0,0-2,4.23,22.08,22.08,0,0,1-2-1.53,9,9,0,0,1-1.67-1.93c-3.4.06-4.57.41-5.31,1a15.84,15.84,0,0,1-2.71,2.46,15.78,15.78,0,0,1-2.07-.59,5.82,5.82,0,0,0-3-.28c-2.13.78-5.18,2.57-8.09,3.82s-5.68,1.93-7.24.5a13.12,13.12,0,0,0-2.09.32,12.13,12.13,0,0,0-1.56.54,14.58,14.58,0,0,0,2.57,6.45,10.49,10.49,0,0,0,4.73,3.92v.87A9,9,0,0,1,487,786a6.79,6.79,0,0,0-4.44-.22,2.52,2.52,0,0,0-1.27,1.64,4.91,4.91,0,0,1-.92,1.82L476,791l-4.38,1.73c.23.74.27.95.32,1.09a3.8,3.8,0,0,0,.4.63v.87l-1.82-.86-1.82-.87-.37.43-.36.44a29.42,29.42,0,0,1,1.62,4.51,5.94,5.94,0,0,0,.52,1H600Z"/></g><path class="cls-4" d="M186.62,657.39a10,10,0,1,1-10-10,10,10,0,0,1,10,10"/><path class="cls-5" d="M181.63,657.39a5,5,0,1,1-5-5,5,5,0,0,1,5,5"/><path class="cls-4" d="M190.74,273.71a10,10,0,1,1-10-10,10,10,0,0,1,10,10"/><path class="cls-5" d="M185.74,273.71a5,5,0,1,1-5-5,5,5,0,0,1,5,5"/><path class="cls-4" d="M515.33,532.84a10,10,0,1,1-10-10,10,10,0,0,1,10,10"/><path class="cls-5" d="M510.33,532.83a5,5,0,1,1-5-5,5,5,0,0,1,5,5"/><path class="cls-4" d="M247.28,100.35a15,15,0,1,1-15-15,15,15,0,0,1,15,15"/><path class="cls-5" d="M240,100.34a7.69,7.69,0,1,1-7.69-7.68,7.68,7.68,0,0,1,7.69,7.68"/><path class="cls-4" d="M330.53,528.2a10,10,0,1,1-10-10,10,10,0,0,1,10,10"/><path class="cls-5" d="M325.54,528.2a5,5,0,1,1-5-5,5,5,0,0,1,5,5"/><path class="cls-4" d="M325.32,346.12a10,10,0,1,1-10-10,10,10,0,0,1,10,10"/><path class="cls-5" d="M320.32,346.12a5,5,0,1,1-5-5,5,5,0,0,1,5,5"/><text class="cls-6" transform="translate(224.73 147.86)">SPLIT</text><text class="cls-7" transform="translate(247.47 379.78)">MILNA</text><text class="cls-7" transform="translate(113.52 314.09)">SOLTA</text><text class="cls-7" transform="translate(467.96 567.67)">VBORSKA</text><text class="cls-7" transform="translate(268.05 572.04)">HVAR TOWN</text><text class="cls-7" transform="translate(201.18 672.41)">VIS</text></g></g></svg>