<svg xmlns="http://www.w3.org/2000/svg" viewBox="0 0 759 1207"><defs><clipPath id="a"><path fill="#fff" stroke="#707070" d="M0 0h759v1207H0z" opacity=".736" transform="translate(140 1609)"/></clipPath></defs><g clip-path="url(#a)" transform="translate(-140 -1609)"><path fill="#fff" d="M24 1609h905v1207H24z"/><path fill="#8da9c4" d="M779.548 2398.343v-.349a.318.318 0 0 0-.051.157.378.378 0 0 0 .051.192zM208.314 1918.324a22.3 22.3 0 0 0 4.3 6.044 29.927 29.927 0 0 1 4.513 5.688 24.232 24.232 0 0 0 3.767-.41 15.352 15.352 0 0 0 2.841-.893l.549-6.518.552-6.515a12.033 12.033 0 0 0 3.52-1.192 16.543 16.543 0 0 1 3.085-1.414 124.465 124.465 0 0 0-4.087-14.433c-1.82-5.2-3.929-9.929-5.822-11.638a6.736 6.736 0 0 0-4.108-1.715 4.677 4.677 0 0 1-3.6-2.191c-3.627.065-6.51 1.157-9.246 2.011s-5.329 1.474-8.37.591a16.263 16.263 0 0 1-3.641-1.869 18.534 18.534 0 0 0-4.068-2.04 9.4 9.4 0 0 1-1.515 1.43c-.525.4-1.1.751-1.786 1.175.359 4.811 2.109 7.127 4.546 8.548s5.56 1.946 8.668 3.183a5.577 5.577 0 0 1-2.761 1.122 25.332 25.332 0 0 1-3.846.18c.183.653.367 1.3.549 1.955l.552 1.954c-3.558-2.245-6.934-4.492-10.213-5.053s-6.451.561-9.608 5.053c.235 3.209.745 5.182 1.628 6.67a12.991 12.991 0 0 0 3.877 3.76 2.726 2.726 0 0 1-2.266.89c-.507 0-.99.14-2.138 1.717a23.59 23.59 0 0 1-1.813-2.228 6.314 6.314 0 0 0-2.592-1.682c-.495 1.559-.9 3.28-1.387 4.893a13.655 13.655 0 0 1-1.916 4.229c-.961.88-1.426.9-1.832.858a1.52 1.52 0 0 0-1.473.445h-2.2a20.766 20.766 0 0 0 .794 2.449 8.665 8.665 0 0 0 1.409 1.463q-1.1 1.3-2.2 2.606t-2.2 2.609v2.606c3.386.816 6.907.981 10.3 1.512a19.429 19.429 0 0 1 9.52 3.7c2.636-.231 4.237-.608 5.341-1.551s1.712-2.459 2.366-4.967a18.758 18.758 0 0 1 4.656.489 6.589 6.589 0 0 1 3.051 2.117h5.505a31.218 31.218 0 0 0 .673-5.059 6.747 6.747 0 0 0-1.774-4.063 23.372 23.372 0 0 1 5.068-2.975 15.175 15.175 0 0 0 4.832-3.541zM107.465 1904.043a6.939 6.939 0 0 0 2.619 2.667c1.486.7 4.787.252 8.268-.309s7.144-1.239 9.348-.994l.551.652c.184.219.368.431.551.653a37.009 37.009 0 0 1-1.995 4.876 5.468 5.468 0 0 0-.208 4.244 9.559 9.559 0 0 0 1.343 3.84 22.3 22.3 0 0 1 1.96 2.68c2.5-.356 3.939-1.008 5-2.061a16.786 16.786 0 0 0 2.71-4.458 6.249 6.249 0 0 0 .011-3.586 4.289 4.289 0 0 1-.011-2.927c.748-1.788 1.127-2.609 1.817-3.06s1.694-.54 3.689-.851c-.8-1.893-2.458-3.007-4.054-4.068s-3.125-2.072-3.654-3.751a12.636 12.636 0 0 1 .009-4.348 14.913 14.913 0 0 0-.009-4.778 51.646 51.646 0 0 0-7.512 1.332c-1.839.33-3.194.22-4.6-1.332-3.392-.035-5.312.342-6.525 1.513s-1.72 3.149-2.284 6.308c-1.8-.272-4.5-.573-6.773-.818s-4.128-.435-4.237-.484a11.951 11.951 0 0 0-3.909.883 30.107 30.107 0 0 0-2.7 1.726l.551 3.254.551 3.26a14.942 14.942 0 0 0 3.312-.8 6.77 6.77 0 0 0 2.2-1.809 6.3 6.3 0 0 1 3.981 2.546zM378.426 2099.305l.551 1.957q2.752.328 5.5.65l5.505.655c3.236 2.847 2.96 5.8 3.8 7.859s2.8 3.253 10.513 2.566l.551-3.909c.183-1.3.365-2.609.549-3.912h3.3c-.125 1.512-.18 2.429-.314 3.164a5.885 5.885 0 0 1-.788 2.052c-.026 4.081.222 6.383 1.041 7.98s2.206 2.491 4.464 3.748c.691.493.953.518 1.463.406a12.49 12.49 0 0 1 2.939-.406v-6.516c1.82 1.3 2.452 3.384 2.726 5.564s.19 4.464.578 6.166a13.167 13.167 0 0 0 3.858.816 3.891 3.891 0 0 1 2.747 1.792c1.691-1.189 2.808-4.206 3.493-7.7a54.819 54.819 0 0 0 .911-10.546h1.1c.8 2.088 1.546 4.547 2.408 6.88a22.949 22.949 0 0 0 3.1 6.154c.181.219.365.436.549.652l.551.652v-1.3c.551-.219 1.1-.435 1.651-.652s1.1-.433 1.651-.652a28.1 28.1 0 0 0-2.164-12.58c-1.486-3.609-3.533-6.934-5.543-10.885a30.43 30.43 0 0 1-4.23-1.756c-1.024-.355-1.738-.124-2.376 1.756-2.076-1.261-3.14-3.44-4.114-5.679s-1.865-4.546-3.594-6.05a7.126 7.126 0 0 0-2.83-1.308 6.034 6.034 0 0 1-2.673-1.3 18.674 18.674 0 0 1-1.737-3.891 31.9 31.9 0 0 1-1.565-6.534h-6.608v-1.31c.917-.428 1.836-.866 2.752-1.3s1.836-.866 2.753-1.3a12.323 12.323 0 0 0-2.993-5.842 22.061 22.061 0 0 1-3.612-4.584 15.555 15.555 0 0 1-1.693-6.712c-.139-2.283-.081-4.713-.51-7.625a34.675 34.675 0 0 0-4.418.122 6.423 6.423 0 0 0-3.289 1.18c-.533 1.05-.546 1.079-.422 1.323a5.121 5.121 0 0 1 .422 2.586c-.186-.216-.368-.433-.552-.652s-.368-.434-.551-.649c-3.174-3.2-3.055-4.585-2.476-5.941s1.616-2.689.273-5.792c-.893-2.065-2.953-3.229-5.136-4.268s-4.49-1.963-5.875-3.552c-.647-.741-3.143-5.917-5.6-11.252s-4.89-10.831-5.406-12.207h-3.3c-.017 2.871.629 5.7.819 8.511a12.963 12.963 0 0 1-1.921 8.432l-.549 1.3-.552 1.307a10.376 10.376 0 0 1-2.429-1.2c-.539-.377-1-.785-1.973-1.412a28.035 28.035 0 0 1-3.7 3.342 9.338 9.338 0 0 0-2.91 4.479h-2.2v-1.305h-1.1a26.045 26.045 0 0 1 2.224-5.158 14.561 14.561 0 0 1 3.281-3.965c-.43-2.474-.736-3.4-1.2-4.055s-1.071-1.05-2.106-2.461c1.669-.708 2.485-1.008 3.027-1.631s.806-1.578 1.377-3.585a8.073 8.073 0 0 0 .623-.946c.077-.2.13-.516.477-1.66-2.3-1.448-4.1-3.025-6.073-4.428a20.369 20.369 0 0 0-7.141-3.393 26.672 26.672 0 0 0-1.108 5.658 23.185 23.185 0 0 0 .017 4.765h-2.2v1.3a6.687 6.687 0 0 1-2.12-1.489 19.8 19.8 0 0 1-1.183-2.418c-.748-.75-.661-.913-.293-1.3a4.8 4.8 0 0 0 1.394-2.612c-.721-.335-1.8-.73-2.855-1.172a10.934 10.934 0 0 1-2.652-1.435h-1.1q.552-.649 1.1-1.3c.368-.438.733-.872 1.1-1.3-.922-4.371-1.628-4.612-2.713-4.291s-2.553 1.207-4.994-.923l-.552-2.607-.551-2.606a22.306 22.306 0 0 0-4.834-3.639c-2.081-1.29-4.2-2.459-5.075-2.88-2.074-1-4.632-.415-6.905.291s-4.261 1.536-5.206 1.016c-.575-.321-.914-1.465-1.218-2.61a6.267 6.267 0 0 0-.984-2.606c-3.758-2.855-14.325-3.232-24.173-2.705s-18.978 1.955-19.868 2.705a6.1 6.1 0 0 1-2.515-1.649 3.353 3.353 0 0 0-2.99-.957 27.579 27.579 0 0 0-2.9 1.985c-1.325.967-2.6 1.927-2.6 1.927-1.936-.978-3.635-2.432-5.377-3.079s-3.527-.483-5.634 1.771l-1.651.655c-.551.22-1.1.436-1.652.655.211 3.288.75 5.493 1.791 7.077a8.912 8.912 0 0 0 4.816 3.348c-.558 2.686-.652 3.008-.973 2.987s-.866-.386-2.329.92a7.4 7.4 0 0 0-.545 2.9 5.928 5.928 0 0 1-1.657 3.618 7.617 7.617 0 0 0 1.829 1.628 12.845 12.845 0 0 0 2.574.979 11.276 11.276 0 0 1-1.224 1.67 10.7 10.7 0 0 1-2.078.931 14.139 14.139 0 0 0 1.178 4.7c.5.96 1.15 1.654 2.123 3.119 1.881-.548 2.58-.711 3.011-1.144a14 14 0 0 0 1.394-2.765h4.405c-.964 1.453-1.638 2.144-2.147 3.1a13.162 13.162 0 0 0-1.159 4.718 10.39 10.39 0 0 0-3.2 1.032c-.652.376-1.157.845-2.308 1.575v5.215h4.4v5.216a47.462 47.462 0 0 1 8.141-1.5 11.915 11.915 0 0 1 8.373 2.8 10.022 10.022 0 0 0 3.229-2.746 23.106 23.106 0 0 0 2.275-3.77 17.1 17.1 0 0 1 1.491 4.095 8.8 8.8 0 0 0 1.814 3.727c.656.432 3.506.946 6.555 1.415s6.3.91 7.758 1.192v5.214c1.995-.483 2.761-.45 3.193-.8s.537-1.089 1.211-3.111a4.97 4.97 0 0 1 1.951 1.765 11.725 11.725 0 0 0 1.352 2.147 7.038 7.038 0 0 1 1.466.38c.1-.05.087-.445.735-1.684a5.246 5.246 0 0 1 .711 1.467c.119.465.187 1.091.391 2.444a14.246 14.246 0 0 0 2.068-.938 9.128 9.128 0 0 0 1.234-1.667 10.6 10.6 0 0 1 1.37 2.883 29.237 29.237 0 0 1 .831 3.635 10.41 10.41 0 0 0 2.432-1.2c.537-.373 1-.783 1.972-1.409a7.66 7.66 0 0 1 .412 2.743 4.8 4.8 0 0 0 .688 2.468v1.308q.552-.654 1.1-1.307c.367-.431.735-.867 1.1-1.3 1.536 1.747 2.482 3.312 3.674 4.633a10.6 10.6 0 0 0 5.136 3.186c.183.219.365.435.549.65s.368.435.552.653v-1.3a5.632 5.632 0 0 0 2.569-2.859 20.283 20.283 0 0 0 .733-4.962c.952-.421 1.221-.484 1.393-.573a5.57 5.57 0 0 0 .812-.729 5.927 5.927 0 0 1 .8 2.04c.136.736.19 1.658.3 3.173.686-.436 1.255-.788 1.782-1.181a9.372 9.372 0 0 0 1.522-1.424h1.1a46.713 46.713 0 0 0-1.48 6.07 52.019 52.019 0 0 0-.723 6.966h4.4c.3-.994.5-1.539.656-2.216a24.217 24.217 0 0 0 .445-3h2.2c.3 1.012.6 2.856.96 4.663a18.46 18.46 0 0 0 1.245 4.46c1.215.554 1.522.807 1.788.632s.481-.777 1.516-1.934a10.631 10.631 0 0 1 1.37 2.882 29.752 29.752 0 0 1 .833 3.635c2.4-.335 3.589-.7 4.41-1.459s1.273-1.889 2.2-3.755a5.888 5.888 0 0 1 .51 2.624 5.319 5.319 0 0 0 .591 2.59c.944.667.944.677.984.517s.116-.5 1.218-.517v2.6h-4.4c.543 3.239 1.322 4.9 2.536 5.566s2.873.355 5.172-.35c-.125 1.512-.18 2.429-.312 3.162a5.889 5.889 0 0 1-.789 2.052c1.2 2.957 2.471 3.82 4.043 4.329s3.447.658 5.866 2.186c1.429.905 4.333 1.586 7.492 2.515s6.574 2.106 9.022 4q.285.98.559 1.96zM787.26 2365.758a11.038 11.038 0 0 0 2.3 3.144c.766.521 1.681.427 3.2-.537h1.1v-2.6h-3.3a902.715 902.715 0 0 0-3.3-.007zM476.762 2415.288q-2.2.319-4.4.649t-4.4.656c.368-.656.733-1.3 1.1-1.957s.735-1.3 1.1-1.954a16.53 16.53 0 0 0-4.4-.626c-1.089-.178-2-.8-3.312-3.286a7.992 7.992 0 0 0-2.669 2.13 19.406 19.406 0 0 0-1.735 3.082 13.258 13.258 0 0 1-1.1-1.954 13.654 13.654 0 0 0-1.1-1.955c-.963-2.494-1.56-2.3-2.171-2.236s-1.23.017-2.233-2.98a9.882 9.882 0 0 0-5.526 2.058 15.871 15.871 0 0 0-3.281 4.46 20.331 20.331 0 0 1-7.421-3.988c-2.022-1.93-3.407-4.7-3.588-9.046a9.153 9.153 0 0 0-2.643 2.019 7.81 7.81 0 0 1-2.861 1.89 30.983 30.983 0 0 1-.723-4.591c-.158-1.55-.259-2.876-.379-3.232l-.551-1.3-.552-1.3a40.394 40.394 0 0 0-4.653 2.562c-1.257.8-2.432 1.611-4.154 2.654l-1.1-2.61-1.1-2.606h-2.2v6.516a7.5 7.5 0 0 0-4.47 3.318 22.046 22.046 0 0 1-3.238 4.5v6.519h2.2c.952-1.42 1.934-2.874 2.874-4.389a49.854 49.854 0 0 0 2.63-4.737c3.242.558 3.8 1.036 3.956 1.785a4.625 4.625 0 0 0 1.549 3.429c.766.474 1.115.576 1.509.349a21.113 21.113 0 0 0 1.794-1.654h3.3a35.181 35.181 0 0 1-2.422 3.553 13 13 0 0 0-1.979 4.267 8.021 8.021 0 0 1 .623.946c.077.2.13.519.478 1.66a15.1 15.1 0 0 0 5.517-2.544 31.272 31.272 0 0 0 4.393-3.974h1.1a32.7 32.7 0 0 1 .49 4.558 31.211 31.211 0 0 1-.49 4.564 8.808 8.808 0 0 0 3.807-2.8c.86-1.071 1.549-2.3 2.8-3.721a13.171 13.171 0 0 0 2.346 5.047 9.554 9.554 0 0 0 4.262 2.776q-.552 1.955-1.1 3.911t-1.1 3.908c.84.359 1.3.591 1.869.777a14.787 14.787 0 0 0 2.535.528l.551-6.512.552-6.516h3.3a23.552 23.552 0 0 1 .775 3.357 34.721 34.721 0 0 1 .326 4.464c2.284-.735 2.909-1.1 3.615-1.257a19.912 19.912 0 0 1 4.093-.045 28.056 28.056 0 0 1-.463 2.993c-.157.677-.342 1.23-.637 2.216h1.1v1.3a6.625 6.625 0 0 0 2.906-3.18 47.378 47.378 0 0 0 1.5-4.639c.367-.213.735-.428 1.1-.649s.733-.433 1.1-.652c.183.219.365.433.549.652s.368.436.552.649a22.773 22.773 0 0 1-.843 3.04 8.573 8.573 0 0 1-1.358 2.176v3.915a25.5 25.5 0 0 0 4.573-4.341 16.834 16.834 0 0 0 3.134-6.088c1.408.828 2 1.163 2.363 1.779a15.643 15.643 0 0 1 .94 3.434h3.3c.186-.652.368-1.3.551-1.957s.367-1.3.551-1.958a12.844 12.844 0 0 1-2.053-3.393 22.752 22.752 0 0 1-1.258-4.419zM386.477 2395.74a4.068 4.068 0 0 0-1.24-.845 20.638 20.638 0 0 0-2.064-.466 18.843 18.843 0 0 1-1.166 3.9 8.666 8.666 0 0 1-2.136 2.621v3.909a28.058 28.058 0 0 0 3.9-1.886 16.842 16.842 0 0 0 2.71-2.023h2.2v-2.6c-.367-.434-.733-.87-1.1-1.3s-.738-.878-1.104-1.31zM477.862 2412.683a16.211 16.211 0 0 1-.41-2.815c-.08-.217-.391-.148-1.791-1.1v3.911h2.2zM491.077 2419.196a6.73 6.73 0 0 0 .8.739c.164.091.436.157 1.4.566.183-.22.365-.433.549-.653s.368-.435.552-.655v-5.216h-2.2c-.368.869-.733 1.735-1.1 2.607s-.735 1.74-1.1 2.609h.548c.182.003.366.003.551.003zM503.187 2415.288c-.733-.22-1.468-.436-2.2-.656s-1.47-.432-2.2-.652c-.22 1.34-.287 1.967-.406 2.434a5.118 5.118 0 0 1-.7 1.477c.934 2.281 2.257 2.42 3.511 3.061s2.44 1.783 3.094 6.062c.951-.415 1.221-.48 1.393-.575a5.367 5.367 0 0 0 .81-.726c.457-.278-.231-1.818-1.1-3.82a26.861 26.861 0 0 1-2.202-6.605zM488.876 2419.852v-.655a14.948 14.948 0 0 0-2.836-.913 20.455 20.455 0 0 0-3.772-.389 25.538 25.538 0 0 0-.72 2.767 29.261 29.261 0 0 0-.383 3.751 13.958 13.958 0 0 0 3.583-2.179 9.386 9.386 0 0 1 4.126-1.729c.002-.221.002-.436.002-.653zM511.996 2417.894a4.959 4.959 0 0 0-1.951 1.767 11.73 11.73 0 0 1-1.352 2.145 8.849 8.849 0 0 0 1.011 2.254 15.368 15.368 0 0 1 1.192 1.657c1.37-.96 1.691-.88 1.788-1.089a25.429 25.429 0 0 1 .413-2.821c.183.219.365.433.549.652s.367.436.551.649c1.37-.958 1.694-.872 1.788-1.085a25.292 25.292 0 0 1 .415-2.823 23 23 0 0 1-2.673-.371 4.215 4.215 0 0 1-1.731-.935zM496.581 2421.803a15.827 15.827 0 0 1-3.553 3.657c-1.373 1.071-2.845 2.01-4.152 2.859a14.842 14.842 0 0 0 2.557 3.547c.889.931 1.845 1.768 2.948 2.974.905-1.139 1.379-2.01 1.94-2.815a9.023 9.023 0 0 1 2.462-2.4v-7.818h-1.1c-.367-.004-.731-.004-1.102-.004z"/><path fill="#8da9c4" d="M431.62 2428.319h-2.2a12.814 12.814 0 0 0 1.777 5.244c.735 1.144 1.611 2.062 2.625 3.88h3.3c-.164-2.076-.409-3.118-.49-3.938a4.672 4.672 0 0 1 .49-2.58v-3.909c-1.374.712-2.177 1.32-2.924 1.61a2.879 2.879 0 0 1-2.578-.307zM828.34 2534.051c-6.255-.926-13.542-.163-17.96-4.068a7.142 7.142 0 0 0-3.576 1.78 15.835 15.835 0 0 0-1.927 3.434 11.325 11.325 0 0 1-1.308-2.861 4.645 4.645 0 0 0-1.995-2.355 6.152 6.152 0 0 0-.8-.736c-.164-.094-.433-.155-1.4-.564a49.4 49.4 0 0 0-1.5 6.2 61.412 61.412 0 0 0-.7 6.826c-1.352-.972-2.124-3.12-2.584-5.579a57.771 57.771 0 0 1-.721-7.45c-.549-.22-1.1-.435-1.652-.655s-1.1-.433-1.652-.652l-1.1 1.3-1.1 1.3c-.839-.723-1.153-1.995-1.788-2.937s-1.595-1.56-3.72-.972h-1.1c-2.219 1.516-3.763 4.03-5.769 5.4s-4.475 1.589-8.542-1.488a12.452 12.452 0 0 0-.539 3.734c.038 1.008.261 2.072.539 4.087-.951-.419-1.221-.483-1.391-.572a5.821 5.821 0 0 1-.81-.73c-2.845.409-3.6.531-3.811 1.141s.1 1.714-.594 4.072h-5.5c-.22 1.338-.287 1.967-.406 2.435a5.124 5.124 0 0 1-.7 1.477v1.307a72.931 72.931 0 0 1 7.01 2.785 35.223 35.223 0 0 0 7.302 2.441c1.213.217 2.953-.326 4.62-.815s3.263-.925 4.185-.489c.184.649.368 1.3.551 1.954s.365 1.305.549 1.955c1.924.964 2.749.112 3.5-.881s1.447-2.12 3.1-1.724c.042.009 1.477.884 3 1.81s3.161 1.9 3.6 2.1c1.5-.29 3.351-.978 5.137-1.415s3.517-.617 4.769.11c.184.655.368 1.3.551 1.955s.367 1.3.549 1.958a2.658 2.658 0 0 0 3 .139 2.143 2.143 0 0 1 2.5-.139 24.43 24.43 0 0 0 3.265-.279 4.833 4.833 0 0 0 2.242-1.026c.468-1.438.68-1.806.534-2.118s-.656-.572-1.635-1.792v-1.305a13.021 13.021 0 0 1 3.3 1.379 8.469 8.469 0 0 1 2.215 2.53h1.1v-5.216a4.6 4.6 0 0 1 2.83 1.183 5.424 5.424 0 0 0 1.575 1.423c1.1.557 1.472-.281 1.661-1.326s.189-2.3.54-2.588h1.1c.495 1.038 2.508 1.393 4.9 1.479s5.176-.112 7.206-.173c.353-1.125.409-1.444.483-1.649a6.578 6.578 0 0 1 .617-.957c-.274-10.642-5.496-13.257-11.75-14.183zM323.717 2583.426a11.469 11.469 0 0 0-4.4-.941 11.139 11.139 0 0 0-4.405.941 40.2 40.2 0 0 1 3.049-5.469c1.132-1.727 2.348-3.366 3.558-4.962v-1.3c-1.513.442-3.687.949-5.637 1.417a33.934 33.934 0 0 0-4.273 1.192 8.6 8.6 0 0 0-1.833 3.705 18.5 18.5 0 0 1-1.471 4.117v2.6h-1.1c-.088-2.42-.285-4.555-.364-6.319a10.288 10.288 0 0 1 .364-4.11c-.81-1.622-.744-2.007-.919-2.115a15.9 15.9 0 0 1-2.384-.493q1.1-1.3 2.2-2.607t2.2-2.607v-1.3a24.637 24.637 0 0 0-3.263.273 4.829 4.829 0 0 0-2.24 1.03c-3.109.128-4.775.6-5.931 1.622s-1.8 2.583-2.879 4.891a6.958 6.958 0 0 1-.881-2.646 35.248 35.248 0 0 1-.219-3.867c-2.218.7-3.589 1.322-4.546 2.44s-1.5 2.725-2.059 5.38c-1.451-1.139-1.835-1.162-1.8-1.376a6.551 6.551 0 0 0 .7-2.538l-.552-.652c-.184-.22-.367-.433-.549-.653a44.322 44.322 0 0 0-8.333 3.645c-2.735 1.658-5.077 3.832-5.982 6.782q-.55-.647-1.1-1.3l-1.1-1.3a5.708 5.708 0 0 0-.569 4.161 8.361 8.361 0 0 1-.531 4.964 12.585 12.585 0 0 1-3.106 4.262c-1.053 1.187-1.99 2.687-2.4 6.163a15.838 15.838 0 0 1-8.2-.207 27.455 27.455 0 0 1-7.218-3.7 11.207 11.207 0 0 1 3.573-6.128c1.136-1.278 1.814-2.687.831-6.907 1.1.22 2.2.436 3.3.656s2.2.435 3.3.649a23.208 23.208 0 0 1 2.257-7.153 21.67 21.67 0 0 0 2.147-7.183c-2.566.658-3.416 1.509-3.752 2.263s-.151 1.4-.652 1.646c-.736.362-1.248.383-1.593.14a1.981 1.981 0 0 1-.608-1.442l-5.505-.653-5.5-.65c-.184-.655-.368-1.3-.551-1.955s-.368-1.3-.551-1.957h-2.2a11.26 11.26 0 0 1 3.3-1.313 12.126 12.126 0 0 0 3.307-1.291 3.7 3.7 0 0 0 .119-2.159 10 10 0 0 1-.119-3.055c-5.495 1.088-11.073 2.344-16.892 3.026a60.424 60.424 0 0 1-18.342-.418c-3.57-.664-6.177.741-8.515 1.939s-4.406 2.182-6.9.667h-2.2v5.216h-4.4v3.909c-1.145-.733-1.643-1.224-2.295-1.605a9.38 9.38 0 0 0-3.211-1c.367-.435.733-.871 1.1-1.3s.732-.872 1.1-1.3a8.9 8.9 0 0 0-1.011-2.256 16.194 16.194 0 0 1-1.19-1.657 4.912 4.912 0 0 0-2.043 2.941 13.325 13.325 0 0 1-1.261 3.576c-.406.967-1.522-.428-2.942-1.86s-3.143-2.892-4.766-2.047c-.733.377-1.018 1.353-1.254 2.4a7.272 7.272 0 0 1-.947 2.811c-1.7-2.361-8.562-1.338-15.421.258s-13.717 3.754-15.409 3.651c-.3.994-.5 1.541-.656 2.216a24.042 24.042 0 0 0-.444 3c-.973-.637-1.429-1.055-1.963-1.43a9.168 9.168 0 0 0-2.443-1.174c-4.169 5.9-9.635 10.691-15.454 15.039s-11.993 8.236-17.577 12.334c.439 1.2 2.429 3.428 4.555 5.551a71.7 71.7 0 0 0 5.354 4.876c-.219 1.341-.287 1.966-.4 2.432a5.1 5.1 0 0 1-.7 1.477 9.432 9.432 0 0 0 3.278 4.279c.854.7 1.533 1.491 2.228 4.846a30.9 30.9 0 0 0 10.095-4.689 59.6 59.6 0 0 0 8.622-7.041c7.741.412 10.769 7.731 12 16.5s.664 18.992 1.212 25.208c-3.294 3.642-7.426 6.362-11.56 9.09s-8.266 5.474-11.561 9.155a24.606 24.606 0 0 0-2.075 5.428 14.023 14.023 0 0 1-2.329 5v2.605c3.463-1.827 10.56-2.2 17.921-1.924a172.252 172.252 0 0 1 19.515 1.924 10.453 10.453 0 0 1 6.252-2.34 29.829 29.829 0 0 0 5.86-.268c.883-.184 2.289-1.31 3.734-2.477a17.422 17.422 0 0 1 3.972-2.735h11.009v-2.61c.941-.652 2.883-.158 5.131.249s4.807.738 6.979-.249c4.686-2.121 7.4-3.363 10.2-4.111s5.689-.985 10.718-1.1v-5.223a4.989 4.989 0 0 1 1.952 1.761 11.591 11.591 0 0 0 1.352 2.147 2.258 2.258 0 0 0 2.506-.26c.659-.377 1.4-.665 3 .26 1.374-.976 1.933-1.664 2.142-2.737a34.2 34.2 0 0 0 .059-5.081h1.1c.3.991.5 1.539.656 2.212a24.072 24.072 0 0 1 .444 3h3.3c.219-1.341.287-1.968.4-2.438a5.2 5.2 0 0 1 .7-1.474v-1.3c1.488.543 1.479.662 1.379.91s-.3.631.824 1.7c.661.964 1.519.643 2.331-.249a12.066 12.066 0 0 0 2.073-3.659h1.1v5.214a34.938 34.938 0 0 0 6.566-.062 6.353 6.353 0 0 0 4.445-2.547c1.587-.957 1.933-1.566 1.845-2.612a46.8 46.8 0 0 1-.744-5.207 6.937 6.937 0 0 1 2.378 2.468 12.245 12.245 0 0 0 2.026 2.747c.846-.023 1.092-.1 1.417-.468a22 22 0 0 1 1.886-2.145q.552 2.283 1.1 4.562t1.1 4.562c1.78-.285 3.058-.763 4.215-.929a4.338 4.338 0 0 1 3.491.929h3.3c-.7-1.666-.984-2.376-1.5-2.8a10.448 10.448 0 0 0-2.9-1.109v-7.823c.721.336 1.8.729 2.855 1.172a10.829 10.829 0 0 1 2.652 1.432 19.862 19.862 0 0 0 3.162-.475 16.857 16.857 0 0 0 2.343-.825l.549-5.214.552-5.211h7.707a10.449 10.449 0 0 0-1.361-4.558 4.82 4.82 0 0 1-.84-3.263c.3-1.664 1.568-2.877 2.4-4.369s1.237-3.273-.2-6.061a1.576 1.576 0 0 1 2.109-.053 1.881 1.881 0 0 0 2.295.053c.943-.5 5.4-4.586 9.731-8.787s8.541-8.515 8.988-9.461a34.975 34.975 0 0 0 2.437-8.111 19.389 19.389 0 0 1 3.067-7.529v-2.6c-.685.432-1.255.786-1.78 1.18a9.495 9.495 0 0 0-1.522 1.423h-2.2c.892-1.88 1.972-3.8 2.977-5.763a34.845 34.845 0 0 0 2.532-5.972zM321.514 2634.258l-.551 1.955-.551 1.957c.951-.418 1.221-.483 1.391-.578s.249-.2.81-.723h1.1a4.6 4.6 0 0 1-.628-1.859c-.024-.044-.211.093-1.571-.752zM308.303 2649.899c-.368-.812-.667-1.485-1-2.108a10.683 10.683 0 0 0-1.2-1.8c-.329 1.427-.637 2.088-.709 2.713a4.529 4.529 0 0 0 .709 2.5v7.82h2.2a36.477 36.477 0 0 1 .852-3.616 10.63 10.63 0 0 1 1.35-2.892c1.062-.691 1.382-.8 1.824-.676a10.92 10.92 0 0 0 2.578.676v-2.61a26.5 26.5 0 0 0-3.455-.656 7.95 7.95 0 0 0-3.149.649zM286.281 2665.538c.219 1.34.288 1.969.4 2.437a5.152 5.152 0 0 0 .7 1.475 11.127 11.127 0 0 0 2.2 1.308 11.8 11.8 0 0 1 2.2 1.3 18.555 18.555 0 0 0 2.129-4.731 31.791 31.791 0 0 0 1.174-5.694 13.36 13.36 0 0 0-4.706 1.773 20.485 20.485 0 0 1-4.097 2.132zM69.374 2737.228a13.386 13.386 0 0 1 1.5-3.562c.522-.854 1.094-1.6 1.8-2.956-.839-.353-1.3-.589-1.869-.776a15 15 0 0 0-2.535-.528 18.859 18.859 0 0 1 1.166-3.9 8.57 8.57 0 0 1 2.136-2.618c-.355-1.129-.409-1.448-.484-1.651a6.151 6.151 0 0 0-.617-.961c-.465-1.758-.895-1.482-1.269-.575s-.693 2.432-.932 3.183a26 26 0 0 1-7.114-5.846 24.558 24.558 0 0 1-5-8.493h-3.3a4.093 4.093 0 0 1-1.239.84c-.392.142-.922.22-2.065.465a36.553 36.553 0 0 0-.991 8.383c-.127 2.775-.293 5.36-1.212 7.26v2.6c.951-.421 1.221-.483 1.393-.575a5.646 5.646 0 0 0 .81-.727h3.3a19.514 19.514 0 0 1-2.452 3.109c-1.008 1.114-1.934 2.065-1.952 2.1-1.246 2.76-.516 3.7-.116 4.466s.474 1.34-2.087 3.361a41.823 41.823 0 0 0 2.044 3.428 26.876 26.876 0 0 0 2.36 3.085 92.142 92.142 0 0 1-2.194 15.119 26.279 26.279 0 0 1-5.514 10.949c.22 1.34.287 1.964.4 2.434a5.171 5.171 0 0 0 .7 1.477c.469.723 1.027.533 1.877.092a11.366 11.366 0 0 1 3.628-1.394c.62-1.593 1.107-2.648 1.473-3.918a22.416 22.416 0 0 0 .73-5.207c3.814-.925 5.925-.848 8.091-.254s4.389 1.711 8.425 2.861c1.54-3.98 2.361-9.979 3.076-15.734s1.322-11.257 2.429-14.245c-.839-.355-1.3-.585-1.869-.774a14.423 14.423 0 0 0-2.527-.518zM713.492 2722.896c-.946-.667-.946-.677-.984-.516s-.116.495-1.217.516c-.527-1.566-.723-2.766-1.1-3.79a5.326 5.326 0 0 0-2.2-2.732v3.911c-.732-.22-1.468-.435-2.2-.653s-1.469-.433-2.2-.652a5.78 5.78 0 0 0-1.835 3.138c-.368.9-1.039 1.617-3.672 2.078 1.626 3.422 3.736 4.027 5.757 4.12s3.959-.3 5.249 1.091a20.848 20.848 0 0 0 3.162-.477 16.686 16.686 0 0 0 2.343-.825c-.124-1.512-.177-2.429-.311-3.165a5.847 5.847 0 0 0-.792-2.044zM769.642 2752.867c.183-.217.367-.434.549-.653s.368-.432.552-.65a4.647 4.647 0 0 1-.629-1.857c-.03-.044-.217.094-1.574-.745v3.906h1.1zM774.047 2765.904v2.605a24.173 24.173 0 0 0 3.764-.412 15.188 15.188 0 0 0 2.839-.892q.278-.652.551-1.307c.184-.431.367-.866.549-1.3a16.089 16.089 0 0 0-3.871-1.025 31.778 31.778 0 0 0-4.934-.282c.352 1.126.407 1.444.481 1.651a6.649 6.649 0 0 0 .621.962z"/><path fill="none" d="M779.548 2398.343v-.349a.318.318 0 0 0-.051.157.378.378 0 0 0 .051.192z"/><path fill="#8da9c4" d="M928.742 2114.85l-.549-.649v-6.519a6.7 6.7 0 0 0-4 2.6 39.752 39.752 0 0 1-2.6 3.917c-.96.878-1.424.9-1.83.857a1.514 1.514 0 0 0-1.474.445h-2.2q1.1-1.3 2.2-2.609l2.2-2.606v-1.304a45.119 45.119 0 0 0-8.045-.994c-2.63-.121-5.332-.127-8.47-.308-.22 1.341-.287 1.967-.406 2.434a5.172 5.172 0 0 1-.7 1.477c-.181.29-1.225-.226-2.669-.883a20.331 20.331 0 0 0-5.041-1.727 4.239 4.239 0 0 1 1.726-.952 19.406 19.406 0 0 1 2.679-.35v-3.914c3.165.033 6.227.195 8.893-.059s4.937-.92 6.521-2.547a22.858 22.858 0 0 0 4.3-.059c.914-.238 1.5-.893 2.307-2.547a7.608 7.608 0 0 0 .623-.952c.078-.2.13-.516.477-1.657a35.057 35.057 0 0 1-3.017-3.577 24.524 24.524 0 0 1-2.486-4.242 9.173 9.173 0 0 0-3.979.914 5.091 5.091 0 0 1-3.73.389c-.848-.347-2.156-2.274-3.7-3.963s-3.321-3.149-5.112-2.554c-1.107.368-.919 1.16-1.376 1.949s-1.551 1.587-5.234 1.96v-3.909c-1.918.145-2.67.263-3.251.284a9.288 9.288 0 0 1-2.251-.284c-.368.812-.667 1.486-1 2.108a10.421 10.421 0 0 1-1.2 1.8v2.609a14.876 14.876 0 0 1-2.035-6.014 35.306 35.306 0 0 1-.167-5.72c-3.227-.266-5.5-.9-7.2-.816s-2.842.865-3.81 3.426a5.4 5.4 0 0 1-.712-1.468c-.119-.466-.186-1.092-.391-2.446l-3.3-.653c-1.1-.218-2.2-.431-3.3-.65-.367.436-.735.868-1.1 1.3s-.732.874-1.1 1.3c-2.91-1.387-5.7-3.613-8.3-4.7s-5-1.046-7.115 2.1a17.829 17.829 0 0 1-1.792-2.447 34.593 34.593 0 0 1-1.513-2.767 17.577 17.577 0 0 0-2.529.548c-.576.187-1.04.409-1.875.757-.075 3.87-.2 7.984.029 11.681s.819 6.973 2.174 9.173v3.911a31.115 31.115 0 0 0-3.1-2.106c-.943-.406-1.955-.323-3.506.8h-2.2a36.99 36.99 0 0 0 2.551-11.723c.178-3.66-.128-7.539-.349-13.043-4.1-.409-7.658-1.32-10.478-1.181s-4.9 1.323-6.035 5.093h-1.1v-6.516c-3.512-.18-4.985-1.1-6.082-2.174s-1.82-2.278-3.831-3.039c-1.729-.653-3.482.1-4.89.964s-2.471 1.844-2.815 1.643c-.181-.65-.365-1.3-.549-1.957l-.549-1.955c-3.09-1.884-6.382-1.506-9.323-1.329s-5.52.139-7.2-2.578a9.461 9.461 0 0 0-3.342 1.979 13.82 13.82 0 0 0-2.165 3.235 8.233 8.233 0 0 1-.949-3.268 41.518 41.518 0 0 1-.154-4.552 27.743 27.743 0 0 0-6.012-1.029 17.045 17.045 0 0 1-6.1-1.581l-1.1 2.607-1.1 2.609h-3.306c-.219-1.341-.284-1.967-.4-2.437a5.133 5.133 0 0 0-.7-1.477c-.751-1.817-3.44-4.057-6.385-5.05s-6.15-.732-7.927 2.444a5.229 5.229 0 0 1-.712-1.469c-.119-.465-.184-1.091-.391-2.443a7.279 7.279 0 0 1-3.562-1.32 8.616 8.616 0 0 0-1.943-1.287c-1.447-.368-3.582.442-6.076.937a11.491 11.491 0 0 1-8.235-.937v-2.609c-2.527-.756-2.749.223-3.052.9s-.7 1.055-3.553-.9c-.536 1.154-.893 1.693-1.213 2.325a13.434 13.434 0 0 0-.99 2.891c-2.151-1.59-5-3.173-7.817-4.867a38.567 38.567 0 0 1-7.6-5.561 4.684 4.684 0 0 0-2.207 3.342 37.073 37.073 0 0 0 0 5.783 12.515 12.515 0 0 1-1.219-2.462c-.365-.943-.7-1.931-.984-2.753a15.24 15.24 0 0 0-2.844.706c-.456.257-.7.712-1.56 1.9h-3.307c.37-.81.67-1.485 1-2.108a10.6 10.6 0 0 1 1.2-1.8v-2.606c-1.1-.219-2.2-.435-3.3-.65l-3.3-.655c-.169.042-1.821 1.018-3.429 1.984s-3.174 1.925-3.174 1.925q-.552-.649-1.1-1.3l-1.1-1.3a8.191 8.191 0 0 0-2.287 1.163 3.259 3.259 0 0 1-3.221.145q-.276-.98-.549-1.957c-.183-.655-.365-1.3-.551-1.957-2.135-1.4-5.834-1.476-9.627-1.492s-7.679.032-10.19-1.112q-.826-.98-1.655-1.957c-.548-.653-1.1-1.3-1.652-1.957a9.528 9.528 0 0 0-3.286 1.6c-.852.483-1.712.647-3.322-.294-1.83-.907-2.385-1-2.483-1.311s.273-.837.282-2.6c-6.03.27-7.637 1.1-8.305 2.437s-.409 3.149-2.7 5.383c-.264.256-1.667-.493-3.268-1.26s-3.395-1.54-4.439-1.35a10.245 10.245 0 0 1-4.469-.726c-1.56-.471-3.1-.92-4.341-.576-.345.1-2.124.969-4.028 1.871a38.944 38.944 0 0 1-4.78 2.041 5.771 5.771 0 0 1-4.712-.644 20.913 20.913 0 0 0-3-1.966l-14.312-.653q-7.158-.328-14.313-.65a67.868 67.868 0 0 1-7.4-3.392 53.909 53.909 0 0 0-6.916-3.125c-1.978-.57-3.079.333-4.1 1.254s-1.957 1.856-3.607 1.353a26.72 26.72 0 0 1-2.007-1.883 13.046 13.046 0 0 0-2.4-2.028 46.136 46.136 0 0 0-11.119-2.159c-3.65-.314-7.08-.339-9.8-.447-.186-.219-.368-.436-.551-.656s-.367-.433-.549-.652c-2.693.736-2.669 2.142-2.806 3.313s-.445 2.106-3.8 1.9a29.6 29.6 0 0 0 1.916 5.588c.415 1.159.377 1.973-.813 3.538.86 1.163 1.1 1.637 1.553 1.906a11.939 11.939 0 0 0 2.852.7 39.454 39.454 0 0 0-.346 5.733 12.969 12.969 0 0 0 1.445 6c1.586 1.628 2.954 2.529 4.2 2.734a3.876 3.876 0 0 0 3.5-1.43c1.694 2.32 2.2 4.648 2.993 6.7a7.988 7.988 0 0 0 4.712 5.03c-.81 1.623-.742 2.005-.917 2.114a15.309 15.309 0 0 0-2.384.49c.409 3.755 1.184 5.723 1.195 7.236s-.745 2.566-3.4 4.495c1.18 4.066 4.668 7.077 8.592 9.036a24.472 24.472 0 0 0 11.225 2.7c-1.008 1.9-1.376 2.216-1.445 2.717s.16 1.178.346 3.8a32.881 32.881 0 0 1-2.995-2.3 13.938 13.938 0 0 1-2.511-2.915 11.538 11.538 0 0 1-2.074.362c-.121.115.084.54-.127 2.245-6.282.044-9.381 1.515-11.976 3.383s-4.683 4.129-8.947 5.744a10.732 10.732 0 0 1-1.181 3.033 9.437 9.437 0 0 0-1.021 2.177 14.778 14.778 0 0 0 .809 7.785c.68 2.234 1.273 4.264.293 6.554.125 6.171 2.023 8.748 4.867 10.121s6.635 1.549 10.546 2.913c-1.29.92-4.721 1.509-8.177 1.732s-6.939.092-8.336-.43a25.659 25.659 0 0 0-.72 2.77 28.215 28.215 0 0 0-.382 3.748 12.681 12.681 0 0 0-3.336-1.053 4.35 4.35 0 0 0-3.271 1.053 34.405 34.405 0 0 1-3.12-6.782c-1-2.536-2.067-4.985-3.485-6.252a15.235 15.235 0 0 0-4.94-2.649 15.848 15.848 0 0 1-4.947-2.569h-1.1a101.779 101.779 0 0 0 .335 12.667c.425 3.776 1.287 7.023 2.968 9.493a4.067 4.067 0 0 1-1.24.837c-.392.142-.92.222-2.062.466.219 1.338.284 1.964.4 2.431a5.109 5.109 0 0 0 .7 1.477c.572.981 2.7 1.993 4.863 2.743a18 18 0 0 0 5.048 1.163 14.251 14.251 0 0 1 3.714 4.507 13.958 13.958 0 0 0 3.992 4.62 3.356 3.356 0 0 0 1.74.634 11.788 11.788 0 0 1 2.666.671 59.624 59.624 0 0 1 2.022-4.1 28.978 28.978 0 0 1 2.382-3.724c.354-1.127.409-1.444.483-1.652a6.412 6.412 0 0 1 .617-.96v2.61a7.36 7.36 0 0 1 .094 4.59 11.668 11.668 0 0 1-2.3 4.534 28.6 28.6 0 0 0 .463 2.993c.157.68.345 1.231.638 2.221a17.414 17.414 0 0 0 4.179-.379c.881-.3 1.473-.913 2.428-2.231a18.062 18.062 0 0 1 1.791 2.449 32.068 32.068 0 0 1 1.513 2.766h2.2a28.292 28.292 0 0 0-.32-4.943 5.946 5.946 0 0 0-1.883-2.876 13.565 13.565 0 0 1 1.15-3.994 12.28 12.28 0 0 1 2.154-2.524c.368.812.668 1.483 1 2.109a10.627 10.627 0 0 0 1.2 1.8c.946.667.946.676.984.513s.116-.492 1.219-.513c.3.993.5 1.537.658 2.213a24.407 24.407 0 0 1 .445 3 10.745 10.745 0 0 0 1.208-1.792c.338-.622.635-1.3.994-2.114a6.181 6.181 0 0 1 2.2 1.961 6.155 6.155 0 0 0 2.206 1.946c-1.711 2.2-3.085 3.536-4.031 5.446s-1.469 4.4-1.474 8.891c2.292-.235 3.461-.391 4.3-.9s1.344-1.367 2.31-3.013a6.781 6.781 0 0 1 1.9 1.2 14.528 14.528 0 0 0 1.4 1.409c.356 1.124.409 1.442.484 1.649a6.285 6.285 0 0 0 .617.958v-2.601a4.406 4.406 0 0 0 .226-3.508 8.986 8.986 0 0 0-2.429-3.01 14.759 14.759 0 0 1 1.009-2.876c.317-.638.662-1.184 1.193-2.336.184-.216.367-.433.551-.653s.365-.436.549-.653a4.34 4.34 0 0 1 .679 2.515c-.085.616-.4 1.263-.679 2.7a11.138 11.138 0 0 0 3.186 1.5 18.819 18.819 0 0 0 3.419-.2c-.409 2.013-.848 3.479-1.239 5.009a33.56 33.56 0 0 0-.963 5.418c2.8.312 4.043.726 4.795 1.67s1.006 2.42 1.813 4.848a19.868 19.868 0 0 0 4.792-.275 5.254 5.254 0 0 0 2.916-2.332h1.1v5.213h3.3a25.71 25.71 0 0 0 1.225 5.644 22.353 22.353 0 0 1 .976 6.089h3.3a38.273 38.273 0 0 1 .451-6.083 10.957 10.957 0 0 1 1.752-4.344v-2.606h3.3a32.652 32.652 0 0 0-1.85 5 7.316 7.316 0 0 0 .748 5.433c.756 1.783 1.352 2.17 2.147 2.24a9.778 9.778 0 0 1 3.358.365 25.709 25.709 0 0 1-1.163 4.617 4.662 4.662 0 0 0 .063 3.2v5.216a12.332 12.332 0 0 0 3.662-4.17c1.065-1.726 2.008-3.576 2.945-4.955h2.2a20.759 20.759 0 0 1-.794 2.449 8.746 8.746 0 0 1-1.409 1.462 12.855 12.855 0 0 0 2.663 6.706 16.923 16.923 0 0 0 5.045 3.724c.181.216.365.433.549.649s.368.436.551.655c.3-.993.495-1.539.655-2.215a23.833 23.833 0 0 0 .448-3c1.835 1.1 2.95 3.034 4.152 4.371s2.485 2.09 4.656.843a5.425 5.425 0 0 1 2.17 2.1c.379.733.587 1.638 1.135 3.117 10.48 2.12 24.4 4.249 38.651 6.742s28.827 5.342 40.626 8.9q2.48-.654 4.955-1.3t4.955-1.3a111.066 111.066 0 0 1 13.471 4.638c4.746 2.013 9.221 4.436 11.853 7.09.08.5 1-1.162 2.539-2.767s3.7-3.162 6.269-2.443c4.57 1.275 6.186 1.365 7.637.766s2.747-1.887 6.678-3.375a16.83 16.83 0 0 1 9.532-.667c2.886.552 5.529 1.545 8.081 1.976h9.906c.551.649 1.1 1.3 1.654 1.951s1.1 1.305 1.652 1.958c5.371 1.669 11.89-.338 18.212-2.734s12.447-5.188 17.02-5.086a21.994 21.994 0 0 1 3.8 1.058 8.661 8.661 0 0 0 5 .244c.32-.1 1.773-.794 3.242-1.441a11.651 11.651 0 0 1 3.363-1.163c.407.083 2.553.946 5.041 1.684s5.312 1.346 7.073.92c.279-.068 2.073-.18 4-.382a18.221 18.221 0 0 0 4.8-.92c.065-.035.487-1.252.96-2.34s.988-2.044 1.243-1.574a69.475 69.475 0 0 0 33.349 3.751c10.578-1.335 20.682-4.795 30.514-8.96a3.556 3.556 0 0 1 3.229.184 8.123 8.123 0 0 0 2.278 1.118c2.041.183 4.273.318 6.552.339v-119.022c-.147-.19-.311-.388-.479-.584zM918.284 2421.803v3.911c-2.8-1.667-8.876-1.99-15.063-2.55s-12.492-1.352-15.765-3.968a12.172 12.172 0 0 0-4.1.68 12.919 12.919 0 0 0-2.511 1.927c-.549.68-7.421-2.889-14.709-4.846s-15-2.3-17.222 4.846h-1.1c.22-1.343.285-1.967.4-2.432a5.078 5.078 0 0 1 .7-1.477v-5.216a8.056 8.056 0 0 0-3.7 3.292 9.014 9.014 0 0 1-2.9 3.226c-4.105 2.206-8.049 1.451-11.335 1.5s-5.91.9-7.385 6.32c-4.089-2.747-7.51-5.572-11.089-7.6a19.6 19.6 0 0 0-12.037-2.823 11.97 11.97 0 0 1 .846-3.208c.267-.481.62-.769 1.356-2.007-.183-.22-.367-.436-.549-.652l-.551-.653a13.79 13.79 0 0 0-4.277 3.325 11.949 11.949 0 0 1-4.531 3.191c-.183.219-.367.428-.551.65s-.367.436-.549.653v-1.3c-1.347-.756-1.382-1.42-.788-2.219s1.82-1.724 2.989-2.995a18.969 18.969 0 0 0-2.592-8.1 14.7 14.7 0 0 0-5.116-4.935 12.738 12.738 0 0 0-3.375-.661c-1.494-.142-2.966-.119-3.232.312v.349a.411.411 0 0 1-.051-.193.365.365 0 0 1 .051-.157v-4.864a11.455 11.455 0 0 0-4.63-4.262 26.733 26.733 0 0 1-5.278-3.556h-1.1v-1.305c1.8.8 3.647 1.4 5.359 2.155a12.929 12.929 0 0 1 4.55 3.058c2.784-.155 4.015-.41 4.9-.99a22.509 22.509 0 0 0 2.806-2.921c.944-.806 2.432-.056 4.179 1.009s3.752 2.446 5.733 2.9a13.113 13.113 0 0 0-2.262-5.937 41.714 41.714 0 0 1-3.242-4.495c-1.789.309-3.3.846-4.7 1.035a5.08 5.08 0 0 1-4.108-1.035c-1.785-.883-3.04-2.9-3.909-5.311a33.175 33.175 0 0 1-1.6-7.722c-.951.418-1.221.483-1.391.572a5.754 5.754 0 0 0-.809.73h-5.5l1.652-2.609 1.652-2.606c-1.732-1.258-2.844-2.434-4.2-3.36a11.274 11.274 0 0 0-5.708-1.856q.276-.978.549-1.954c.184-.655.367-1.3.549-1.955a15.294 15.294 0 0 0-2.562.994 7.34 7.34 0 0 0-1.842 1.61 7.474 7.474 0 0 1-.622-.952c-.078-.2-.131-.514-.477-1.655h-2.2c1.979-1.035 2.651-3.674 3.452-6.688s1.743-6.409 4.253-8.956a39.07 39.07 0 0 0-.346-4.458 23.162 23.162 0 0 0-.754-3.363 9.908 9.908 0 0 1-2.376.484c-.184.1-.125.466-.926 2.12a17.966 17.966 0 0 1-1.543-2.693 9.3 9.3 0 0 0-1.758-2.523c-.59-.394-1.767-.222-2.9.122a9.761 9.761 0 0 0-2.609 1.184 4.926 4.926 0 0 1-2.043-2.944 13.312 13.312 0 0 0-1.261-3.574c-.658-.673-.9-.739-1.276-.769a5.069 5.069 0 0 1-2.028-.534c-.917 1.089-1.836 2.171-2.753 3.26l-2.752 3.255v1.31a16.813 16.813 0 0 1-1.109-3.909 17.837 17.837 0 0 0-1.094-3.914v-2.606c-.914.653-1.835 1.305-2.752 1.955s-1.838 1.3-2.752 1.955c.22 1.341.287 1.969.406 2.437a5.127 5.127 0 0 0 .7 1.472v2.609q-1.65-.649-3.3-1.307t-3.3-1.3c-.183.656-.367 1.3-.549 1.957s-.365 1.3-.548 1.957c-1.288-.219-2.571-.433-3.858-.653s-2.569-.437-3.853-.652q-.548.65-1.1 1.3c-.365.432-.732.868-1.1 1.3q-.826-.973-1.652-1.955t-1.659-1.956c-.367.813-.665 1.486-1 2.109a10.56 10.56 0 0 1-1.2 1.8c-.339.706-1.589-.13-3.23-1.213s-3.672-2.412-5.576-2.7c-.014-1.774-.024-3.266-.163-4.55a8.265 8.265 0 0 0-.935-3.268v-2.606h-3.306v3.911c-5.433 2.93-10.692 4.792-14.992 7.593a20.292 20.292 0 0 0-9.232 13.259h-2.2a39.443 39.443 0 0 1 .157-6.38 6.989 6.989 0 0 1 2.043-4.045v-3.91c-1.388-.092-3.915.6-6.346 1.127s-4.766.9-5.766.18h-2.2c.367-.433.732-.871 1.1-1.307l1.1-1.3c-.264-2.829-.353-4.128-.883-4.885s-1.5-.969-3.521-1.628c.745-1.809 1.439-3.174 2.013-4.7a22.359 22.359 0 0 0 1.288-5.724h3.306v-1.31a5.3 5.3 0 0 0 .712-1.469c.119-.46.186-1.088.391-2.438h-3.31c.97-2.5 1.177-3.367 1.038-4.482s-.62-2.467-1.038-5.947h-3.3a16.819 16.819 0 0 0-.573 3.155 4.837 4.837 0 0 1-.53 2.059c-.471.641-.736.469-1.3.059a6.829 6.829 0 0 0-3.1-1.361l-.552-3.912c-.183-1.3-.364-2.609-.546-3.909h-3.306c-.3.99-.5 1.536-.656 2.212a24.322 24.322 0 0 0-.445 3c-1.147-.736-1.648-1.225-2.295-1.611a9.451 9.451 0 0 0-3.211-1v5.214c-.551-.655-1.1-1.3-1.652-1.958s-1.1-1.3-1.654-1.954h-3.3c.3 3.283.163 5.922.575 8.209a9.2 9.2 0 0 0 3.815 6.127v2.606a24.38 24.38 0 0 1-3.058-1.011 8.189 8.189 0 0 1-2.446-1.6 5.271 5.271 0 0 1-.709-1.47c-.119-.46-.187-1.088-.391-2.438-2.993.524-3.867 1.04-4.659 1.008s-1.494-.623-4.149-2.31c-.367.432-.733.866-1.1 1.3l-1.1 1.3c.355 1.123.409 1.444.484 1.648a6.264 6.264 0 0 0 .616.96v2.606h-1.1a12.7 12.7 0 0 0-1.672-3.956 12.23 12.23 0 0 0-2.732-2.557v-3.915c-2.281.512-3.656 1.27-4.6 2.494a13.85 13.85 0 0 0-2.011 5.326l-1.652-1.3q-.824-.654-1.652-1.3l-.551.652-.549.653c1.107 6.46 4.9 10.582 8.858 14.122s8.088 6.506 9.863 10.643a5.5 5.5 0 0 0 2.379-2.45 20.572 20.572 0 0 0 .92-4.068c.687.439 1.255.792 1.783 1.186a9.251 9.251 0 0 1 1.521 1.418h5.5c-.183-.216-.367-.43-.549-.65s-.367-.436-.549-.655c.809-1.62.742-2 .919-2.112a15.069 15.069 0 0 0 2.381-.49v-6.516a12.437 12.437 0 0 1 5.492 4.029 21.942 21.942 0 0 0 5.528 5.091 9.957 9.957 0 0 1-1.928 2.275 17.726 17.726 0 0 1-2.478 1.634c.24 5.843 1.719 9.146 3.773 11.943s4.685 5.091 7.237 8.912a12.37 12.37 0 0 0 4.075-1.13 7.885 7.885 0 0 0 2.532-2.782h1.1a17.506 17.506 0 0 1-1.566 4.713 10.517 10.517 0 0 1-2.839 3.108c1.03 3.134 2.569 4.529 3.635 6.068s1.654 3.235.771 6.964c1.909.691 3.968.474 5.895.519s3.731.35 5.118 2.085a5.169 5.169 0 0 1 1 2.669c.148.863 2.136 5.252-1.549 8.416l-2.753 3.259q-2.752-.328-5.5-.652c-1.838-.22-3.674-.433-5.505-.653a6.6 6.6 0 0 0-1.568 2.424 9.718 9.718 0 0 1-1.734 2.785v1.308c-3.923-3.9-8.616-8.945-13.835-13.262s-10.969-7.906-17-8.9v-3.911a28.624 28.624 0 0 1-4.612-5.632 25.276 25.276 0 0 1-3.094-7.4 6.826 6.826 0 0 0-1.906 1.2 14.861 14.861 0 0 1-1.4 1.412q-.55-.654-1.1-1.3c-.365-.434-.733-.869-1.1-1.3v-5.216c-2.42-.219-3.072-.471-3.479-.377s-.573.527-2.028 1.679c-2.7-2.883-3.393-4-4.164-4.172s-1.619.629-4.645 1.56a38.871 38.871 0 0 0-4.989-3.846 21.367 21.367 0 0 0-6.02-2.669c-.368.809-.668 1.483-1 2.106a10.335 10.335 0 0 1-1.2 1.8c-.186.219-.368.438-.551.653s-.367.431-.549.653c-.3-.99-.5-1.537-.658-2.213a24.185 24.185 0 0 1-.445-3 136.2 136.2 0 0 1-16.338-.448c-6.5-.487-12.51-1.266-13.391-2.159h-2.2a32.443 32.443 0 0 0-.4 3.908c0 .864.145 1.729.4 3.911a29.472 29.472 0 0 0-6.682-4.113 12.094 12.094 0 0 0-6.53-1.1h-2.2a23.867 23.867 0 0 0 .6 3.363c.217.539.6.827 1.605 1.85v3.912a34.222 34.222 0 0 1-2.331-1.8 16.323 16.323 0 0 1-2.073-2.111h-3.316c-.29 1.8-.341 2.726-.43 3.395a4.1 4.1 0 0 1-.67 1.82v6.516h-1.1c-.368-.813-.665-1.485-1-2.106a10.383 10.383 0 0 0-1.2-1.8v-1.308c-.367.435-.732.871-1.1 1.305l-1.1 1.3a13.364 13.364 0 0 1-1.1-1.955 13.66 13.66 0 0 0-1.1-1.957c-.184-.22-.368-.436-.552-.653l-.549-.652v1.305a3.976 3.976 0 0 0-1.934 3.586 9.211 9.211 0 0 0 1.934 4.237c-.354 1.125-.409 1.444-.484 1.646a6.029 6.029 0 0 1-.616.96c-.186.22-.37.435-.552.655s-.367.435-.548.652a20.993 20.993 0 0 0-3.105-5.451 16.334 16.334 0 0 0-4.6-3.671 9.3 9.3 0 0 0 1.476 6.575 20.185 20.185 0 0 1 2.928 7.762 28.824 28.824 0 0 0-3.843.193 5.556 5.556 0 0 0-2.764 1.109 10.725 10.725 0 0 1-1.368-5.474 11.41 11.41 0 0 0-.834-4.953v-1.307c-1.37.96-1.693.88-1.789 1.091a25.026 25.026 0 0 1-.413 2.818h-3.3v5.228a7.817 7.817 0 0 1-4.1-3.128c-.863-1.292-1.457-2.854-2.5-4.691h-2.2a34.692 34.692 0 0 0 1.522 6.021 11.335 11.335 0 0 0 2.882 4.406v2.6c-3.918-1.9-7.52-3.945-10.956-5.143s-6.708-1.547-9.964-.068a25.186 25.186 0 0 1-.723-2.77 28.771 28.771 0 0 1-.38-3.746c-3.618-1.118-5.929-1.6-7.969-1.4s-3.81 1.086-6.346 2.7c-.671-1.329-.848-1.948-1.184-2.414a5.963 5.963 0 0 0-2.12-1.5c-1.168-1.507-2.117-.745-2.989.5s-1.666 2.981-2.517 3.407c-.576.291-2.112-.033-3.835-.433a26.55 26.55 0 0 0-4.971-.868q.274 1.632.549 3.256t.552 3.26c.952-.421 1.221-.481 1.393-.575a5.545 5.545 0 0 0 .812-.726h4.4a24.906 24.906 0 0 0-.72 2.766 28.236 28.236 0 0 0-.38 3.746c2.836.391 9.983 2.4 16.84 4.781s13.422 5.118 15.089 6.949a11.531 11.531 0 0 1 2.076-.362c.121-.11-.084-.536.127-2.244h5.507c-.22 1.34-.288 1.969-.407 2.435a5.1 5.1 0 0 1-.7 1.477l.549 1.954.552 1.954c1.921.668 3.841 1.871 5.7 2.631s3.647 1.074 5.312-.029c.849.217 2.63 1.746 4.268 3.76s3.141 4.516 3.438 6.672c2.8-.368 4.508.857 6.448 1.729s4.116 1.379 7.865-.428c.661 2.078.848 3.586 1.325 4.8a5.431 5.431 0 0 0 3.078 3.026 9.318 9.318 0 0 1-1.515 1.429 21.391 21.391 0 0 1-1.786 1.178v3.909c3.571.875 9.482 1.779 14.85 3.316s10.187 3.708 11.573 7.112a9.094 9.094 0 0 0 3.217-2.1 8.749 8.749 0 0 1 2.29-1.806 3.2 3.2 0 0 1 3.188.625c.762.558 1.376 1.127 2.317.676 1.785-1.079 2.524-1.732 2.728-2.609s-.142-1.963-.525-3.906c3.028.19 7.462 1.626 11.676 3.432a51.359 51.359 0 0 1 10.344 5.689l.549 1.955c.184.655.365 1.3.551 1.952 1.512 1.076 2.393.483 3.281-.081a2.417 2.417 0 0 1 3.325.081c1.132.868 1.638 2.781 2.164 4.658s1.056 3.727 2.242 4.467h7.708c2.2 1.1 4.407 4.2 6.883 6.456s5.231 3.656 8.533 1.364c1.777 1.293 3.41 4.249 5.294 6.878s4.025 4.908 6.82 4.855c2.933-.056 6.389-1.792 10-3.3s7.373-2.779 10.919-1.915a84.886 84.886 0 0 1 10.477 3.79 35.217 35.217 0 0 0 11.542 2.729 31.754 31.754 0 0 0 .4 3.742 24.451 24.451 0 0 0 .7 2.773c9.336-.21 15.308 1.056 20.777 3.049s10.436 4.7 17.759 7.375c3.724 1.362 7.257 1.091 10.982.938s7.646-.179 12.139 1.667a44.969 44.969 0 0 1 6.4 3.886 37.975 37.975 0 0 0 6.812 3.936c3.776 1.411 8.826 1.8 13.844 1.966s10.012.116 13.68.641c3.533.5 9.491-1.163 15.17-3.1s11.067-4.144 13.459-4.722q2.2.33 4.4.653c1.469.216 2.935.433 4.405.652 14.866-4.242 34.447-6.1 53.595-5.807s37.871 2.737 51 7.109c3.446 1.15 6.856 1.021 10.312 1h.644v-64.665c-2.745.402-5.67 1.129-10.966 2.437zM24 1609v216.322c.032.012.063.036.094.047h1.1c4.249.659 8.192-2.7 12.112-1.3 2.625.935 3.991 5.065 8.808 3.909 4.223-1.011 3.131-3.392 8.808-2.606 1.933-4.988 3.855-6.6 7.707-9.123-1.356-2.919-16.564-14.52-19.819-15.64v-3.912c7.817 1.024 6.826 5.988 12.112 9.125 2.372 1.311 3.5-2.088 5.505-1.3.943.365 4.564 4.863 5.505 5.214 2.29.851 32.088-5.166 35.233-7.821 7.83-.223 7.744-2.972 12.112-6.518.083-8.536-1.821-9.147-2.2-19.55-6.353-.4-15.833-4.294-18.716-2.607h-1.1l1.1-2.609c-2.091-1.159-5.881-4.768-7.708-5.213-6.07-1.489-12.974 2.233-18.717-2.609q-.55-2.6-1.1-5.214c-2.815-1.833-12.424 3.793-18.72-2.606h-1.1v-1.3h4.4c.365-4.642.068-4.344 2.2-6.518.308-.427 5.732.917 7.707 2.606h2.2l1.1-6.516c6.943.665 10.881 5.526 15.415 7.82l14.315-1.3 2.2 5.214c4.795.033 15.323 2.191 19.819-1.3 2.981 1.46 3.114 2.752 6.605 3.911-.967 3.073-.415 2.151-2.2 3.912v2.606c9-.237 12.82-5.077 18.717-6.518l12.112 1.305c.783-.412 10.741-11.433 12.111-13.035 8.766 1.26 25.677 6.225 28.63 5.213 3.615-1.242 3.3-5.213 3.3-5.213 4.292-3.355 9.6-2.607 14.313-5.214 2.681-1.485 5.329-6.54 7.707-7.821 11.361-6.113 18.8 4.959 28.63-3.908 6.73-4.35 7.548-16.687 12.111-20.855 3.761-3.441 8.538-1.147 13.212-3.912q1.652-2.6 3.3-5.211c4.831-3.657 16.785-8.295 22.02-10.428 12.584-5.133 24.485 2.705 33.032 5.214l11.011-1.3c5 1.435 17.954 2.292 19.819 3.911.368 1.3.733 2.609 1.1 3.911 8.742 4.884 16.585-6.509 24.223-1.3 7.818.309 7.5 4.407 9.911 10.427 17.286.7 27.454 4.392 39.636 6.518.441 2.676.273 2.511 1.1 3.908v1.3c-3.484-.768-8.3-1.192-9.909 0h-2.2c1.049 5.255 2.924 5.973 7.707 6.518-5.247 3.772-25.38-.517-27.527-3.911-1.657 2.4-2.049 4.716-2.2 9.123a13.62 13.62 0 0 0-5.5-1.3 27.374 27.374 0 0 1 2.2-5.216v-1.3c-10.443.818-7.676 6.421-12.112 9.125-2.669 1.625-6.836-.211-8.806 1.3-.834 1.4-.693 1.2-1.1 3.911l6.607 1.3c-.438 2.678-.273 2.512-1.1 3.911-.816 3.022-1.144 2.912-2.2 5.213-5.054 1.142-19.944-1.192-23.121 0-4.944 1.856-11.086 8.5-15.413 11.735 2.855 5.169 6.205-.324 11.008 2.606q1.1 2.6 2.2 5.213c4.8 3.407 13.124 1.453 17.62 1.3 4.731-.157 6.483 5.086 13.21 5.216a21.246 21.246 0 0 0-1.1-5.216l5.505-6.516c2.791.136 4.08.158 5.507 1.3h2.2a25.378 25.378 0 0 1 0 10.428c1.9.839 1.077.255 2.2 1.3 3.441-.935 2.31-.857 4.4-2.606 1.732-.118 1.657 1.967 4.405 2.606 5.116 1.19 8.224-1.741 13.213-2.606 3.885-.676 6.506 2.23 8.806 2.606 2.514.413 3.138-2.237 4.4-2.606 4.223-1.233 5.8 1.989 7.708 2.606 5.324 1.724 9.624-3.116 13.21-3.908 9.149-2.031 26.087 9.048 30.831 6.516.857-1.853-.137-2.278-1.1-5.214 2.091-1.3 3.023-1.8 4.4-3.911 1.835.436 3.674.868 5.505 1.3 1.415 4.629 1.065 13.459 3.3 18.251 3.4 7.269 11.451 9.929 17.614 14.336 5.075 3.629 7.409 13.031 12.114 16.945q2.75.654 5.5 1.3 6.606 8.478 13.215 16.948h8.831l6.605 7.821c1.551.785 3.526-3.574 6.607-2.607 1.771.555 4.1 4.227 5.5 5.213 2.847 2 5.489.61 8.806 2.606 7.159 4.3 10.431 11.3 15.419 18.25 1.533 1.192 6.159 1.453 7.7 2.606q1.65.652 3.3 1.307-.552 5.857-1.1 11.729c6.291-.878 6.786-4.87 11.012-6.518 6.187-2.412 12.8 2.871 16.513 3.911 6.456 1.8 15.434-1.109 23.123-1.3v-3.909c2.986 2.295 2.583 3.494 5.5 0 14.93 1.919 13.1 25.906 20.917 36.493 1.771 3.716 5.266 3.749 7.71 6.519v2.607h5.5c.733 1.735 1.473 3.475 2.2 5.214 4.243 2.563 13.081.116 17.619 2.606 1.958 1.077 5.13 5.578 7.705 6.516 4.822 1.759 8.579-1.913 11.009-2.607 7.381-2.106 13.817 3.149 17.619 5.214q6.056-.654 12.111-1.3 2.2 2.6 4.4 5.211c3.281 1.266 3.366-2.408 4.406-2.606 3.005-.579 3.633 3.616 5.505 3.909 2.74.427 5.389-4.154 9.908-2.607 3.536 1.21 11.258 4.736 17.617 6.518h27.527c9.033 2.658 25.805 10.119 33.031 0 8.7.95 8.868 12.877 13.215 19.55 5.087 7.821 12.541 10.06 19.82 15.643 5.011 3.841 7.853 14.4 9.9 18.245.37.436.736.866 1.1 1.305.515.056.338-1.172 2.2 0 1.6 1 1.206 3.143 2.2 3.909h5.5l4.4 9.125a8.5 8.5 0 0 0 2.286 1.666V1609z"/><path fill="#8da9c4" d="M162.934 1797.996v2.609c11.842 6.844 16.373 1.918 24.223 13.034 1.485-2.272.08-2.2 1.1-3.911 5.7-10.451 17.732-1.566 26.424-9.123.465-.88.966-7.589 1.1-11.729 4.161 1.794 4.6 5.916 7.707 7.818 6.524 4 13.742 1.353 19.819 2.609 3.906.806 6.988 5.264 9.908 6.516l26.425 1.3c14.365 3.92 53.414-1.536 62.762-6.516a19.143 19.143 0 0 0 1.1-5.216c-5.51-.112-16.219 4.214-19.819 2.606-2.2-.979-5.988-7.246-7.707-7.817-2.793-.934-2.191 2.148-3.3 2.606-2.874-.738-7.634-1.08-11.011-2.606-6.708-3.034-11.8-12.918-16.516-15.644-4.217-2.441-9.244-1.151-13.212-3.911q-2.75-3.913-5.505-7.821c-4.49-3.665-13.9-8.493-18.716-10.428-6.706-2.693-14.41 2.539-19.82 1.3-6.414-1.465-12.175-5.425-17.616-6.518-10.51-2.111-19.775 6.845-30.829 7.82v2.609c4.288-.155 10.667-.7 13.212 1.305 5.587.7 5.406 2.533 8.809 5.214-1.985 5.151-.311 11.652 2.2 19.552q-2.2 2.607-4.405 5.216c-6.444-.929-14.417-2.9-19.817-3.912.961 4.2-.6 2.011 2.2 3.912v1.3c-7.542-1.334-6.564-7.762-12.112-10.43-7.476-3.592-18.671.192-26.425 1.307.585 3.642 4.409 14.12 5.505 15.638 6.576 6.149 10.956-.371 14.316 1.311zM929.239 2759.984c-.539-.139-1.08-.276-1.614-.409-6.522-1.629-12.491-2.888-12.645-2.8-1.488-.542-1.477-.662-1.378-.911s.294-.628-.824-1.694c-1.5-.943-6.687-2.3-12.068-2.588s-10.959.513-13.256 3.89a33.869 33.869 0 0 1-2.355-5.285c-.723-1.918-1.394-3.81-2.05-5.142-1.948.422-2.879.644-3.547 1.141a9.113 9.113 0 0 0-1.958 2.773 11.434 11.434 0 0 1-1.032-2.708 6.093 6.093 0 0 0-1.169-2.507c-.926-.768-2.547-.736-3.951-.534s-2.594.6-2.655.534a4.327 4.327 0 0 1-1.356-3.158c-.13-.783-.542-1.38-3.049-2.058v3.914a14.723 14.723 0 0 0-8.612-2.358c-2.4.039-4.323.436-5.7-.246-.733-.87-1.471-1.741-2.2-2.609l-2.2-2.606c-6.248-2.981-9.938-3.552-12.839-5.374s-5-4.9-8.079-12.874h-4.4v3.911c-1.288-.22-2.571-.434-3.858-.653s-2.568-.433-3.855-.652c-.3-.994-.495-1.54-.655-2.216a24.385 24.385 0 0 1-.447-3 11.033 11.033 0 0 0-3.049 1.652c-.656.5-1.029.889-1.353.958-1.359.967-1.869 1.368-2.061 2.145a35.351 35.351 0 0 0-.142 4.374h-1.1c-.484-1.389-.919-2.838-1.427-4.194a13.688 13.688 0 0 0-1.877-3.624v-1.311c-1.406.828-2 1.165-2.361 1.779a15.488 15.488 0 0 0-.937 3.437h-4.406c.37-.81.667-1.486 1-2.106a10.224 10.224 0 0 1 1.2-1.8c-.22-1.343-.288-1.97-.407-2.438a5.128 5.128 0 0 0-.7-1.477 8.375 8.375 0 0 0-2.42-1.343 25.581 25.581 0 0 0-4.184-1.263v3.907c-2.019-.282-3.186-.459-4.232-.149s-1.963 1.1-3.478 2.76h-1.1c.184-1.092.367-2.174.549-3.262s.368-2.17.551-3.256a56.971 56.971 0 0 0-7.052 2.044c-2 .587-3.488.709-3.959-.742a10.558 10.558 0 0 0-1.37 2.883 29.045 29.045 0 0 0-.833 3.631c-.914.219-1.835.433-2.75.653s-1.838.435-2.753.653v-6.515h-6.6a28.412 28.412 0 0 0 .465 2.995c.157.68.344 1.23.637 2.219-.183-.217-.367-.433-.548-.652s-.367-.436-.551-.65c-2.672.418-3.647.907-4.292 1.69s-.964 1.886-2.313 3.518c-.96.88-1.424.907-1.83.859a1.517 1.517 0 0 0-1.474.445c-2.339-.911-2.928-.942-2.919-1.376a13.428 13.428 0 0 0 .717-3.837c-.184-.217-.368-.433-.552-.652s-.364-.436-.548-.652c-1.741-.124-4.22-.124-6.261-.092s-3.65.092-3.65.092c-3.129.359-4.342.957-5.13 1.976s-1.15 2.473-2.574 4.54c-1.055.6-1.26.729-1.509.643a6.107 6.107 0 0 0-1.792-.643c-.184.22-.368.436-.552.655s-.367.434-.549.655a15.912 15.912 0 0 0 .871 3.781c.32.774.717 1.37 1.332 2.734 3.757.115 5.4.25 6.652-.036s2.13-.994 4.359-2.568c.7 1.874 1.593 4.6 2.547 7.278a50.33 50.33 0 0 0 2.957 7.062v1.305c1.531-1.071 2.384-2.88 3.116-4.82a29.27 29.27 0 0 1 2.39-5.611c1.055-.6 1.255-.726 1.506-.644a5.844 5.844 0 0 0 1.8.644l.548-3.254.552-3.259a21.2 21.2 0 0 1 5.736 2.734 7.421 7.421 0 0 0 5.273 1.175v7.823c1.557-.753 2.075-.8 2.357-1.118s.332-.919.946-2.794a5.339 5.339 0 0 1 2.079 3.549 14.68 14.68 0 0 0 1.225 4.277 11.158 11.158 0 0 0 2.749 1.31 11.979 11.979 0 0 1 2.744 1.299c1.643 1.193 2.151 2.188 2.132 3.367a24.766 24.766 0 0 1-1.033 4.451 7.254 7.254 0 0 0 4.074-.359 21.955 21.955 0 0 0 2.532-.944c2.553 1.3 5.928 3.856 9.318 4.97s6.794.789 9.4-3.666a14.289 14.289 0 0 1 2.067.938 9.068 9.068 0 0 1 1.231 1.666 3.989 3.989 0 0 1-.042 2.939 31.23 31.23 0 0 0-1.055 4.879c2.8.608 4.648 1.45 6.389 1.554s3.364-.53 5.721-2.861a4.231 4.231 0 0 0 .466-2.628 9.742 9.742 0 0 0-1.568-2.583v-1.307h2.2c.282 1.388.527 2.563.852 3.621a10.7 10.7 0 0 0 1.35 2.894 19 19 0 0 1-3.61 5.362 13.077 13.077 0 0 0-3 6.373 33.132 33.132 0 0 1-2.993-2.3 13.925 13.925 0 0 1-2.509-2.913c-5.127.089-6.9.611-8.022 1.5s-1.586 2.147-4.087 3.71a22.148 22.148 0 0 1-3.122-.887c-1.6-.456-3.452-.833-4.587-.415-3.206 1.166-7.809 3.874-12.2 5.751s-8.567 2.924-10.923.765a20.322 20.322 0 0 0-3.161.474 17.519 17.519 0 0 0-2.345.827 22 22 0 0 0 3.876 9.728 15.818 15.818 0 0 0 7.135 5.914v1.3c-2.292.42-4.393-.335-6.524-.978s-4.289-1.18-6.69-.324a3.769 3.769 0 0 0-1.924 2.461 7.272 7.272 0 0 1-1.377 2.752q-3.3 1.3-6.607 2.609t-6.608 2.607c.354 1.126.409 1.444.484 1.648a6.027 6.027 0 0 0 .616.958v1.307c-.916-.436-1.836-.871-2.752-1.3s-1.838-.866-2.753-1.3c-.184.219-.367.433-.548.65s-.368.435-.551.655c1.365 2.464 1.669 4.79 2.443 6.8a9 9 0 0 0 .794 1.574h196z"/><path fill="#133c55" d="M305.567 2600.822a15.087 15.087 0 1 1-15.081-15.095 15.068 15.068 0 0 1 15.081 15.095"/><path fill="#e09b60" d="M298.026 2600.817a7.546 7.546 0 1 1-7.527-7.548 7.524 7.524 0 0 1 7.527 7.548"/><path fill="#133c55" d="M311.773 2021.955a15.087 15.087 0 1 1-15.081-15.095 15.068 15.068 0 0 1 15.081 15.095"/><path fill="#e09b60" d="M304.232 2021.951a7.546 7.546 0 1 1-7.529-7.553 7.524 7.524 0 0 1 7.527 7.548"/><path fill="#133c55" d="M801.487 2412.905a15.087 15.087 0 1 1-15.083-15.095 15.068 15.068 0 0 1 15.083 15.095"/><path fill="#e09b60" d="M793.946 2412.9a7.547 7.547 0 1 1-7.527-7.545 7.526 7.526 0 0 1 7.527 7.545"/><path fill="#133c55" d="M397.073 1760.404a22.594 22.594 0 1 1-22.581-22.6 22.561 22.561 0 0 1 22.581 22.6"/><path fill="#e09b60" d="M386.079 1760.392a11.6 11.6 0 1 1-11.6-11.6 11.583 11.583 0 0 1 11.6 11.6"/><path fill="#133c55" d="M522.689 2405.912a15.087 15.087 0 1 1-15.082-15.09 15.068 15.068 0 0 1 15.082 15.09"/><path fill="#e09b60" d="M515.148 2405.907a7.547 7.547 0 1 1-7.527-7.548 7.524 7.524 0 0 1 7.527 7.548"/><path fill="#133c55" d="M514.816 2131.205a15.087 15.087 0 1 1-15.081-15.095 15.068 15.068 0 0 1 15.081 15.095"/><path fill="#e09b60" d="M507.275 2131.2a7.547 7.547 0 1 1-7.527-7.548 7.525 7.525 0 0 1 7.527 7.548"/><path fill="#001024" d="M388.124 1827.854l-4.42 4h-15.496l-3.588-4 .832-8.008h8.008l-.416 4h7.488l.624-5.98H369.66l-3.588-4 1.46-13.992 4.42-4h15.5l3.588 4-.832 8.008h-8.012l.416-4h-7.488l-.624 5.972h11.492l3.588 4zm29.276-27.98l-1.456 13.988-4.42 4h-10.036l-.628 5.984h1.98l-.832 8.008h-11.96l.832-8.008h1.98l2.08-19.968h-1.98l.832-7.956h20.02zm-9.048 9.98l.624-5.98h-6.032l-.624 5.98zm32.188 10.04l-1.248 11.96H416.62l.832-7.956h1.976l2.08-20.02h-1.976l.832-7.956h11.96l-.832 7.956h-1.976l-2.08 20.02h4.68l.416-4zm14.2 3.952l-.836 8.008h-11.96l.832-8.008h1.976l2.08-19.968h-1.972l.832-8.008h11.96l-.832 8.008h-1.98l-2.08 19.968zm29.12-27.976l-1.248 12.012h-5.98l.416-4h-2.028l-2.08 19.968h2.02l-.828 8.004H462.12l.832-8.008h2.028l2.08-19.968h-2.028l-.416 4h-6.032l1.248-12.012zM421.08 2175.617l-.592 5.7h-8.51l.592-5.7h1.406l.851-8.325-4.847 7.846-3.145-7.844-.851 8.323h1.406l-.592 5.7h-8.51l.592-5.7h1.406l1.477-14.206h-1.4l.592-5.7h6.7l3.552 7.881 5.285-7.875h6.66l-.592 5.7h-1.406l-1.48 14.2zm10.36 0l-.592 5.7h-8.51l.592-5.7h1.406l1.48-14.208h-1.406l.592-5.7h8.51l-.592 5.7h-1.406l-1.48 14.208zm18.352-2.81l-.888 8.51h-16.132l.591-5.661h1.406l1.48-14.245h-1.405l.592-5.661h8.51l-.592 5.661h-1.406l-1.485 14.245h3.33l.3-2.849zm22.792-17.09l-.592 5.7h-1.443l-2.072 19.9h-5.772l-3.7-12.21-.666 6.51h1.443l-.592 5.7h-8.547l.592-5.7h1.443l1.48-14.208h-1.443l.592-5.7h6.993l3.848 12.58.74-6.882h-1.443l.592-5.7zm8.4 12.8h2.627l-.7-6.142zm10.507 7.139l-.592 5.661h-8.51l.592-5.661h1.406l-.148-1.439h-5.069l-.444 1.443h1.406l-.592 5.657h-8.51l.592-5.661h1.406l4.514-14.245h-1.628l.592-5.661h14.208l-.592 5.661h-1.591l1.554 14.245zM213.113 2079.369l-3.145 2.849h-11.026l-2.553-2.849.592-5.7h5.698l-.3 2.849h5.328l.444-4.255h-8.172l-2.554-2.845 1.036-9.953 3.145-2.847h11.026l2.553 2.849-.592 5.7h-5.7l.3-2.849h-5.33l-.444 4.249h8.177l2.553 2.851zm18.426 0l-3.145 2.849h-11.026l-2.516-2.849 2.072-19.869 3.108-2.849h11.026l2.553 2.849zm-5.4-2.812l1.48-14.245h-5.33l-1.48 14.245zm23.94-2.849l-.891 8.51h-16.132l.592-5.661h1.406l1.48-14.245h-1.406l.592-5.661h8.51l-.592 5.661h-1.406l-1.48 14.245h3.327l.3-2.849zm20.31-17.09l-.888 8.547h-4.255l.3-2.849h-1.447l-1.48 14.202h1.443l-.592 5.7h-8.547l.592-5.7h1.443l1.48-14.208h-1.443l-.3 2.849h-4.288l.888-8.547zm8.473 12.8h2.627l-.7-6.142zm10.508 7.139l-.591 5.661h-8.51l.592-5.661h1.406l-.149-1.439h-5.069l-.444 1.443h1.406l-.592 5.657h-8.51l.592-5.661h1.406l4.514-14.245h-1.628l.592-5.661h14.208l-.592 5.661h-1.591l1.554 14.245zM741.384 2458.168l4.218-13.283h-1.406l.592-5.661h8.51l-.592 5.661H751.3l-6.327 19.906h-8.548l-2.182-19.906h-1.406l.588-5.661h8.51l-.592 5.661h-1.402zm28.675 3.774l-3.145 2.849h-14.689l.592-5.7h1.408l1.48-14.208h-1.408l.592-5.661h14.689l2.553 2.849-.888 8.51-1.591 1.41 1.295 1.443zm-5.402-2.851l.444-4.255h-4.736l-.44 4.255zm1.036-9.916l.444-4.292h-4.736l-.444 4.292zm22.832 12.767l-3.148 2.849h-11.026l-2.516-2.849 2.072-19.869 3.108-2.849h11.026l2.553 2.849zm-5.4-2.812l1.48-14.245h-5.333l-1.48 14.245zm25.6 0l-.593 5.661h-7.881l.592-5.661h1.147l.444-4.292h-4.44l-.444 4.292h1.443l-.592 5.661h-8.547l.592-5.661h1.443l1.48-14.245h-1.444l.592-5.661h14.394l2.553 2.849-.888 8.51-1.551 1.408 1.258 1.443-.592 5.7zm-5.7-9.953l.444-4.292h-4.444l-.444 4.292zm23.681 12.765l-3.145 2.849h-11.026l-2.553-2.849.592-5.7h5.7l-.3 2.849h5.328l.444-4.255h-8.175l-2.553-2.845 1.036-9.953 3.145-2.847h11.026l2.553 2.849-.592 5.7h-5.7l.3-2.849h-5.33l-.444 4.255h8.177l2.553 2.845zm21.053-17.057l-6.7 7.1 5.217 7.1h1.3l-.594 5.706h-8.547l.59-5.7h1.184q-.777-1.073-1.554-2.128t-1.591-2.128h-.7l-.445 4.256h1.443l-.592 5.7h-8.545l.592-5.7h1.443l1.48-14.208h-1.445l.592-5.7h8.547l-.592 5.7h-1.443l-.444 4.255h.7q1.036-1.073 2.035-2.127t2-2.128h-1.184l.592-5.7h8.547l-.592 5.7zm10.766 7.106h2.627l-.7-6.142zm10.508 7.141l-.591 5.659h-8.51l.592-5.661h1.401l-.143-1.439h-5.069l-.444 1.443h1.406l-.592 5.657h-8.51l.592-5.661h1.406l4.514-14.245h-1.628l.592-5.661h14.208l-.592 5.661h-1.591l1.551 14.245zM449.513 2465.683l-.59 5.7h-8.549l.592-5.7h1.443l.444-4.255h-5.291l-.444 4.255h1.405l-.591 5.7h-8.509l.592-5.7h1.408l1.48-14.208h-1.409l.592-5.7h8.51l-.592 5.7h-1.406l-.444 4.255h5.291l.444-4.255h-1.443l.592-5.7h8.547l-.592 5.7h-1.443l-1.48 14.208zm11.877-.925l4.218-13.283h-1.406l.592-5.661h8.51l-.592 5.661h-1.406l-6.327 19.908h-8.547l-2.183-19.906h-1.406l.592-5.661h8.51l-.592 5.661h-1.406zm20.5-6.179h2.627l-.7-6.142zm10.506 7.143l-.592 5.661h-8.51l.592-5.661h1.406l-.148-1.439h-5.069l-.444 1.443h1.406l-.592 5.657h-8.51l.588-5.661h1.41l4.514-14.245h-1.624l.592-5.661h14.208l-.6 5.661h-1.587l1.554 14.245zm19.684 0l-.592 5.661h-7.881l.592-5.661h1.147l.444-4.292h-4.44l-.444 4.292h1.443l-.592 5.661h-8.547l.592-5.661h1.443l1.478-14.245h-1.441l.592-5.661h14.393l2.556 2.849-.888 8.51-1.557 1.408 1.258 1.443-.592 5.7zm-5.7-9.953l.444-4.292h-4.44l-.444 4.292zm34.188-9.99l-.888 8.547h-4.257l.3-2.849h-1.443l-1.48 14.206h1.443l-.592 5.7h-8.547l.592-5.7h1.443l1.48-14.208h-1.443l-.3 2.849h-4.288l.888-8.547zm15.875 22.755l-3.145 2.849h-11.026l-2.516-2.849 2.067-19.869 3.108-2.849h11.026l2.553 2.849zm-5.4-2.812l1.48-14.245h-5.33l-1.48 14.245zm32.262-19.869l-.592 5.661h-1.443l-2.109 19.906H573.5l-3.4-6.771-5.295 6.771h-5.661l2.109-19.906h-1.443l.592-5.661h8.547l-.592 5.661h-1.443l-.888 8.362 5.254-6.771 3.441 6.771.888-8.362h-1.443l.592-5.661zm20.794-.074l-.592 5.7h-1.443l-2.072 19.904h-5.769l-3.7-12.21-.669 6.51h1.443l-.592 5.7h-8.547l.592-5.7h1.443l1.48-14.208h-1.443l.592-5.7h6.993l3.848 12.58.74-6.882h-1.443l.592-5.7z"/><path fill="#aa9e88" d="M195.894 2280.583h2.629l-.7-6.142zm10.508 7.139l-.592 5.661h-8.51l.592-5.661h1.406l-.148-1.439h-5.069l-.444 1.439h1.406l-.592 5.661h-8.51l.592-5.661h1.406l4.514-14.245h-1.63l.592-5.661h14.208l-.592 5.661h-1.589l1.554 14.245zm19.24 2.812l-3.145 2.849h-15.133l.592-5.661h1.406l1.48-14.245h-1.406l.592-5.661h15.133l2.553 2.849zm-5.4-2.812l1.481-14.245h-5.18l-1.483 14.245zm25.641 0l-.594 5.661h-7.881l.592-5.661h1.147l.444-4.292h-4.44l-.444 4.292h1.443l-.592 5.661h-8.547l.592-5.661h1.443l1.477-14.245h-1.44l.592-5.661h14.393l2.555 2.849-.888 8.51-1.556 1.408 1.258 1.443-.592 5.7zm-5.7-9.953l.444-4.292h-4.44l-.444 4.292zm15.984 9.914l-.592 5.7h-8.51l.592-5.7h1.406l1.48-14.208h-1.406l.592-5.7h8.51l-.592 5.7h-1.406l-1.48 14.208zm10.841-7.1h2.627l-.7-6.142zm10.508 7.139l-.593 5.661h-8.51l.592-5.661h1.406l-.147-1.439h-5.069l-.444 1.443h1.406l-.592 5.657h-8.51l.592-5.661h1.406l4.514-14.245h-1.628l.592-5.661h14.208l-.592 5.661h-1.591l1.554 14.245zm20.387-19.939l-.888 8.547h-4.255l.3-2.849h-1.447l-1.48 14.202h1.443l-.592 5.7h-8.547l.592-5.7h1.443l1.48-14.208h-1.443l-.3 2.849h-4.286l.888-8.547zm8.14 19.9l-.592 5.7h-8.51l.592-5.7h1.406l1.484-14.206h-1.41l.592-5.7h8.51l-.592 5.7h-1.406l-1.48 14.206zm18.944 2.849l-3.145 2.851H310.15l-2.553-2.849 2.072-19.869 3.145-2.849h11.692l2.553 2.849-.592 5.661h-5.7l.3-2.849h-5.994l-1.48 14.245h5.994l.3-2.849h5.7zm26.381 0l-3.145 2.851h-11.026l-2.553-2.849.592-5.7h5.7l-.3 2.849h5.328l.444-4.255h-8.175l-2.553-2.845 1.036-9.953 3.145-2.849h11.026l2.553 2.849-.592 5.7h-5.7l.3-2.849h-5.328l-.444 4.255h8.177l2.553 2.849zm18.685 2.851h-17.242l.592-5.7h1.443l1.48-14.208h-1.443l.592-5.7h17.242l-.888 8.547h-5.7l.3-2.849h-4.44l-.444 4.255h5.513l-.592 5.7h-5.513l-.446 4.255h4.44l.3-2.849h5.7zm11.433-12.8h2.627l-.7-6.142zm10.508 7.141l-.592 5.659h-8.51l.592-5.661h1.406l-.148-1.439h-5.069l-.444 1.443h1.406l-.592 5.657h-8.51l.592-5.661h1.406l4.514-14.245h-1.628l.592-5.661h14.208l-.592 5.661h-1.591l1.554 14.245z"/><path fill="#001024" d="M338.892 2616.198l4.218-13.283h-1.406l.592-5.661h8.51l-.592 5.661h-1.406l-6.327 19.906h-8.548l-2.182-19.906h-1.406l.588-5.661h8.51l-.592 5.661h-1.402zm20.165.923l-.592 5.7h-8.51l.592-5.7h1.406l1.48-14.206h-1.406l.592-5.7h8.514l-.6 5.7h-1.4l-1.482 14.206zm18.2 2.849l-3.141 2.851H363.09l-2.557-2.849.592-5.7h5.7l-.292 2.849h5.328l.444-4.255h-8.179l-2.553-2.845 1.036-9.953 3.145-2.847h11.026l2.553 2.845-.592 5.7h-5.7l.3-2.849h-5.33l-.444 4.255h8.177l2.553 2.849z"/></g></svg>