<svg xmlns="http://www.w3.org/2000/svg" viewBox="0 0 600 800"><defs><style>.cls-1{fill:#8da9c4;}.cls-2{fill:#fff;}.cls-3{fill:#133c55;}.cls-4{fill:#c2b59b;}.cls-5{font-size:34.78px;}.cls-5,.cls-6{fill:#001024;font-family:SoccerLeague-Italic, Soccer League;font-style:italic;}.cls-6{font-size:25.43px;}</style></defs><g id="Layer_2" data-name="Layer 2"><g id="Layer_1-2" data-name="Layer 1"><g id="Layer_5" data-name="Layer 5"><rect class="cls-1" width="600" height="800"/><path class="cls-2" d="M223.83,337.18v1.18a2.82,2.82,0,0,0-.2,1.77,13.32,13.32,0,0,0,2.75,1.58v1.18l-2,1.37.19.4c3.38.15,8.36,3.17,11.61,2.75,1.45-3.1,2.11-2.78,2-6.88H240a10.07,10.07,0,0,1,4.13-3.15v-.2c-.87-.27-1-.18-1.18-1.17l.2-.6c2.92-1.1,6.11-.93,8.85-2.16s4.71-3.74,8.65-5.11c0-2.68-.8-3.79-1-5.9.94-.63,1.66-1.49,1.37-2.56-.86-1.53-1.81-.87-3.54-1.57-2.14-.87-3.33-2.83-4.32-4.92-2.73.83-5.08-.91-7.48-.39-.26-.88-.31-.77-1-1.18-.43,1.07-2.22.38-3.74.39v-1.37c-2.63.48-6.11,4.42-7.47,6.29a5.46,5.46,0,0,1-1,3.54l-2,1.57c-.63,1.45.19,2.6-.39,3.74a5.22,5.22,0,0,0-3.54,2.56c.07,2.09.13,4.19.2,6.29a13.47,13.47,0,0,0-3.94,2.75Z"/><path class="cls-2" d="M118.42,732.26c.58-.81.89-.38.19-1.18-.32-1-1-1.06-1.57-1.77l-2.16,1.18-.39-.79c-1,.36-.67.62-2,.79-2-.79-3.35.55-5.31,0-.6-.17-1-1.42-2-1.18a10.49,10.49,0,0,1-2,.79v-2.17c-1.89,0-2.51-.73-3.54-1a5.65,5.65,0,0,1-1.77.79v-1.18l-3-.2c-2.22-6.69-21.61-8.29-26.75-12.19l-2.16,2.36a4,4,0,0,1,.78,2.55c-2.36,1.91-4,1.91-7.08,1l-.39-1.57c-.62.46-.85.91-1.77.58-.62-.46-.62-.83-.59-2-.86.35-1.74,0-2.36.4l-2.16,1.77v.19c2.18.87,1.78,2.79,2.36,4.73,1.3-.48,2.3-.44,3,.78A10.59,10.59,0,0,1,59,727.93c-.79.36-.64.31-.79.79a6.68,6.68,0,0,1,2.95-1l.39.58c.85,1.14.7,3.83.4,5.71a6.34,6.34,0,0,1,3.54-.2c-.28,2.93,0,2.62.79,5.12a6.38,6.38,0,0,1,3,.39l1,1.57a13.75,13.75,0,0,0-.79,4.92l.39.2a11.54,11.54,0,0,1,5.51,1.57L75,749.76c2.53,1.29,2.43,3.93,3.14,6.49h.2c1-.54,1.16-1.66,2-2.16,2.23-1.4,3.83,3.31,4.32,3.93a14.33,14.33,0,0,0,5.31-2.75c2.43,0,2.43.87,4.72,1,.69-.65.44-.85,1.77-1L98.16,757l1-1c1.62-.74,3.1-2.88,4.32-4.13l-.39-2.35c1.11-.73,1-1.45,2.76-1.58l-.6-.59a12.92,12.92,0,0,1-1.17-5.7c1.16-.81,1.74-2,2.75-3,1.08.21.94.43,1.57,1L109,739c.53-1.63.22-2.39-.2-3.93,3.34.76,6,1.49,9.64,1l1.57-2-1.57-1v-.78Z"/><path class="cls-2" d="M258.77,663.14c.57-1.24,1.74-2.55.79-3.94-.79-.91-1.58-1.83-2.36-2.75a3.29,3.29,0,0,1-2.76,0c-.06-.58-.13-1.18-.19-1.77l1-.59v-.19a6.83,6.83,0,0,1-4.33-1.18v-1.38l-2,.2c-.32,1.82-1.48,1.38-3.14,1.77.06.19.13.39.2.59,1.12.57,3.12,2.39,2.55,3.94s-1.81,1.5-2.75,2.55c-2.76,3.07-2,5.28-7.87,5.11-.06-.2-.13-.39-.19-.59v-2.36h2c-.93-.84-2.23-.93-2.95-1.57.2-1.37.4-2.75.59-4.13v-.2c-2,.05-2.77.69-4.72.59v-.78l.2-.39,1.18-.2c-.3-.73-.32-1-1-1.38-1.32-.35-3.86.64-5.51.79-.08,1-.18,1.29-.79,1.77-.76-.68-.08-.57-1-.4.07.52.13,1.06.2,1.58h-.59A4.24,4.24,0,0,0,223,657a2.52,2.52,0,0,1-2,1.19c-.33-.39-.66-.79-1-1.19l-.2.4c-1,1.72-.6,3-2.36,3.93h-2.95c0-1,.17-1.94-.59-2.56.07.86.13,1.71.2,2.56l-1.58.2c-2-3.46-8.35-2.49-10.81.19-.21,9.56,3.6,6.62,9.24,9.25.9,2.77,2.85,4.49,3.94,7.07,1.08-.13,1.28-.44,1.77.4.81.77.39,2.64.78,3.35.29-.87.4-.87,1.18-1.19-.06-.52-.13-1-.19-1.57l1.37-.2-.39,1.39c1-.65,1.08-.52,2,.38.07-1.56.45-1.85,2.17-1.77l.59.2c.07,2.33.39,2.54-.2,4.33,1.25-.27.65,0,1.77.59-.06-.66-.13-1.32-.2-2,1.47-.27,3.06-.13,4.53-.4.11.88-.4.4.39.79.47-.89,3.82-.37,5.31-.59.13.4.26.79.4,1.18l.39-.39c-.07-.26-.13-.52-.2-.79l1.77.2a4.4,4.4,0,0,0-1.37-.59v-2.36c3.27.12,2.7-3,4.91-4.33C248.78,670.53,255.06,671.28,258.77,663.14Z"/><path class="cls-2" d="M411,636.49H407.5c-1,.5-.79,1.63-2.35,2-1.47-1.21-3.11-2.46-4.73-3.54v-2.56h-1.18l-1.57,2h-.78L395.31,633h-.2c-.09.87-.08,1-.58,1.38-2.54.94-3.08-2.11-4.92-2.76l-2.56,1.18c-2.1,2.14-2.23,6.11-4.91,7.67l-1-.39c-.31-2.24-2.11-2.27-3.34-3.54a3.88,3.88,0,0,1-2.16.79c-1-1.51-2.32-1.38-3.54-2.56l.59-1.18c-.93-1-2.22-1.09-3.94-1.38l1.38,2.76c-2.92,2-6.26.83-10.62,1.57-.21.78-.22,1.33-.79,1.77l-5.31,1.38c-.67.39-4.91,4.52-4.91,4.52h-.59l-1-1c-1,.44-3,.86-3.93,1.58.62.73,1.62,1.33,1.18,2.55l-.79,1c-1.85-.18-3.76-.77-4.32-2.36-2.15,1.46-5.61,1-8.06,2.36a8.23,8.23,0,0,1-1.18,2.75h-1.19l-1-1.57c-1.86.68-2.31,3.65-3.93,4.72-2.25,1.48-5.51.26-7.67,2-3.23,2.55-4.94,6.41-8.65,8.65l-3.15,1.37c-.59.8-1.18,1.58-1.77,2.36l-2.36-.19c-1.66.38-2.8,2.1-3.54,3.54l-4.72.59a2.2,2.2,0,0,1,.2,1.77l-1,.79c-1.28,0-1.54-.13-2-1a34.19,34.19,0,0,0-4.92,1.77l-2.36,2.36c-4.93,2.31-11.52,3.65-15.14,6.69.36,1.3-2.95,9.47-3.93,10-1,.19-1.9-.84-3.35-.2l-1.77,1.77c-1.15.64-2.58.6-3.54,1.18l.39.59.59.2a4.21,4.21,0,0,1,3.35-.2c0,2-.55,1.85-1.18,3h.58c1.75-.65,2.83-1.57,4.92-1.78l1,1.38,1.76-.79c.13-.65.27-1.31.4-2l4.52-.79a5.72,5.72,0,0,0,2.16,2.36c.3-2,3.16-3.87,5.12-3.34a35.71,35.71,0,0,0,.39,7.47h.2c.78-.34,2.26-.09,3.34-.59l2.75-3.15,3.54-.78c.75-.6.6-2.12,1.58-2.56l1.57.2c1.46-.62,3-3,4.72-3.55,3.11-1.08,7.11.78,9,.2,1.67-1.19,1.19-4.94,3-6.48,2.51-2.2,5.47-1.7,8.06-3.35a2.5,2.5,0,0,1,0-2.36c1.09.45,9,1,11.4,0-.67-.34-.79-.08-1.18-.79-.47-.48-.34-.49-.2-1.18l1.78.2v1.58c2-.47,6.36-1,8.65-1.58l4.32.59c4.82.9,11.58,0,14.56-1.57l-.79-.4v-1c.26-.46.52-.92.79-1.38-.57-.22-1.5-3.08-1.38-3.54,1-1.79,3.6-1.37,4.72-2.95-.65-.62-.84-.53-1-1.77l2.16-3.34-.39-.2c-1.71.7-2.81-.57-3.94-1.57.17-3.52.67-3.33,2.95-4.72l.79-1.38c.75-.43,5.92-1.38,6.88-1,1.14.48,3.63,2.2,5.11,1.38,1-.59,1.24-1.28,1.77-2.36,1.08-.12,3.6-.07,4.14-.79l.39-1.38c3.93-2.52,3.59.39,6.29-4.32,3.94.07,3.61-1.1,7.87,0,1.23-1.71,2.09-2.91,5.11-2.95h2.56c1.19-.53,1.52-1.41,3.74-1,.12.66.26,1.32.39,2h.78c1.41-1.13,3.05-1.9,4.33-3.14-.55-.67-.69-.52-.79-1.77,1.66-.64,1.67-1.76,2.36-3.35,1.18.2,1,.5,1.77,1,.44-1.08.83-.86,2-1.19v-.78l-1.57-1.38C411.52,635.62,411.5,636.27,411,636.49Z"/><path class="cls-2" d="M301.77,388.94c-.19-1.15-.11-3-.4-4.13l-2.95-2.36c-.73-1.14-.4-2.69-1.18-3.93l-1.77-1.18a14.43,14.43,0,0,1-2.56-8.27c-2-.54-3.25-1.86-4.72-2.94a2.15,2.15,0,0,1-2,.78c-.83-1.4-1.22-.24-2.75-1-1-.5-2.13-2.11-3.55-2.36s-2.19.79-2.95,1l-4.71-.79c-2,.59-4.77,2.31-7.09,3-1.66.45-2.53-.65-3.34-.79l-2.36,1c-.77.19-5.5,1-5.5,1-.79-.13-3.1-1.2-4.72-.6-3.41,1.28-3.78,5.69-8.66,6.1-1.56-1.06-2.54-1.45-5.5-1.37l-1.38,1.76c-.06,1.78-.13,3.55-.19,5.31-2.69,1.9-4.15,4.15-7.48,5.51a4,4,0,0,1-2.36-1.18c-1.16,1.28-.18,2.3-1,4.13l-2.36,2.95v.2c1.43-.51,1.91-1.52,3.74-1.77l.39.19c.06.53.13,1.05.2,1.58,2.45-.11,3.83-1.7,5.9-.79.66,2.72,5.44,3.23,6.88,5.51.26.91.52,1.83.79,2.75l.78,1,3.15.79c.59,2.47,3.45,9.07,5.31,10,1.2.62,1.86.35,2.95,1s1.89,2.88,2.75,3.74c0,2.39-.9,3.48-1,4.52h.2a4.55,4.55,0,0,1,2.35-.2c.6,3.12,5.23,2.42,6.49,4.92a28.71,28.71,0,0,1,.79,4.91l-2.16,1.78c0,3.15,1.41,2.9,1.77,5.3l-1.38,1.38.2.79.59-.4c.32-.46.65-.91,1-1.37l1.38.19c0,.57.08,1.07.11,1.52l.28.06c3,.69,6.54,1.56,8.06,4.32.54-.86,7.55-4.4,9.05-5.11-.09-2.08-1.38-3.35-.59-5.31.58-1.41,1.42-1.36,2.75-2-.17-2.95-2.86-4-1.57-6.88.88-.56,1.49-1,1.57-2l1.77-.19c.07-.72.14-1.45.2-2.17a8.12,8.12,0,0,1,6.88-5.5c.2-1.25.39-2.49.59-3.74a4.81,4.81,0,0,0,2.76-.2l.39-.78c-.28-1.63-1.83-2.89-1.18-4.92l1.57-2.75c.07-.59.13-1.18.2-1.77,1-1.26,2.43-1.57,3.15-3.35s-.48-2.29-.2-3.53C300.06,391.17,300.91,390.05,301.77,388.94Z"/><path class="cls-2" d="M552.83,250.85a3.78,3.78,0,0,1-2.55,0c-.81.79-2,.86-3.74.79-.26.79-.52,1.57-.79,2.36l2.56,1.18c.06,1.18.1,1.7-.59,2.16a5,5,0,0,1-3.15-.2c.26.4.53.79.78,1.18-.32.53-.65,1.06-1,1.58l2.56.59a4,4,0,0,0,.4,2.16c1.76-1.21,1.95-.33,3.74-1,.49-.18,1.51-1.54,2.16-2-.64-1.27-.13-1.66.58-2.56-.58-1.31-1.18-2.62-1.77-3.93.49-.34,1.69-.43,2.17-.78Z"/><path class="cls-2" d="M283.81,136.2c0,2.05-1,2.19-.79,3.15,2,1,3.39,2,5.31,1.37v-.39a4.74,4.74,0,0,1,2.16.2c.27.52.53,1.05.79,1.57a5.41,5.41,0,0,1,3,.59l2.36-1c1.4.73,1.55,1.7,2.56,2.75h3c.45,1,.91,2,1.37,2.95,3.08-1.17,6.32,2.53,7.87,4.72-.44,1.27-.79,1.86-1.18,3.34l2.95.2c.19.72.39,1.44.59,2.16l.78-1.18,2,.4c.33.59.66,1.18,1,1.77.59-.53,1.19-1,1.77-1.58.53-.91,1.05-1.83,1.58-2.75,3,0,4-1,6.09-1.18.66-1.25,2.6-1.52,3.15-2.56v-2c.7-1.55,3.1-2.44,4.52-3.35,1.49.43,2.41,1.14,4.33.79-.09-1.59-.17-2,.39-2.95h.2a4.27,4.27,0,0,1,3,.59l1-.59c-.25-.3-1.54-4.5-1-5.7q2.05-2.27,4.13-4.52l5.7.19c1.73-.28,4.1-3.06,6.29-1.18,1.85,1.59,2.09,4.38,4.13,5.9,1.59.08,2,.14,2.95-.39.29-1.11,1.08-2.87,1-3.35a2.09,2.09,0,0,1-2-.39c-.07-.46-.13-.92-.19-1.38l1.18-.58c-.86-1.92,1.7-4.45,1.57-6.69l2.95-1.77c.19.59.39,1.18.58,1.77v-.39c.63-1.42.93-3.49,2.56-3.94.33.63-.1.23.59.4l-.39-1c2.49.79,3.93-.07,6.29-.79-.67-1.89-2.4-4.69-.39-6.09.92-.63,2-.12,2.75-.79s.54-2,2-2.36c1.7-.45,2.88,1,4.33,0l.58-.59-.39-.58-1.77-.79v-1.77c-4.49,4.2-6.23-5.4-4.72-8.66,1-1.61,2.84-2.6,4.33-3.73,2.31,0,2.05,1,3.54,1.57l.58-.2,1.38-2c2.82.57,14-.45,17.11-2.56-4.32-.56-7.86.54-12,1-1.12-1.26-2.28-1.59-4.14-2.16l-.78,1.57c-2.75,0-7.62-.23-8.85-2a3.4,3.4,0,0,1,.2-3.35c4.07.13,7.22.14,9-2.16V83.7l-4.72-2.36c-4.2-1.11-8.1-.84-11.4-.79-.95-1-1.8-1.22-2.17-3,1.92-1.31,1.1-3,2.36-5.31A3,3,0,0,1,379,71.9V70.32c-.87-1.08-1.19-1.58-.4-2.95-1.41-1.21-2.38-1.35-2.35-4.12,1.13-.92,1.39-2.29,2.35-3.35l.8.2,1.37,1.38.59-.4c.62-1.75,1.78-3.77,2.16-5.31l-.39-.59c-4.65-1.52-10.94-6.43-12.39-11.4-3.27.38-11.17-1.71-12.19-3.35a4.87,4.87,0,0,1-4.92,1.38c-.45-.79-.91-1.57-1.37-2.36.06,1.21.12,1.89-.59,2.36h-8.26c-.24-1.09-.16-2.47-.79-3.15-1,1.32-2.21,1-3.93,1.18V40c1.68,1.92.72,2.37-.2,4.52a59.6,59.6,0,0,1-6.49-.78l-.2.19.4.59c2.57,1,8.27,7.34,6.49,11.21-.57,1.3-2.48,2.52-3.54,3.34l-3.74-.78c-1.17,1.67-6.78,4.72-10.23,3-1.88-1-2.75-4.13-4.71-5.11l-2.36.19-1-1.18c-4.83-1.84-9.77-.34-14.55.2l-3.34-.2c-.26.17-.42,1.7-1.38,2.36l.59,2c1.83-.28,8.81,3,11,3.93,3.87,1.61,9.6-1.49,13.18,1.18.86.64,1.18,3.69.39,4.72-2,4.06-6.76,5.74-12,6.69l-4.13-.79Q299.43,77.1,296,79a2,2,0,0,0,1,1.57h.19c.28-1.14.67-1.15,1.38-1.77l2.16.2a5,5,0,0,1,1.58,2h.19c.08-1.52.4-1.46,1.19-2.16a5.52,5.52,0,0,1,3.53.79c.14.52.27,1.05.4,1.57,2.43,0,2.74,1.1,4.13,1.77,2.09,1,3.89.14,6.29,1l2.36,2c1.92-3.12,5.5-.36,8.26-1.77C331.87,82.44,338,72,343,73.27c1.62.43,2.36,2.09,3.55,2.76,1.68.94,3.29-.87,4.32.78l-.39.2a2.56,2.56,0,0,1,1.77.59c-.07,1.18-.13,2.36-.2,3.54-1,2.29-3.85,3-4.91,5.11v2.16l-2.95,1.77c-.07.53-.13,1-.2,1.58-1.05,1.66-3.31,3.59-4.13,5.5.06.86.13,1.71.19,2.56-.75,1.6-2.66,3.22-3.34,4.92-1.65,4.11-2.77,9.76-7.27,10.81-5.49,1.29-12.71-5.39-16.33-6.49l-3.53.2a19,19,0,0,0-5.71-2c-5.91-1-8.89,4.29-13,2.56-.16-.87-.32-2.1-1-2.56-1.28-.88-2.31-.56-3.93-1-.07.13-.14.26-.2.39,1.56,2.36-.48,3.58.2,5.9l3.93,1.77V116l-3.15,3.14-.39,1.78-.2.19H285c-1.51,1.25,0,2.57-.39,3.93-.25.82-1.21.74-1.57,1.77,3.34,2.23,5.8,2.68,4.52,8.26C286.64,135.58,284.91,135.7,283.81,136.2Z"/><path class="cls-2" d="M304.65,290.38c2,1.23,1.31,2.79,1.77,5.11,3.29,1.33,7.3,2.76,10.43,4.13h2.36c2,1.1,2.76,2.64,5.3,3.15l1.19,3.54c.38.59,1.6.63,2,1.37v4.13c1.39,3.14,2.57,2.76,1.18,7.28,1.48.44,2.39,1.76,3.35,2.75l-.6,3.15c-1.25.41-.86.95-2.35,1.18-.1-1,.27-.44-.4-1-1,.6-2,1.62-3.14,2-.27-.32-.53-.65-.79-1l-.39.19c0,1.26,0,1.46-1,1.78-.06-.27-.13-.53-.19-.79-.29,1-.21.76-1.38.79-.17-.41-.08-.51-.39-.2l-1.18.79.78,1.57c-1.21-.2-1.08-.55-2-1-.13.59-.26,1.18-.4,1.77l.59.58c.24-.88,0-.63.79-1a7.21,7.21,0,0,0,2.16,4.71c1.62.6,4.24,0,5.51.79.57,2.16,0,3.56,1.18,5.11l4.52.4v1c-.52.95-.76,1-.39,2,2.83.07,3.26-.82,4.71-2l1.78.79a5.18,5.18,0,0,1-.4,3.14H342c.64-1.18,1.66-1.22,2.36-2.16,4-5.28,5.34-1.65,11.41-3.15.74-2.06,5.45-7.89,7.08-9,2.11.06,4.24,2,5.31,1.37a34.51,34.51,0,0,0,5.51-5.11c-1.37-2.46-5.14-5.63-3.54-9.44l2.75-3.54-.19-.39c-.84-.16-1.18-.17-1.58-.79-.19-1.25-.39-2.49-.59-3.74l.79.2.39-.2c.31-2.31,1.5-2.55,3.34-3.34.4-1.77.79-3.54,1.19-5.31,2.13-.4,2-1.69,3.73-2.36l3.15.2c.19-1.24-.26-2,.2-3.15.72-1.16,1.85-.85,2.36-2.36l-1.77-1.37v-.4c.06-1.38.13-2.75.19-4.13-.52-2.1-2.6-2.52-2.76-5.31h1c.48-9.47,8.86-3.44,14.55-5.5-.55-.42-.45-.3-.59-1.18.94-.29.49.13.79-.79l-1.38-1.57c0-6.15,5.35-7.94,7.47-12.2-.74-1.41-.48-3.49-1.17-4.72-4,.56-5.57-.81-8.46-1.77s-3.56,1.2-6.49-1c-1.34.39-1.9,1.67-2.95,2-2.33.66-6.38-2.37-9.83-2.17-2.27.14-6.74,2-9.44,1.18-1.61-.49-2.89-2-4.92-2.36-3.49-.53-6,3.33-10.23,2-.08.79-.06.77-.39,1.18h-.39c-.07-.46-.14-.92-.2-1.38-6.44-.37-14.53,3.69-19.07.59l-2.36,1.18c-1.86.48-3.38-1.38-4.92-.78-2.46,5.45-11,5.93-17.7,6.1l-1.37-2a3.47,3.47,0,0,1-2.56.79l-.59-1.19-.4.2c-1.13,2.62-3.69,2.87-5.11,4.92a16.14,16.14,0,0,0,4.52,7.08c-.06,2.69-1.14,2.76-2.35,4.13l1.17-.2c-.39,1.15-1.28,1.73-2,2.56v1.37l.39.2c.24-1.56.92-1.27,1.38-2.55a4.24,4.24,0,0,1,2.36.58c-.1,1.38-.4,2.77.39,3.54l1,1a2.38,2.38,0,0,1,1.18-1.58c.13.79.27,1.58.4,2.36l-.79-.19c.67,2,2.46,2.41,2.95,4.72A1.94,1.94,0,0,0,304.65,290.38Z"/><path class="cls-2" d="M340.48,487.26q2,2.06,3.94,4.13c2.25.08,3.89-1,6.49-.79,1,1.81,3.94,2.42,5.5,3.74,2.35-.9,4.7-.93,6.3-2.17.52-3.62,4.81-2.47,7.86-3.73,1-.44,3.78-3.39,4.33-4.33.06-.79.13-1.57.2-2.36,1-2.14,6.06-1.88,5.11-7.67h-.79a9.33,9.33,0,0,1-3.93,1.77c-.72-1.5-1.45-3-2.16-4.52l-1.78-.59a43.08,43.08,0,0,0-2.55,4.32c-.4-.12-.79-.26-1.18-.39l-.4-.78h-.19c-.49,1.19-1.58,1.43-2.76.78,0-1.7.57-2.09,1.18-3.14l-.39-.4a1.74,1.74,0,0,1-1.57-.19,2.91,2.91,0,0,1,.78-2.36,4.22,4.22,0,0,1-2.35-.2l.39-3.94c-.91.73-1.48,1.23-2.75.6v-1.38l-3.15-.4c-.07-.59-.13-1.18-.2-1.77-2,1.54-2.91,3.82-4.52,5.71-1-.05-.95,0-1.37-.59-1.14-2.8.84-5.41,1-7.28.12-1.71-1-3.76-.79-5.9-1.22,0-1.45-.11-2-.78v-.59a5,5,0,0,0,2.36-1.58v-.19l-.39-.2h-.2c-1.57,1.25-2.76,3.62-5.11,3.94l-.59-.4c.06-.85.13-1.7.2-2.56,3.29-2.38,4-7.46,6.29-10.81-.26-.13-.52-.27-.79-.39-1.7,1.6-3.61,1.53-5.7,2.75.18,1.39-1,2.69-1.77,3.74,1.42,2.33-.63,2.56-.39,4.91.2,2.07,1.71,4.4,2.16,6.1.77,2.91-1.72,1.79,1,5.7-.19.46-.39.92-.59,1.38-2-.07-2.75-1-4.32-1.57-.39,4.82-6.28,3.16-9.64,4.32-2.82,1-5.05,5.59-8.46,5.9a9.38,9.38,0,0,0-7.27.79c-2.14-.79-3.05-2.67-4.92-3.74l-2.75.59v.2c3.57,4.57.94,4.22-1.38,7.66,1.37-.61,6.81-1.7,7.47-1.37l1.77,1.37v2.56a4,4,0,0,1,2.76,1.58,2,2,0,0,1,2.16-.4c.76,2.08,1.58,1.9,2.16,5.12,1.44,0,1.46.54,2.17.78,3.09,1.09,4.25-1.54,6.68,1.38-.06.52-.13,1.05-.19,1.57h-1.58l.2.4h2c-.23-1.92.48-1.91,1-3.35C336.16,488.06,337.08,487.27,340.48,487.26Z"/><path class="cls-2" d="M1.14,535.61c1.61-.58,2.36-1.73,4.33-2.36.06-.53.13-1,.19-1.58,4.06-1.59,5.93-1.83,9.25-4.32,3.1,0,4.27,1.53,5.5,3.34-.08,1.53-.47,1.4-.78,2.56l.39.39,2.17.2c.88,2,4.21,6.79,3.14,9.63-.65,1.11-1.64,1.64-2.36,2.95A9.93,9.93,0,0,0,17.46,548l-.39,1.57.39.39c7.32,0,8.31,8.54,14,6.3l2.17-2.17c1.14.29,1.22.78,2,1.38,4.68-5.4,5.77-.13,10.81-1.57l4.72-2c3-.59,4.26,1.36,6.1,1.77,1.54.35,2.42-1.33,4.52-1s3.47,1.67,5.31,2.16c2.44.65,3.84-.53,6.29.2a7.18,7.18,0,0,1,4.33,8.65c-1,.38-2.15.67-3.34,1.18l.39.2c2.49,1.17,7.64.62,8.85,3.14a18.22,18.22,0,0,1-.2,7.87c1.06.28.86.44,1.38,1.18-.38,2.5-1.72,2.64-3,4.13,1.25,5.2,7.09,4.35,9.83,7.87v.78l-5.31,5.31c-4.18,2.41-8.38-2.35-8.26-6.88-4.11.14-9.23-2.23-10.22-5.11a5.46,5.46,0,0,0-2.17,2.75l1.77.79c-.27,2.26-1.36,4.15-.59,6.1l1.77.58c.47,3.65-.54,6.4-.19,9-.67,1.59-1.11,3.84-3.15,4.13-.72-.63-.9-1.17-1.77-1.18v.2a3.1,3.1,0,0,1,.2,2.94c-2.62.91-1.42,4.68-5.31,4.92a14.79,14.79,0,0,0-4.33-1l-.78,1a4.22,4.22,0,0,1-2.17-.59c.5,1.72-.43,2.33-1.37,3.15-2.83.14-4.84-.07-5.71-2-.58.35-.53.53-1.18.4-1.37-.48-1.6-1.33-2.36-2.37-2.74,0-3.92-1.07-6.09-1.36-.79.38-1.58.78-2.36,1.17,3.6,3.82,8.86,10.31,7.67,16.92-.78.84-.93,1.3-2.56,1.37l.19.39c3.54.65,1.69,2.74,2.37,4.72,1.59.58.37,4.67-.4,5.9-1.41.21-2.62,0-3.54.59-.24,2.39.17,3.17-1.18,4.92.13.53.26,1.05.4,1.57a6.31,6.31,0,0,1,3.53-.19l.6,1.57c1-.52,6.3-1.9,7.86-.59,1-.62.7-1.19,2.56-1.18l.78.78c4.53-2,6-1.08,10.23.2,1.86.56,3.32-1,5.31-.2l8.06,6.89a2.12,2.12,0,0,1,1.18-.59c2.88,3.73,2.8,3.15,3,8.45,2.22-.38,4.06,1.1,5.71,2a14.56,14.56,0,0,0,1.18,4.52h-1l-.59-.39c-.12-.66-.26-1.31-.39-2-.5.37-.49.53-1.18.79-.56-.69-.36-.52-1,.2a1.88,1.88,0,0,1-.2,1.17C76.86,670,74,667.29,71,665l-.59.39-1,1.18c.41.44.27.37,1,.59-.07.27-.14.53-.2.79-1.27-.62-3.35-1.16-4.92-.4.07,2.69.13,5.38.2,8.07h.2l.19-.2c.07-.92.13-1.83.2-2.75h3.15c.71.79,1.44,1.57,2.16,2.36h.19c0-1.07-.12-1,.59-1.38.36,1.18,1.75,1.8,2.56,2.56-.54.59-.72.4-1,1.37.65.59,1.31,1.19,2,1.77a2.59,2.59,0,0,1,2.75-.19v3.93l.39.59.4-.19v-2.75h1.37l.2.19c1.54.86,1.16,1.08,3.14,1.77l.59-.19c.13-.59.27-1.19.4-1.78,2.09.15,3.94-.15,4.33-1.77l-1.38-1.18.39-.78.59-.79A2.66,2.66,0,0,1,91,677.4l.39-.2v-4.52h2.36c1.46,2.51,2.07,2.64,5.31,3.15.14,2.19,1.69,5.13.78,7.47-2.49.73-4.54-.26-6.49-1-.38,1.35-.89,2.2-1.37,3.73l-3-.59v.2c.66.92.63,1.21,0,2.17L86.49,689l.59,1.18c1.71-.41,4.88,1.27,5.71,2.56-.24,2-.93,4.45-.79,6.1,3.6,2,4.37,5.21,7.67,7.47,2,1.39,4.06,1.26,6.88,2l2.56,1.57c3.28,1.38,5.9,0,8.65-1,.15-1.63.73-1.07,1.18-2,.28-.55.07-4,.2-4.72a22.27,22.27,0,0,1,8.65.2c.08.79.07.76.39,1.18.41-.63.21-.49,1.18-.6a2.65,2.65,0,0,1,.59,1.78l1.18-.59c.4.39.79.78,1.18,1.18l-.39-2,1.18-.59c-.15-3.19-.84-5.39-1-8.26.32-.27.65-.52,1-.79a24.26,24.26,0,0,0-2.17-3.14l-1.76-.79c-.07-.79-.14-1.57-.2-2.36v-.2L127.2,687c1-5.62-6.11-5.82-9.24-9,.05-8.86,4.18-18.62,12.39-19.86l5.5,2c3.42-2.22,8.83-4.59,13.77-4.33l.59-1.18c1.7.08,1.27.65,2.16,1.18a9.44,9.44,0,0,1,2.16-.19c.14-.66.27-1.32.4-2h1A53.59,53.59,0,0,0,164,655c.92-.16,2.11-1.31,3.54-1,2,.45,4.67,2.37,6.3,3.15l3.54-.2c6.37,1,10,.53,13-4.91-4.47-1.34-5.23-4.79-9.05-6.49-1.07,1-4.66,1.39-6.49.39l-4.13,2.56h-.59c-1.64-1-4.36-3.9-3.14-6.89,1.25-2.48,4.74-3,5.31-6.09-1.58.34-5.86,1.82-7.08,0-.59-1.44.18-2.76-1.77-3.15-1.28,1.15-2.9,1.76-3.74,3.35-.7,1.32.15,2.67-1,3.54a2.25,2.25,0,0,1-2,.19,16.18,16.18,0,0,0-.39-2c-.72.56-2.68,2.13-3.54.4-.58-1.17.49-2.88.39-3.54-3-2.51-.29-10.88,1.18-12.39l2.36-.59c1.78-1.6,1.58-4.09,4.52-4.72,3.85-.83,9,3.92,12.79.78-.08-.22,2.38-1.73,3-1.37-.07.65-.13,1.3-.2,2h.2l2.95-.59v-.19c-1.21-2.27-3.55-5.43-3.74-8.26l1.38-2.36,1.37.2v-.2c-.83-1-1.73-1.81-1-3.35,5.57-2.42,4.93-5.78,12.19-3.54,2.09.65,3.44.43,4.92,1.38-.13,1.31-.27,2.62-.4,3.94,1.8.27,1.75,1.54,2.95,2.16l7.28,2.16c2.23.56,4.32-1.69,6.49-1.77l1.57,1.77c1.67.07,1.6.22,2.17-1-1.2-2.56-1-3.92-.2-6.69h-.2l-.39.2c-.39,1.18-.79,2.35-1.18,3.54h-1c-2-2.54-5.3-2.42-6.49-4.33.06-.33.13-.66.19-1,1.76-.94,2.87,0,4.72-.59l3.74-3.54h.79c4.53,4.36,4.62,5.2,11,2.36,1.47-3.36,8-9.64,13.37-8.65,2,.36,5.14,1.33,6.88,1.77l5.9-.59c2.69.69,13.56,3.32,16.92,2a12,12,0,0,1,2.95-1.37,17,17,0,0,0,6.29,3.54,9.79,9.79,0,0,1,5.9-3c2,1.06,1.73,2.3,2.95,4.13l4.52,2.36c1.82-.75,2.43-2.07,4.13-2.76a3.27,3.27,0,0,1-1-2l.19-.4h.2c1.24.34,1.42,1,2.56,1.38,3.27-4.82,9.33-3.19,14.94-2.16l3-.2c.61.15,1.16.88,2.36.59,2.11-.5,5.6-.45,8.06-1.57l4.92-4.13,7.28-1.38,5.11-3.74c4.39.94,3.47-.92,7.08-1.57,2.81,1.76,8.12.38,10.22-2.16.54-.65.11-1.24.79-1.77a34,34,0,0,0,7.28-2.56c.68-3.09,3.11-2.86,5.11-4.52l-.39-.59c-2.17,0-3,.59-4.92.78l-.39-.59c-2.12-3.48-.28-7.57.19-10.61l2.75-2.37c-.52-2.18-3.56-7.08-5.51-7.86-.91-.37-2.05.46-2.75-.59-.87-1.31-1.06-3.48-2.36-4.33-1.55-1-3.37-1.19-4.32-2.75v-2.36l-2-1.77c-2.49-.11-3.06.35-5.31.59l-1.18-2.56a10.93,10.93,0,0,1-6.88-1.37c-.56-2.64-1.1-5.6-1.77-8.65l-2.16.78c-2-1.32-1.93-2.34-3.35-4.13-1-1.21-9.45-6.19-11-6.49.07-.33.14-.65.2-1-4.65-.55-6.51-2.46-9.63-4.13-.38.59,0,.32-.79.59l-1-1.38c-3.54.92-24.83-5.74-26.35-7.47-1.45,1.31-5.26,3-7.87,2L275.08,502a8.53,8.53,0,0,1,.39-4.33c-.71-1.34-1.4-2.94-3-3.54V493h.39a8.85,8.85,0,0,1,6.49-1.38l2.56.58a12.54,12.54,0,0,1,4.92-1.17l1,2,.39-.2a7.53,7.53,0,0,1,1.57-3.73h.79l1.77,1.17c.63-2.31,2.44-2.92,2.95-5.31l-1.57-.2a3.2,3.2,0,0,1,1-2.55c-2.5-3.7-7.07-2.72-11.2-3.94l-.2-.39c.05-2.64,1.27-2,.39-3.54-3.31-.86-13.48-4.36-14.36-7.08.07-.78.14-1.57.2-2.36-1.53-.54-3.22-1.48-4.52-2-1.11-.41-2.55,0-3.34-.39l-2.95-1c-1.57,1.2-4.48,2.42-5.51,3.74s-.84,3.81-2.56,4.71-3,1.13-4.13,2.56c-.19.46-.39.92-.59,1.38-2.44,1.8-6.69,3.13-9.63,4.52l.78,2h.2c1-.55,1.22-1.2,2.75-.79l.2,2.16c-1.17.91-1.8,3.48-3.15,3.94-1.76-.79-4.52-3.41-4.13-5.51-1.66-.2-3.59-1.42-6.09-.79-.85.22-3,1-4.33.79-5.54-1-11.14-9.1-13.17-13.76-1.88-.31-4-.8-5.51-1.18-2.39-.63-4.83.88-6.88-.2l-1.38-2-2.95-.59-5.5-4.92c-2.32-1-2.91.22-3.94-2-.69-1.71.49-2.88,0-4.92-1.05-2.75-2.1-5.51-3.14-8.26-1.1-1.54-3.94-1-5.71-2a19.51,19.51,0,0,1-8.85-9.44h-.19c-2.19.84-2.91,2-5.71,2.16-2.67-3.41-9.22-5.24-13.37-7.08-6.11-2.71-13.75-6.19-18.88-10.23-5.81-4.56-11-12-19.27-10.62-3.51-3.14-8.83-5.27-8.85-11.79,1-.46,2.92-1.58,3.15-2.17.41-.41.36-.51.39-1.37.87.33.85,2,1.37,1.76l-.39-3.34,1.18.2c.09,1.68,0,2.2.59,3.14l.59.2h.2c.26-1.18.62-1.46,2-1.57v1.57l2-.39.59-.4c-.1-1.88-.19-3.69.79-4.52l.39.39c-.46.86-.68,3.1,0,3.94v-.4l.39-3.14H113v.39c.72,2,.31,3,1.77,4.13h2c.28-1.29,1-1.5,1.58-2.56.71.13.59.08,1,.4.13.83.71,1.14,1.77,2l1.37.2a4.91,4.91,0,0,0,1.77-2.36l-1.37-.79c.16-1.25.57-1.07.19-1.77-.2-1,.07-.66-.78-1a3.28,3.28,0,0,0-1-.79l-2.37,1v-.79l-.78.2c.06.26.13.52.2.78-2.59-.24-2.35-.5-4.73-.39.14-.33.27-.66.4-1l-4.13.78v-.59h.59l-.2-.39c-1.45-.08-1.5-.36-1.77-1.58a47.28,47.28,0,0,0-6.69.4c-.06-.2-.12-.4-.19-.59a4.41,4.41,0,0,1-.2-2.75c1.19-.29,1.35-.78,1.38-2.17a6.49,6.49,0,0,1,3.15.79l.39-.79c-.4-.35-.14,0-.39-.59,1.16.26,4,.65,4.91,1.38,1.31-.74,5.59.48,6.3-1.38-.87-1-.1-3.9-.59-4.72-3.46.63-6.71-.13-10.23,0l.39-.78.59-.79,2.56.39.39-.39a6,6,0,0,0-.19-2.95c-1.29-.91-2.9-1.2-4.52-2,0-2,.51-2.34,1.18-3.54l-3.15-3.93c-.07-1-.13-2-.2-2.95-2.15-4.48-8.37-4.34-6.88-11.8.34-1.73.29-2.27,1.37-3.15a2.49,2.49,0,0,1,1.38.59l.4-.19c-.28-1.31-.76-1.13-1-2.56l.59-.39a10.37,10.37,0,0,0,3-1.58c.19-1.42,2.07-7.15,2.76-7.67s2.08-.48,2.55-1.37c1.59-3,2.6-5.49,4.92-7.67l-3-2.76c.07-.65.13-1.31.2-2a14.88,14.88,0,0,0,4.12-3.74l-.39-3.34c-3.92-1.09-7.86,1.89-11,2.36-1.71-1.47-4.4-5.08-6.29-6.1l-2.36.2c-.53-.79-1-1.58-1.58-2.36l-5.5-3.74c-2.07-1.13-8.47-.07-9-.39-.33-1-.65-2-1-2.95-.93-1.27-3.55-1.38-4.92-2.16.07-.72.13-1.45.2-2.17l.59-.2c2.5.68,5.29,1.83,7.28.4V291c-2.44-6.91-9.72-6.61-7.87-17.3.34-1.95-1.07-2.6-.59-4.13.8-1.73,2.62-1.29,3.73-2.56-.11-.49,1.12-3.65,1.58-4.72.3.45.36.24.2.79l.39,2.56c.06-1.06.13-2.1.2-3.15h.78c.07.33.13.65.2,1h.19c.07-.72.13-1.44.2-2.16l.4.19c.19,1.58.39,3.15.58,4.73H80c.13-1.74,0-4.65,1.18-5.12-.29,1.87-.13,4.63-1.18,6.1l.79.19.59-.19.39-.2,4.33,1c.9-.13,9-1.91,9.63-1.57l1,1.77h.39l1.77-2c-.53-1-1.68-1.55-1.38-2.76.93-1.82,3.16-2.9,4.33-4.72,1.89.11,2.38,1.11,3.74,1-.51-1-.34-1.33.19-2.16,3-1.21,4.13-4.6,6.69-5.9,1.24-.63,1.89-1.57,2.75-2s1.75,0,2.36-.4c-.33-1.18-.66-2.36-1-3.54-.57-1-2.11-1.52-2.36-3s.82-3.3.59-4.72c-.1-.57-1.34-1.84-1-3.14l1.18-1.38c-.06-.92-.13-1.84-.19-2.75.65-.72,1.31-1.44,2-2.17.1-2.48-.08-3-1-4.52a2.73,2.73,0,0,1-2-.19c-.19-.66-.39-1.32-.59-2a2.31,2.31,0,0,0-1.77.2c-.52.65-1,1.3-1.57,2-1.36,0-1.88-.13-2.36-1-.77-2.15.58-4.4-.59-6.29l-3,.58-1.57-1.76c-.48-1.15.29-2.37-.4-3.15-2.17-2.93-5.57-2-8.45-3.94-.79-1-1.58-2.09-2.36-3.14,0-1.81.63-2.57.39-3.34-2-1.12-1.36-3.08-2.36-4.72l-.59-.2c-1.47.76-2.63,2-4.52,2.16l-3.54-1.57c.07-.53.13-1,.2-1.57,1.81-.29,2.36-1.1,3.34-2.17v-.59l-.39-.39h-.59c-1.21,1.17-1.52,2.29-3.73,2.55-.47-.19-.92-.39-1.38-.59v-1.57c1.28-.46,1.34-1.55,1.38-3.15-.6-.45-1.18-.91-1.78-1.37a18.9,18.9,0,0,1-4.32.2c.19.52.39,1,.59,1.57l-.59.39-3.74-.2a3.15,3.15,0,0,1-1.77-1.57c-.51-2,1.23-3.06,2-4.52a20.49,20.49,0,0,0-6.1-1.18c-1.82,3.82-5.51,1-8.06.39-4.06,2.23-8.52,4.63-13.77,5.9-.51-.51-.44-.53-1-.59-.36.8-.25.75-1.38.79a21.59,21.59,0,0,0-6.49-2l1.58,1.57v1a9.7,9.7,0,0,1-2.36,1.57c-2.93-.44-3-2.33-4.33-4.33-2.74.55-4.24-.43-6.09-1.77-.63.52-.45.63-1.58.79l-.59-.39c0-1.15,0-1.28-.59-1.77-2,.91-2.69,2.55-5.31,2.75-1.81-.67-1.4-1.4-1.37-2.95l-.6-.2C10,183.67,2,185.25.36,186a2.37,2.37,0,0,0-.35.19V535.77A3,3,0,0,0,1.14,535.61Z"/><path class="cls-2" d="M417.6,0a2.27,2.27,0,0,1,.25.31l1,4.33c1.14-.46,15.3-.79,17.5-.2-.07,3.67-.14,7.35-.2,11l-3.34.19c.26.33.52.66.79,1l.58.4a2.86,2.86,0,0,1-.39,1.57l-1,1-1.38-.2a8.75,8.75,0,0,0-1.18-4.33l-2.36.2q.21,5,.4,10a3.89,3.89,0,0,0-2,1.77v1h1.77c.51,2.12,2.51,3.92,2.16,5.7a2.53,2.53,0,0,1-2.16-.78c-.67,4.78-6.3,8.59-9.64,11-1.18.06-1.7.1-2.16-.59l-.39-1.57a15.93,15.93,0,0,1-6.69-1,31,31,0,0,1-2.36,2.76c.51.48,2.19,1,2.56,1.57,3.57,5.14-6.88,8.7-8.66,10a14.64,14.64,0,0,0-3.34,3.93l-2,.2v.19c.6,2,2.85,5.33,2.35,7.87-.32.92-.65,1.84-1,2.76,2,1.41,2,3.59,1.57,6.29h.2V76c.48-.84.11-1,1.37-1.17,2.95,1.57,3.8.44,7.09.19l3.34.39c.06.33.13.66.2,1,.73.34,3.75-.63,5.11-.4.18.78.18,2.21.59,2.76,1.06-.65,5.06-.53,5.9.78.95,1.69,1.07,4,2.16,5.51l2.56-.2v-.2a12.63,12.63,0,0,1-.79-5.89,2.69,2.69,0,0,1,2.16.19c.2.94.16,1.21,1,1.58.41-2.28,2.56-3.35,3.93-4.72l2,.19v1l-1,1.37L436,77.2a12.33,12.33,0,0,1,4.52,1.58V79a3.43,3.43,0,0,1-.79,2l-1.38-.2c.06,1.15.08,1.52-.59,2-1.49.5-2.06-.71-3.54-1v.2l.59.79,2.56.59c-.22,2-1.4,4.37-.79,5.9l4.73.39c0,1.08-.12,1.55.19,2l2-.4c-.28,1.18-.75,1.24-1.38,2l1.57,1.77c.95,0,2.86.91,3.15.79,1.64-.68,3.64-1.94,5.9-1.58.2,1.31.53,1.69,2,1.77,2.65-1.22,4.71-4.48,8.66-3.34v.2c-.46,2.71-3,4.25-4.33,6.29-1.94-.19-4.27-1.86-6.89-.78-1.49.81-2.74,2.53-3.93,3.73l1,.59a2.43,2.43,0,0,1,2.36.2c.38,1.17-.33,2,.19,3.34l2.76,2.36c4.3,1.23,9.07-1.23,11.6-3.34-1.2-1.09-.3-2.31.39-3.15-.63-1.2-1.39-1.31-1.58-3,.58-1.32,1.58-2.21,3.16-1.38.24,1.25-.15,3.68.78,4.13a2.83,2.83,0,0,1,1-1.57c1.6.12,4.12.49,4.91.19a2.47,2.47,0,0,1,.2-2.75h.19a2.82,2.82,0,0,1,2,.59,32.88,32.88,0,0,0,1.77-2.95c2.19-.1,4.91-1.81,7.27-1A46.62,46.62,0,0,0,492,95.69c.12,1.43.75,1.7,1.57,2.36.63-.52.44-.63,1.57-.79l1,.39c.51,1.1,1.14,2.55.59,3.94-.66.87-1.56.6-2.35,1-.26,1.52-.46,4.64.19,5.31,2.12,4,7.27,7.39,10.42,10.62-.06.79-.13,1.57-.19,2.36.32-.33.65-.66,1-1h.19c1.56.15,10.7,8.12,11,8.85.48,1.1-1.06,2.18-1,3.34h1.77c.68,2.22,1.48,5.42,0,7.27.5.63,1.11,2.09,1.77,2.56,3.48,1.63,9.94-1.2,14,.59.06,2.36.86,9.77-.59,10.82-2,.75-4.59-.83-5.9,0,3,5.31,7.63,8.86,11,13.57,1.6,2.22,2.87,4.77,4.53,6.88-.31,8.79,2.85,14.12,8.25,19.47,1.37,1.35,6.27,1.87,6.1,3.93a9,9,0,0,1,0,8.26v4.52c-1.24,2.63-4.29,3.59-7.27,2.76a3.41,3.41,0,0,0-1,2.75h.2a12.15,12.15,0,0,1,8.85.4c.36,1.65,1.27,1.72,2.16,2.75,0,2.56-.7,3-1.18,4.91-1.82.25-3.07.18-3.93,1.38a32.88,32.88,0,0,0,4.33,5.11h1.18v-.2c-4-3.17.44-6.6,1-10-1.58-.7-1-2.37-.2-3.35a9.33,9.33,0,0,1,3.35-.39l.78,3.74,1.58,1.77c.13,1.5.25,3,.39,4.52.79,1.64,2.31,3.36,3.14,5.11l.4-.2c.19-.72.39-1.44.59-2.16,1-.19,5.92.09,6.69-.39,1.57-1,4-15.76,5.7-18.68,1.73-.39,4.45-1.53,6.29-.79,2.13,1,2.46,3.39,3.74,5.31l5.31,5.51h1V0Z"/><path class="cls-2" d="M13.92,116.54c4.42-2.83,9.92-4.29,13.38,1a10.26,10.26,0,0,1-.59,4.52l.2.2c10-.25,17.58-1.08,23-6.49h2a37.93,37.93,0,0,1,2.75,3.93c4.94-1.71,7.72,1.38,11.61.4,1.58-.41,1.61-1.26,3.73-1.18,1.22-6.5,17.73-12.24,24.39-14.16.47-4.68,3.29-6.57,6.49-8.66,1.51-1.63,3-3.27,4.52-4.91,4.26-3.37,11.09-4,16.32-6.3,1.38-.6,3.09-2.14,4.72-2.55s3.38.3,4.72.59l3.54-2.36,2-4.13c2.26-3.34,8.25-11.68,12-13,5.27-1.83,10,1,15.54.2,4.11-.62,7.69-1.82,11.4-2.56.57,1.52,7.5,1.37,10.43,1.38,2.55,0,7.12-1,10.81.19,6.08,1.89,11.42,4.51,19.47,3.74l-.19-.39-1.18-.59c.06-.46.13-.92.19-1.38,1.05.28,2.06,1.31,2,2.17,3.12-.23,3.84-2.68,6.29-3.55l4.52-.19c2.09-.33,5.2-1.59,7.48-2.17,1.65-.41,4.62.89,6.49,1,2.45.12,5.6-2,8.65-.79,1.73.66,2.26,2.79,3.34,4.13,2.57-.55,5.09,1.15,6.89,1.38a18.56,18.56,0,0,0,12-2.76c.46.08,8.17,1.86,8.26,2a10.78,10.78,0,0,1,1,4.33c2.72-2.42,8.78-5.13,12.2-1.18a19.54,19.54,0,0,1,3.14-.2v-.78c-.19-.27-.39-.53-.59-.79-3.82-1.51-8.5-2.84-12.58-4.13-1.95-.62-3.74.36-5.9,0-2.68-.45-7.23-.68-5.9-4.13,1.38-3,4.72-4.92,8.06-5.9,2.52-.74,4.43,2.52,6.1,1.18,2.25-.65,6.92-3.09,7.86-5.12l1-7.86c.09-.19,11.8-9.83,11.8-9.83,1.21-.44,2.2.44,3.54-.2V28.83l1.18.2c.83-2.48,7.26-9.19,9.44-10.82,5.34,1,10.23-1,15.14-2,2.19-.42,5.39-.11,7.08-.39l2.56.79,5.31-2.17s-.45-1.85,0-2.35l2.16-1.38c1.71-2,1.93-4.74,4.13-6.29.84.18.66.22,1.18.59l.59-1.58,3.74.4A7.07,7.07,0,0,1,365,0H0V113C4.44,112.08,11.63,112.88,13.92,116.54Z"/><path class="cls-2" d="M381.67,1.89c.84,1.6,5.49,4.56,5.7,5.9L389,6.41c2.59.45,4.75.89,6.68-1.18v-1c.83-.07.78,0,1.18-.4A11.44,11.44,0,0,0,398.67,0H379.22A20.59,20.59,0,0,1,381.67,1.89Z"/></g><path class="cls-3" d="M172.12,430.07a10,10,0,1,1-10-10,10,10,0,0,1,10,10"/><path class="cls-4" d="M167.12,430.07a5,5,0,1,1-5-5,5,5,0,0,1,5,5"/><path class="cls-3" d="M184.67,614.4a10,10,0,1,1-10-10,10,10,0,0,1,10,10"/><path class="cls-4" d="M179.67,614.4a5,5,0,1,1-5-5,5,5,0,0,1,5,5"/><path class="cls-3" d="M117.42,733.18a10,10,0,1,0-10,10,10,10,0,0,0,10-10"/><path class="cls-4" d="M112.42,733.18a5,5,0,1,1-5-5,5,5,0,0,1,5,5"/><path class="cls-3" d="M511.09,86.47a15,15,0,1,1-15-15,15,15,0,0,1,15,15"/><path class="cls-4" d="M503.79,86.46a7.7,7.7,0,1,1-7.7-7.7,7.69,7.69,0,0,1,7.7,7.7"/><path class="cls-3" d="M365.37,533.3a10,10,0,1,1-10-10,10,10,0,0,1,10,10"/><path class="cls-4" d="M360.37,533.29a5,5,0,1,1-5-5,5,5,0,0,1,5,5"/><path class="cls-3" d="M338.17,649a10,10,0,1,1-10-10,10,10,0,0,1,10,10"/><path class="cls-4" d="M333.17,649a5,5,0,1,1-5-5,5,5,0,0,1,5,5"/><text class="cls-5" transform="translate(453.45 61.59)">ATHENS</text><text class="cls-6" transform="translate(59.82 464.74)">EPIDAVROS</text><text class="cls-6" transform="translate(290.69 565.73)">POROS</text><text class="cls-6" transform="translate(140.14 591.38)">ERMIONI</text><text class="cls-6" transform="translate(123.62 742.29)">SPETSES</text><text class="cls-6" transform="translate(271.91 632.38)">HYDRA</text></g></g></svg>