<svg xmlns="http://www.w3.org/2000/svg" xmlns:xlink="http://www.w3.org/1999/xlink" width="759" height="1207" viewBox="0 0 759 1207"><defs><clipPath id="a"><rect width="759" height="1207" opacity="0.736" fill="#fff" stroke="#707070" stroke-width="1" transform="translate(839 6624)"/></clipPath></defs><g transform="translate(-839 -6624)" clip-path="url(#a)"><g transform="translate(736 6624)"><rect width="906" height="1207" fill="#fff"/><g transform="translate(79.271 58.332)"><path d="M224.331,350.69v1.777a4.226,4.226,0,0,0-.3,2.671,20.367,20.367,0,0,0,4.154,2.379v1.777q-1.487,1.043-2.966,2.078c.1.2.2.4.294.594,5.092.223,12.614,4.781,17.508,4.155,2.2-4.676,3.191-4.2,2.966-10.388h2.672c1.473-2.231,3.813-3.52,6.23-4.747v-.3c-1.322-.409-1.453-.284-1.782-1.777l.3-.893c4.409-1.66,9.219-1.411,13.354-3.264,4.25-1.9,7.1-5.64,13.051-7.717.017-4.031-1.206-5.706-1.482-8.9,1.42-.951,2.506-2.244,2.079-3.864-1.3-2.307-2.731-1.316-5.343-2.369-3.235-1.311-5.03-4.267-6.527-7.419-4.11,1.255-7.662-1.384-11.275-.591-.4-1.323-.472-1.165-1.485-1.786-.658,1.623-3.359.578-5.638.594v-2.072c-3.979.733-9.229,6.666-11.271,9.492a8.3,8.3,0,0,1-1.483,5.344q-1.485,1.184-2.966,2.372c-.966,2.188.273,3.92-.6,5.64a7.866,7.866,0,0,0-5.343,3.855c.1,3.159.2,6.332.3,9.492a20.418,20.418,0,0,0-5.937,4.155C223.338,350.886,223.833,350.791,224.331,350.69Z" transform="translate(34.111 99.72)" fill="#8da9c4"/><path d="M151.939,741.471c.875-1.225,1.341-.578.3-1.785-.493-1.559-1.458-1.593-2.37-2.672q-1.634.892-3.262,1.785c-.2-.4-.4-.786-.6-1.19-1.492.539-1,.927-2.966,1.19-3.012-1.19-5.061.834-8.01,0-.913-.264-1.515-2.15-2.969-1.785a15.878,15.878,0,0,1-2.966,1.19v-3.269c-2.85.015-3.786-1.1-5.341-1.474a8.516,8.516,0,0,1-2.671,1.183v-1.779c-1.483-.1-2.968-.208-4.451-.3-3.348-10.1-32.6-12.515-40.356-18.4-1.086,1.195-2.173,2.378-3.264,3.562a6.033,6.033,0,0,1,1.187,3.858c-3.567,2.87-6.12,2.87-10.684,1.483-.195-.794-.394-1.584-.591-2.369-.937.694-1.281,1.379-2.671.886-.934-.7-.941-1.261-.892-2.972-1.3.521-2.622.057-3.559.6q-1.636,1.326-3.264,2.672v.288c3.285,1.314,2.681,4.2,3.559,7.132,1.963-.721,3.476-.668,4.451,1.183a15.614,15.614,0,0,1,1.783,4.445c-1.19.542-.958.469-1.187,1.192a10.278,10.278,0,0,1,4.449-1.48c.2.288.394.593.591.883,1.275,1.72,1.053,5.78.594,8.611a9.606,9.606,0,0,1,5.341-.3c-.415,4.419-.068,3.952,1.19,7.717a9.677,9.677,0,0,1,4.451.591q.74,1.186,1.482,2.373c-.682,2.729-1.213,3.4-1.187,7.417.2.1.392.2.591.3,3.143.27,5.854.783,8.309,2.367q-.294,1.639-.593,3.263c3.817,1.946,3.671,5.928,4.747,9.792h.3c1.459-.81,1.746-2.5,2.966-3.257,3.36-2.106,5.773,4.99,6.524,5.934a21.913,21.913,0,0,0,8.013-4.157c3.663.05,3.66,1.316,7.119,1.48,1.035-.973.664-1.279,2.672-1.48.893.892,1.782,1.777,2.672,2.672.492-.5.985-.99,1.483-1.485,2.449-1.118,4.688-4.347,6.527-6.236-.2-1.183-.4-2.366-.591-3.552,1.673-1.094,1.445-2.188,4.155-2.381-.3-.29-.6-.593-.893-.892-.925-2.671-1.832-4.17-1.777-8.6,1.756-1.219,2.628-3.037,4.154-4.451,1.64.324,1.423.653,2.37,1.488.3-.4.6-.792.892-1.187.806-2.45.338-3.6-.3-5.933,5.036,1.15,9.021,2.251,14.536,1.477l2.376-2.966c-.791-.5-1.583-.987-2.376-1.491l0-1.174Z" transform="translate(-52.539 305.035)" fill="#8da9c4"/><path d="M287.79,669.147c.854-1.875,2.625-3.854,1.186-5.942l-3.558-4.149c-1.445.724-2.615.484-4.157,0-.1-.889-.2-1.783-.294-2.675.493-.288.987-.586,1.483-.886V655.2a10.31,10.31,0,0,1-6.53-1.786V651.34c-.988.1-1.978.2-2.969.3-.5,2.742-2.242,2.091-4.744,2.672.1.288.2.594.3.892,1.7.861,4.706,3.606,3.857,5.936-.973,2.216-2.734,2.266-4.152,3.852-4.161,4.633-3.043,7.968-11.871,7.714-.1-.3-.2-.594-.3-.889v-3.561h2.968c-1.4-1.27-3.368-1.4-4.451-2.378q.446-3.1.886-6.224v-.3c-2.954.072-4.176,1.041-7.119.892v-1.186l.3-.593c.593-.1,1.184-.205,1.78-.3-.45-1.106-.483-1.486-1.486-2.078-1.989-.53-5.818.958-8.306,1.19-.128,1.574-.27,1.937-1.187,2.663-1.148-1.017-.127-.854-1.482-.593.1.788.195,1.587.3,2.378h-.893c-1.255-.869-1.548-1.5-3.558-1.788-.951,1.012-1.138,1.527-2.966,1.788-.495-.594-.994-1.186-1.482-1.788-.1.2-.2.4-.3.6-1.479,2.591-.9,4.511-3.559,5.933h-4.448c-.008-1.458.252-2.927-.892-3.864.1,1.287.2,2.576.3,3.864-.788.093-1.58.2-2.375.291-3.085-5.214-12.6-3.752-16.319.3-.311,14.421,5.439,9.978,13.949,13.944,1.349,4.185,4.3,6.781,5.934,10.679,1.634-.2,1.937-.674,2.671.593,1.23,1.163.59,3.994,1.186,5.051.43-1.308.594-1.3,1.782-1.788-.1-.787-.2-1.58-.294-2.366.69-.1,1.381-.2,2.073-.3-.2.7-.392,1.388-.591,2.083,1.572-.976,1.631-.775,2.965.585.1-2.36.664-2.794,3.263-2.669.3.1.6.2.892.3.109,3.511.591,3.822-.294,6.523,1.874-.4.97-.05,2.671.893-.1-.993-.2-1.981-.3-2.972,2.215-.4,4.612-.2,6.826-.594.169,1.317-.6.6.6,1.189.709-1.343,5.764-.567,8.012-.887q.292.892.593,1.781.294-.3.594-.593c-.1-.4-.2-.794-.3-1.188.893.094,1.783.2,2.672.29a6.953,6.953,0,0,0-2.076-.883V693.18c4.94.186,4.077-4.555,7.417-6.536C272.716,680.288,282.188,681.421,287.79,669.147Z" transform="translate(23.369 273.069)" fill="#8da9c4"/><path d="M490.885,638.994h-5.338c-1.557.753-1.195,2.462-3.555,2.968a88.866,88.866,0,0,0-7.126-5.34v-3.866h-1.78c-.789.987-1.578,1.981-2.369,2.974h-1.187c-.791-.7-1.586-1.385-2.376-2.078h-.3c-.139,1.314-.133,1.439-.889,2.078-3.831,1.427-4.644-3.174-7.416-4.157q-1.933.89-3.859,1.779c-3.174,3.224-3.363,9.21-7.417,11.572l-1.482-.593c-.475-3.378-3.2-3.427-5.05-5.338a5.866,5.866,0,0,1-3.262,1.192c-1.518-2.277-3.491-2.088-5.34-3.866q.444-.885.889-1.779c-1.393-1.571-3.34-1.643-5.934-2.076.693,1.385,1.385,2.764,2.084,4.157-4.416,2.986-9.448,1.249-16.026,2.372-.321,1.174-.336,2-1.189,2.669q-4.008,1.041-8.015,2.076c-1.006.6-7.417,6.827-7.417,6.827h-.89c-.493-.5-.99-.99-1.483-1.486-1.5.667-4.528,1.31-5.931,2.382.935,1.106,2.441,2.01,1.777,3.853-.392.487-.788.985-1.186,1.477-2.8-.266-5.681-1.163-6.524-3.556-3.238,2.2-8.457,1.442-12.165,3.556a12.267,12.267,0,0,1-1.78,4.154h-1.785c-.493-.789-.984-1.58-1.479-2.369-2.811,1.017-3.485,5.506-5.936,7.122-3.395,2.23-8.316.394-11.569,2.966-4.873,3.847-7.455,9.67-13.059,13.051q-2.374,1.043-4.747,2.076-1.342,1.792-2.671,3.562c-1.187-.1-2.378-.2-3.564-.3-2.5.578-4.225,3.17-5.341,5.343-2.369.3-4.747.591-7.12.893a3.315,3.315,0,0,1,.3,2.672c-.492.392-.993.789-1.486,1.193-1.936-.024-2.324-.192-2.966-1.5a53.212,53.212,0,0,0-7.414,2.672q-1.783,1.788-3.565,3.559c-7.438,3.485-17.375,5.515-22.843,10.091.546,1.966-4.455,14.287-5.933,15.135-1.451.293-2.864-1.261-5.05-.3-.89.887-1.78,1.78-2.668,2.671-1.744.97-3.9.913-5.344,1.782.2.3.4.6.595.892.3.1.591.2.886.3a6.255,6.255,0,0,1,5.047-.3c0,2.956-.818,2.788-1.777,4.457h.886c2.636-.975,4.268-2.357,7.423-2.68.487.7.985,1.391,1.482,2.087.886-.4,1.779-.788,2.668-1.193.2-.982.4-1.978.594-2.96q3.411-.6,6.827-1.195a8.572,8.572,0,0,0,3.26,3.565c.441-2.978,4.768-5.842,7.713-5.044a54.379,54.379,0,0,0,.594,11.274h.3c1.181-.517,3.4-.131,5.039-.892,1.387-1.581,2.772-3.17,4.155-4.748q2.666-.6,5.34-1.183c1.13-.9.9-3.2,2.375-3.853.792.094,1.58.195,2.372.291,2.2-.929,4.563-4.451,7.123-5.344,4.7-1.631,10.729,1.163,13.644.3,2.508-1.8,1.788-7.45,4.456-9.783,3.795-3.321,8.264-2.562,12.164-5.05a3.773,3.773,0,0,1,0-3.564c1.648.674,13.552,1.515,17.209,0-1.018-.51-1.2-.121-1.783-1.183-.706-.732-.513-.747-.3-1.786.893.1,1.786.205,2.672.3v2.378c3.025-.706,9.609-1.507,13.054-2.378l6.525.895c7.263,1.356,17.464-.053,21.959-2.378-.4-.195-.792-.4-1.184-.6v-1.48q.589-1.046,1.184-2.084c-.85-.332-2.262-4.652-2.076-5.344,1.521-2.7,5.433-2.065,7.119-4.446-.975-.935-1.267-.8-1.482-2.672q1.63-2.519,3.268-5.04c-.2-.1-.4-.2-.6-.3-2.576,1.049-4.234-.868-5.937-2.37.261-5.312,1-5.029,4.449-7.13l1.19-2.076c1.136-.65,8.931-2.085,10.384-1.477,1.72.721,5.474,3.319,7.715,2.079,1.562-.895,1.862-1.93,2.669-3.561,1.62-.176,5.423-.1,6.234-1.192.2-.691.394-1.387.594-2.075,5.925-3.808,5.411.579,9.493-6.529,5.942.1,5.445-1.663,11.865,0,1.862-2.582,3.156-4.383,7.719-4.448h3.855c1.794-.8,2.3-2.132,5.641-1.486.193,1,.4,1.984.593,2.972H480.5c2.12-1.719,4.594-2.874,6.523-4.747-.819-1-1.031-.777-1.183-2.672,2.5-.958,2.508-2.659,3.556-5.045,1.779.3,1.539.745,2.675,1.483.662-1.631,1.249-1.295,2.962-1.782V639.3c-.789-.7-1.58-1.394-2.37-2.081C491.616,637.683,491.582,638.658,490.885,638.994Z" transform="translate(50.019 263.012)" fill="#8da9c4"/><path d="M343.19,401.863c-.275-1.734-.164-4.519-.6-6.23q-2.225-1.777-4.451-3.562c-1.1-1.72-.61-4.056-1.779-5.933q-1.338-.894-2.672-1.779a21.709,21.709,0,0,1-3.858-12.467c-2.987-.827-4.905-2.817-7.12-4.449-1.038.857-.929,1.107-2.966,1.19-1.243-2.124-1.838-.373-4.152-1.489-1.56-.742-3.2-3.18-5.343-3.556-2.044-.356-3.315,1.189-4.451,1.489q-3.56-.6-7.118-1.192c-2.95.9-7.2,3.494-10.687,4.454-2.517.687-3.822-.987-5.041-1.2-1.192.5-2.376.991-3.559,1.489-1.165.287-8.31,1.483-8.31,1.483-1.19-.193-4.671-1.8-7.122-.895-5.14,1.918-5.7,8.584-13.054,9.2-2.36-1.6-3.831-2.189-8.309-2.075-.69.884-1.384,1.779-2.076,2.663q-.145,4.013-.294,8.013c-4.059,2.859-6.258,6.249-11.275,8.309-1.936-.241-2.381-.9-3.559-1.78-1.761,1.924-.27,3.464-1.486,6.23q-1.774,2.234-3.558,4.454v.3c2.164-.769,2.888-2.3,5.638-2.675.2.1.4.2.588.3.1.792.2,1.58.3,2.379,3.7-.163,5.776-2.564,8.9-1.195,1.008,4.105,8.206,4.873,10.387,8.31.394,1.382.789,2.764,1.184,4.157.4.487.794.985,1.187,1.48,1.586.4,3.164.794,4.748,1.187.884,3.731,5.21,13.68,8.009,15.13,1.814.94,2.812.527,4.454,1.483,1.5.877,2.847,4.338,4.154,5.635.017,3.615-1.364,5.26-1.483,6.823h.3a6.938,6.938,0,0,1,3.558-.3c.895,4.707,7.879,3.642,9.791,7.422.745,1.9.914,5.785,1.186,7.413-1.083.889-2.174,1.782-3.262,2.675-.011,4.759,2.138,4.382,2.671,8.007q-1.037,1.039-2.078,2.082c.1.4.2.786.3,1.183.3-.2.593-.4.886-.593.5-.7.993-1.385,1.483-2.081q1.041.147,2.081.3c.06.849.118,1.61.172,2.293l.419.083c4.529,1.049,9.874,2.351,12.167,6.524.815-1.3,11.387-6.634,13.647-7.708-.131-3.147-2.075-5.057-.889-8.015.877-2.124,2.141-2.05,4.154-2.968-.267-4.452-4.326-6.032-2.372-10.382,1.329-.848,2.247-1.547,2.372-2.974.892-.094,1.782-.2,2.669-.293q.154-1.632.3-3.265c1.758-4.786,5.269-7.512,10.388-8.307q.444-2.82.892-5.638c1.915.139,2.835.324,4.152-.3.2-.392.394-.789.594-1.181-.422-2.467-2.763-4.37-1.779-7.426.788-1.376,1.578-2.764,2.373-4.149.1-.889.195-1.783.3-2.671,1.538-1.907,3.671-2.361,4.745-5.047,1.015-2.521-.714-3.458-.3-5.34Q341.257,404.389,343.19,401.863Z" transform="translate(32.843 126.634)" fill="#8da9c4"/><path d="M557.138,250.851a5.805,5.805,0,0,1-3.858,0c-1.216,1.193-3.087,1.29-5.641,1.184q-.588,1.786-1.186,3.564l3.857,1.777c.1,1.785.157,2.576-.893,3.264-1.322.593-3.5.137-4.742-.293.392.593.791,1.186,1.178,1.777-.493.794-.985,1.589-1.479,2.378,1.289.293,2.571.594,3.861.89.071,1.483.053,2.563.6,3.263,2.652-1.829,2.947-.5,5.64-1.482.744-.278,2.29-2.328,3.259-2.972-.96-1.909-.184-2.5.887-3.855-.887-1.98-1.782-3.958-2.669-5.933.727-.519,2.545-.65,3.263-1.187C558.52,252.434,557.824,251.64,557.138,250.851Z" transform="translate(197.705 69.301)" fill="#8da9c4"/><path d="M284.223,185.829c-.065,3.084-1.477,3.307-1.189,4.75,2.957,1.565,5.118,3.036,8.012,2.073v-.588a7.188,7.188,0,0,1,3.262.291c.4.791.789,1.589,1.186,2.378,1.634-.321,2.968.367,4.453.886,1.186-.49,2.373-.988,3.561-1.485,2.118,1.112,2.337,2.576,3.858,4.155h4.45q1.039,2.227,2.076,4.455c4.644-1.771,9.533,3.816,11.871,7.119-.658,1.924-1.189,2.8-1.78,5.041,1.48.1,2.966.2,4.446.3.294,1.089.594,2.173.892,3.262q.6-.889,1.186-1.777l2.968.593q.745,1.34,1.482,2.671c.89-.789,1.785-1.581,2.672-2.378q1.184-2.071,2.37-4.152c4.532,0,6.067-1.43,9.2-1.782.985-1.881,3.918-2.3,4.745-3.856v-2.966c1.059-2.337,4.68-3.683,6.827-5.044,2.244.638,3.636,1.72,6.526,1.186-.133-2.391-.246-3.043.593-4.446h.3c2.153-.1,3.354.086,4.451.892.493-.3.99-.6,1.482-.892-.374-.462-2.333-6.8-1.482-8.6q3.112-3.413,6.23-6.827c2.864.1,5.74.2,8.606.3,2.606-.432,6.176-4.623,9.49-1.782,2.782,2.391,3.15,6.6,6.23,8.9,2.39.121,3,.213,4.456-.591.43-1.679,1.623-4.324,1.477-5.048-1.738.184-1.747.145-2.962-.593q-.149-1.037-.294-2.076c.589-.293,1.184-.593,1.78-.886-1.3-2.9,2.57-6.716,2.375-10.092,1.479-.889,2.966-1.78,4.446-2.666.294.886.595,1.777.887,2.666v-.591c.948-2.139,1.393-5.264,3.856-5.933.5.943-.146.333.895.591-.195-.493-.4-.991-.593-1.482,3.758,1.183,5.936-.11,9.493-1.192-1.014-2.861-3.623-7.088-.59-9.192,1.379-.961,3-.178,4.149-1.19,1.352-1.184.812-2.98,2.968-3.561,2.565-.69,4.347,1.447,6.53,0,.293-.293.591-.594.887-.893l-.594-.884q-1.331-.593-2.672-1.186V141.03c-6.773,6.332-9.4-8.146-7.122-13.059,1.5-2.434,4.284-3.936,6.53-5.641,3.488.069,3.095,1.467,5.338,2.378.3-.1.594-.2.887-.3q1.041-1.482,2.081-2.963c4.255.857,21.162-.673,25.814-3.858-6.526-.846-11.865.809-18.1,1.48-1.69-1.9-3.427-2.411-6.233-3.262-.4.791-.789,1.58-1.186,2.373-4.142-.039-11.5-.347-13.353-2.965a5.165,5.165,0,0,1,.3-5.048c6.141.189,10.9.213,13.646-3.262v-.293c-2.366-1.189-4.747-2.378-7.122-3.559-6.331-1.679-12.218-1.266-17.206-1.189-1.427-1.575-2.7-1.844-3.267-4.448,2.891-1.975,1.666-4.474,3.564-8.012a4.429,4.429,0,0,1,3.562-.6v-2.37c-1.314-1.633-1.8-2.393-.6-4.451-2.136-1.829-3.6-2.041-3.552-6.23,1.7-1.379,2.1-3.452,3.552-5.048l1.195.3c.69.691,1.379,1.384,2.076,2.078.291-.2.595-.4.884-.6.937-2.634,2.69-5.681,3.268-8.007-.2-.3-.4-.6-.6-.892-7.019-2.3-16.509-9.7-18.693-17.208-4.928.585-16.846-2.576-18.394-5.048-2.01,1.667-3.612,2.9-7.414,2.078-.693-1.186-1.387-2.369-2.076-3.559.1,1.826.183,2.85-.892,3.559H374.116c-.364-1.639-.244-3.716-1.187-4.747-1.521,1.99-3.33,1.471-5.933,1.779v.3c2.538,2.892,1.085,3.576-.3,6.826a89.259,89.259,0,0,1-9.789-1.186l-.3.294c.2.3.4.591.59.892,3.887,1.528,12.481,11.067,9.8,16.914-.86,1.954-3.737,3.8-5.344,5.041q-2.82-.6-5.637-1.186c-1.771,2.53-10.234,7.129-15.432,4.452-2.84-1.468-4.158-6.222-7.12-7.714q-1.774.147-3.561.293-.738-.889-1.482-1.777c-7.295-2.773-14.753-.513-21.959.3-1.681-.1-3.363-.2-5.045-.3-.389.249-.622,2.559-2.072,3.562q.441,1.48.89,2.966c2.755-.424,13.282,4.548,16.612,5.934,5.835,2.425,14.478-2.251,19.886,1.78,1.293.964,1.776,5.57.591,7.122-3.046,6.12-10.2,8.651-18.1,10.086q-3.112-.6-6.228-1.186-5.2,2.815-10.387,5.637a3.081,3.081,0,0,0,1.482,2.373h.294c.424-1.726,1-1.729,2.078-2.669q1.634.145,3.265.3a7.7,7.7,0,0,1,2.373,2.966h.3c.107-2.29.6-2.206,1.783-3.262a8.439,8.439,0,0,1,5.338,1.187c.2.791.4,1.581.6,2.37,3.669.075,4.131,1.657,6.228,2.671,3.161,1.525,5.874.216,9.5,1.482q1.781,1.487,3.562,2.969c2.894-4.7,8.292-.545,12.461-2.671,4.87-2.488,14.115-18.3,21.657-16.318,2.438.64,3.556,3.153,5.343,4.152,2.545,1.426,4.965-1.311,6.527,1.189-.2.1-.4.193-.593.3a3.827,3.827,0,0,1,2.672.892q-.149,2.668-.3,5.337c-1.557,3.458-5.809,4.514-7.416,7.713v3.265c-1.483.892-2.968,1.777-4.449,2.669-.1.791-.2,1.587-.3,2.378-1.583,2.509-4.988,5.414-6.23,8.307.1,1.284.2,2.572.294,3.86-1.132,2.41-4.016,4.858-5.041,7.414-2.493,6.207-4.184,14.73-10.98,16.318-8.276,1.939-19.169-8.128-24.628-9.788-1.777.1-3.558.2-5.337.3a28.456,28.456,0,0,0-8.6-2.966c-8.922-1.542-13.419,6.467-19.583,3.856-.246-1.32-.495-3.168-1.482-3.856-1.94-1.331-3.491-.848-5.937-1.485-.1.2-.2.4-.3.593,2.352,3.552-.724,5.392.3,8.9l5.937,2.672v2.37q-2.379,2.381-4.75,4.751-.3,1.333-.591,2.672c-.1.1-.2.195-.3.3H286c-2.278,1.889.048,3.878-.593,5.933-.385,1.23-1.835,1.1-2.373,2.672,5.039,3.351,8.753,4.032,6.823,12.463C288.5,184.894,285.887,185.076,284.223,185.829Z" transform="translate(64.717 -38.661)" fill="#8da9c4"/><path d="M309.755,309.415c3,1.857,1.969,4.22,2.671,7.719,4.961,2,11.02,4.154,15.728,6.228h3.562c2.972,1.664,4.173,3.976,8.009,4.75q.894,2.668,1.782,5.337c.578.9,2.429.956,2.969,2.079v6.228c2.093,4.73,3.872,4.155,1.78,10.978,2.226.662,3.609,2.663,5.044,4.152-.3,1.587-.594,3.167-.892,4.751-1.894.626-1.308,1.43-3.559,1.78-.139-1.477.419-.658-.593-1.483-1.58.916-2.978,2.446-4.747,2.968-.4-.495-.788-.991-1.186-1.483-.195.1-.4.2-.6.293,0,1.9-.015,2.189-1.482,2.672-.1-.4-.2-.789-.3-1.186-.441,1.473-.314,1.15-2.079,1.186-.261-.607-.125-.77-.591-.293l-1.78,1.184q.589,1.186,1.184,2.378c-1.83-.3-1.634-.831-2.965-1.488-.2.889-.4,1.782-.6,2.674.3.291.6.591.889.884.364-1.331.023-.952,1.187-1.477-.05,2.656,2.17,6.524,3.265,7.118,2.447.9,6.4.074,8.312,1.186.854,3.254.054,5.374,1.777,7.713,2.274.2,4.554.4,6.824.6v1.48c-.788,1.43-1.142,1.559-.6,2.968,4.282.116,4.929-1.236,7.12-2.968.892.4,1.786.792,2.672,1.189a7.791,7.791,0,0,1-.6,4.745h4.157c.96-1.776,2.491-1.842,3.561-3.262,5.982-7.965,8.045-2.485,17.206-4.75,1.115-3.108,8.232-11.907,10.684-13.647,3.178.1,6.393,2.956,8.012,2.076a51.975,51.975,0,0,0,8.31-7.719c-2.061-3.7-7.755-8.484-5.343-14.24q2.073-2.671,4.152-5.341c-.1-.2-.2-.389-.291-.593-1.257-.238-1.78-.252-2.378-1.189-.291-1.879-.591-3.752-.889-5.634.4.1.791.2,1.189.293.2-.094.394-.2.592-.293.471-3.487,2.265-3.846,5.042-5.047q.892-4,1.785-8.01c3.221-.6,3.03-2.553,5.64-3.559q2.372.147,4.741.3c.293-1.874-.391-2.972.3-4.75,1.1-1.749,2.8-1.275,3.561-3.562q-1.34-1.037-2.672-2.072v-.6c.094-2.075.2-4.152.293-6.225-.782-3.174-3.927-3.8-4.157-8.015h1.485c.723-14.284,13.372-5.184,21.954-8.306-.825-.626-.677-.447-.889-1.777,1.415-.433.744.205,1.189-1.19-.7-.794-1.382-1.583-2.078-2.373.035-9.269,8.069-11.975,11.274-18.394-1.126-2.138-.724-5.273-1.777-7.126-6.049.837-8.4-1.227-12.758-2.672-4.419-1.459-5.374,1.812-9.8-1.48-2.017.587-2.858,2.518-4.446,2.971-3.509,1-9.619-3.577-14.838-3.27-3.425.207-10.162,3.037-14.24,1.78-2.42-.741-4.357-3.082-7.416-3.558-5.269-.809-9.1,5.026-15.433,2.971-.122,1.194-.094,1.156-.595,1.777h-.588c-.1-.688-.2-1.382-.3-2.076-9.723-.572-21.918,5.566-28.782.887q-1.781.894-3.561,1.783c-2.806.714-5.091-2.093-7.417-1.187-3.715,8.232-16.586,8.95-26.7,9.2q-1.037-1.487-2.075-2.968a5.236,5.236,0,0,1-3.861,1.187c-.293-.594-.591-1.187-.892-1.783-.2.1-.394.2-.594.3-1.716,3.958-5.569,4.332-7.715,7.419,1.9,4.956,3.392,7.5,6.823,10.685-.089,4.054-1.718,4.169-3.555,6.23l1.779-.3c-.6,1.729-1.937,2.6-2.966,3.861V293.1l.591.3c.359-2.355,1.39-1.918,2.078-3.855,1.8.146,2.3.134,3.558.887-.146,2.069-.6,4.167.6,5.341.493.493.985.99,1.48,1.482a3.5,3.5,0,0,1,1.78-2.372q.3,1.779.6,3.559l-1.184-.294c1,3.036,3.706,3.642,4.445,7.122C309.045,306.415,308.99,307.775,309.755,309.415Z" transform="translate(70.631 70.375)" fill="#8da9c4"/><path d="M357.8,511.37q2.967,3.116,5.934,6.231c3.4.119,5.878-1.534,9.791-1.19,1.562,2.737,5.946,3.651,8.309,5.64,3.546-1.355,7.093-1.4,9.493-3.26.792-5.468,7.262-3.728,11.873-5.64,1.566-.656,5.7-5.112,6.524-6.526.1-1.189.2-2.378.3-3.559,1.54-3.238,9.143-2.837,7.711-11.571h-1.187c-1.826,1.086-3.405,2.379-5.936,2.669-1.088-2.272-2.176-4.554-3.26-6.826-.89-.294-1.783-.589-2.672-.886a66.457,66.457,0,0,0-3.861,6.521c-.59-.193-1.183-.392-1.777-.592-.2-.4-.4-.788-.6-1.186h-.291c-.744,1.8-2.388,2.164-4.16,1.186.057-2.574.859-3.153,1.785-4.747l-.6-.6a2.658,2.658,0,0,1-2.37-.29,4.43,4.43,0,0,1,1.184-3.564,6.36,6.36,0,0,1-3.553-.3c.193-1.973.394-3.947.591-5.934-1.379,1.091-2.227,1.845-4.154.893v-2.078c-1.581-.2-3.167-.4-4.747-.6-.1-.892-.2-1.78-.3-2.672-2.963,2.321-4.391,5.762-6.823,8.606-1.565-.074-1.429.069-2.076-.889-1.711-4.216,1.279-8.158,1.483-10.977.187-2.58-1.556-5.675-1.187-8.9-1.836-.024-2.189-.169-2.969-1.181v-.895a7.646,7.646,0,0,0,3.561-2.376v-.293c-.2-.1-.4-.2-.594-.3h-.3c-2.376,1.884-4.17,5.466-7.715,5.937-.3-.2-.593-.394-.889-.594.1-1.285.2-2.574.3-3.859,4.97-3.594,6-11.269,9.493-16.318-.4-.2-.786-.4-1.186-.593-2.565,2.422-5.451,2.319-8.6,4.151.278,2.1-1.48,4.065-2.671,5.64,2.138,3.526-.946,3.868-.593,7.42.3,3.12,2.578,6.633,3.261,9.2,1.166,4.392-2.588,2.705,1.482,8.6-.294.693-.595,1.388-.89,2.075-3.049-.1-4.157-1.515-6.523-2.37-.582,7.285-9.469,4.771-14.543,6.524-4.25,1.474-7.621,8.428-12.758,8.9-3.152-1.3-8.63-.421-10.975,1.184-3.227-1.192-4.6-4.025-7.422-5.632q-2.071.441-4.155.889v.3c5.391,6.891,1.426,6.363-2.075,11.565,2.061-.934,10.273-2.566,11.274-2.072.893.686,1.783,1.381,2.672,2.072v3.862a6.07,6.07,0,0,1,4.154,2.37,3.073,3.073,0,0,1,3.264-.594c1.154,3.137,2.382,2.862,3.265,7.716,2.162.032,2.2.815,3.264,1.186,4.665,1.648,6.415-2.328,10.085,2.076-.094.789-.2,1.583-.291,2.372H341.77c.1.2.2.4.3.6h2.969c-.352-2.886.721-2.871,1.48-5.047C351.268,512.578,352.653,511.391,357.8,511.37Z" transform="translate(76.656 165.471)" fill="#8da9c4"/></g><path d="M1.717,714.708c2.428-.869,3.558-2.61,6.529-3.561.1-.789.2-1.58.3-2.376,6.123-2.4,8.938-2.763,13.943-6.522,4.691-.032,6.449,2.311,8.31,5.044-.124,2.311-.708,2.106-1.189,3.858.2.2.4.394.594.593,1.085.1,2.176.195,3.268.3,1.341,3.089,6.366,10.245,4.744,14.536-.981,1.661-2.479,2.468-3.559,4.448a15.024,15.024,0,0,0-8.31,2.378c-.193.788-.394,1.583-.593,2.373.2.2.4.391.593.591,11.043.029,12.538,12.881,21.066,9.495,1.091-1.08,2.18-2.173,3.268-3.265,1.719.432,1.845,1.168,2.965,2.079,7.075-8.147,8.71-.193,16.322-2.369q3.562-1.478,7.119-2.971c4.465-.887,6.423,2.048,9.2,2.672,2.33.527,3.659-2.01,6.826-1.485,3.31.551,5.232,2.523,8.006,3.262,3.68.978,5.8-.794,9.5.3,4.49,1.323,8.271,7.411,6.529,13.056-1.444.566-3.251,1.014-5.047,1.782.2.094.4.2.6.3,3.746,1.768,11.529.934,13.354,4.742.863,3.018.558,9.264-.3,11.874,1.593.426,1.295.668,2.079,1.779-.575,3.771-2.6,3.979-4.454,6.225,1.88,7.852,10.7,6.565,14.836,11.874V796.9l-8.013,8.009c-6.3,3.629-12.645-3.546-12.463-10.377-6.2.213-13.925-3.371-15.426-7.713-1.272.5-2.841,2.868-3.264,4.149.892.4,1.779.789,2.671,1.19-.419,3.414-2.055,6.263-.892,9.2q1.338.446,2.671.884c.7,5.5-.818,9.65-.3,13.65-1.006,2.394-1.675,5.8-4.745,6.234-1.094-.96-1.359-1.771-2.674-1.787v.3c.655,1.577,1.153,2.731.3,4.448-3.958,1.371-2.138,7.052-8.013,7.419a22.081,22.081,0,0,0-6.53-1.477c-.394.487-.791.985-1.181,1.477a6.484,6.484,0,0,1-3.27-.886c.753,2.589-.653,3.507-2.073,4.742-4.267.214-7.3-.1-8.606-2.965-.881.529-.8.8-1.78.595-2.075-.723-2.417-2-3.562-3.562-4.128-.014-5.911-1.625-9.2-2.066q-1.779.878-3.559,1.776c5.433,5.758,13.368,15.559,11.572,25.518-1.165,1.272-1.4,1.96-3.858,2.079.1.2.2.388.294.59,5.329.969,2.548,4.131,3.564,7.122,2.4.869.566,7.036-.6,8.9-2.127.309-3.955.009-5.341.893-.362,3.592.261,4.781-1.779,7.42q.3,1.186.6,2.37a9.571,9.571,0,0,1,5.338-.294c.3.789.6,1.581.893,2.37,1.453-.784,9.507-2.862,11.865-.9,1.456-.925,1.062-1.783,3.856-1.776.4.394.794.791,1.189,1.183,6.833-2.945,9-1.631,15.429.291,2.812.849,5.014-1.534,8.013-.291l12.165,10.39a3.115,3.115,0,0,1,1.779-.89c4.344,5.626,4.213,4.753,4.449,12.755,3.345-.584,6.129,1.655,8.609,2.965.139,3.049,1.106,4.683,1.777,6.826h-1.483c-.294-.2-.59-.4-.889-.6-.195-.982-.394-1.977-.594-2.96a5.328,5.328,0,0,1-1.78,1.183c-.845-1.038-.537-.784-1.482.3a2.888,2.888,0,0,1-.3,1.777c-5.626.125-9.937-3.97-14.536-7.419-.3.2-.6.4-.892.6-.495.594-.991,1.183-1.485,1.782.611.659.409.557,1.485.887-.1.4-.2.792-.3,1.187-1.921-.931-5.045-1.753-7.416-.6q.145,6.086.3,12.167h.3c.1-.1.2-.2.3-.3q.149-2.073.3-4.145h4.75q1.627,1.781,3.264,3.553h.3c.035-1.6-.193-1.477.889-2.076.537,1.776,2.642,2.719,3.86,3.862-.819.884-1.083.6-1.483,2.07.988.892,1.978,1.788,2.969,2.672a3.912,3.912,0,0,1,4.151-.29v5.933l.593.891.6-.3v-4.151h2.075c.1.1.2.2.3.294,2.327,1.293,1.75,1.622,4.747,2.672.3-.1.593-.2.889-.3.2-.89.4-1.787.594-2.672,3.162.216,5.952-.238,6.53-2.676q-1.039-.885-2.079-1.777c.2-.4.4-.789.593-1.186.3-.4.6-.789.89-1.183,2,.214,2.239.711,3.267,1.78.2-.1.394-.2.593-.3v-6.82h3.564c2.2,3.781,3.117,3.973,8.006,4.748.217,3.306,2.556,7.737,1.187,11.272-3.76,1.1-6.853-.4-9.791-1.48-.581,2.043-1.355,3.315-2.075,5.634-1.483-.294-2.966-.6-4.454-.893v.3c1.006,1.394.951,1.827,0,3.27q-1.926.892-3.855,1.777c.3.591.591,1.187.889,1.779,2.574-.628,7.364,1.912,8.609,3.864-.353,3-1.406,6.7-1.189,9.2,5.435,2.979,6.6,7.858,11.571,11.275,3.046,2.094,6.127,1.893,10.387,2.972,1.282.788,2.571,1.578,3.853,2.369,4.949,2.084,8.914.038,13.056-1.485.225-2.45,1.1-1.607,1.78-2.969.418-.822.11-6.046.3-7.123a33.685,33.685,0,0,1,13.057.3c.119,1.193.1,1.156.591,1.78.622-.946.312-.741,1.779-.895a3.993,3.993,0,0,1,.892,2.678c.6-.3,1.186-.6,1.78-.9.6.6,1.186,1.189,1.782,1.782-.2-.987-.4-1.98-.6-2.966.6-.3,1.187-.6,1.779-.89-.216-4.81-1.26-8.137-1.482-12.461.493-.4.988-.789,1.482-1.192-.677-.884-2.385-4.1-3.264-4.741-.886-.4-1.777-.8-2.669-1.19-.1-1.187-.2-2.37-.3-3.565v-.293c-.892-.094-1.779-.2-2.671-.3,1.485-8.47-9.216-8.769-13.946-13.643.081-13.368,6.314-28.1,18.7-29.972,2.766.982,5.536,1.98,8.3,2.966,5.166-3.348,13.321-6.919,20.77-6.524.3-.6.6-1.181.892-1.783,2.57.115,1.921.975,3.262,1.783a14.925,14.925,0,0,1,3.267-.294c.2-.988.4-1.98.593-2.972h1.486c.807.409,11.052,2.266,12.164,2.085,1.379-.232,3.181-1.981,5.341-1.485,2.978.67,7.042,3.564,9.495,4.741,1.78-.094,3.561-.2,5.344-.291,9.606,1.471,15.076.788,19.581-7.416-6.734-2.022-7.885-7.219-13.647-9.8-1.622,1.491-7.034,2.106-9.791.6-2.079,1.284-4.155,2.579-6.234,3.858H256.6c-2.476-1.485-6.586-5.89-4.748-10.39,1.887-3.74,7.158-4.538,8.013-9.2-2.385.518-8.832,2.749-10.684,0-.89-2.168.276-4.157-2.671-4.75-1.93,1.729-4.368,2.649-5.635,5.05-1.058,2,.222,4.032-1.486,5.34a3.354,3.354,0,0,1-2.968.294,23.138,23.138,0,0,0-.59-2.972c-1.088.848-4.045,3.211-5.341.6-.874-1.755.748-4.344.591-5.338-4.513-3.783-.439-16.419,1.782-18.694,1.186-.3,2.375-.6,3.556-.893,2.695-2.412,2.385-6.169,6.827-7.121,5.809-1.251,13.507,5.911,19.285,1.186-.109-.331,3.6-2.612,4.452-2.078-.1.99-.2,1.973-.3,2.963h.3c1.482-.29,2.966-.594,4.452-.886v-.288c-1.827-3.427-5.359-8.19-5.64-12.472.691-1.186,1.384-2.377,2.076-3.559.693.1,1.387.2,2.076.3v-.3c-1.255-1.53-2.609-2.725-1.485-5.044,8.415-3.66,7.437-8.731,18.4-5.347,3.147.981,5.184.655,7.417,2.088-.2,1.977-.4,3.95-.6,5.934,2.705.413,2.63,2.327,4.454,3.262,3.659,1.094,7.319,2.173,10.98,3.262,3.356.836,6.513-2.551,9.791-2.672q1.184,1.331,2.37,2.672c2.524.11,2.419.336,3.27-1.483-1.808-3.856-1.488-5.911-.3-10.091h-.3c-.2.1-.4.208-.6.3-.59,1.776-1.187,3.552-1.779,5.34H320.1c-2.953-3.825-8-3.644-9.792-6.524.1-.5.2-1,.3-1.485,2.655-1.415,4.321-.009,7.12-.892l5.637-5.341h1.189c6.841,6.58,6.968,7.852,16.612,3.561,2.219-5.068,12.007-14.546,20.18-13.056,3.037.552,7.745,2.017,10.384,2.669l8.9-.884c4.059,1.046,20.458,5.012,25.52,2.962,1.266-.51,2.41-1.682,4.449-2.078,3.1,2.417,5.15,4.016,9.5,5.343a14.792,14.792,0,0,1,8.9-4.45c3.06,1.6,2.606,3.469,4.449,6.236q3.408,1.774,6.823,3.553c2.75-1.121,3.66-3.123,6.231-4.157-.782-1.068-1.207-1.219-1.485-2.962.1-.2.2-.4.3-.6h.294c1.874.505,2.147,1.486,3.856,2.079,4.935-7.271,14.088-4.813,22.551-3.262,1.483-.1,2.968-.2,4.455-.3.907.226,1.737,1.325,3.558.895,3.174-.753,8.443-.687,12.164-2.379q3.709-3.114,7.417-6.225,5.491-1.039,10.979-2.078,3.854-2.82,7.71-5.641c6.621,1.418,5.242-1.388,10.682-2.367,4.244,2.649,12.251.561,15.431-3.269.81-.975.157-1.863,1.189-2.672,4.207-1.207,7.637-2.019,10.975-3.855,1.032-4.659,4.7-4.317,7.715-6.821-.2-.3-.4-.6-.593-.895-3.271-.045-4.5.9-7.423,1.187-.2-.293-.389-.6-.587-.89-3.188-5.261-.425-11.431.288-16.022q2.084-1.781,4.157-3.562c-.786-3.3-5.37-10.694-8.312-11.867-1.375-.551-3.093.7-4.149-.889-1.322-1.981-1.6-5.254-3.564-6.53-2.337-1.512-5.086-1.793-6.522-4.154v-3.555c-.99-.893-1.98-1.788-2.968-2.672-3.765-.172-4.628.528-8.015.884-.591-1.285-1.184-2.565-1.779-3.853a16.464,16.464,0,0,1-10.388-2.078c-.836-3.982-1.657-8.446-2.672-13.051q-1.63.59-3.259,1.183c-2.944-1.99-2.9-3.524-5.048-6.233-1.447-1.829-14.252-9.346-16.619-9.788.1-.5.2-.99.3-1.483-7.025-.827-9.828-3.716-14.54-6.233-.575.9-.06.478-1.187.893q-.74-1.043-1.48-2.079c-5.338,1.384-37.457-8.657-39.761-11.274-2.177,1.98-7.935,4.465-11.867,2.966q-1.634-1.037-3.265-2.078a12.9,12.9,0,0,1,.595-6.527c-1.074-2.022-2.114-4.442-4.449-5.341V650.34h.59c2.3-1.24,5.5-3.019,9.794-2.082q1.924.448,3.858.89c2.923-1.038,3.891-1.66,7.416-1.781.495.991.99,1.98,1.485,2.972.2-.1.4-.2.6-.3a11.306,11.306,0,0,1,2.367-5.629h1.192c.89.587,1.78,1.183,2.671,1.774.943-3.488,3.678-4.4,4.448-8.009q-1.181-.154-2.372-.3c.035-2.325.56-2.6,1.485-3.855-3.772-5.582-10.673-4.1-16.911-5.936-.1-.2-.2-.4-.3-.6.075-3.983,1.921-3.084.6-5.34-5-1.305-20.343-6.578-21.662-10.678q.147-1.783.3-3.564c-2.307-.812-4.852-2.232-6.824-2.971-1.673-.62-3.848-.039-5.039-.59l-4.451-1.48c-2.37,1.81-6.753,3.653-8.307,5.635-1.744,2.215-1.266,5.759-3.858,7.12-2.64,1.376-4.558,1.7-6.233,3.86-.3.687-.593,1.385-.889,2.075-3.682,2.725-10.106,4.732-14.54,6.821.4.99.789,1.981,1.187,2.969h.3c1.5-.827,1.839-1.809,4.155-1.187l.294,3.263c-1.77,1.367-2.722,5.248-4.747,5.937-2.666-1.183-6.82-5.139-6.231-8.3-2.514-.308-5.417-2.144-9.195-1.19-1.289.323-4.452,1.556-6.529,1.19-8.359-1.492-16.814-13.741-19.88-20.773-2.838-.46-6.07-1.2-8.307-1.78-3.612-.946-7.283,1.331-10.385-.294q-1.039-1.487-2.076-2.971c-1.482-.3-2.968-.591-4.454-.89l-8.3-7.42c-3.49-1.529-4.379.332-5.936-2.969-1.043-2.576.733-4.333,0-7.414q-2.374-6.231-4.747-12.464c-1.651-2.328-5.942-1.531-8.6-2.963-6.24-3.365-10.133-7.586-13.356-14.243h-.294c-3.3,1.279-4.391,2.977-8.606,3.257-4.03-5.143-13.91-7.894-20.176-10.675-9.226-4.087-20.744-9.347-28.486-15.432-8.768-6.886-16.541-18.14-29.079-16.022-5.29-4.739-13.32-7.959-13.348-17.8,1.489-.688,4.4-2.384,4.745-3.27.629-.614.546-.766.591-2.072,1.317.5,1.289,3.037,2.078,2.665-.2-1.676-.4-3.362-.6-5.039.6.093,1.189.195,1.783.294.137,2.533.011,3.322.893,4.745.3.1.59.2.886.3h.3c.4-1.782.948-2.207,2.971-2.376v2.376q1.482-.3,2.965-.594c.3-.2.594-.394.889-.593-.151-2.84-.282-5.573,1.187-6.826.2.2.4.4.6.594-.69,1.285-1.021,4.677,0,5.933v-.593c.2-1.583.392-3.168.591-4.748h.892v.593c1.076,3,.46,4.52,2.671,6.234h2.966c.424-1.946,1.55-2.269,2.376-3.858,1.074.19.895.119,1.479.593.2,1.258,1.079,1.732,2.672,2.965.691.1,1.385.2,2.079.3.99-.929,2.333-2,2.669-3.565-.693-.392-1.387-.789-2.079-1.183.252-1.894.86-1.626.3-2.671-.306-1.479.1-1-1.184-1.483a4.6,4.6,0,0,0-1.482-1.187c-1.187.493-2.376.991-3.564,1.485v-1.184c-.4.094-.789.192-1.186.291.1.4.2.791.3,1.19-3.9-.364-3.535-.762-7.126-.6.2-.5.4-.991.593-1.479q-3.112.591-6.23,1.184v-.893h.895c-.1-.2-.2-.4-.3-.591-2.188-.118-2.262-.549-2.672-2.379a68.23,68.23,0,0,0-10.092.6c-.094-.3-.192-.6-.293-.892a6.679,6.679,0,0,1-.3-4.157c1.783-.432,2.037-1.165,2.075-3.26a9.675,9.675,0,0,1,4.748,1.186c.2-.4.394-.792.593-1.186-.607-.537-.21-.009-.593-.893,1.759.4,6.079.979,7.419,2.079,1.966-1.122,8.433.727,9.495-2.079-1.3-1.483-.137-5.883-.887-7.118-5.211.951-10.123-.2-15.432,0,.2-.4.4-.791.6-1.187.294-.4.59-.792.887-1.192l3.856.6c.2-.2.4-.4.6-.6a8.882,8.882,0,0,0-.3-4.449c-1.94-1.378-4.371-1.8-6.82-2.965-.042-3.027.779-3.538,1.779-5.341q-2.376-2.972-4.75-5.936-.147-2.229-.3-4.452c-3.253-6.762-12.627-6.539-10.381-17.8.516-2.621.433-3.426,2.072-4.753a3.717,3.717,0,0,1,2.082.89c.193-.1.391-.2.591-.293-.421-1.981-1.147-1.711-1.483-3.86.3-.2.591-.4.892-.6a15.918,15.918,0,0,0,4.448-2.375c.29-2.15,3.117-10.789,4.154-11.569,1.21-.91,3.152-.735,3.86-2.076,2.39-4.537,3.921-8.274,7.416-11.574q-2.222-2.073-4.448-4.155c.1-.981.2-1.975.3-2.962,2.512-1.3,4.457-3.594,6.227-5.643q-.292-2.519-.59-5.041c-5.914-1.646-11.87,2.855-16.616,3.559-2.573-2.209-6.634-7.656-9.5-9.195-1.187.1-2.373.193-3.555.3q-1.195-1.779-2.378-3.562-4.155-2.822-8.306-5.638c-3.116-1.711-12.781-.106-13.65-.588q-.745-2.227-1.482-4.456c-1.4-1.909-5.361-2.078-7.416-3.262q.143-1.63.294-3.264c.294-.094.591-.2.892-.3,3.772,1.017,7.976,2.76,10.977.6v-.3c-3.681-10.424-14.656-9.985-11.868-26.11.507-2.939-1.613-3.915-.89-6.233,1.213-2.613,3.952-1.948,5.635-3.859-.166-.736,1.687-5.506,2.375-7.123.454.681.545.367.3,1.19q.3,1.926.593,3.86c.1-1.589.2-3.168.3-4.748h1.187c.1.5.195.988.3,1.483h.3c.1-1.089.2-2.173.3-3.265.2.1.4.2.6.3q.446,3.56.889,7.123h.294c.192-2.612.021-7.016,1.783-7.718-.438,2.814-.2,6.986-1.783,9.2.4.1.8.207,1.19.3.3-.093.593-.2.889-.3.2-.1.4-.2.593-.3,2.174.5,4.351.99,6.527,1.486,1.364-.21,13.567-2.888,14.54-2.375q.745,1.333,1.485,2.669h.591q1.34-1.48,2.671-2.963c-.8-1.507-2.529-2.325-2.075-4.155,1.4-2.754,4.759-4.382,6.521-7.12,2.864.164,3.594,1.67,5.644,1.48-.762-1.471-.5-2.011.3-3.262,4.46-1.823,6.231-6.942,10.085-8.9,1.881-.952,2.853-2.369,4.155-2.963,1.332-.616,2.633.08,3.556-.6-.49-1.782-.987-3.559-1.479-5.344-.851-1.544-3.179-2.3-3.562-4.448-.419-2.349,1.245-4.975.89-7.12-.142-.859-2.017-2.787-1.488-4.747q.9-1.039,1.783-2.078-.149-2.075-.3-4.155,1.482-1.625,2.966-3.264c.152-3.739-.13-4.493-1.486-6.824a4.026,4.026,0,0,1-2.968-.293q-.444-1.482-.887-2.969a3.507,3.507,0,0,0-2.671.3c-.789.987-1.584,1.975-2.376,2.963-2.05.044-2.838-.19-3.556-1.48-1.163-3.245.872-6.633-.892-9.493q-2.225.439-4.451.886-1.186-1.328-2.373-2.668c-.72-1.728.445-3.574-.6-4.751-3.27-4.415-8.413-3.043-12.757-5.933q-1.774-2.372-3.559-4.745c.038-2.734.958-3.879.593-5.045-2.99-1.682-2.05-4.646-3.558-7.122-.3-.1-.6-.2-.889-.3-2.228,1.147-3.967,3.033-6.827,3.267q-2.671-1.184-5.341-2.373c.1-.794.2-1.584.3-2.373,2.738-.433,3.57-1.655,5.042-3.265v-.892c-.2-.2-.4-.4-.591-.591h-.886c-1.83,1.768-2.289,3.452-5.635,3.853q-1.043-.444-2.081-.887v-2.375c1.937-.7,2.02-2.337,2.081-4.748-.893-.691-1.78-1.382-2.672-2.078-2.98.2-3.847.629-6.529.3.3.789.6,1.58.892,2.37-.3.2-.6.4-.892.591q-2.818-.14-5.637-.293a4.81,4.81,0,0,1-2.669-2.373c-.768-3.075,1.856-4.626,2.965-6.821a30.921,30.921,0,0,0-9.195-1.782c-2.746,5.767-8.316,1.51-12.165.588-6.127,3.365-12.861,6.987-20.77,8.9-.771-.771-.67-.806-1.483-.889-.546,1.21-.371,1.123-2.079,1.19-1.957-1.257-8.119-2.93-9.789-2.971q1.186,1.186,2.375,2.373v1.482a14.265,14.265,0,0,1-3.562,2.379c-4.419-.667-4.523-3.519-6.524-6.535-4.139.827-6.4-.652-9.2-2.671-.951.783-.665.952-2.376,1.193-.294-.2-.591-.4-.889-.593.014-1.734,0-1.928-.889-2.671-2.962,1.376-4.06,3.841-8.015,4.151-2.735-1.02-2.111-2.112-2.075-4.451-.294-.1-.6-.2-.892-.3-2.74-1.076-14.792,1.3-17.208,2.376a4.034,4.034,0,0,0-.534.3v527.5A4.306,4.306,0,0,0,1.717,714.708Z" transform="translate(0.003 93.415)" fill="#8da9c4"/><path d="M428.883,0c.124.157.273.311.374.471Q430,3.732,430.741,7c1.723-.691,23.092-1.195,26.4-.3q-.143,8.308-.293,16.616l-5.047.3c.4.495.8.988,1.191,1.482.29.2.59.4.887.6a4.337,4.337,0,0,1-.6,2.372c-.486.5-.985,1-1.48,1.486-.691-.1-1.382-.2-2.075-.3-.256-2.8-.619-4.83-1.78-6.523q-1.781.147-3.559.3.3,7.561.593,15.129a5.913,5.913,0,0,0-2.971,2.672v1.485h2.672c.768,3.2,3.789,5.91,3.265,8.6-2.22-.026-2.1-.4-3.265-1.186-1.012,7.209-9.507,12.964-14.54,16.616-1.785.094-2.573.155-3.263-.887-.2-.8-.394-1.587-.592-2.378A24.008,24.008,0,0,1,416.2,61.592a45.565,45.565,0,0,1-3.559,4.155c.767.723,3.3,1.574,3.858,2.378,5.394,7.746-10.373,13.117-13.054,15.13a21.981,21.981,0,0,0-5.045,5.933c-.987.1-1.978.2-2.962.3v.291c.911,2.986,4.311,8.031,3.552,11.874-.489,1.384-.985,2.766-1.479,4.152,3.04,2.138,3.055,5.417,2.372,9.495h.3v-.6c.729-1.281.167-1.507,2.075-1.779,4.451,2.373,5.726.665,10.685.293l5.044.593c.1.5.2.994.3,1.489,1.106.511,5.665-.954,7.713-.6.267,1.177.267,3.334.89,4.155,1.6-.982,7.631-.792,8.9,1.183,1.436,2.547,1.613,6.086,3.262,8.31,1.29-.1,2.571-.2,3.86-.3v-.3a19.1,19.1,0,0,1-1.189-8.9,4.1,4.1,0,0,1,3.265.293c.29,1.411.241,1.82,1.485,2.376.625-3.428,3.872-5.056,5.936-7.122.985.1,1.977.2,2.963.3v1.485c-.489.691-.987,1.382-1.482,2.078.89-.6,1.78-1.186,2.672-1.785a18.745,18.745,0,0,1,6.821,2.378v.293a5.087,5.087,0,0,1-1.189,2.969q-1.034-.149-2.076-.3c.083,1.741.121,2.3-.887,2.971-2.26.76-3.119-1.061-5.344-1.485v.3c.3.4.594.8.89,1.19,1.289.3,2.576.593,3.858.892-.338,3.015-2.108,6.6-1.186,8.9q3.56.294,7.129.6c-.062,1.628-.175,2.342.29,2.966.99-.2,1.978-.4,2.971-.593-.427,1.771-1.126,1.859-2.082,2.971.794.884,1.586,1.779,2.373,2.671,1.424.041,4.314,1.367,4.751,1.184,2.47-1.017,5.5-2.926,8.9-2.373.3,1.972.8,2.548,2.966,2.671,4-1.847,7.106-6.764,13.059-5.044v.293c-.692,4.092-4.548,6.415-6.529,9.495-2.932-.287-6.44-2.809-10.391-1.181-2.259,1.225-4.148,3.831-5.933,5.637.5.3.987.593,1.486.886,1.144-.385,2.778-.5,3.561.3.576,1.776-.5,3.085.29,5.044,1.391,1.187,2.769,2.372,4.158,3.558,6.5,1.857,13.686-1.85,17.507-5.041-1.814-1.639-.445-3.478.593-4.747-.958-1.815-2.1-1.977-2.379-4.455.874-2,2.384-3.33,4.754-2.075.376,1.883-.223,5.542,1.188,6.228a4.305,4.305,0,0,1,1.485-2.37c2.42.187,6.221.739,7.413.293a3.73,3.73,0,0,1,.3-4.151h.3a4.156,4.156,0,0,1,2.963.892,48.432,48.432,0,0,0,2.67-4.452c3.31-.16,7.417-2.732,10.978-1.483a67.491,67.491,0,0,0,8.9,2.076c.186,2.159,1.144,2.569,2.372,3.559.954-.78.665-.951,2.369-1.181.5.19.994.391,1.488.59.763,1.657,1.72,3.835.887,5.933-.993,1.313-2.357.916-3.555,1.483-.38,2.295-.691,7.008.294,8.015,3.2,6.09,10.963,11.153,15.723,16.026-.094,1.184-.2,2.369-.294,3.555.493-.49.988-.988,1.482-1.482h.3c2.343.238,16.14,12.25,16.618,13.354.727,1.667-1.6,3.3-1.482,5.041h2.671c1.034,3.351,2.233,8.173,0,10.978.76.94,1.681,3.141,2.672,3.858,5.249,2.452,15-1.815,21.064.892.1,3.564,1.305,14.735-.887,16.315-3.022,1.141-6.933-1.251-8.9,0,4.561,8.018,11.5,13.372,16.615,20.477,2.416,3.353,4.324,7.206,6.824,10.385-.457,13.267,4.3,21.307,12.46,29.372,2.061,2.038,9.448,2.821,9.2,5.933,2.2,4.175,1.8,8.454,0,12.469v6.821c-1.883,3.961-6.479,5.406-10.98,4.155a5.173,5.173,0,0,0-1.485,4.152h.3c3.718-1.605,10.332-1.139,13.356.6.537,2.494,1.918,2.6,3.262,4.155.041,3.868-1.065,4.445-1.78,7.414-2.748.368-4.638.267-5.932,2.076,1.175,1.731,4.976,6.595,6.525,7.714h1.777v-.3c-5.972-4.784.664-9.97,1.482-15.129-2.376-1.055-1.43-3.567-.3-5.048a14.02,14.02,0,0,1,5.048-.593q.593,2.82,1.183,5.641c.789.892,1.58,1.777,2.378,2.672.2,2.274.389,4.548.594,6.823,1.187,2.48,3.488,5.07,4.744,7.711.2-.1.4-.2.6-.3.293-1.085.593-2.176.887-3.26,1.571-.284,8.938.133,10.091-.591,2.373-1.513,6.062-23.773,8.6-28.192,2.609-.588,6.719-2.308,9.495-1.189,3.206,1.595,3.7,5.121,5.635,8.012q4.008,4.158,8.012,8.31c.542.018,1.055.017,1.55.006V0Z" transform="translate(201.198)" fill="#8da9c4"/><path d="M21.007,175.827c6.67-4.265,14.961-6.467,20.179,1.482a15.488,15.488,0,0,1-.892,6.826c.1.1.2.2.3.3,15.041-.376,26.535-1.634,34.714-9.8h2.968a59.534,59.534,0,0,1,4.154,5.937c7.455-2.582,11.645,2.076,17.507.593,2.4-.607,2.438-1.9,5.632-1.777,1.844-9.8,26.746-18.469,36.8-21.362.72-7.054,4.968-9.91,9.791-13.059q3.417-3.709,6.826-7.419c6.426-5.083,16.728-6.043,24.625-9.495,2.079-.908,4.664-3.238,7.123-3.856,2.428-.611,5.1.462,7.12.893l5.34-3.562,2.968-6.23c3.413-5.038,12.454-17.627,18.1-19.587,7.953-2.758,15.064,1.565,23.441.3,6.2-.937,11.6-2.745,17.211-3.856.857,2.3,11.305,2.067,15.725,2.075,3.853.011,10.75-1.43,16.321.3,9.173,2.843,17.218,6.8,29.373,5.641-.1-.2-.2-.4-.294-.6-.593-.3-1.189-.588-1.78-.889.1-.691.193-1.384.3-2.078,1.572.416,3.1,1.975,2.965,3.268,4.7-.347,5.8-4.042,9.493-5.344,2.274-.1,4.554-.2,6.826-.3,3.152-.493,7.846-2.388,11.274-3.264,2.5-.632,6.978,1.343,9.792,1.482,3.7.189,8.448-2.941,13.057-1.186,2.606.991,3.4,4.207,5.042,6.233,3.872-.834,7.678,1.728,10.387,2.075,7.464.969,13.546-1.5,18.1-4.152.687.11,12.321,2.794,12.46,2.963a16.449,16.449,0,0,1,1.485,6.533c4.1-3.647,13.237-7.733,18.394-1.782a29.914,29.914,0,0,1,4.75-.3v-1.186c-.3-.4-.6-.789-.89-1.192-5.771-2.272-12.829-4.28-18.991-6.23-2.942-.929-5.637.552-8.9,0-4.044-.676-10.916-1.02-8.9-6.23,2.082-4.495,7.132-7.425,12.167-8.9,3.8-1.115,6.679,3.8,9.2,1.776,3.4-.975,10.439-4.653,11.867-7.711q.749-5.936,1.483-11.867c.142-.29,17.805-14.836,17.805-14.836,1.827-.652,3.328.676,5.341-.3V43.495q.892.152,1.78.3c1.263-3.739,10.954-13.864,14.243-16.321,8.054,1.522,15.435-1.528,22.845-2.966,3.3-.64,8.135-.164,10.682-.594,1.287.4,2.566.794,3.862,1.186q4-1.627,8.013-3.261s-.673-2.8,0-3.558q1.625-1.041,3.258-2.078c2.588-3.07,2.921-7.144,6.236-9.5,1.261.281.991.344,1.782.89.294-.791.591-1.584.886-2.375q2.824.3,5.641.6c.017-1.64,1.112-3.784,2.754-5.815H0V170.493C6.7,169.111,17.552,170.318,21.007,175.827Z" transform="translate(0 0.001)" fill="#8da9c4"/><path d="M382.917,2.844c1.266,2.423,8.282,6.882,8.6,8.9.792-.693,1.58-1.385,2.373-2.079,3.92.674,7.179,1.341,10.086-1.78V6.406c1.257-.094,1.177.018,1.782-.591C407.281,4.1,407.81,1.97,408.568,0H379.223A31.188,31.188,0,0,1,382.917,2.844Z" transform="translate(192.948)" fill="#8da9c4"/><g transform="translate(229.524 633.795)"><path d="M182.3,435.163a15.088,15.088,0,1,1-15.083-15.1,15.068,15.068,0,0,1,15.083,15.1" transform="translate(-152.124 -420.066)" fill="#133c55"/><path d="M172.215,432.616a7.547,7.547,0,1,1-7.527-7.55,7.528,7.528,0,0,1,7.527,7.55" transform="translate(-149.582 -417.522)" fill="#c2b59b"/></g><g transform="translate(248.457 911.909)"><path d="M194.848,619.493a15.088,15.088,0,1,1-15.082-15.1,15.065,15.065,0,0,1,15.082,15.1" transform="translate(-164.672 -604.394)" fill="#133c55"/><path d="M184.764,616.94a7.547,7.547,0,1,1-7.527-7.544,7.528,7.528,0,0,1,7.527,7.544" transform="translate(-162.129 -601.849)" fill="#c2b59b"/></g><g transform="translate(146.98 1091.125)"><path d="M127.591,738.274a15.088,15.088,0,1,0-15.083,15.077,15.084,15.084,0,0,0,15.083-15.077" transform="translate(-97.415 -723.175)" fill="#133c55"/><path d="M117.507,735.723a7.547,7.547,0,1,1-7.529-7.547,7.526,7.526,0,0,1,7.529,7.547" transform="translate(-94.872 -720.631)" fill="#c2b59b"/></g><g transform="translate(725.865 107.819)"><path d="M526.352,94.106a22.632,22.632,0,1,1-22.62-22.646,22.6,22.6,0,0,1,22.62,22.646" transform="translate(-481.088 -71.46)" fill="#133c55"/><path d="M511.621,90.381A11.615,11.615,0,1,1,500.01,78.76a11.6,11.6,0,0,1,11.612,11.621" transform="translate(-477.372 -67.746)" fill="#c2b59b"/></g><path d="M487.471,98.117" transform="translate(248.024 49.922)" fill="none" stroke="#00bac0" stroke-linejoin="round" stroke-width="8" stroke-dasharray="4"/><g transform="translate(521.097 789.539)"><path d="M375.548,538.387a15.088,15.088,0,1,1-15.082-15.1,15.066,15.066,0,0,1,15.082,15.1" transform="translate(-345.372 -523.29)" fill="#133c55"/><path d="M365.463,535.838a7.547,7.547,0,1,1-7.527-7.547,7.526,7.526,0,0,1,7.527,7.547" transform="translate(-342.83 -520.746)" fill="#c2b59b"/></g><g transform="translate(480.054 964.093)"><path d="M348.346,654.078a15.088,15.088,0,1,1-15.082-15.1,15.066,15.066,0,0,1,15.082,15.1" transform="translate(-318.17 -638.981)" fill="#133c55"/><path d="M338.261,651.529a7.547,7.547,0,1,1-7.527-7.547,7.526,7.526,0,0,1,7.527,7.547" transform="translate(-315.628 -636.437)" fill="#c2b59b"/></g><path d="M13.867-16.954h3.479l-.931-8.134ZM27.783-7.5,27,0H15.729l.784-7.5h1.862l-.2-1.911H11.466L10.878-7.5H12.74L11.956,0H.686L1.47-7.5H3.332L9.31-26.362H7.154l.784-7.5H26.754l-.784,7.5H23.863L25.921-7.5Zm27-26.411L53.606-22.589H47.971l.392-3.773H46.452L44.492-7.546H46.4L45.619,0H34.3l.784-7.546H37l1.96-18.816H37.044l-.392,3.773H30.968l1.176-11.319ZM80.066-7.546,79.282,0H67.963l.784-7.546h1.911l.588-5.635H64.239l-.588,5.635h1.862L64.729,0H53.459l.784-7.546h1.862l1.96-18.816H56.2l.784-7.546h11.27l-.784,7.546H65.611l-.588,5.635H72.03l.588-5.635H70.707l.784-7.546H82.81l-.784,7.546H80.115L78.155-7.546ZM104.762,0H81.928l.784-7.546h1.911l1.96-18.816H84.672l.784-7.546H108.29l-1.176,11.319H99.568l.392-3.773H94.08l-.588,5.635h7.3l-.784,7.546h-7.3L92.12-7.546H98l.392-3.773h7.546Zm31.507-33.908-.784,7.546h-1.911L130.83,0h-7.644l-4.9-16.17L117.4-7.546h1.911L118.531,0H107.212L108-7.546h1.911l1.96-18.816h-1.911l.784-7.546H120l5.1,16.66.98-9.114h-1.911l.784-7.546ZM157.143-3.773,152.978,0h-14.6l-3.381-3.773.784-7.546h7.546l-.392,3.773h7.056l.588-5.635H139.748l-3.381-3.773,1.372-13.181,4.165-3.773h14.6l3.381,3.773-.784,7.546h-7.546l.392-3.773h-7.056l-.588,5.635h10.829l3.381,3.773Z" transform="translate(684.171 90.706)" fill="#001024"/><path d="M16.17,0H.792L1.32-5.082H2.607l1.32-12.672H2.64l.528-5.082H18.546l-.792,7.623H12.672l.264-2.541H8.976l-.4,3.795H13.5l-.528,5.082H8.052l-.4,3.8h3.96l.264-2.541h5.082ZM35.112-20.3l-.924,8.877L31.383-8.877H25.014l-.4,3.8h1.254L25.344,0h-7.59l.528-5.082h1.254l1.32-12.672H19.6L20.13-22.8h12.7ZM29.37-13.959l.4-3.795H25.938l-.4,3.795ZM42.8-5.082,42.273,0h-7.59l.528-5.082h1.254l1.32-12.672H36.531l.528-5.082h7.59l-.528,5.082H42.867L41.547-5.082ZM60.258-2.541,57.453,0h-13.5l.528-5.049h1.254l1.32-12.7H45.8l.528-5.049h13.5l2.277,2.541ZM55.44-5.049l1.32-12.7H52.14l-1.32,12.7Zm14.685-6.369h2.343L71.841-16.9ZM79.5-5.049,78.969,0h-7.59l.528-5.049h1.254l-.132-1.287H68.508l-.4,1.287h1.254L68.838,0h-7.59l.528-5.049H63.03l4.026-12.7H65.6l.528-5.049H78.8l-.528,5.049H76.857l1.386,12.7Zm10.164-.858,3.762-11.847H92.169L92.7-22.8h7.59l-.528,5.049H98.5L92.862,0H85.239L83.292-17.754H82.038l.528-5.049h7.59l-.528,5.049H88.374Zm26.466.858L115.6,0H108.57l.528-5.049h1.023l.4-3.828h-3.96l-.4,3.828h1.287L106.92,0H99.3l.528-5.049h1.287l1.32-12.7h-1.287l.528-5.049H114.51l2.277,2.541-.792,7.59-1.386,1.254,1.122,1.287L115.2-5.049Zm-5.082-8.877.4-3.828h-3.96l-.4,3.828ZM132.2-2.541,129.393,0h-9.834l-2.244-2.541,1.848-17.721,2.772-2.541h9.834l2.277,2.541ZM127.38-5.049l1.32-12.7h-4.752l-1.32,12.7ZM148.6-2.541,145.794,0H135.96l-2.277-2.541.528-5.082h5.082l-.264,2.541h4.752l.4-3.8h-7.293l-2.277-2.541.924-8.877,2.805-2.541h9.834l2.277,2.541-.528,5.082h-5.082l.264-2.541h-4.752l-.4,3.795h7.293l2.277,2.541Z" transform="translate(125.254 698.531)" fill="#001024"/><path d="M9.339-11.418h2.343L11.055-16.9Zm9.372,6.369L18.183,0h-7.59l.528-5.049h1.254l-.132-1.287H7.722l-.4,1.287H8.58L8.052,0H.462L.99-5.049H2.244l4.026-12.7H4.818L5.346-22.8H18.018l-.528,5.049H16.071l1.386,12.7ZM34.914,0H19.536l.528-5.082h1.287l1.32-12.672H21.384l.528-5.082H37.29L36.5-15.213H31.416l.264-2.541H27.72l-.4,3.795h4.917l-.528,5.082H26.8l-.4,3.8h3.96l.264-2.541h5.082ZM52.14-2.541,49.335,0H39.072L36.795-2.541,38.643-20.3l2.805-2.541H51.711L53.988-20.3l-.528,5.082H48.378l.264-2.541H43.461L42.141-5.082h5.181l.264-2.541H43.791l.528-5.049H53.2ZM68.772,0H53.394l.528-5.082h1.287l1.32-12.672H55.242l.528-5.082H71.148l-.792,7.623H65.274l.264-2.541h-3.96l-.4,3.795H66.1l-.528,5.082H60.654l-.4,3.8h3.96l.264-2.541h5.082Zm10.2-11.418h2.343L80.685-16.9Zm9.372,6.369L87.813,0h-7.59l.528-5.049H82l-.132-1.287H77.352l-.4,1.287H78.21L77.682,0h-7.59l.528-5.049h1.254l4.026-12.7H74.448l.528-5.049H87.648l-.528,5.049H85.7l1.386,12.7Zm20.394-17.787-.528,5.082H106.92L105.072,0H99.924l-3.3-10.89L96.03-5.082h1.287L96.789,0H89.166l.528-5.082h1.287L92.3-17.754H91.014l.528-5.082h6.237l3.432,11.22.66-6.138h-1.287l.528-5.082ZM129.921-2.541,127.116,0h-9.834L115-2.541l.528-5.082h5.082l-.264,2.541H125.1l.4-3.8h-7.293l-2.277-2.541.924-8.877,2.805-2.541h9.834l2.277,2.541-.528,5.082h-5.082l.264-2.541h-4.752l-.4,3.795h7.293l2.277,2.541ZM146.586,0H131.208l.528-5.082h1.287l1.32-12.672h-1.287l.528-5.082h15.378l-.792,7.623h-5.082l.264-2.541h-3.96l-.4,3.795h4.917l-.528,5.082h-4.917l-.4,3.8h3.96l.264-2.541h5.082Zm10.2-11.418h2.343L158.5-16.9Zm9.372,6.369L165.627,0h-7.59l.528-5.049h1.254l-.132-1.287h-4.521l-.4,1.287h1.254L155.5,0h-7.59l.528-5.049h1.254l4.026-12.7h-1.452l.528-5.049h12.672l-.528,5.049h-1.419l1.386,12.7Z" transform="translate(601.254 595.531)" fill="#aa9e88"/><path d="M18.084-20.3l-.924,8.877-2.8,2.541H7.986l-.4,3.8H8.844L8.316,0H.726l.528-5.082H2.508l1.32-12.672H2.574L3.1-22.8H15.807Zm-5.742,6.336.4-3.795H8.91l-.4,3.795ZM32.67-2.541,29.865,0H20.031L17.787-2.541l1.848-17.721L22.407-22.8h9.834l2.277,2.541ZM27.852-5.049l1.32-12.7H24.42L23.1-5.049Zm22.836,0L50.16,0H43.131l.528-5.049h1.023l.4-3.828h-3.96l-.4,3.828h1.287L41.481,0H33.858l.528-5.049h1.287l1.32-12.7H35.706l.528-5.049H49.071l2.277,2.541-.792,7.59L49.17-11.418l1.122,1.287-.528,5.082Zm-5.082-8.877.4-3.828h-3.96l-.4,3.828ZM66.759-2.541,63.954,0H54.12L51.876-2.541l1.848-17.721L56.5-22.8H66.33l2.277,2.541ZM61.941-5.049l1.32-12.7H58.509l-1.32,12.7ZM83.16-2.541,80.355,0H70.521L68.244-2.541l.528-5.082h5.082L73.59-5.082h4.752l.4-3.8H71.445l-2.277-2.541.924-8.877L72.9-22.836h9.834L85.008-20.3l-.528,5.082H79.4l.264-2.541H74.91l-.4,3.795h7.293l2.277,2.541Z" transform="translate(438.588 849.905)" fill="#001024"/><path d="M16.17,0H.792L1.32-5.082H2.607l1.32-12.672H2.64l.528-5.082H18.546l-.792,7.623H12.672l.264-2.541H8.976l-.4,3.795H13.5l-.528,5.082H8.052l-.4,3.8h3.96l.264-2.541h5.082ZM34.551-5.049,34.023,0H26.994l.528-5.049h1.023l.4-3.828h-3.96l-.4,3.828h1.287L25.344,0H17.721l.528-5.049h1.287l1.32-12.7H19.569L20.1-22.8H32.934l2.277,2.541-.792,7.59-1.386,1.254,1.122,1.287-.528,5.082Zm-5.082-8.877.4-3.828H25.9l-.4,3.828ZM55.836-5.082,55.308,0h-7.59l.528-5.082H49.5l.759-7.425-4.323,7-2.805-7-.759,7.425h1.254L43.1,0h-7.59l.528-5.082H37.29l1.32-12.672H37.356l.528-5.082h5.973l3.168,7.029,4.719-7.029h5.94l-.528,5.082H55.9L54.582-5.082Zm9.24,0L64.548,0h-7.59l.528-5.082H58.74l1.32-12.672H58.806l.528-5.082h7.59L66.4-17.754H65.142L63.822-5.082ZM81.345-2.541,78.54,0H68.706L66.462-2.541,68.31-20.262,71.082-22.8h9.834l2.277,2.541ZM76.527-5.049l1.32-12.7H73.1l-1.32,12.7ZM102.2-22.836l-.528,5.082h-1.287L98.538,0H93.39l-3.3-10.89L89.5-5.082h1.287L90.255,0H82.632l.528-5.082h1.287l1.32-12.672H84.48l.528-5.082h6.237l3.432,11.22.66-6.138H94.05l.528-5.082Zm7.194,17.754L108.867,0h-7.59l.528-5.082h1.254l1.32-12.672h-1.254l.528-5.082h7.59l-.528,5.082h-1.254l-1.32,12.672Z" transform="translate(211.447 888.61)" fill="#001024"/><path d="M15.906-2.541,13.1,0H3.267L.99-2.541l.528-5.082H6.6L6.336-5.082h4.752l.4-3.8H4.191L1.914-11.418,2.838-20.3l2.805-2.541h9.834L17.754-20.3l-.528,5.082H12.144l.264-2.541H7.656l-.4,3.795h7.293l2.277,2.541ZM34.485-20.3l-.924,8.877-2.8,2.541H24.387l-.4,3.8h1.254L24.717,0h-7.59l.528-5.082h1.254l1.32-12.672H18.975L19.5-22.8H32.208Zm-5.742,6.336.4-3.795H25.311l-.4,3.795ZM49.3,0H33.924l.528-5.082h1.287l1.32-12.672H35.772l.528-5.082H51.678l-.792,7.623H45.8l.264-2.541h-3.96l-.4,3.795h4.917L46.1-8.877H41.184l-.4,3.8h3.96l.264-2.541h5.082ZM68.31-22.836l-.792,7.623h-3.8l.264-2.541H62.7L61.38-5.082h1.287L62.139,0H54.516l.528-5.082h1.287l1.32-12.672H56.364L56.1-15.213H52.272l.792-7.623ZM82.434-2.541,79.629,0H69.795L67.518-2.541l.528-5.082h5.082l-.264,2.541h4.752l.4-3.8H70.719l-2.277-2.541.924-8.877,2.805-2.541H82L84.282-20.3l-.528,5.082H78.672l.264-2.541H74.184l-.4,3.795h7.293l2.277,2.541ZM99.1,0H83.721l.528-5.082h1.287l1.32-12.672H85.569l.528-5.082h15.378l-.792,7.623H95.6l.264-2.541H91.9l-.4,3.795h4.917L95.9-8.877H90.981l-.4,3.8h3.96l.264-2.541h5.082Zm16.764-2.541L113.058,0h-9.834l-2.277-2.541.528-5.082h5.082l-.264,2.541h4.752l.4-3.8h-7.293l-2.277-2.541.924-8.877,2.805-2.541h9.834l2.277,2.541-.528,5.082H112.1l.264-2.541h-4.752l-.4,3.795h7.293l2.277,2.541Z" transform="translate(186.515 1116.299)" fill="#001024"/><path d="M18.81-5.082,18.282,0H10.659l.528-5.082h1.287l.4-3.8H8.151l-.4,3.8H9.009L8.481,0H.891l.528-5.082H2.673l1.32-12.672H2.739l.528-5.082h7.59l-.528,5.082H9.075l-.4,3.795H13.4l.4-3.795H12.507l.528-5.082h7.623l-.528,5.082H18.843L17.523-5.082ZM38.775-22.8l-.528,5.082H36.96L31.482-8.448l-.33,3.4h1.254L31.878,0h-7.59l.528-5.049H26.07l.33-3.4-.231-.66q-.231-.66-.594-1.634t-.792-2.128l-.809-2.178q-.38-1.023-.66-1.766t-.347-.907H21.714l.528-5.082h7.59L29.3-17.721H28.05l1.386,4.653,2.475-4.653H30.624l.528-5.082ZM54.186-2.541,51.381,0h-13.5l.528-5.049h1.254l1.32-12.7H39.732L40.26-22.8h13.5l2.277,2.541ZM49.368-5.049l1.32-12.7h-4.62l-1.32,12.7Zm22.869,0L71.709,0H64.68l.528-5.049h1.023l.4-3.828h-3.96l-.4,3.828h1.287L63.03,0H55.407l.528-5.049h1.287l1.32-12.7H57.255l.528-5.049H70.62L72.9-20.262l-.792,7.59-1.386,1.254,1.122,1.287-.528,5.082Zm-5.082-8.877.4-3.828h-3.96l-.4,3.828Zm14.553,2.508h2.343L83.424-16.9ZM91.08-5.049,90.552,0h-7.59l.528-5.049h1.254l-.132-1.287H80.091l-.4,1.287h1.254L80.421,0h-7.59l.528-5.049h1.254l4.026-12.7H77.187l.528-5.049H90.387l-.528,5.049H88.44l1.386,12.7Z" transform="translate(410.262 950.474)" fill="#001024"/></g></g></svg>