<svg xmlns="http://www.w3.org/2000/svg" viewBox="0 0 600.74 800.2"><defs><style>.cls-1{fill:#fff;}.cls-2,.cls-3{fill:#8da9c4;}.cls-2{fill-rule:evenodd;}.cls-4{fill:#133c55;}.cls-5{fill:#c2b59b;}.cls-6{font-size:34.78px;}.cls-6,.cls-7{fill:#001024;font-family:SoccerLeague-Italic, Soccer League;font-style:italic;}.cls-7{font-size:25.43px;}</style></defs><g id="Layer_2" data-name="Layer 2"><g id="Layer_1-2" data-name="Layer 1"><rect class="cls-1" width="600.74" height="800.2"/><g id="Layer_5" data-name="Layer 5"><path class="cls-2" d="M564.64,128.2h1.9c1.2,2.3,2.3,1.8,2.3,5.7l-.5.5c-1.5-.3-4.8-.6-5.6-1-.5-.3-1.7-2.3-1.4-2.6C562.54,129.9,563.94,129.8,564.64,128.2Z"/><path class="cls-2" d="M524.74,152.3c1.7.5,3.4,1,5.1,1.6.7,1.3,2,2.7,2.3,4.2-.2,2.4-.3,4.9-.5,7.3.3.7,1,.5,1.4,1.6-1.5.8-3.9,7.5-5.1,9.4a9.19,9.19,0,0,0-3.3-1c-.5,1.2-.3,1.4-1.4,2.1-.7-1.3-.2-.8-1.9-1-.8,1.8-.5,3.1-2.3,4.2-1-.7-4.6,1-5.6.5-3.6-4.2,2.3-23.9,4.6-24.6C519.44,157.2,523.74,153.6,524.74,152.3Z"/><path class="cls-2" d="M564.64,161.7H566v1c.1.5.4.2,0,.5s0,.8-.9.5v-.5C563.94,162.3,564.54,163.2,564.64,161.7Z"/><path class="cls-2" d="M549.84,162.2c1.2.8.5-.1.9,1.6h-.9Z"/><path class="cls-2" d="M83.24,254.7c-1.9-.1-2.2-.6-3.7-1v.5h.9c.9.9,1.7.8,2.3,2.1.8,1.5,1.1,5.7,1.4,7.3l3.7,3.1c3.4.2,3.3-.7,6.5-1,1,1.8,1.9,3.2.5,5.2-1.4,1.4-4.8,2.4-7,2.6-1.7-3.3-4.6-5.3-9.3-5.2-1.1.2-2.2.3-3.3.5-.6-.9-1.2-1.7-1.9-2.6-1.4-.5-6.4,1.7-7.9,2.1-1.4-.2-2.8-.3-4.2-.5-1-1.9-1.6-4.4-2.8-6.3-.6-1-2-1.3-2.8-2.1l-3.3-4.2v-1.6c-.7-1.3-2.9-1.5-3.7-2.6-.5-.7-.7-2.8-.9-3.7-1.7-5.5.1-13.8,4.6-15.2h9.8c1.9.6,6,1,7.9,2.1,1,.6,2.4,2.2,3.7,2.6,2.4.8,4.3.3,6,1,1.5,2.6,5.9,8.3,4.6,13.1C84.24,252.2,83.44,252.8,83.24,254.7Z"/><path class="cls-2" d="M554.14,19.9a2.05,2.05,0,0,1-.6,2.8,7.7,7.7,0,0,0-1.3.9c.1.1.3.2.4.3a3.51,3.51,0,0,0,.5-.8c1.2-.2,1.7-.9,3-.7s4.3,1.8,6,2.7a2.62,2.62,0,0,0,1.5.2c.9-.2,1.1-.3,2.4-.6,2.1-2.6.9,3.2,2.5.3,2,.2-.8-2.4,0,0,.3,1.6-.8,1.9-1.8,3.1a2.19,2.19,0,0,1-1.7.7c-1.6-.1.7.7-1.4,3.9,0,.1-.1.1-.1.2-.3.6-.5,1.1-.8,1.7a2.12,2.12,0,0,1-1.9,1.2H560a2.12,2.12,0,0,0-1.9,1.2c-.8,1.7-1.4,4.6-1.9,6a3,3,0,0,1-.4.8c-.6.6-1.2,1.3-1.8,1.9a2.06,2.06,0,0,1-2,.6,35.7,35.7,0,0,0-5.5-1.1c-1.1-.1-2.1.8-3.1,1H543c-1.5.1-2.9.1-4.4.2a2,2,0,0,1-1.3-.4h0a2.06,2.06,0,0,0-2-.2c-1,.4-2,1.2-3,1.3-.8,0-2.7-1.1-3.5-1.3-5.3-1.8-11-7.8-9.8-12.2l.3-.6,5.3-7.5a.78.78,0,0,1,.4-.4c1.6-1.3,4.1-4.2,6-5.1,1.1-.5,3.1-.7,4.3-1.5,1.7-1.3,2.4-2.8,3.6-3.8a2.1,2.1,0,0,1,1.5-.5c3.3.2,9.7.2,12.6,3.7A12.81,12.81,0,0,1,554.14,19.9Z"/><path class="cls-2" d="M296.44,236.3c1.7.9,3.4,1.7,5.1,2.6,4.5,1.4,7.3-2.4,11.6-.5,2.2,1,6.7,4.7,9.8,4.2,4.5-.7,15.3-7.2,19.1-4.7a5.47,5.47,0,0,1,4.2,4.2c-4.6,6.4,1.9,15.9,2.3,23-1.5,1.2-2.6,3.7-2.8,6.3l.5.5c-.5.7-2.9,2.5-3.3,3.1-2.6,5,1.6,17.2,2.3,21.4h-.5c-.7-1-.4-.7-1.9-1-.5,1.5-.4,2-1.9,2.6-1.3.9-1.6-.3-3.3,0-2.2.4-4,1.7-6,2.6-5.7-3-13.2-7.1-17.7-11.5-2-2-4-5.6-7-6.3-1.2,2.2-5.1.2-7,.5-1-5.4-3.9-2.7-7.9-4.7-4.6-2.3-14.5-9.3-14.9-15.7,5.1-3.8,1.4-5.2,2.3-9.4.3-1.5,1.3-2.1,1.4-4.7.3.2.6.3.9.5.3-.2,5-7.5,5.1-7.8.7-.6-.4-1.2-.9-2.1.5-.5.9-1,1.4-1.6C290.34,238.5,294.54,238.1,296.44,236.3Z"/><path class="cls-2" d="M74.84,251c.3.3.6.7.9,1A9,9,0,0,1,74.84,251Z"/><path class="cls-2" d="M77.64,252.6c.6.8.3.6,1.4,1A7.1,7.1,0,0,0,77.64,252.6Z"/><path class="cls-2" d="M425.24,401.5h1.4v1.6c1.7.5,2,.5,2.3,2.6-2.9,3-.2,1-1.4,4.2-.6.7-1.2,1.4-1.9,2.1-.5,1.9.8,3,0,5.2-.6,1.7-2,3-2.8,4.7-4.2.2-2.3-2.2-5.1-3.1-2.6-.8-6.5,3.8-6.5-4.7.5-3.5-1.7-9.8-6-9.9.3-4.5-.5-9.7-4.6-10.5-1.3.6-3-1.1-4.6-1.6-3.1-.9-5.8.3-8.4-1a62.85,62.85,0,0,1-5.6-4.2c-.5-.8.4-2.7-.5-4.2-1.7-1.7-3.4-3.5-5.1-5.2-.2-.7-.3-1.4-.5-2.1-1.5-2.1-3.6-2.3-4.2-5.7.8-1.6,1-5.8.9-7.8-1.4,0-1.3.4-1.9,0-.4-.5-.2-.1-.5-1,.9-.1,1.9-1.1,2.8-2.6a7.71,7.71,0,0,1-2.3-2.1c4.9-3.4,5.5-20.5,6-28.7,2.9-1.5,4.9-6.6,7-8.4,1-.9,11.4-5,13-5.2,1.2,1.5,3.1,3.7,5.6,3.7.9-.2,1.9-.3,2.8-.5,3.1.7,8.8,1.9,12.1,0,.6-.7,1.2-1.4,1.9-2.1h3.3c1.6-.7,1.5-1.8,4.2-2.1a16,16,0,0,1,1.9,3.7c-4.2,4.9.7,11.7,1.9,17.2,1,4.7-1.6,7.5-2.3,10.5-.8,3.3.8,8.1.9,12a71.79,71.79,0,0,1,6,6.3c2.2-.3,4.3-.7,6.5-1,.9,1.3,2.1,1.5,2.8,3.1.7,1.3.1,3.4,0,5.7-2.8.8-7.9,3.5-11.6,2.6-1.3-.3-2.7-2.3-4.2-2.1-1.1.2-3.1,1.7-4.6,2.1-.8,2.9-2.1,4-2.3,7.8a5.18,5.18,0,0,1,1.4,2.1c.3-.2.6-.3.9-.5v.5c2.4,3.8-1.6,9.1-.9,12.5.5.3.9.7,1.4,1C424.64,398,424.94,399.8,425.24,401.5Z"/><path class="cls-2" d="M435,455.8a13.15,13.15,0,0,0,1.4,4.7c.8.8,1.7.4,2.8,1,.5.7.9,1.4,1.4,2.1,2,.6,4.5-3.5,6-4.2v.5c2.6,2,1.2,4.1,2.8,7.3.8,1.6,2.3,1.1,3.7,2.1.1,0,6.4,8.1,6.5,8.4.7,1.4,3.6,12,3.3,13.6-.1.4-1.6,2.7-1.4,3.7.7,4.7,6.3,6.8,7,11.5-2.9.1-3.2.9-6,1,0,1.6.3,2.1,0,2.6-1.9,1.3-2.8-.7-5.6.5-3.5,1.6-1,4.2-7.4,4.2-.9-.4-1.9.5-3.7,0-4.3-1.3-7.3-3.3-9.3-7.3,1-.2.9-.1,1.4-.5-2.6-1.9-4.6-5.5-7.9-6.3v-1.6c-1.1-1-2.2-2.1-3.3-3.1-4.4-1.8-7.6,1.5-9.3-3.7-1-1.8-.2-3.7-.9-6.3-1.2-4.1-4.2-7.6-6-11-.9-1.6,0-3.2-1.4-4.2-.5.4-.4.3-1.4.5v-.5a6.08,6.08,0,0,0,.9-1.6h-2.3v.5l-.5-.5c-.4-.5-.2-.1-.5-1h.9c.9-.8,2.2-.9,3.7-1-.4-2.3-.4-1.1-.5-3.1-1.7-.4-1.3,0-1.9-1.6.7-1.6-.2-4,1.9-4.7.5.4.1.2.9.5.9-2.2,1.9-1.7,3.3-3.1a55.7,55.7,0,0,0,3.7-6.8c-1-.6-.9-.4-1.4-1.6h.9c.8,1,3.8,2.9,4.2,2.6,1.4-.4,1.3-.2,1.9-1.6.4-.6.4-.9.5-2.1-2.6-1.1-3-2-2.8-6.3.7-1.2.4-2.3.5-3.7,2.2-2,2.4-4.1,6-4.7,2,2.8,6.2,5.5,7,9.4a5.68,5.68,0,0,0-.5,2.6c-2.6,1.7-7.4,3.6-7.4,8.4,1.7,1.5.9,1,.5,3.7.9.7.8,1,1.9,1.6C429.84,457.7,432.34,455.6,435,455.8Z"/><path class="cls-2" d="M518.24,717.9V720h-2.3c.2-1.1.1-1,.5-1.6C516.94,718,517.14,718,518.24,717.9Z"/><path class="cls-2" d="M510.34,718.4a7.42,7.42,0,0,1-.5,2.6,17.42,17.42,0,0,1-1.9-2.6Z"/><path class="cls-2" d="M513.14,718.4c1.5.4.7-.3,1.4,1H514A9,9,0,0,1,513.14,718.4Z"/><path class="cls-3" d="M598.64,717.9c-4.5,2.1-8.5,3.9-12.5,5.7-1.7.3-3.4.7-5.1,1-.2.5-.3,1-.5,1.6-1.1.5-1.5-.9-2.8,0-.6.9-1.2,1.7-1.9,2.6a153.48,153.48,0,0,1-13.9,10.5v2.1h-1.4c.2-.5.3-1,.5-1.6l-9.3,5.7c-7.1,3.4-17,3.4-23.7,0-2.6-1.3-2.9-5.5-5.1-6.8s-6.6-.1-8.8-1.6c-4.7-3-4.8-10.1-4.6-16.2-1,.2-.9.1-1.4.5-.4.9.5.7,0,1.6v1.6h-.9c-.2-2.9-.2-2.6.5-4.7-.6-.7-1.2-1.4-1.9-2.1a6.4,6.4,0,0,0-1.9.5c-.9-2.8-.5-7.4-1.9-9.9v-1c-3.5-.1-6.8-.6-10.2.5-1.1.3-3.1,1.9-4.2,2.1-2,.3-2.7-2.5-4.6-2.1-4.8.9-11.3,5.2-18.6,3.1-2.9-.8-6.5-2.4-9.3-3.1-2.4-.6-5.4,1.1-7,1.6-4.9,1.5-14.5-2.7-16.7-4.7-1.2-1.1-1.7-3.9-2.8-5.2-1.2-1.5-3.6-1.9-4.6-3.7-1.4-2.3-2.1-4.7-3.7-6.8-1.7-2.3-4.7-2.9-6-5.7-1-2.2-.7-5.3-1.9-7.3a45.83,45.83,0,0,0-4.6-4.2v-.5c-1.1-.2-2.2-.3-3.3-.5-.5-.7-.9-1.4-1.4-2.1-1.3-.7-2.7.1-3.7-.5-3.5-2.2-4.5-7.8-7.9-9.9-2.8-1.7-4.6-.6-7-3.1-3.2,1.8-4.1,7.3-7,9.4-1.5,1.1-3.4,0-5.1,1s-5.9,10.2-7.4,12.5c-1.7,2.6-12.2,6.9-15.3,8.4-5.9,2.7-12.5-2.9-18.1-1-4.1,1.4-7,4.3-11.2,6.3-3.8,1.8-8.9,2.8-12.5,3.7-.8-.2-1.5-.3-2.3-.5-6.2,1.7-11.9,5.1-17.2,7.3-2.5,1-5.6-.7-7.9,0-2.8.8-5.6,4.1-8.4,5.2-1.1.4-2.1.1-2.8.5-3.8-.4-4.6-3.3-7.9-4.2-2.5-.7-4.6,1.9-7,.5h-.9c-.2-.9-.3-1.7-.5-2.6-1.7.2-2.6.8-3.7,0-5.8-.1-3-1-5.6-3.7-.8-.9-5.7-3.5-7-4.2a12.27,12.27,0,0,1-.9-4.7c-5.7,1-13.1,14.8-16.3,19.9-2,2.3-4,4.5-6,6.8-4.5,7-8.9,13.4-13.5,20.4-1.2,1.2-2.5,2.4-3.7,3.7-.9,1.3-1,2.8-1.9,4.2-2,2.3-4,4.5-6,6.8-1.9,3-3.4,6.7-6,8.9-13.8,21.7-42.7,40.1-42.7,40.3h461v-84A7.85,7.85,0,0,1,598.64,717.9Z"/></g><path class="cls-4" d="M430.54,373.5a10,10,0,1,1-10-10,10,10,0,0,1,10,10"/><path class="cls-5" d="M425.54,373.5a5,5,0,1,1-5-5,5,5,0,0,1,5,5"/><path class="cls-4" d="M96.34,252.6a10,10,0,1,1-10-10,10,10,0,0,1,10,10"/><path class="cls-5" d="M91.34,252.6a5,5,0,1,1-5-5,5,5,0,0,1,5,5"/><path class="cls-4" d="M565,742.7a15,15,0,1,1-15-15,15,15,0,0,1,15,15"/><path class="cls-5" d="M557.74,742.7A7.7,7.7,0,1,1,550,735a7.64,7.64,0,0,1,7.7,7.7"/><path class="cls-4" d="M440.54,454.9a10,10,0,1,1-10-10,10,10,0,0,1,10,10"/><path class="cls-5" d="M435.54,454.9a5,5,0,1,1-5-5,5,5,0,0,1,5,5"/><path class="cls-4" d="M355.34,269a10,10,0,1,1-10-10,10,10,0,0,1,10,10"/><path class="cls-5" d="M350.34,269a5,5,0,1,1-5-5,5,5,0,0,1,5,5"/><path class="cls-4" d="M547.64,170.5a10,10,0,1,1-10-10,10,10,0,0,1,10,10"/><path class="cls-5" d="M542.64,170.5a5,5,0,1,1-5-5,5,5,0,0,1,5,5"/><text class="cls-6" transform="translate(369.43 773.91)">PORTOROSA</text><text class="cls-7" transform="translate(441.52 455.56)">VULCANO</text><text class="cls-7" transform="translate(431.59 394.87)">LIPARI</text><text class="cls-7" transform="translate(359.75 276.98)">SALINA</text><text class="cls-7" transform="translate(102.41 251.85)">ISOLA <tspan x="0" y="24">FILICUDI</tspan></text><text class="cls-7" transform="translate(465.41 204.25)">PANAREA</text></g></g></svg>