<svg xmlns="http://www.w3.org/2000/svg" xmlns:xlink="http://www.w3.org/1999/xlink" width="759" height="1207" viewBox="0 0 759 1207"><defs><clipPath id="a"><rect width="759" height="1207" opacity="0.736" fill="#fff" stroke="#707070" stroke-width="1" transform="translate(12614 10130)"/></clipPath></defs><g transform="translate(-12614 -10130)" clip-path="url(#a)"><g transform="translate(12510.744 10132)"><rect width="906.146" height="1207" transform="translate(-0.744 -2)" fill="#fff"/><g transform="translate(70.32 19.419)"><path d="M565.6,126.2h2.866c1.81,3.469,3.469,2.715,3.469,8.6l-.754.754c-2.263-.452-7.24-.9-8.447-1.508-.754-.452-2.564-3.469-2.112-3.922C562.434,128.764,564.546,128.613,565.6,126.2Z" transform="translate(215.028 45.754)" fill="#8da9c4" fill-rule="evenodd"/><path d="M530.322,150.3c2.564.754,5.129,1.508,7.693,2.413,1.056,1.961,3.017,4.073,3.469,6.335-.3,3.62-.453,7.391-.754,11.011.453,1.056,1.508.754,2.112,2.413-2.263,1.207-5.883,11.313-7.693,14.179-2.112-.754-2.112-1.207-4.978-1.508-.754,1.81-.453,2.112-2.112,3.168-1.056-1.961-.3-1.207-2.866-1.508-1.207,2.715-.754,4.676-3.469,6.335-1.508-1.056-6.938,1.508-8.447.754-5.43-6.335,3.469-36.05,6.938-37.106C522.328,157.691,528.814,152.261,530.322,150.3Z" transform="translate(190.124 58.006)" fill="#8da9c4" fill-rule="evenodd"/><path d="M564.021,159.7h2.112v1.508c.151.754.6.3,0,.754-.453.453,0,1.207-1.358.754v-.754C562.965,160.605,563.87,161.963,564.021,159.7Z" transform="translate(216.609 62.785)" fill="#8da9c4" fill-rule="evenodd"/><path d="M549.1,160.2c1.81,1.207.754-.151,1.358,2.413H549.1Z" transform="translate(209.206 63.039)" fill="#8da9c4" fill-rule="evenodd"/><path d="M100.868,264.189c-2.866-.151-3.318-.9-5.581-1.508v.754h1.358c1.358,1.358,2.564,1.207,3.469,3.168,1.207,2.263,1.659,8.6,2.112,11.011,1.81,1.508,3.771,3.168,5.581,4.676,5.128.3,4.978-1.056,9.8-1.508,1.508,2.715,2.866,4.827.754,7.844-2.112,2.112-7.24,3.62-10.559,3.922-2.564-4.978-6.939-7.994-14.028-7.844-1.659.3-3.318.453-4.978.754-.905-1.358-1.81-2.564-2.866-3.922-2.112-.754-9.654,2.564-11.916,3.168-2.112-.3-4.223-.452-6.335-.754-1.508-2.866-2.413-6.637-4.223-9.5-.905-1.508-3.017-1.961-4.223-3.168l-4.978-6.335V262.53c-1.056-1.961-4.374-2.263-5.581-3.922-.754-1.056-1.056-4.223-1.358-5.581-2.564-8.3.151-20.816,6.939-22.927H69.041c2.866.9,9.05,1.508,11.916,3.168,1.508.905,3.62,3.318,5.581,3.922,3.62,1.207,6.486.453,9.05,1.508,2.263,3.922,8.9,12.52,6.939,19.76C102.377,260.418,101.17,261.323,100.868,264.189Z" transform="translate(-46.369 98.574)" fill="#8da9c4" fill-rule="evenodd"/><path d="M571.326,20.8a3.1,3.1,0,0,1-.905,4.223,11.627,11.627,0,0,0-1.961,1.358c.151.151.453.3.6.453a5.3,5.3,0,0,0,.754-1.207c1.81-.3,2.564-1.358,4.525-1.056,2.112.3,6.486,2.715,9.05,4.073a3.955,3.955,0,0,0,2.263.3c1.357-.3,1.659-.453,3.62-.905,3.168-3.922,1.358,4.827,3.771.453,3.017.3-1.207-3.62,0,0,.453,2.413-1.207,2.866-2.715,4.676a3.308,3.308,0,0,1-2.564,1.056c-2.413-.151,1.056,1.056-2.112,5.883,0,.151-.151.151-.151.3-.453.905-.754,1.659-1.207,2.564a3.2,3.2,0,0,1-2.866,1.81h-1.207a3.2,3.2,0,0,0-2.866,1.81c-1.207,2.564-2.112,6.939-2.866,9.05a4.519,4.519,0,0,1-.6,1.207c-.905.905-1.81,1.961-2.715,2.866a3.109,3.109,0,0,1-3.017.905,53.853,53.853,0,0,0-8.3-1.659c-1.659-.151-3.168,1.207-4.676,1.508h-.6c-2.263.151-4.374.151-6.637.3a3.032,3.032,0,0,1-1.961-.6h0a3.112,3.112,0,0,0-3.017-.3c-1.508.6-3.017,1.81-4.525,1.961-1.207,0-4.073-1.659-5.279-1.961-7.994-2.715-16.592-11.765-14.782-18.4l.452-.905,7.995-11.313a1.177,1.177,0,0,1,.6-.6c2.413-1.961,6.184-6.335,9.05-7.693,1.659-.754,4.676-1.056,6.486-2.263,2.564-1.961,3.62-4.223,5.43-5.732a3.173,3.173,0,0,1,2.263-.754c4.978.3,14.631.3,19.005,5.581A19.329,19.329,0,0,1,571.326,20.8Z" transform="translate(193.466 -12.2)" fill="#8da9c4" fill-rule="evenodd"/><path d="M305.512,234.3c2.564,1.358,5.128,2.564,7.693,3.922,6.788,2.112,11.011-3.62,17.5-.754,3.318,1.508,10.106,7.089,14.782,6.335,6.788-1.056,23.078-10.86,28.81-7.089a8.257,8.257,0,0,1,6.335,6.335c-6.939,9.654,2.866,23.983,3.469,34.693-2.263,1.81-3.922,5.581-4.223,9.5l.754.754c-.754,1.056-4.374,3.771-4.978,4.676-3.922,7.542,2.413,25.944,3.469,32.279h-.754c-1.056-1.508-.6-1.056-2.866-1.508-.754,2.263-.6,3.017-2.866,3.922-1.961,1.358-2.413-.452-4.978,0-3.318.6-6.034,2.564-9.05,3.922-8.6-4.525-19.91-10.709-26.7-17.346-3.017-3.017-6.034-8.447-10.559-9.5-1.81,3.318-7.693.3-10.559.754-1.508-8.145-5.883-4.073-11.916-7.089-6.938-3.469-21.871-14.028-22.475-23.681,7.693-5.732,2.112-7.844,3.469-14.179.453-2.263,1.961-3.168,2.112-7.089.453.3.905.453,1.358.754.453-.3,7.542-11.313,7.693-11.765,1.056-.905-.6-1.81-1.357-3.168.754-.754,1.357-1.508,2.112-2.413C296.311,237.618,302.646,237.015,305.512,234.3Z" transform="translate(70.573 100.71)" fill="#8da9c4" fill-rule="evenodd"/><path d="M74.1,249c.453.453.905,1.056,1.358,1.508A13.6,13.6,0,0,1,74.1,249Z" transform="translate(-32.271 108.183)" fill="#8da9c4" fill-rule="evenodd"/><path d="M76.9,250.6c.905,1.207.453.9,2.112,1.508A10.705,10.705,0,0,0,76.9,250.6Z" transform="translate(-30.847 108.996)" fill="#8da9c4" fill-rule="evenodd"/><path d="M452.46,444.542h2.112v2.413c2.564.754,3.017.754,3.469,3.922-4.374,4.525-.3,1.508-2.112,6.335-.9,1.056-1.81,2.112-2.866,3.168-.754,2.866,1.207,4.525,0,7.844-.905,2.564-3.017,4.525-4.223,7.089-6.335.3-3.469-3.318-7.693-4.676-3.922-1.207-9.8,5.732-9.8-7.089.754-5.279-2.564-14.782-9.05-14.933.452-6.788-.754-14.631-6.939-15.838-1.961.905-4.525-1.659-6.939-2.413-4.676-1.358-8.749.453-12.67-1.508-.754-.453-8.145-5.732-8.447-6.335-.754-1.207.6-4.073-.754-6.335-2.564-2.564-5.128-5.279-7.693-7.844-.3-1.056-.453-2.112-.754-3.168-2.263-3.168-5.43-3.469-6.335-8.6,1.207-2.413,1.508-8.749,1.358-11.765-2.112,0-1.961.6-2.866,0-.6-.754-.3-.151-.754-1.508,1.358-.151,2.866-1.659,4.223-3.922a11.626,11.626,0,0,1-3.469-3.168c7.391-5.128,8.3-30.922,9.05-43.29,4.374-2.263,7.391-9.955,10.559-12.67,1.508-1.358,17.2-7.542,19.609-7.844,1.81,2.263,4.676,5.581,8.447,5.581,1.357-.3,2.866-.453,4.223-.754,4.676,1.056,13.274,2.866,18.251,0,.905-1.056,1.81-2.112,2.866-3.168h4.978c2.413-1.056,2.263-2.715,6.335-3.168,1.056,1.961,2.112,3.017,2.866,5.581-6.335,7.391,1.056,17.648,2.866,25.944,1.508,7.089-2.413,11.313-3.469,15.838-1.207,4.978,1.207,12.218,1.358,18.1a108.3,108.3,0,0,1,9.05,9.5c3.318-.453,6.486-1.056,9.8-1.508,1.358,1.961,3.168,2.263,4.223,4.676,1.056,1.961.151,5.128,0,8.6-4.223,1.207-11.916,5.279-17.5,3.922-1.961-.452-4.073-3.469-6.335-3.168-1.659.3-4.676,2.564-6.938,3.168-1.207,4.374-3.168,6.034-3.469,11.765a7.811,7.811,0,0,1,2.112,3.168c.453-.3.905-.453,1.358-.754v.754c3.62,5.732-2.413,13.726-1.358,18.855.754.453,1.358,1.056,2.112,1.508C451.555,439.263,452.008,441.978,452.46,444.542Z" transform="translate(117.902 139.651)" fill="#8da9c4" fill-rule="evenodd"/><path d="M449.4,466.408a19.838,19.838,0,0,0,2.112,7.089c1.207,1.207,2.564.6,4.223,1.508.754,1.056,1.357,2.112,2.112,3.168,3.017.905,6.788-5.279,9.05-6.335v.754c3.922,3.017,1.81,6.184,4.223,11.011,1.207,2.413,3.469,1.659,5.581,3.168.151,0,9.654,12.218,9.8,12.67,1.056,2.112,5.43,18.1,4.978,20.514-.151.6-2.413,4.073-2.112,5.581,1.056,7.089,9.5,10.257,10.559,17.346-4.374.151-4.827,1.358-9.05,1.508,0,2.413.453,3.168,0,3.922-2.866,1.961-4.223-1.056-8.447.754-5.279,2.413-1.508,6.335-11.162,6.335-1.358-.6-2.866.754-5.581,0-6.486-1.961-11.011-4.978-14.028-11.011,1.508-.3,1.358-.151,2.112-.754-3.922-2.866-6.939-8.3-11.916-9.5V531.72c-1.659-1.508-3.318-3.168-4.978-4.676-6.637-2.715-11.464,2.263-14.028-5.581-1.508-2.715-.3-5.581-1.358-9.5-1.81-6.184-6.335-11.464-9.05-16.592-1.358-2.413,0-4.827-2.112-6.335-.754.6-.6.453-2.112.754v-.754a9.177,9.177,0,0,0,1.357-2.413h-3.469v.754l-.754-.754c-.6-.754-.3-.151-.754-1.508h1.358c1.357-1.207,3.318-1.358,5.581-1.508-.6-3.469-.6-1.659-.754-4.676-2.564-.6-1.961,0-2.866-2.413,1.056-2.413-.3-6.033,2.866-7.089.754.6.151.3,1.358.754,1.358-3.318,2.866-2.564,4.978-4.676a84.013,84.013,0,0,0,5.581-10.257c-1.508-.905-1.358-.6-2.112-2.413h1.358c1.207,1.508,5.732,4.374,6.335,3.922,2.112-.6,1.961-.3,2.866-2.413.6-.9.6-1.357.754-3.168-3.922-1.659-4.525-3.017-4.224-9.5,1.056-1.81.6-3.469.754-5.581,3.318-3.017,3.62-6.184,9.05-7.089,3.017,4.223,9.352,8.3,10.559,14.179-.6,1.056-.6,1.961-.754,3.922-3.922,2.564-11.162,5.43-11.162,12.67,2.564,2.263,1.358,1.508.754,5.581,1.358,1.056,1.207,1.508,2.866,2.413C441.555,469.274,445.326,466.106,449.4,466.408Z" transform="translate(135.746 199.69)" fill="#8da9c4" fill-rule="evenodd"/><path d="M518.669,715.9v3.167H515.2c.3-1.659.151-1.508.754-2.413C516.708,716.051,517.01,716.051,518.669,715.9Z" transform="translate(191.972 345.542)" fill="#8da9c4" fill-rule="evenodd"/><path d="M510.82,716.4a11.2,11.2,0,0,1-.754,3.922A26.277,26.277,0,0,1,507.2,716.4Z" transform="translate(187.905 345.796)" fill="#8da9c4" fill-rule="evenodd"/><path d="M512.4,716.4c2.263.6,1.056-.453,2.112,1.508h-.754A13.606,13.606,0,0,1,512.4,716.4Z" transform="translate(190.549 345.796)" fill="#8da9c4" fill-rule="evenodd"/><g transform="translate(139.722 967.018)"><path d="M831.192,747.724c-6.788,3.167-12.821,5.883-18.855,8.6-2.564.453-5.129,1.056-7.693,1.508-.3.754-.453,1.508-.754,2.413-1.659.754-2.263-1.358-4.224,0-.9,1.358-1.81,2.564-2.866,3.922A231.5,231.5,0,0,1,775.835,780v3.168h-2.112c.3-.754.453-1.508.754-2.413l-14.028,8.6c-10.709,5.129-25.642,5.129-35.748,0-3.922-1.961-4.374-8.3-7.693-10.257s-9.955-.151-13.274-2.413c-7.089-4.525-7.24-15.234-6.939-24.436-1.508.3-1.358.151-2.112.754-.6,1.357.754,1.056,0,2.413v2.413h-1.358c-.3-4.374-.3-3.922.754-7.089-.905-1.056-1.81-2.112-2.866-3.168a9.652,9.652,0,0,0-2.866.754c-1.358-4.224-.754-11.162-2.866-14.933v-1.508c-5.279-.151-10.257-.905-15.385.754-1.659.453-4.676,2.866-6.335,3.167-3.017.453-4.073-3.771-6.939-3.167-7.24,1.357-17.045,7.843-28.056,4.676-4.374-1.207-9.8-3.62-14.028-4.676-3.62-.905-8.145,1.659-10.559,2.413-7.391,2.263-21.871-4.073-25.19-7.089-1.81-1.659-2.564-5.883-4.224-7.844-1.81-2.262-5.43-2.866-6.938-5.581-2.112-3.469-3.168-7.089-5.581-10.257-2.564-3.469-7.089-4.374-9.05-8.6-1.508-3.318-1.056-7.994-2.866-11.011-1.659-2.112-4.978-4.525-6.939-6.335v-.754c-1.659-.3-3.318-.453-4.978-.754-.754-1.056-1.358-2.112-2.112-3.168-1.961-1.056-4.073.151-5.581-.754-5.279-3.318-6.788-11.765-11.916-14.933-4.224-2.564-6.939-.905-10.559-4.676-4.827,2.715-6.184,11.011-10.559,14.179-2.263,1.659-5.128,0-7.693,1.508-2.715,1.659-8.9,15.385-11.162,18.855-2.564,3.922-18.4,10.408-23.078,12.67-8.9,4.073-18.855-4.374-27.3-1.508-6.184,2.112-10.559,6.486-16.894,9.5-5.732,2.715-13.425,4.224-18.855,5.581-1.207-.3-2.263-.453-3.469-.754-9.352,2.564-17.95,7.693-25.944,11.011-3.771,1.508-8.447-1.056-11.916,0-4.223,1.207-8.447,6.184-12.67,7.844-1.659.6-3.168.151-4.223.754-5.732-.6-6.939-4.978-11.916-6.335-3.771-1.056-6.939,2.866-10.559.754h-1.358c-.3-1.358-.453-2.564-.754-3.922-2.564.3-3.922,1.207-5.581,0-8.749-.151-4.525-1.508-8.447-5.581-1.207-1.358-8.6-5.279-10.559-6.335a18.508,18.508,0,0,1-1.358-7.089c-8.6,1.508-19.76,22.324-24.586,30.017-3.017,3.469-6.034,6.788-9.05,10.257-6.788,10.559-13.425,20.212-20.363,30.771-1.81,1.81-3.771,3.62-5.581,5.581-1.358,1.961-1.508,4.223-2.866,6.335-3.017,3.469-6.033,6.788-9.05,10.257-2.866,4.525-5.128,10.106-9.05,13.425C182.592,843.807,139,871.561,139,871.863H834.36V745.16A11.841,11.841,0,0,1,831.192,747.724Z" transform="translate(-139 -653.3)" fill="#8da9c4"/></g></g><g transform="translate(618.509 546.294)"><path d="M439.967,376.584A15.084,15.084,0,1,1,424.884,361.5a15.128,15.128,0,0,1,15.084,15.084" transform="translate(-409.8 -361.5)" fill="#133c55"/><path d="M429.884,374.042a7.542,7.542,0,1,1-7.542-7.542,7.564,7.564,0,0,1,7.542,7.542" transform="translate(-407.258 -358.958)" fill="#c2b59b"/></g><g transform="translate(114.411 363.931)"><path d="M105.767,255.684A15.084,15.084,0,1,1,90.684,240.6a15.128,15.128,0,0,1,15.084,15.084" transform="translate(-75.6 -240.6)" fill="#133c55"/><path d="M95.684,253.142a7.542,7.542,0,1,1-7.542-7.542,7.564,7.564,0,0,1,7.542,7.542" transform="translate(-73.058 -238.058)" fill="#c2b59b"/></g><g transform="translate(806.302 1095.643)"><path d="M579.551,748.326A22.626,22.626,0,1,1,556.926,725.7a22.6,22.6,0,0,1,22.626,22.626" transform="translate(-534.3 -725.7)" fill="#133c55"/><path d="M564.829,744.615A11.615,11.615,0,1,1,553.214,733a11.524,11.524,0,0,1,11.615,11.615" transform="translate(-530.589 -721.989)" fill="#c2b59b"/></g><g transform="translate(633.593 669.075)"><path d="M449.967,457.984A15.084,15.084,0,1,1,434.884,442.9a15.128,15.128,0,0,1,15.084,15.084" transform="translate(-419.8 -442.9)" fill="#133c55"/><path d="M439.884,455.442a7.542,7.542,0,1,1-7.542-7.542,7.469,7.469,0,0,1,7.542,7.542" transform="translate(-417.258 -440.358)" fill="#c2b59b"/></g><g transform="translate(505.08 388.669)"><path d="M364.767,272.084A15.084,15.084,0,1,1,349.684,257a15.128,15.128,0,0,1,15.084,15.084" transform="translate(-334.6 -257)" fill="#133c55"/><path d="M354.684,269.542A7.542,7.542,0,1,1,347.142,262a7.564,7.564,0,0,1,7.542,7.542" transform="translate(-332.058 -254.458)" fill="#c2b59b"/></g><g transform="translate(795.14 240.094)"><path d="M557.067,173.584A15.084,15.084,0,1,1,541.984,158.5a15.128,15.128,0,0,1,15.084,15.084" transform="translate(-526.9 -158.5)" fill="#133c55"/><path d="M546.984,171.042a7.542,7.542,0,1,1-7.542-7.542,7.564,7.564,0,0,1,7.542,7.542" transform="translate(-524.358 -155.958)" fill="#c2b59b"/></g><path d="M28.5-31.98,27.04-17.992l-4.42,4H12.584l-.624,5.98h1.976L13.1,0H1.144l.832-8.008H3.952l2.08-19.968H4.056l.832-7.956h20.02ZM19.448-22l.624-5.98H14.04L13.416-22ZM51.48-4,47.06,0h-15.5L28.028-4,30.94-31.928l4.368-4H50.8l3.588,4ZM43.888-7.956l2.08-20.02H38.48L36.4-7.956Zm35.984,0L79.04,0H67.964L68.8-7.956h1.612l.624-6.032h-6.24l-.624,6.032H66.2L65.364,0H53.352l.832-7.956h2.028l2.08-20.02H56.264l.832-7.956H77.324l3.588,4-1.248,11.96L77.48-17.992l1.768,2.028-.832,8.008ZM71.864-21.944l.624-6.032h-6.24l-.624,6.032Zm36.816-14.04-1.248,12.012h-5.98l.416-4H99.84L97.76-8.008h2.028L98.956,0H86.944l.832-8.008H89.8l2.08-19.968H89.856l-.416,4H83.408l1.248-12.012ZM130.988-4l-4.42,4h-15.5l-3.536-4,2.912-27.924,4.368-4h15.5l3.588,4ZM123.4-7.956l2.08-20.02h-7.488l-2.08,20.02Zm35.984,0L158.548,0H147.472l.832-7.956h1.612l.624-6.032H144.3l-.624,6.032H145.7L144.872,0H132.86l.832-7.956h2.028l2.08-20.02h-2.028l.832-7.956h20.228l3.588,4-1.248,11.96-2.184,1.976,1.768,2.028-.832,8.008Zm-8.008-13.988L152-27.976h-6.24l-.624,6.032ZM184.7-4l-4.42,4h-15.5l-3.536-4,2.912-27.924,4.368-4h15.5l3.588,4Zm-7.592-3.952,2.08-20.02H171.7l-2.08,20.02ZM210.548-4l-4.42,4h-15.5l-3.588-4,.832-8.008h8.008l-.416,4h7.488l.624-5.98H192.088l-3.588-4,1.456-13.988,4.42-4h15.5l3.588,4-.832,8.008H204.62l.416-4h-7.488L196.924-22h11.492l3.588,4Zm15.5-13.988h3.692l-.988-8.632ZM240.812-7.956,239.98,0H228.02l.832-7.956h1.976l-.208-2.028H223.5l-.624,2.028h1.976L224.016,0h-11.96l.832-7.956h1.976l6.344-20.02H218.92l.832-7.956H239.72l-.832,7.956h-2.236l2.184,20.02Z" transform="translate(556.5 1165.124)" fill="#001024"/><path d="M11.359-6.623l4.218-13.283H14.171l.592-5.661h8.51l-.592,5.661H21.275L14.948,0H6.4L4.218-19.906H2.812L3.4-25.567h8.51l-.592,5.661H9.916ZM44.067-25.6l-.592,5.7H42.069L40.293-2.849,37.148,0H26.566L24.013-2.849l1.776-17.057H24.383l.592-5.7h8.51l-.592,5.7H31.487L30.007-5.7h4.884l1.48-14.208H34.965l.592-5.7ZM60.236-8.51,59.348,0H43.216l.592-5.661h1.406l1.48-14.245H45.288l.592-5.661h8.51L53.8-19.906H52.392L50.912-5.661h3.33l.3-2.849ZM78.773-2.849,75.628,0H63.936L61.383-2.849l2.072-19.869L66.6-25.567H78.292l2.553,2.849-.592,5.661h-5.7l.3-2.849H68.857L67.377-5.661h5.994l.3-2.849h5.7ZM89.8-12.8h2.627l-.7-6.142Zm10.508,7.141L99.715,0h-8.51L91.8-5.661H93.2L93.055-7.1H87.986l-.444,1.443h1.406L88.356,0h-8.51l.592-5.661h1.406l4.514-14.245H84.73l.592-5.661H99.53l-.592,5.661H97.347L98.9-5.661ZM123.173-25.6l-.592,5.7h-1.443L119.066,0h-5.772l-3.7-12.21L108.928-5.7h1.443L109.779,0h-8.547l.592-5.7h1.443l1.48-14.208H103.3l.592-5.7h6.993l3.848,12.58.74-6.882h-1.443l.592-5.7Zm15.8,22.755L135.827,0H124.8l-2.516-2.849,2.072-19.869,3.108-2.849h11.026l2.553,2.849Zm-5.4-2.812,1.48-14.245h-5.328l-1.48,14.245Z" transform="translate(665.23 684.495)" fill="#001024"/><path d="M20.35-25.6l-.888,8.547H15.207l.3-2.849H14.06L12.58-5.7h1.443L13.431,0H4.884l.592-5.7H6.919L8.4-19.906H6.956l-.3,2.849H2.368L3.256-25.6Zm19.869.037-.592,5.7H38.184l-6.142,10.4-.37,3.811h1.406L32.486,0h-8.51l.592-5.661h1.406l.37-3.811-.259-.74q-.259-.74-.666-1.832t-.888-2.386l-.906-2.442q-.425-1.147-.74-1.98T22.5-19.869H21.09l.592-5.7h8.51l-.592,5.7H28.194l1.554,5.217,2.775-5.217H31.08l.592-5.7ZM57.942-5.661,57.35,0H49.469l.592-5.661h1.147l.444-4.292h-4.44l-.444,4.292h1.443L47.619,0H39.072l.592-5.661h1.443l1.48-14.245H41.144l.592-5.661H56.129l2.553,2.849-.888,8.51L56.24-12.8,57.5-11.359l-.592,5.7Zm-5.7-9.953.444-4.292h-4.44L47.8-15.614ZM77.737-5.661,77.145,0H69.264l.592-5.661H71l.444-4.292h-4.44l-.444,4.292h1.443L67.414,0H58.867l.592-5.661H60.9l1.48-14.245H60.939l.592-5.661H75.924l2.553,2.849-.888,8.51L76.035-12.8l1.258,1.443-.592,5.7Zm-5.7-9.953.444-4.292h-4.44L67.6-15.614ZM98.975-5.7,98.383,0H89.836l.592-5.7h1.443l.444-4.255H87.024L86.58-5.7h1.406L87.394,0h-8.51l.592-5.7h1.406l1.48-14.208H80.956l.592-5.7h8.51l-.592,5.7H88.06l-.444,4.255h5.291l.444-4.255H91.908l.592-5.7h8.547l-.592,5.7H99.012L97.532-5.7ZM117.623,0H100.381l.592-5.7h1.443l1.48-14.208h-1.443l.592-5.7h17.242l-.888,8.547h-5.7l.3-2.849h-4.44l-.444,4.255h5.513l-.592,5.7h-5.513L108.077-5.7h4.44l.3-2.849h5.7Zm23.791-25.6-.592,5.7h-1.443L137.307,0h-5.772l-3.7-12.21L127.169-5.7h1.443L128.02,0h-8.547l.592-5.7h1.443l1.48-14.208h-1.443l.592-5.7h6.993l3.848,12.58.74-6.882h-1.443l.592-5.7ZM149.48-5.7,148.888,0h-8.51l.592-5.7h1.406l1.48-14.208H142.45l.592-5.7h8.51l-.592,5.7h-1.406L148.074-5.7Zm10.841-7.1h2.627l-.7-6.142Zm10.508,7.141L170.237,0h-8.51l.592-5.661h1.406L163.577-7.1h-5.069l-.444,1.443h1.406L158.878,0h-8.51l.592-5.661h1.406l4.514-14.245h-1.628l.592-5.661h14.208l-.592,5.661h-1.591l1.554,14.245ZM193.695-25.6l-.592,5.7H191.66L189.588,0h-5.772l-3.7-12.21L179.45-5.7h1.443L180.3,0h-8.547l.592-5.7h1.443l1.48-14.208h-1.443l.592-5.7h6.993l3.848,12.58.74-6.882h-1.443l.592-5.7ZM217.449-2.849,214.3,0H203.278l-2.553-2.849.592-5.7h5.7l-.3,2.849h5.328l.444-4.255h-8.177L201.761-12.8l1.036-9.953,3.145-2.849h11.026l2.553,2.849-.592,5.7h-5.7l.3-2.849H208.2l-.444,4.255h8.177l2.553,2.849ZM236.134,0H218.892l.592-5.7h1.443l1.48-14.208h-1.443l.592-5.7H238.8l-.888,8.547h-5.7l.3-2.849h-4.44l-.444,4.255h5.513l-.592,5.7h-5.513L226.588-5.7h4.44l.3-2.849h5.7Zm11.433-12.8h2.627l-.7-6.142Zm10.508,7.141L257.483,0h-8.51l.592-5.661h1.406L250.823-7.1h-5.069l-.444,1.443h1.406L246.124,0h-8.51l.592-5.661h1.406l4.514-14.245H242.5l.592-5.661H257.3l-.592,5.661h-1.591l1.554,14.245Z" transform="translate(262.23 799.495)" fill="#aa9e88"/><path d="M17.982-8.51,17.094,0H.962l.592-5.661H2.96L4.44-19.906H3.034l.592-5.661h8.51l-.592,5.661H10.138L8.658-5.661h3.33l.3-2.849ZM28.083-5.7,27.491,0h-8.51l.592-5.7h1.406l1.48-14.208H21.053l.592-5.7h8.51l-.592,5.7H28.157L26.677-5.7ZM48.729-22.755,47.693-12.8,44.548-9.953H37.407L36.963-5.7h1.406L37.777,0h-8.51l.592-5.7h1.406l1.48-14.208H31.339l.592-5.661H46.176Zm-6.438,7.1.444-4.255H38.443L38-15.651ZM57.683-12.8H60.31l-.7-6.142ZM68.191-5.661,67.6,0h-8.51l.592-5.661h1.406L60.939-7.1H55.87l-.444,1.443h1.406L56.24,0H47.73l.592-5.661h1.406l4.514-14.245H52.614l.592-5.661H67.414l-.592,5.661H65.231L66.785-5.661Zm19.684,0L87.283,0H79.4l.592-5.661h1.147l.444-4.292h-4.44L76.7-5.661h1.443L77.552,0H69L69.6-5.661H71.04l1.48-14.245H71.077l.592-5.661H86.062l2.553,2.849-.888,8.51L86.173-12.8l1.258,1.443-.592,5.7Zm-5.7-9.953.444-4.292h-4.44l-.444,4.292ZM98.161-5.7,97.569,0h-8.51l.592-5.7h1.406l1.48-14.208H91.131l.592-5.7h8.51l-.592,5.7H98.235L96.755-5.7Z" transform="translate(650.249 592.945)" fill="#001024"/><path d="M17.834-2.849,14.689,0H3.663L1.11-2.849l.592-5.7H7.4L7.1-5.7h5.328l.444-4.255H4.7L2.146-12.8l1.036-9.953L6.327-25.6H17.353l2.553,2.849-.592,5.7h-5.7l.3-2.849H8.584L8.14-15.651h8.177L18.87-12.8ZM28.86-12.8h2.627l-.7-6.142ZM39.368-5.661,38.776,0h-8.51l.592-5.661h1.406L32.116-7.1H27.047L26.6-5.661h1.406L27.417,0h-8.51L19.5-5.661h1.406l4.514-14.245H23.791l.592-5.661H38.591L38-19.906H36.408L37.962-5.661ZM57.387-8.51,56.5,0H40.367l.592-5.661h1.406l1.48-14.245H42.439l.592-5.661h8.51l-.592,5.661H49.543L48.063-5.661h3.33l.3-2.849ZM67.488-5.7,66.9,0h-8.51l.592-5.7h1.406l1.48-14.208H60.458l.592-5.7h8.51l-.592,5.7H67.562L66.082-5.7ZM90.687-25.6l-.592,5.7H88.652L86.58,0H80.808l-3.7-12.21L76.442-5.7h1.443L77.293,0H68.746l.592-5.7h1.443l1.48-14.208H70.818l.592-5.7H78.4l3.848,12.58.74-6.882H81.548l.592-5.7Zm8.4,12.8h2.627l-.7-6.142Zm10.508,7.141L109,0h-8.51l.592-5.661h1.406L102.342-7.1H97.273l-.444,1.443h1.406L97.643,0h-8.51l.592-5.661h1.406l4.514-14.245H94.017l.592-5.661h14.208l-.592,5.661h-1.591l1.554,14.245Z" transform="translate(541.886 415.123)" fill="#001024"/><path d="M10.138-5.7,9.546,0H1.036l.592-5.7H3.034l1.48-14.208H3.108L3.7-25.6h8.51l-.592,5.7H10.212L8.732-5.7Zm18.2,2.849L25.2,0H14.171L11.618-2.849l.592-5.7h5.7l-.3,2.849H22.94l.444-4.255H15.207L12.654-12.8l1.036-9.953L16.835-25.6H27.861l2.553,2.849-.592,5.7h-5.7l.3-2.849H19.092l-.444,4.255h8.177L29.378-12.8Zm18.426,0L43.623,0H32.6L30.081-2.849l2.072-19.869,3.108-2.849H46.287l2.553,2.849Zm-5.4-2.812,1.48-14.245H37.518L36.038-5.661ZM65.305-8.51,64.417,0H48.285l.592-5.661h1.406l1.48-14.245H50.357l.592-5.661h8.51l-.592,5.661H57.461L55.981-5.661h3.33l.3-2.849ZM75.739-12.8h2.627l-.7-6.142ZM86.247-5.661,85.655,0h-8.51l.592-5.661h1.406L78.995-7.1H73.926l-.444,1.443h1.406L74.3,0h-8.51l.592-5.661h1.406L72.3-19.906H70.67l.592-5.661H85.47l-.592,5.661H83.287L84.841-5.661Zm-67.081,23.6H13.505l.3-2.849H10.064L9.62,19.349h5.661l-.592,5.7H9.028L8.584,29.3H9.99L9.4,35H.851l.592-5.7H2.886l1.48-14.208H2.923l.592-5.7H20.054ZM28.342,29.3,27.75,35H19.24l.592-5.7h1.406l1.48-14.208H21.312L21.9,9.4h8.51l-.592,5.7H28.416L26.936,29.3ZM46.694,26.49,45.806,35H29.674l.592-5.661h1.406l1.48-14.245H31.746l.592-5.661h8.51l-.592,5.661H38.85L37.37,29.339H40.7L41,26.49ZM56.8,29.3,56.2,35h-8.51l.592-5.7h1.406l1.48-14.208H49.765l.592-5.7h8.51l-.592,5.7H56.869L55.389,29.3Zm18.944,2.849L72.594,35H60.9l-2.553-2.849,2.072-19.869,3.145-2.849H75.258l2.553,2.849-.592,5.661h-5.7l.3-2.849H65.823l-1.48,14.245h5.994l.3-2.849h5.7ZM98.975,9.4l-.592,5.7H96.977L95.2,32.151,92.056,35H81.474l-2.553-2.849L80.7,15.094H79.291l.592-5.7h8.51l-.592,5.7H86.395L84.915,29.3H89.8l1.48-14.208H89.873l.592-5.7Zm17.39,22.755L113.22,35H98.087l.592-5.661h1.406l1.48-14.245h-1.406l.592-5.661h15.133l2.553,2.849Zm-5.4-2.812,1.48-14.245h-5.18l-1.48,14.245ZM127.1,29.3,126.5,35h-8.51l.592-5.7h1.406l1.48-14.208h-1.406l.592-5.7h8.51l-.592,5.7h-1.406L125.689,29.3Z" transform="translate(153.732 377.219)" fill="#001024"/><path d="M20.276-22.755,19.24-12.8,16.095-9.953H8.954L8.51-5.7H9.916L9.324,0H.814l.592-5.7H2.812l1.48-14.208H2.886l.592-5.661H17.723Zm-6.438,7.1.444-4.255H9.99l-.444,4.255ZM29.23-12.8h2.627l-.7-6.142ZM39.738-5.661,39.146,0h-8.51l.592-5.661h1.406L32.486-7.1H27.417l-.444,1.443h1.406L27.787,0h-8.51l.592-5.661h1.406l4.514-14.245H24.161l.592-5.661H38.961l-.592,5.661H36.778L38.332-5.661ZM62.6-25.6l-.592,5.7H60.569L58.5,0H52.725l-3.7-12.21L48.359-5.7H49.8L49.21,0H40.663l.592-5.7H42.7l1.48-14.208H42.735l.592-5.7H50.32l3.848,12.58.74-6.882H53.465l.592-5.7ZM71-12.8H73.63l-.7-6.142ZM81.511-5.661,80.919,0h-8.51L73-5.661h1.406L74.259-7.1H69.19l-.444,1.443h1.406L69.56,0H61.05l.592-5.661h1.406l4.514-14.245H65.934l.592-5.661H80.734l-.592,5.661H78.551L80.105-5.661Zm19.684,0L100.6,0H92.722l.592-5.661h1.147L94.9-9.953h-4.44l-.444,4.292h1.443L90.872,0H82.325l.592-5.661H84.36l1.48-14.245H84.4l.592-5.661H99.382l2.553,2.849-.888,8.51L99.493-12.8l1.258,1.443-.592,5.7Zm-5.7-9.953.444-4.292H91.5l-.444,4.292ZM119.473,0H102.231l.592-5.7h1.443l1.48-14.208H104.3l.592-5.7h17.242l-.888,8.547h-5.7l.3-2.849h-4.44l-.444,4.255h5.513l-.592,5.7h-5.513L109.927-5.7h4.44l.3-2.849h5.7Zm11.433-12.8h2.627l-.7-6.142Zm10.508,7.141L140.822,0h-8.51l.592-5.661h1.406L134.162-7.1h-5.069l-.444,1.443h1.406L129.463,0h-8.51l.592-5.661h1.406l4.514-14.245h-1.628l.592-5.661h14.208l-.592,5.661h-1.591l1.554,14.245Z" transform="translate(701.265 305.424)" fill="#001024"/></g></g></svg>