<svg xmlns="http://www.w3.org/2000/svg" viewBox="0 0 759 1207"><defs><clipPath id="a"><path fill="#fff" stroke="#707070" d="M0 0h759v1207H0z" opacity=".736" transform="translate(12614 10130)"/></clipPath></defs><g clip-path="url(#a)" transform="translate(-12614 -10130)"><path fill="#fff" d="M12510 10130h906.146v1207H12510z"/><path fill="#8da9c4" fill-rule="evenodd" d="M13361.692 10323.373h2.866c1.81 3.469 3.469 2.715 3.469 8.6l-.754.754c-2.263-.452-7.24-.9-8.447-1.508-.754-.452-2.564-3.469-2.112-3.922 1.812-1.36 3.924-1.511 4.978-3.924zM13301.51 10359.725c2.564.754 5.129 1.508 7.693 2.413 1.056 1.961 3.017 4.073 3.469 6.335-.3 3.62-.453 7.391-.754 11.011.453 1.056 1.508.754 2.112 2.413-2.263 1.207-5.883 11.313-7.693 14.179-2.112-.754-2.112-1.207-4.978-1.508-.754 1.81-.453 2.112-2.112 3.168-1.056-1.961-.3-1.207-2.866-1.508-1.207 2.715-.754 4.676-3.469 6.335-1.508-1.056-6.938 1.508-8.447.754-5.43-6.335 3.469-36.05 6.938-37.106 2.113.905 8.599-4.525 10.107-6.486zM13361.694 10373.904h2.112v1.508c.151.754.6.3 0 .754-.453.453 0 1.207-1.358.754v-.754c-1.81-1.357-.905.001-.754-2.262zM13339.37 10374.658c1.81 1.207.754-.151 1.358 2.413h-1.358zM12635.563 10514.182c-2.866-.151-3.318-.9-5.581-1.508v.754h1.358c1.358 1.358 2.564 1.207 3.469 3.168 1.207 2.263 1.659 8.6 2.112 11.011 1.81 1.508 3.771 3.168 5.581 4.676 5.128.3 4.978-1.056 9.8-1.508 1.508 2.715 2.866 4.827.754 7.844-2.112 2.112-7.24 3.62-10.559 3.922-2.564-4.978-6.939-7.994-14.028-7.844-1.659.3-3.318.453-4.978.754-.905-1.358-1.81-2.564-2.866-3.922-2.112-.754-9.654 2.564-11.916 3.168-2.112-.3-4.223-.452-6.335-.754-1.508-2.866-2.413-6.637-4.223-9.5-.905-1.508-3.017-1.961-4.223-3.168l-4.978-6.335v-2.417c-1.056-1.961-4.374-2.263-5.581-3.922-.754-1.056-1.056-4.223-1.358-5.581-2.564-8.3.151-20.816 6.939-22.927h14.786c2.866.9 9.05 1.508 11.916 3.168 1.508.905 3.62 3.318 5.581 3.922 3.62 1.207 6.486.453 9.05 1.508 2.263 3.922 8.9 12.52 6.939 19.76-.15 1.96-1.357 2.865-1.659 5.731zM13345.856 10160.019a3.1 3.1 0 0 1-.905 4.223 11.627 11.627 0 0 0-1.961 1.358c.151.151.453.3.6.453a5.3 5.3 0 0 0 .754-1.207c1.81-.3 2.564-1.358 4.525-1.056 2.112.3 6.486 2.715 9.05 4.073a3.955 3.955 0 0 0 2.263.3c1.357-.3 1.659-.453 3.62-.905 3.168-3.922 1.358 4.827 3.771.453 3.017.3-1.207-3.62 0 0 .453 2.413-1.207 2.866-2.715 4.676a3.308 3.308 0 0 1-2.564 1.056c-2.413-.151 1.056 1.056-2.112 5.883 0 .151-.151.151-.151.3-.453.905-.754 1.659-1.207 2.564a3.2 3.2 0 0 1-2.866 1.81h-1.207a3.2 3.2 0 0 0-2.866 1.81c-1.207 2.564-2.112 6.939-2.866 9.05a4.519 4.519 0 0 1-.6 1.207c-.905.905-1.81 1.961-2.715 2.866a3.109 3.109 0 0 1-3.017.905 53.853 53.853 0 0 0-8.3-1.659c-1.659-.151-3.168 1.207-4.676 1.508h-.6c-2.263.151-4.374.151-6.637.3a3.032 3.032 0 0 1-1.961-.6 3.112 3.112 0 0 0-3.017-.3c-1.508.6-3.017 1.81-4.525 1.961-1.207 0-4.073-1.659-5.279-1.961-7.994-2.715-16.592-11.765-14.782-18.4l.452-.905 7.995-11.313a1.177 1.177 0 0 1 .6-.6c2.413-1.961 6.184-6.335 9.05-7.693 1.659-.754 4.676-1.056 6.486-2.263 2.564-1.961 3.62-4.223 5.43-5.732a3.173 3.173 0 0 1 2.263-.754c4.978.3 14.631.3 19.005 5.581a19.329 19.329 0 0 1 1.665 3.011zM12957.149 10486.429c2.564 1.358 5.128 2.564 7.693 3.922 6.788 2.112 11.011-3.62 17.5-.754 3.318 1.508 10.106 7.089 14.782 6.335 6.788-1.056 23.078-10.86 28.81-7.089a8.257 8.257 0 0 1 6.335 6.335c-6.939 9.654 2.866 23.983 3.469 34.693-2.263 1.81-3.922 5.581-4.223 9.5l.754.754c-.754 1.056-4.374 3.771-4.978 4.676-3.922 7.542 2.413 25.944 3.469 32.279h-.754c-1.056-1.508-.6-1.056-2.866-1.508-.754 2.263-.6 3.017-2.866 3.922-1.961 1.358-2.413-.452-4.978 0-3.318.6-6.034 2.564-9.05 3.922-8.6-4.525-19.91-10.709-26.7-17.346-3.017-3.017-6.034-8.447-10.559-9.5-1.81 3.318-7.693.3-10.559.754-1.508-8.145-5.883-4.073-11.916-7.089-6.938-3.469-21.871-14.028-22.475-23.681 7.693-5.732 2.112-7.844 3.469-14.179.453-2.263 1.961-3.168 2.112-7.089.453.3.905.453 1.358.754.453-.3 7.542-11.313 7.693-11.765 1.056-.905-.6-1.81-1.357-3.168.754-.754 1.357-1.508 2.112-2.413 4.524 1.053 10.859.45 13.725-2.265z"/><path fill="#8da9c4" fill-rule="evenodd" d="M12622.893 10508.602c.453.453.905 1.056 1.358 1.508a13.6 13.6 0 0 1-1.358-1.508zM12627.117 10511.015c.905 1.207.453.9 2.112 1.508a10.705 10.705 0 0 0-2.112-1.508zM13151.426 10735.612h2.112v2.413c2.564.754 3.017.754 3.469 3.922-4.374 4.525-.3 1.508-2.112 6.335-.9 1.056-1.81 2.112-2.866 3.168-.754 2.866 1.207 4.525 0 7.844-.905 2.564-3.017 4.525-4.223 7.089-6.335.3-3.469-3.318-7.693-4.676-3.922-1.207-9.8 5.732-9.8-7.089.754-5.279-2.564-14.782-9.05-14.933.452-6.788-.754-14.631-6.939-15.838-1.961.905-4.525-1.659-6.939-2.413-4.676-1.358-8.749.453-12.67-1.508-.754-.453-8.145-5.732-8.447-6.335-.754-1.207.6-4.073-.754-6.335-2.564-2.564-5.128-5.279-7.693-7.844-.3-1.056-.453-2.112-.754-3.168-2.263-3.168-5.43-3.469-6.335-8.6 1.207-2.413 1.508-8.749 1.358-11.765-2.112 0-1.961.6-2.866 0-.6-.754-.3-.151-.754-1.508 1.358-.151 2.866-1.659 4.223-3.922a11.626 11.626 0 0 1-3.469-3.168c7.391-5.128 8.3-30.922 9.05-43.29 4.374-2.263 7.391-9.955 10.559-12.67 1.508-1.358 17.2-7.542 19.609-7.844 1.81 2.263 4.676 5.581 8.447 5.581 1.357-.3 2.866-.453 4.223-.754 4.676 1.056 13.274 2.866 18.251 0 .905-1.056 1.81-2.112 2.866-3.168h4.978c2.413-1.056 2.263-2.715 6.335-3.168 1.056 1.961 2.112 3.017 2.866 5.581-6.335 7.391 1.056 17.648 2.866 25.944 1.508 7.089-2.413 11.313-3.469 15.838-1.207 4.978 1.207 12.218 1.358 18.1a108.3 108.3 0 0 1 9.05 9.5c3.318-.453 6.486-1.056 9.8-1.508 1.358 1.961 3.168 2.263 4.223 4.676 1.056 1.961.151 5.128 0 8.6-4.223 1.207-11.916 5.279-17.5 3.922-1.961-.452-4.073-3.469-6.335-3.168-1.659.3-4.676 2.564-6.938 3.168-1.207 4.374-3.168 6.034-3.469 11.765a7.811 7.811 0 0 1 2.112 3.168c.453-.3.905-.453 1.358-.754v.754c3.62 5.732-2.413 13.726-1.358 18.855.754.453 1.358 1.056 2.112 1.508.303 2.416.756 5.131 1.208 7.695zM13166.21 10817.517a19.838 19.838 0 0 0 2.112 7.089c1.207 1.207 2.564.6 4.223 1.508.754 1.056 1.357 2.112 2.112 3.168 3.017.905 6.788-5.279 9.05-6.335v.754c3.922 3.017 1.81 6.184 4.223 11.011 1.207 2.413 3.469 1.659 5.581 3.168.151 0 9.654 12.218 9.8 12.67 1.056 2.112 5.43 18.1 4.978 20.514-.151.6-2.413 4.073-2.112 5.581 1.056 7.089 9.5 10.257 10.559 17.346-4.374.151-4.827 1.358-9.05 1.508 0 2.413.453 3.168 0 3.922-2.866 1.961-4.223-1.056-8.447.754-5.279 2.413-1.508 6.335-11.162 6.335-1.358-.6-2.866.754-5.581 0-6.486-1.961-11.011-4.978-14.028-11.011 1.508-.3 1.358-.151 2.112-.754-3.922-2.866-6.939-8.3-11.916-9.5v-2.416c-1.659-1.508-3.318-3.168-4.978-4.676-6.637-2.715-11.464 2.263-14.028-5.581-1.508-2.715-.3-5.581-1.358-9.5-1.81-6.184-6.335-11.464-9.05-16.592-1.358-2.413 0-4.827-2.112-6.335-.754.6-.6.453-2.112.754v-.754a9.177 9.177 0 0 0 1.357-2.413h-3.469v.754l-.754-.754c-.6-.754-.3-.151-.754-1.508h1.358c1.357-1.207 3.318-1.358 5.581-1.508-.6-3.469-.6-1.659-.754-4.676-2.564-.6-1.961 0-2.866-2.413 1.056-2.413-.3-6.033 2.866-7.089.754.6.151.3 1.358.754 1.358-3.318 2.866-2.564 4.978-4.676a84.013 84.013 0 0 0 5.581-10.257c-1.508-.905-1.358-.6-2.112-2.413h1.358c1.207 1.508 5.732 4.374 6.335 3.922 2.112-.6 1.961-.3 2.866-2.413.6-.9.6-1.357.754-3.168-3.922-1.659-4.525-3.017-4.224-9.5 1.056-1.81.6-3.469.754-5.581 3.318-3.017 3.62-6.184 9.05-7.089 3.017 4.223 9.352 8.3 10.559 14.179-.6 1.056-.6 1.961-.754 3.922-3.922 2.564-11.162 5.43-11.162 12.67 2.564 2.263 1.358 1.508.754 5.581 1.358 1.056 1.207 1.508 2.866 2.413 1.813 1.501 5.584-1.667 9.658-1.365zM13291.705 11212.861v3.167h-3.469c.3-1.659.151-1.508.754-2.413.754-.603 1.056-.603 2.715-.754zM13279.789 11213.615a11.2 11.2 0 0 1-.754 3.922 26.277 26.277 0 0 1-2.866-3.922zM13284.013 11213.615c2.263.6 1.056-.453 2.112 1.508h-.754a13.606 13.606 0 0 1-1.358-1.508z"/><path fill="#8da9c4" d="M13412.978 11212.861c-6.788 3.167-12.821 5.883-18.855 8.6-2.564.453-5.129 1.056-7.693 1.508-.3.754-.453 1.508-.754 2.413-1.659.754-2.263-1.358-4.224 0-.9 1.358-1.81 2.564-2.866 3.922a231.5 231.5 0 0 1-20.965 15.833v3.168h-2.112c.3-.754.453-1.508.754-2.413l-14.028 8.6c-10.709 5.129-25.642 5.129-35.748 0-3.922-1.961-4.374-8.3-7.693-10.257s-9.955-.151-13.274-2.413c-7.089-4.525-7.24-15.234-6.939-24.436-1.508.3-1.358.151-2.112.754-.6 1.357.754 1.056 0 2.413v2.413h-1.358c-.3-4.374-.3-3.922.754-7.089-.905-1.056-1.81-2.112-2.866-3.168a9.652 9.652 0 0 0-2.866.754c-1.358-4.224-.754-11.162-2.866-14.933v-1.508c-5.279-.151-10.257-.905-15.385.754-1.659.453-4.676 2.866-6.335 3.167-3.017.453-4.073-3.771-6.939-3.167-7.24 1.357-17.045 7.843-28.056 4.676-4.374-1.207-9.8-3.62-14.028-4.676-3.62-.905-8.145 1.659-10.559 2.413-7.391 2.263-21.871-4.073-25.19-7.089-1.81-1.659-2.564-5.883-4.224-7.844-1.81-2.262-5.43-2.866-6.938-5.581-2.112-3.469-3.168-7.089-5.581-10.257-2.564-3.469-7.089-4.374-9.05-8.6-1.508-3.318-1.056-7.994-2.866-11.011-1.659-2.112-4.978-4.525-6.939-6.335v-.754c-1.659-.3-3.318-.453-4.978-.754-.754-1.056-1.358-2.112-2.112-3.168-1.961-1.056-4.073.151-5.581-.754-5.279-3.318-6.788-11.765-11.916-14.933-4.224-2.564-6.939-.905-10.559-4.676-4.827 2.715-6.184 11.011-10.559 14.179-2.263 1.659-5.128 0-7.693 1.508-2.715 1.659-8.9 15.385-11.162 18.855-2.564 3.922-18.4 10.408-23.078 12.67-8.9 4.073-18.855-4.374-27.3-1.508-6.184 2.112-10.559 6.486-16.894 9.5-5.732 2.715-13.425 4.224-18.855 5.581-1.207-.3-2.263-.453-3.469-.754-9.352 2.564-17.95 7.693-25.944 11.011-3.771 1.508-8.447-1.056-11.916 0-4.223 1.207-8.447 6.184-12.67 7.844-1.659.6-3.168.151-4.223.754-5.732-.6-6.939-4.978-11.916-6.335-3.771-1.056-6.939 2.866-10.559.754h-1.358c-.3-1.358-.453-2.564-.754-3.922-2.564.3-3.922 1.207-5.581 0-8.749-.151-4.525-1.508-8.447-5.581-1.207-1.358-8.6-5.279-10.559-6.335a18.508 18.508 0 0 1-1.358-7.089c-8.6 1.508-19.76 22.324-24.586 30.017-3.017 3.469-6.034 6.788-9.05 10.257-6.788 10.559-13.425 20.212-20.363 30.771-1.81 1.81-3.771 3.62-5.581 5.581-1.358 1.961-1.508 4.223-2.866 6.335-3.017 3.469-6.033 6.788-9.05 10.257-2.866 4.525-5.128 10.106-9.05 13.425-20.812 32.736-64.404 60.49-64.404 60.792h695.36v-126.703a11.841 11.841 0 0 1-3.168 2.564z"/><g><path fill="#133c55" d="M13159.42 10693.378a15.084 15.084 0 1 1-15.083-15.084 15.128 15.128 0 0 1 15.084 15.084"/><path fill="#c2b59b" d="M13151.879 10693.378a7.542 7.542 0 1 1-7.542-7.542 7.564 7.564 0 0 1 7.542 7.542"/></g><g><path fill="#133c55" d="M12655.322 10511.015a15.084 15.084 0 1 1-15.083-15.084 15.128 15.128 0 0 1 15.084 15.084"/><path fill="#c2b59b" d="M12647.781 10511.015a7.542 7.542 0 1 1-7.542-7.542 7.564 7.564 0 0 1 7.542 7.542"/></g><g><path fill="#133c55" d="M13362.297 11250.269a22.626 22.626 0 1 1-22.625-22.626 22.6 22.6 0 0 1 22.626 22.626"/><path fill="#c2b59b" d="M13351.286 11250.269a11.615 11.615 0 1 1-11.615-11.615 11.524 11.524 0 0 1 11.615 11.615"/></g><g><path fill="#133c55" d="M13174.504 10816.159a15.084 15.084 0 1 1-15.083-15.084 15.128 15.128 0 0 1 15.084 15.084"/><path fill="#c2b59b" d="M13166.963 10816.159a7.542 7.542 0 1 1-7.542-7.542 7.469 7.469 0 0 1 7.542 7.542"/></g><g><path fill="#133c55" d="M13045.991 10535.753a15.084 15.084 0 1 1-15.083-15.084 15.128 15.128 0 0 1 15.084 15.084"/><path fill="#c2b59b" d="M13038.45 10535.753a7.542 7.542 0 1 1-7.542-7.542 7.564 7.564 0 0 1 7.542 7.542"/></g><g><path fill="#133c55" d="M13336.051 10387.178a15.084 15.084 0 1 1-15.083-15.084 15.128 15.128 0 0 1 15.084 15.084"/><path fill="#c2b59b" d="M13328.51 10387.178a7.542 7.542 0 1 1-7.542-7.542 7.564 7.564 0 0 1 7.542 7.542"/></g><path fill="#001024" d="M13095.744 11265.144l-1.46 13.988-4.42 4h-10.036l-.624 5.98h1.976l-.836 8.012h-11.956l.832-8.008h1.976l2.08-19.968h-1.976l.832-7.956h20.02zm-9.052 9.98l.624-5.98h-6.032l-.624 5.98zm32.032 18l-4.42 4h-15.5l-3.532-4 2.912-27.928 4.368-4h15.492l3.588 4zm-7.592-3.956l2.08-20.02h-7.488l-2.08 20.02zm35.984 0l-.832 7.956h-11.076l.836-7.956h1.612l.624-6.032h-6.24l-.624 6.032h2.028l-.836 7.956h-12.012l.832-7.956h2.028l2.08-20.02h-2.028l.832-7.956h20.228l3.588 4-1.248 11.96-2.184 1.98 1.768 2.028-.832 8.008zm-8.008-13.988l.624-6.032h-6.24l-.624 6.032zm36.816-14.04l-1.248 12.012h-5.98l.416-4h-2.028l-2.08 19.964h2.028l-.832 8.008h-12.012l.832-8.008h2.024l2.08-19.968h-2.024l-.416 4h-6.032l1.248-12.012zm22.308 31.984l-4.42 4h-15.5l-3.536-4 2.912-27.924 4.368-4h15.5l3.588 4zm-7.588-3.956l2.08-20.02h-7.488l-2.08 20.02zm35.984 0l-.836 7.956h-11.076l.832-7.956h1.612l.624-6.032h-6.24l-.624 6.032h2.024l-.828 7.956h-12.012l.832-7.956h2.028l2.08-20.02h-2.028l.832-7.956h20.228l3.588 4-1.248 11.96-2.184 1.976 1.768 2.028-.832 8.008zm-8.008-13.988l.624-6.032h-6.24l-.624 6.032zm33.324 17.944l-4.42 4h-15.5l-3.536-4 2.912-27.924 4.368-4h15.5l3.588 4zm-7.592-3.952l2.08-20.02h-7.488l-2.08 20.02zm33.44 3.952l-4.42 4h-15.5l-3.588-4 .832-8.008h8.008l-.416 4h7.488l.624-5.98h-11.488l-3.588-4 1.456-13.988 4.42-4h15.5l3.588 4-.832 8.008h-8.012l.416-4h-7.488l-.624 5.968h11.492l3.588 4zm15.5-13.988h3.692l-.988-8.632zm14.764 10.032l-.832 7.956h-11.96l.832-7.956h1.976l-.208-2.028h-7.12l-.624 2.028h1.976l-.836 7.956h-11.96l.832-7.956h1.976l6.344-20.02h-2.288l.832-7.956h19.968l-.832 7.956h-2.236l2.184 20.02zM13187.333 10809.872l4.218-13.283h-1.406l.592-5.661h8.51l-.592 5.661h-1.406l-6.327 19.906h-8.548l-2.182-19.906h-1.406l.588-5.661h8.51l-.592 5.661h-1.402zm32.708-18.977l-.592 5.7h-1.406l-1.776 17.051-3.145 2.849h-10.582l-2.553-2.849 1.776-17.057h-1.406l.592-5.7h8.51l-.592 5.7h-1.406l-1.48 14.206h4.884l1.48-14.208h-1.406l.592-5.7zm16.169 17.09l-.888 8.51h-16.132l.592-5.661h1.406l1.48-14.245h-1.406l.592-5.661h8.51l-.59 5.661h-1.408l-1.48 14.245h3.33l.3-2.849zm18.537 5.661l-3.145 2.849h-11.692l-2.553-2.849 2.072-19.869 3.145-2.849h11.692l2.553 2.849-.592 5.661h-5.7l.3-2.849h-5.996l-1.48 14.245h5.994l.3-2.849h5.7zm11.027-9.951h2.627l-.7-6.142zm10.508 7.141l-.593 5.659h-8.51l.595-5.661h1.4l-.145-1.439h-5.069l-.444 1.443h1.406l-.592 5.657h-8.51l.592-5.661h1.406l4.514-14.245h-1.628l.592-5.661h14.208l-.592 5.661h-1.591l1.553 14.245zm22.865-19.941l-.592 5.7h-1.443l-2.072 19.9h-5.772l-3.7-12.21-.666 6.51h1.443l-.592 5.7h-8.547l.592-5.7h1.443l1.48-14.208h-1.447l.592-5.7h6.993l3.848 12.58.74-6.882h-1.443l.592-5.7zm15.8 22.755l-3.146 2.845h-11.027l-2.516-2.849 2.072-19.869 3.108-2.849h11.026l2.553 2.849zm-5.4-2.812l1.48-14.245h-5.328l-1.48 14.245z"/><path fill="#aa9e88" d="M12793.324 10905.895l-.888 8.547h-4.255l.3-2.849h-1.447l-1.48 14.202h1.443l-.592 5.7h-8.547l.592-5.7h1.443l1.481-14.206h-1.444l-.3 2.849h-4.288l.888-8.543zm19.869.037l-.592 5.7h-1.443l-6.142 10.4-.37 3.811h1.406l-.592 5.652h-8.51l.592-5.661h1.406l.37-3.811-.259-.74q-.259-.74-.666-1.832t-.888-2.386l-.906-2.442q-.425-1.147-.74-1.98t-.385-1.017h-1.41l.592-5.7h8.51l-.592 5.7h-1.406l1.554 5.217 2.775-5.217h-1.443l.592-5.7zm17.723 19.902l-.592 5.661h-7.881l.592-5.661h1.147l.444-4.292h-4.44l-.444 4.292h1.443l-.592 5.661h-8.547l.592-5.661h1.443l1.48-14.245h-1.443l.592-5.661h14.393l2.553 2.849-.888 8.51-1.554 1.408 1.26 1.441-.592 5.7zm-5.7-9.953l.444-4.292h-4.44l-.446 4.292zm25.495 9.953l-.592 5.661h-7.881l.592-5.661h1.144l.444-4.292h-4.44l-.444 4.292h1.443l-.589 5.661h-8.547l.592-5.661h1.441l1.48-14.245h-1.441l.592-5.661h14.393l2.553 2.849-.888 8.51-1.554 1.408 1.258 1.443-.592 5.7zm-5.7-9.953l.444-4.292h-4.44l-.441 4.292zm26.938 9.914l-.592 5.7h-8.547l.592-5.7h1.443l.444-4.255h-5.291l-.444 4.255h1.406l-.592 5.7h-8.51l.592-5.7h1.406l1.48-14.208h-1.406l.592-5.7h8.51l-.592 5.7h-1.406l-.444 4.255h5.291l.444-4.255h-1.443l.592-5.7h8.547l-.592 5.7h-1.443l-1.48 14.208zm18.648 5.7h-17.242l.592-5.7h1.443l1.48-14.208h-1.443l.592-5.7h17.242l-.888 8.547h-5.7l.3-2.849h-4.44l-.444 4.255h5.513l-.592 5.7h-5.513l-.446 4.255h4.44l.3-2.849h5.7zm23.791-25.6l-.592 5.7h-1.443l-2.072 19.9h-5.772l-3.7-12.21-.666 6.51h1.443l-.592 5.7h-8.547l.592-5.7h1.443l1.48-14.208h-1.443l.592-5.7h6.993l3.848 12.58.74-6.882h-1.443l.592-5.7zm8.066 19.9l-.592 5.7h-8.51l.592-5.7h1.406l1.48-14.208h-1.406l.592-5.7h8.51l-.592 5.7h-1.406l-1.48 14.208zm10.841-7.1h2.627l-.7-6.142zm10.508 7.141l-.592 5.659h-8.51l.592-5.661h1.406l-.148-1.439h-5.069l-.444 1.443h1.406l-.592 5.657h-8.51l.592-5.661h1.406l4.514-14.245h-1.628l.592-5.661h14.208l-.592 5.661h-1.591l1.554 14.245zm22.866-19.941l-.592 5.7h-1.443l-2.072 19.9h-5.772l-3.7-12.21-.666 6.51h1.443l-.593 5.7h-8.547l.592-5.7h1.443l1.48-14.208h-1.443l.592-5.7h6.993l3.848 12.58.74-6.882h-1.443l.592-5.7zm23.754 22.751l-3.149 2.849h-11.022l-2.553-2.849.592-5.7h5.7l-.3 2.849h5.328l.444-4.255h-8.177l-2.551-2.845 1.036-9.953 3.145-2.849h11.026l2.553 2.849-.592 5.7h-5.7l.3-2.849h-5.329l-.444 4.255h8.177l2.553 2.849zm18.685 2.849h-17.242l.592-5.7h1.443l1.48-14.208h-1.443l.592-5.7h17.244l-.888 8.547h-5.7l.3-2.849h-4.44l-.444 4.255h5.513l-.592 5.7h-5.513l-.448 4.255h4.44l.3-2.849h5.7zm11.433-12.8h2.627l-.7-6.142zm10.508 7.141l-.592 5.659h-8.51l.592-5.661h1.406l-.148-1.439h-5.069l-.444 1.443h1.406l-.592 5.657h-8.51l.592-5.661h1.406l4.514-14.245h-1.626l.592-5.661h14.208l-.592 5.661h-1.591l1.554 14.245z"/><path fill="#001024" d="M13178.975 10716.435l-.888 8.51h-16.132l.592-5.661h1.406l1.48-14.245h-1.406l.592-5.661h8.51l-.592 5.661h-1.406l-1.48 14.245h3.33l.3-2.849zm10.101 2.81l-.592 5.7h-8.51l.592-5.7h1.406l1.48-14.208h-1.406l.592-5.7h8.51l-.592 5.7h-1.406l-1.48 14.208zm20.646-17.055l-1.036 9.955-3.145 2.847h-7.141l-.444 4.253h1.406l-.592 5.7h-8.51l.592-5.7h1.406l1.48-14.208h-1.406l.592-5.661h14.245zm-6.438 7.1l.444-4.255h-4.292l-.443 4.259zm15.392 2.855h2.627l-.7-6.142zm10.508 7.139l-.591 5.661h-8.51l.592-5.661h1.406l-.149-1.439h-5.069l-.444 1.443h1.406l-.592 5.657h-8.51l.592-5.661h1.406l4.514-14.245h-1.628l.592-5.661h14.208l-.592 5.661h-1.591l1.554 14.245zm19.684 0l-.592 5.661h-7.883l.592-5.661h1.147l.444-4.292h-4.44l-.443 4.292h1.443l-.591 5.661h-8.552l.6-5.661h1.44l1.48-14.245h-1.443l.592-5.661h14.393l2.553 2.849-.888 8.51-1.554 1.408 1.258 1.443-.592 5.7zm-5.7-9.953l.444-4.292h-4.44l-.444 4.292zm15.986 9.914l-.592 5.7h-8.51l.592-5.7h1.406l1.48-14.208h-1.406l.592-5.7h8.51l-.592 5.7h-1.406l-1.48 14.208zM13070.464 10544.274l-3.145 2.849h-11.026l-2.553-2.849.592-5.7h5.698l-.3 2.849h5.328l.444-4.255h-8.172l-2.554-2.845 1.036-9.953 3.145-2.847h11.026l2.553 2.849-.592 5.7h-5.7l.3-2.849h-5.33l-.444 4.249h8.177l2.553 2.851zm11.026-9.951h2.627l-.7-6.142zm10.508 7.139l-.592 5.661h-8.51l.592-5.661h1.406l-.148-1.439h-5.069l-.447 1.439h1.406l-.589 5.661h-8.51l.593-5.661h1.406l4.514-14.245h-1.629l.592-5.661h14.208l-.591 5.661h-1.592l1.554 14.245zm18.019-2.849l-.887 8.51h-16.133l.592-5.661h1.406l1.48-14.245h-1.406l.592-5.661h8.51l-.592 5.661h-1.406l-1.48 14.245h3.33l.3-2.849zm10.101 2.81l-.588 5.7h-8.51l.592-5.7h1.406l1.48-14.208h-1.41l.592-5.7h8.51l-.592 5.7h-1.406l-1.48 14.208zm23.199-19.9l-.592 5.7h-1.443l-2.072 19.9h-5.772l-3.7-12.21-.666 6.51h1.443l-.592 5.7h-8.547l.592-5.7h1.443l1.48-14.208h-1.443l.592-5.7h6.99l3.848 12.58.74-6.882h-1.44l.592-5.7zm8.4 12.8h2.627l-.7-6.142zm10.508 7.141l-.595 5.659h-8.51l.592-5.661h1.406l-.146-1.439h-5.069l-.444 1.443h1.406l-.592 5.657h-8.51l.592-5.661h1.406l4.514-14.245h-1.628l.592-5.661h14.208l-.592 5.661h-1.591l1.554 14.245zM12674.614 10503.519l-.592 5.7h-8.51l.592-5.7h1.406l1.48-14.208h-1.406l.592-5.692h8.51l-.592 5.7h-1.406l-1.48 14.2zm18.2 2.849l-3.138 2.851h-11.029l-2.553-2.849.592-5.7h5.7l-.3 2.849h5.33l.444-4.255h-8.177l-2.553-2.845 1.036-9.953 3.145-2.847h11.026l2.553 2.849-.592 5.7h-5.7l.3-2.849h-5.33l-.444 4.255h8.177l2.553 2.845zm18.426 0l-3.141 2.851h-11.023l-2.519-2.849 2.072-19.869 3.108-2.849h11.026l2.553 2.849zm-5.4-2.812l1.48-14.245h-5.326l-1.48 14.247zm23.941-2.847l-.888 8.51h-16.132l.592-5.661h1.406l1.48-14.245h-1.406l.592-5.661h8.51l-.592 5.661h-1.406l-1.48 14.245h3.33l.3-2.849zm10.434-4.29h2.627l-.7-6.142zm10.508 7.139l-.592 5.661h-8.51l.592-5.661h1.406l-.148-1.439h-5.069l-.444 1.443h1.406l-.588 5.657h-8.51l.592-5.661h1.406l4.512-14.245h-1.63l.592-5.661h14.208l-.592 5.661h-1.591l1.554 14.245zm-67.081 23.6h-5.661l.3-2.849h-3.741l-.444 4.259h5.661l-.592 5.7h-5.661l-.444 4.251h1.406l-.59 5.7h-8.549l.592-5.7h1.443l1.48-14.208h-1.443l.592-5.7h16.539zm9.176 11.361l-.592 5.7h-8.51l.592-5.7h1.406l1.48-14.208h-1.406l.588-5.692h8.51l-.592 5.7h-1.402l-1.48 14.2zm18.352-2.81l-.888 8.51h-16.132l.592-5.661h1.406l1.48-14.245h-1.406l.592-5.661h8.51l-.592 5.661h-1.406l-1.48 14.245h3.33l.3-2.849zm10.106 2.81l-.6 5.7h-8.51l.592-5.7h1.406l1.48-14.208h-1.403l.592-5.7h8.51l-.592 5.7h-1.406l-1.48 14.208zm18.944 2.849l-3.15 2.851h-11.694l-2.553-2.849 2.072-19.869 3.145-2.849h11.694l2.553 2.849-.592 5.661h-5.7l.3-2.849h-5.996l-1.48 14.245h5.994l.3-2.849h5.7zm23.231-22.749l-.592 5.7h-1.406l-1.777 17.051-3.144 2.849h-10.582l-2.553-2.849 1.779-17.057h-1.409l.592-5.7h8.51l-.592 5.7h-1.406l-1.48 14.206h4.885l1.48-14.208h-1.407l.592-5.7zm17.39 22.755l-3.145 2.845h-15.133l.592-5.661h1.406l1.48-14.245h-1.406l.592-5.661h15.133l2.553 2.849zm-5.4-2.812l1.48-14.245h-5.18l-1.48 14.245zm16.135-.043l-.6 5.7h-8.51l.592-5.7h1.406l1.48-14.208h-1.406l.592-5.7h8.51l-.592 5.7h-1.406l-1.477 14.208zM13232.285 10414.669l-1.036 9.955-3.145 2.847h-7.141l-.444 4.253h1.406l-.592 5.7h-8.51l.592-5.7h1.406l1.48-14.208h-1.406l.592-5.661h14.245zm-6.438 7.1l.444-4.255h-4.292l-.444 4.255zm15.392 2.855h2.627l-.7-6.142zm10.508 7.139l-.592 5.661h-8.51l.592-5.661h1.406l-.148-1.439h-5.069l-.444 1.443h1.406l-.592 5.657h-8.51l.592-5.661h1.406l4.514-14.245h-1.628l.592-5.661h14.208l-.592 5.661h-1.591l1.554 14.245zm22.862-19.939l-.592 5.7h-1.439l-2.069 19.9h-5.775l-3.7-12.21-.666 6.51h1.441l-.59 5.7h-8.547l.592-5.7h1.445l1.48-14.208h-1.445l.592-5.7h6.993l3.848 12.58.74-6.882h-1.443l.592-5.7zm8.4 12.8h2.63l-.7-6.142zm10.511 7.139l-.592 5.661h-8.51l.591-5.661h1.406l-.147-1.439h-5.069l-.444 1.443h1.406l-.592 5.657h-8.51l.592-5.661h1.406l4.514-14.245h-1.628l.592-5.661h14.208l-.592 5.661h-1.591l1.554 14.245zm19.684 0l-.595 5.661h-7.878l.592-5.661h1.147l.439-4.292h-4.44l-.444 4.292h1.443l-.587 5.661h-8.547l.592-5.661h1.443l1.48-14.245h-1.44l.592-5.661h14.39l2.553 2.849-.888 8.51-1.554 1.408 1.258 1.443-.592 5.7zm-5.7-9.953l.444-4.292h-4.439l-.444 4.292zm23.978 15.614h-17.242l.592-5.7h1.443l1.48-14.208h-1.446l.592-5.7h17.242l-.888 8.547h-5.7l.3-2.849h-4.44l-.444 4.255h5.513l-.592 5.7h-5.513l-.443 4.255h4.44l.3-2.849h5.7zm11.433-12.8h2.627l-.7-6.142zm10.508 7.141l-.592 5.659h-8.51l.592-5.661h1.406l-.148-1.439h-5.069l-.444 1.443h1.406l-.592 5.657h-8.51l.592-5.661h1.406l4.514-14.245h-1.628l.592-5.661h14.208l-.592 5.661h-1.591l1.554 14.245z"/></g></svg>