<svg xmlns="http://www.w3.org/2000/svg" width="256.388" height="256.379" viewBox="0 0 256.388 256.379">
  <g id="Group_22" data-name="Group 22" transform="translate(-36.057 -341.833)">
    <g id="Group_17" data-name="Group 17" transform="translate(67.37 355.524)">
      <path id="Path_54" data-name="Path 54" d="M93.093,400.14,87.942,407.1l-4.627-3.426.85-1.149-1.359-.632-3.068,4.144,1,1.116L81.591,406l4.628,3.425-5.151,6.958-4.627-3.427.85-1.149-9.809-11.1-.985,1.331-4.628-3.426L70.467,387l4.628,3.426-.962,1.3,13.48,6.139.852-1.149Zm-15.682-.7-5.828-2.628,4.236,4.775Z" transform="translate(-61.87 -345.9)" fill="#c2b59b"/>
      <path id="Path_55" data-name="Path 55" d="M105.073,389.988,92.479,400.507l-3.69-4.417,1.1-.918L80.6,384.053l-1.1.917-3.691-4.419L82.452,375l3.691,4.419-1.1.916,9.289,11.119,2.6-2.171-1.857-2.224,4.447-3.714Z" transform="translate(-58.9 -348.456)" fill="#c2b59b"/>
      <path id="Path_56" data-name="Path 56" d="M119.028,383.094l-14.618,7.45-2.615-5.13,1.274-.649L96.49,371.856l-1.274.649L92.6,367.376l7.713-3.932,2.613,5.13-1.274.65,6.58,12.908,3.017-1.538-1.315-2.583,5.163-2.631Z" transform="translate(-55.322 -350.919)" fill="#c2b59b"/>
      <path id="Path_57" data-name="Path 57" d="M145.08,378.754l-8.6,1-.661-5.72,1.421-.165-.468-1.423-5.12.593-.131,1.492,1.421-.165.664,5.721-8.6.994-.662-5.719,1.422-.165,1.4-14.746-1.644.19-.664-5.721,14.356-1.661.662,5.72-1.609.186L143,373.2l1.422-.164Zm-10.206-11.926-2.066-6.051-.588,6.358Z" transform="translate(-48.558 -353.09)" fill="#c2b59b"/>
      <path id="Path_58" data-name="Path 58" d="M162.818,363.924l-4.292-.542.363-2.875-1.419-.18-1.812,14.336,1.419.18-.728,5.75-8.624-1.091.727-5.75,1.457.184L151.72,359.6l-1.457-.184-.364,2.875-4.33-.547,1.091-8.625,17.248,2.18Z" transform="translate(-44.034 -353.119)" fill="#c2b59b"/>
      <path id="Path_59" data-name="Path 59" d="M181.014,389.779l-9.987-5.1-1.263-3.9,2.634-5.162,5.163,2.635-1.317,2.58,4.827,2.464,1.966-3.854-7.407-3.782-1.263-3.9,4.6-9.017,3.9-1.263,9.987,5.1,1.263,3.9-2.635,5.162-5.162-2.635,1.317-2.581-4.827-2.464-1.968,3.855,7.407,3.781,1.263,3.9-4.6,9.017Z" transform="translate(-38.879 -351.336)" fill="#c2b59b"/>
      <path id="Path_60" data-name="Path 60" d="M183.56,390.821l3.8-4.378,1.109.961,9.466-10.918-1.109-.962,3.8-4.378,13.251,11.488-5.7,6.568-4.377-3.8,1.9-2.19-3.383-2.934-2.835,3.27,4.236,3.673-3.8,4.379-4.237-3.674-2.835,3.271,3.383,2.933,1.9-2.19,4.377,3.8-5.693,6.569Z" transform="translate(-35.939 -349.278)" fill="#c2b59b"/>
      <path id="Path_61" data-name="Path 61" d="M208.147,417.191,203.1,410.16l4.676-3.359.835,1.162,1.017-1.1-3.007-4.188-1.367.611.833,1.161-4.676,3.358-5.049-7.029,4.676-3.359.835,1.161,13.568-5.943-.967-1.347,4.678-3.358,8.43,11.737-4.678,3.359-.944-1.314L211.99,412.67l.835,1.162Zm5.461-14.717,4.285-4.744-5.843,2.574Z" transform="translate(-33.212 -345.701)" fill="#c2b59b"/>
    </g>
    <g id="Group_18" data-name="Group 18" transform="translate(36.057 341.833)">
      <path id="Path_62" data-name="Path 62" d="M54.415,463.536c3.335.875,4.924,4.3,4.924,4.3s1.572-3.421,4.908-4.3c2.877-.756,5.794-2.358,5.794-7.835v-3.37l-4.446,4.53,2.139.024c-.346,3.164-2.128,3.939-4.092,4.487a10.234,10.234,0,0,0-3.188,1.521V449.008h5.578v-2.247H60.453V444.39a3.115,3.115,0,1,0-2.245,0v2.372H52.63v2.247h5.578v13.885a10.227,10.227,0,0,0-3.189-1.521c-1.963-.548-3.745-1.323-4.091-4.487l2.139-.024-4.446-4.53v3.37C48.621,461.178,51.537,462.78,54.415,463.536Zm4.917-22.915a.868.868,0,1,1-.869.867A.869.869,0,0,1,59.331,440.621Z" transform="translate(-33.38 -321.262)" fill="#c2b59b"/>
      <path id="Path_63" data-name="Path 63" d="M292.429,471c.016-2.463-.029-4.935-.152-7.417A128.648,128.648,0,0,0,166.192,341.847c-1.407-.021-2.8-.018-4.195.006A128.194,128.194,0,0,0,162.3,598.2c1.407.021,2.8.018,4.195-.007A128.2,128.2,0,0,0,292.386,473.729,27.049,27.049,0,0,0,292.429,471Zm-2.477,6.747a24.016,24.016,0,0,1-19.573,19.572,25.187,25.187,0,0,1-4.067.335h0a23.982,23.982,0,0,1-4.069-47.617,25.208,25.208,0,0,1,4.069-.335,23.947,23.947,0,0,1,23.959,23.67c-.019.742-.036,1.485-.068,2.225C290.146,476.31,290.069,477.027,289.952,477.744ZM43.944,458.163A23.955,23.955,0,0,1,62.227,449.7a25.2,25.2,0,0,1,4.069.335,24.016,24.016,0,0,1,19.573,19.572,24.648,24.648,0,0,1,.281,2.552c0,.18.015.359.021.539a23.976,23.976,0,1,1-42.226-14.533ZM87,481.877a78.155,78.155,0,0,0,72.176,66.133c1.686.106,3.393.16,5.074.16A78.448,78.448,0,0,0,221.231,523.5a77.347,77.347,0,0,0,20.284-41.7,25.968,25.968,0,0,0,2.393,5.275,81.473,81.473,0,0,1-79.661,64.411c-1.4,0-2.831-.036-4.241-.107-36.789-1.865-67.735-29.137-75.38-64.3A26.012,26.012,0,0,0,87,481.877ZM108.81,418a75.309,75.309,0,0,1,55.439-24c1.635,0,3.3.052,4.94.155a76.03,76.03,0,0,1-4.94,151.9c-1.636,0-3.3-.053-4.941-.156a76.01,76.01,0,0,1-70.931-70.931c-.034-.522-.038-1.04-.061-1.56,0-.514-.024-1.029-.058-1.544A75.341,75.341,0,0,1,108.81,418Zm133.325,45.8a78.135,78.135,0,0,0-134.87-47.25,77.331,77.331,0,0,0-20.9,47.143A25.98,25.98,0,0,0,83.6,458.7a81.422,81.422,0,0,1,80.651-70.135c1.4,0,2.831.036,4.241.108,38.789,1.965,71.066,32.178,76.4,70.1A25.976,25.976,0,0,0,242.134,463.8Zm4.571-7.345a83.92,83.92,0,0,0-78.11-69.9c-1.444-.073-2.907-.11-4.348-.11A83.585,83.585,0,0,0,81.784,456.4a25.94,25.94,0,0,0-15.144-8.467,27.4,27.4,0,0,0-4.413-.363,26.051,26.051,0,0,0-17.245,6.52A120.329,120.329,0,0,1,164.248,349.7c1.311,0,2.619.019,3.939.062,59.145,1.888,107.673,46.748,115.324,104.293a26.053,26.053,0,0,0-17.2-6.48,27.4,27.4,0,0,0-4.413.363A25.958,25.958,0,0,0,246.705,456.452ZM57.814,499.414a27.41,27.41,0,0,0,4.414.363,26.074,26.074,0,0,0,19.9-9.215q.448-.528.864-1.076A83.929,83.929,0,0,0,159.9,553.492c1.445.074,2.908.112,4.348.112a83.631,83.631,0,0,0,81.3-64.114c.277.364.563.723.86,1.074a26.075,26.075,0,0,0,19.9,9.215h0a27.391,27.391,0,0,0,4.412-.363,25.586,25.586,0,0,0,11.367-4.957,120.39,120.39,0,0,1-117.842,95.891c-1.311,0-2.618-.021-3.939-.062C104.1,588.492,57.5,547.875,46.44,494.453A25.607,25.607,0,0,0,57.814,499.414ZM73.685,382.322a125.06,125.06,0,0,1,90.563-38.37c1.373,0,2.743.023,4.127.066,65.264,2.084,118.2,54.1,121.751,119a25.886,25.886,0,0,0-3.912-6.227c-.09-.106-.184-.2-.275-.307-6.6-59.853-56.57-106.888-117.683-108.837-1.343-.044-2.672-.064-4.007-.064A122.437,122.437,0,0,0,42.554,456.531c-.075.087-.155.169-.23.256a25.928,25.928,0,0,0-3.955,6.326A124.952,124.952,0,0,1,73.685,382.322Zm181.128,175.4a125.065,125.065,0,0,1-90.564,38.369c-1.373,0-2.743-.022-4.127-.066-62.247-1.986-113.276-49.4-120.943-110.081a26.45,26.45,0,0,0,4.666,6.256c10.223,55.681,58.259,98.345,116.4,100.2,1.344.044,2.674.065,4.007.065A122.509,122.509,0,0,0,284.689,492.206a26.473,26.473,0,0,0,4.629-6.188A124.939,124.939,0,0,1,254.812,557.724Z" transform="translate(-36.057 -341.833)" fill="#c2b59b"/>
      <path id="Path_64" data-name="Path 64" d="M236.329,456.885c-.346,3.164-2.129,3.939-4.092,4.487a10.208,10.208,0,0,0-3.188,1.521V449.008h5.577v-2.247H229.05V444.39a3.114,3.114,0,1,0-2.247,0v2.372h-5.578v2.247H226.8v13.885a10.208,10.208,0,0,0-3.188-1.521c-1.963-.548-3.746-1.323-4.092-4.487l2.139-.024-4.446-4.53v3.37c0,5.477,2.917,7.08,5.795,7.835,3.335.875,4.907,4.3,4.907,4.3s1.589-3.421,4.924-4.3c2.877-.756,5.794-2.358,5.794-7.835v-3.37l-4.446,4.53Zm-8.4-14.528a.868.868,0,1,1,.867-.869A.869.869,0,0,1,227.926,442.357Z" transform="translate(2.546 -321.262)" fill="#c2b59b"/>
    </g>
    <g id="Group_20" data-name="Group 20" transform="translate(93.869 399.8)">
      <g id="Group_19" data-name="Group 19">
        <path id="Path_65" data-name="Path 65" d="M153.9,389.618a70.435,70.435,0,0,0-70.152,65.016,82.834,82.834,0,0,1,22.229,5.136c2.171.772,4.179,1.484,6.363,2.079-.035-.62-.047-1.239-.047-1.868a41.606,41.606,0,0,1,82.947-4.681,86.786,86.786,0,0,1,16.682,4.47,56.747,56.747,0,0,0,12.27,3.269c.047-1.015.07-2.031.07-3.058A70.439,70.439,0,0,0,153.9,389.618Z" transform="translate(-83.706 -389.618)" fill="#c2b59b"/>
        <path id="Path_66" data-name="Path 66" d="M185.591,469.045c-1.891-.116-3.935-.175-6.118-.175a75.608,75.608,0,0,0-28.824,5.078,60.56,60.56,0,0,1-20.011,4.168c-1.3.058-2.672.093-4.144.093a62.109,62.109,0,0,1-24.155-4.262,79.727,79.727,0,0,0-14.266-3.957A70.233,70.233,0,0,0,98.5,487.433c6.539,2.311,14.137,4.787,28,4.787a75.639,75.639,0,0,0,28.812-5.067,62.214,62.214,0,0,1,24.167-4.273,62.18,62.18,0,0,1,24.154,4.273q1.612.577,3.328,1.156a70.289,70.289,0,0,0,8.219-12.131c-2.452-.665-4.646-1.435-6.888-2.23A73.889,73.889,0,0,0,185.591,469.045Z" transform="translate(-82.785 -372.73)" fill="#c2b59b"/>
        <path id="Path_67" data-name="Path 67" d="M146.441,493.2a62.132,62.132,0,0,1-24.155,4.262,67.464,67.464,0,0,1-14.465-1.355,69.88,69.88,0,0,0,34.9,12.97c3.139-.828,5.825-1.775,8.381-2.674a62.215,62.215,0,0,1,24.167-4.273q2.382,0,4.447.106A70.38,70.38,0,0,0,196.5,490.744a76.351,76.351,0,0,0-21.235-2.626A75.609,75.609,0,0,0,146.441,493.2Z" transform="translate(-78.577 -368.629)" fill="#c2b59b"/>
        <path id="Path_68" data-name="Path 68" d="M195.474,450.836a84.928,84.928,0,0,0-15.071-1.213,75.61,75.61,0,0,0-28.824,5.078,62.134,62.134,0,0,1-24.155,4.26,67.95,67.95,0,0,1-13.647-1.19,71.352,71.352,0,0,1-10.508-3.07,74.87,74.87,0,0,0-19.554-4.658,69.416,69.416,0,0,0,2.077,14.372A66.652,66.652,0,0,1,98.61,467.9a74.028,74.028,0,0,0,22.625,4.892c1.915.116,3.969.175,6.188.175a75.615,75.615,0,0,0,28.812-5.067,62.215,62.215,0,0,1,24.167-4.273,72.891,72.891,0,0,1,11.487.805,66.362,66.362,0,0,1,12.667,3.467,77.909,77.909,0,0,0,15.293,4.11,68.258,68.258,0,0,0,3.631-13.624,63.865,63.865,0,0,1-14.266-3.689A81.026,81.026,0,0,0,195.474,450.836Z" transform="translate(-83.714 -376.832)" fill="#c2b59b"/>
      </g>
    </g>
    <g id="Group_21" data-name="Group 21" transform="translate(68.907 515.157)">
      <path id="Path_69" data-name="Path 69" d="M69.678,511.818l-6.541-8.988.632-4.014,4.645-3.38,3.382,4.645-2.323,1.691,3.16,4.343,3.468-2.523-4.85-6.667.633-4.013,8.113-5.9,4.014.632,6.541,8.989-.633,4.014-4.645,3.38-3.38-4.646,2.322-1.689-3.16-4.345-3.469,2.524,4.851,6.667-.633,4.012-8.114,5.9Z" transform="translate(-63.137 -484.221)" fill="#c2b59b"/>
      <path id="Path_70" data-name="Path 70" d="M88.718,529.955,82.266,524.3l3.762-4.293,1.066.934.734-1.291-3.843-3.368-1.184.9,1.065.934-3.761,4.293-6.452-5.654,3.761-4.293,1.066.933,11.766-8.786-1.234-1.081,3.762-4.294,10.773,9.441-3.762,4.293-1.206-1.057-7.165,12.818,1.065.934Zm1.97-15.437,3.072-5.543-5.065,3.8Z" transform="translate(-60.896 -481.617)" fill="#c2b59b"/>
      <path id="Path_71" data-name="Path 71" d="M97.717,535.5l-7.349-4.43,2.967-4.92,1.213.732,7.4-12.268-1.214-.731,2.967-4.92,7.348,4.43-2.966,4.92-1.214-.733-7.4,12.269,1.216.732Z" transform="translate(-57.334 -479.543)" fill="#c2b59b"/>
      <path id="Path_72" data-name="Path 72" d="M115.808,543.5l-15.1-6.044,2.12-5.3,1.316.526,5.336-13.334-1.316-.526,2.122-5.3,7.965,3.187-2.12,5.3-1.316-.526-5.336,13.333,3.116,1.25,1.068-2.668L119,535.531Z" transform="translate(-55.131 -478.572)" fill="#c2b59b"/>
      <path id="Path_73" data-name="Path 73" d="M126.29,545.715l-8.378-1.862,1.247-5.608,1.384.308,3.108-13.984-1.384-.308,1.246-5.608,8.376,1.862-1.246,5.609-1.384-.308L126.151,539.8l1.384.308Z" transform="translate(-51.465 -477.479)" fill="#c2b59b"/>
      <path id="Path_74" data-name="Path 74" d="M150.128,527.3l-1.416-.058-.848,20.052-5.834-.246-4.493-12.512-.24,6.562,1.417.059-.241,5.74-8.611-.363.243-5.742,1.453.062.6-14.312-1.454-.062.244-5.739,7.043.3,4.684,12.893.294-6.932-1.454-.062.243-5.739,8.609.363Z" transform="translate(-48.919 -477.033)" fill="#c2b59b"/>
      <path id="Path_75" data-name="Path 75" d="M166.605,544.484l-11.414,2.086-3.341-2.308-3.611-19.744,2.309-3.342,11.414-2.087L165.3,521.4l1.034,5.652-5.652,1.034-.516-2.825-5.762,1.053,2.577,14.091,5.761-1.053-.516-2.825-4.22.771-1.027-5.614,9.871-1.806,2.06,11.267Z" transform="translate(-45.003 -477.385)" fill="#c2b59b"/>
      <path id="Path_76" data-name="Path 76" d="M175.484,537.629l-5.442,1.843-1.844-5.441,5.441-1.844Z" transform="translate(-40.75 -474.594)" fill="#c2b59b"/>
      <path id="Path_77" data-name="Path 77" d="M193.139,533.841l-10.485,5.391-3.869-1.242-9.159-17.817,1.241-3.87,10.485-5.387,3.869,1.241,2.609,5.076-5.108,2.628-1.314-2.555-5.375,2.763,6.565,12.773,5.376-2.764-1.314-2.555,5.109-2.626,2.609,5.077Z" transform="translate(-40.445 -479.127)" fill="#c2b59b"/>
      <path id="Path_78" data-name="Path 78" d="M209.32,521.668l-8.583,7.066-4.015-.416-12.735-15.464.364-4.019,8.583-7.067,4.043.392,12.735,15.466ZM194.343,508l-4.117,3.391,9.13,11.089,4.118-3.392Z" transform="translate(-37.385 -481.077)" fill="#c2b59b"/>
      <path id="Path_79" data-name="Path 79" d="M228.35,500.218l-5.154,6.859-4.593-3.45.852-1.133-6.711-5.042,3.879,8-8.72-1.559,6.711,5.042.852-1.133,4.593,3.451-5.153,6.859-4.594-3.451.852-1.132-11.453-8.606-.852,1.134-4.593-3.451,4.055-5.4,9,1.253-3.642-8.382,4.035-5.369,4.593,3.452-.852,1.132,11.454,8.6.852-1.133Z" transform="translate(-35.195 -484.711)" fill="#c2b59b"/>
    </g>
  </g>
</svg>
