<svg xmlns="http://www.w3.org/2000/svg" viewBox="0 0 600 800"><defs><style>.cls-1{fill:#fff;}.cls-2{fill:#d6eeee;}.cls-3{fill:none;}.cls-4{fill:#8da9c4;}.cls-5{fill:#133c55;}.cls-6{fill:#c2b59b;}.cls-7{font-size:34.78px;}.cls-7,.cls-8{fill:#001024;font-family:SoccerLeague-Italic, Soccer League;font-style:italic;}.cls-8{font-size:25.43px;}</style></defs><g id="Layer_2" data-name="Layer 2"><g id="Layer_1-2" data-name="Layer 1"><g id="Layer_2-2" data-name="Layer 2"><path class="cls-1" d="M0,0V800H600V0Z"/><path class="cls-2" d="M561.52,800l3.92-.76h-4A2.8,2.8,0,0,1,561.52,800Z"/><path class="cls-3" d="M337.3,354.79l-.46.46h.46c0,.47,0,.86,0,1.21l.35-1.26,2.8-1.17A3.44,3.44,0,0,0,337.3,354.79Z"/><path class="cls-4" d="M0,0V199.26l2.27,2.47c.9.69,2.21.9,2.78,1.86,2.77,4.7,5.21,12.61,11.11,13.88.33,2.77,1.25,7.31,2.77,9.26l2.78,1.39c.77,1,.25,2.53.92,3.7s2.94,1.26,3.71,2.31c2,2.79,2.53,6.13,4.62,8.8,1.67,2.11,10.21,6.28,13,8.33,3,2.24,5.33,6,7.87,8.79,3.9,4.28,9.19,7.63,13.42,11.57a47.52,47.52,0,0,0-1.85,8.8c3.81,2.11,4.24,4.36,6.94,6.48,1.32,1,2.81,1.31,4.17,2.31.84.62,1.06,2.17,1.85,2.78l2.32.46c.52.44.28,1.95.93,2.31l4.16.47c1.79.75,3,3,4.63,3.7h2.31c3.59,1.14,6.27,2.71,11.11,2.78v-.93h-.46c-1.49-4.2-6.92-4.94-10.65-6.94C86.18,291.43,84,286.36,80,283.66c-3.53-2.41-10.9-6.82-12-11.11.82-.93-1.19-12.19-1.39-15.74,2.89-1.66,5.11-3.31,6-6.94.54-2.15-.47-4.94.46-6.48.55-.37.78-.36,1.85-.46,2.88,2.87,11.7,3.31,13.42,1.85,1.45-.92,1.78-1.31,1.86-3.71.35-.49.27-.43.46-1.38l5.55-.47c-1.11-7-4.64-9.49-9.26-13q-1.62-1.84-3.23-3.7c-1-.35-2.65.06-4.17-.92-2.36-1.54-2.14-6-4.17-7.87s-5.31-2.24-6.94-4.63-2.11-5.11-3.7-7.41c-1.76-2.54-7.46-12-6.48-15.73,1.95-7.46,8.6-11.4,14.81-14.81,1.43-.79,2.26-3.69,5.09-2.78,1.08.34,7.72,3.85,8.33,4.63.94,1.19.7,3.69,1.85,4.62h1.86c.75.52,1.32,1.92,2.31,2.32h2.31l2.32,2.77a32.86,32.86,0,0,0,5.55,2.32V186l-3.24.47v.92h.93c3.19-2,4.67.89,7.4.47,1.91-.3,5.44-2.76,7.41-2.32,3.17.71,9.89,3.81,14.81,1.85,1.17-.46,2.88-2.22,4.17-2.77l2.77-.47,3.71-4.62h9.25c1.43,1.32,2.27,1.06,4.17,1.38,1.59,3.43,5.5,5.57,7.87,8.34,2.2,2.56,3.31,7.28,6,9.25,2,1.43,5.11,1.23,6.48,3.24.15.77.31,1.54.46,2.32.51.82,9.22,8.13,10.18,8.33.62.29,2-.3,3.71-.46,1,1.49,1.67.81,3.24,1.85s.42,2.84,2.31,3.7c.5.35.44.28,1.39.46v1.85a9.92,9.92,0,0,0,3.24.47,6.12,6.12,0,0,1,3.24-.47c.49-1.32.56-2.13,1.85-2.77,2.58-1.44,6,1.25,10.18-.46.77-.93,1.54-1.86,2.32-2.78,1.08-.71,2.54-.22,3.7-.93.8-.49.71-2.3,1.39-2.78,1.42-1,6.88-.16,7.87-.46.47-.14,1.71-1.63,2.31-1.85,1.94-.71,3.59.87,4.63.46.3-.46.62-.92.93-1.39a62.54,62.54,0,0,1,6.47-2.31c1.49-.56,2.38.83,3.71,0,1-.65,1.64-3,2.77-3.7,2.32-1.46,5.72-.91,7.87-2.32.2-.12.39-.25.58-.38l1.22-6.62a22.48,22.48,0,0,1,5.6-2c1.08,1.59,2.32,1.87,2.78,4.17a7.16,7.16,0,0,0-3.7,2.78h.92c1.83-2.29,5.41-3,6.49-6-1.73-.79-1-.12-.93-1.85,3.11-2.76,4.94-7.89,8.33-10.19,2.54-1.71,5.49-1.12,8.79-2.31,1.38-.5,2.18-2.07,3.24-2.78,2-1.33,5.51-1.3,8.33-1.85l.47-1.38c.33-.62-.25-1.75-.47-3.25-2.21-.4-3-.66-3.24-3.24.92-1.45,0-3.8.93-5.55l1.85-.92c.46-1.4.93-2.78,1.39-4.17,1.39-2.13,5.62-3.67,6.48-5.55.85-1.36.53-3.79,1.39-5.09,1.83-2.77,7.12-7.2,7.87-10.65-.37-.48-.17-.13-.47-.93-6.8-3.83-14.12-8.38-21.28-12h-5.56c-1.89-.67-3.33-3-5.56-3.7-3.36-1-6.52-.19-9.59.13l1.27-6.91v-1.39c1.35-2.25.82-7.39,2.77-9.72.6-.71,1.4,0,2.32-.46l3.24-3.24H286c2.13-1.12,3.92-6.86,5.55-8.8l1.4-.46c.82-1.14.67-3,1.85-3.7l6-1.86c.16-.46.31-.92.46-1.38,2.65-1.27,8.69.35,12-.93,1.05-2,.9-3.57,1.85-5.55.38-.8,1.9-1.79,2.32-2.78.15-1.23.3-2.47.46-3.7.77-1.07,3-1.1,3.7-2.32.57-1-.17-2.48,0-2.77a14,14,0,0,1,12-6.94l.47.18c1.78-.79,3.6-1.54,5.44-2.25A15.46,15.46,0,0,0,343,52.31L345.43,51c1.83.87,3.35,1.62,3.38,2.23-1.23,1.47-4.25,5.1-4.63,6.94a6.74,6.74,0,0,1,1.4,4.16c-1.22.63-2.21.92-2.78,2.32-1.06,1.81.35,5.65-.46,8.33-.32,1.06-1.62,2.63-1.86,3.7-.35,1.55.7,2.77.93,3.7v5.1c1.29,4.61,5,6.62,8.33,9.26A14.39,14.39,0,0,1,352,99.47l-.11.16h.25a6.29,6.29,0,0,0,2.66,2.14H357l.08-.13,3.28.1c7.64,2.13,19.68,2.29,28.22.91a8.32,8.32,0,0,1,2.29,0l.73,1h4c2.27.57,4.44,1.12,6,.9a81.85,81.85,0,0,0,22.9-.9c3.82-.75,10.32,2.25,13.42,1.39a70.85,70.85,0,0,0,13-5.56c1.66-.86,4.09-.27,5.56-1.39.91-.69,1.31-2.54,2.31-3.24s2.35-.58,3.24-1.38a1.86,1.86,0,0,0,.39-.91c.11-.4.22-.8.54-1H467l8.46,5.76a6.65,6.65,0,0,0,.78.8c-.51,3-1.22,6.15-1.87,9.27a3.6,3.6,0,0,1,1.16,2.67c-2.31,2.61.48,3.58,0,6.48-.2,1.18-1.94,3.88-2.32,5.09v3.71c-.53,1.92-2.24,4.13-.92,6.94.46.46.92.93,1.39,1.38v5.56l-1.39.46c-.93,1.82,1.15,3.91,1.39,4.63.87,2.78-2.26,5.08-2.31,7.41,0,.42,1.24,2.69,1.38,3.24.88,3.28.5,7,.46,9.71l.93.93c1.11,3.61,2,8.11,1.39,11.57a8.22,8.22,0,0,0-1.85.93c1.41,1.79,1.16,4.71.93,6.94-.29,2.72,2,4.87.92,8.33s-4.75,6.66-5.55,10.19c1.26,1.38,3.61,6.77,3.7,9.25-.75.63-.52.3-.93,1.39,7.06,1.4,3.78,5.72,5.56,11.57.43,1.42,1.93,1.88,1.39,3.24-.21.52-2.93,3.47-3.24,1.39v4.63a4,4,0,0,1,3.58,1.78c-.23.66-.48,1.3-.73,1.92h-.54l.5.1c-.4,1-.81,2-1.15,2.81l.54,1.2c-.22,3.77-1,8.29-2.75,11.32a8,8,0,0,0-2.06.22c.69,2.17-.57,4.81-1.57,6.82-1.23,2.45.2,5.28-2.06,8.13s-6.79,4.57-8.77,7.59l0,.07a3.29,3.29,0,0,1-.5-.12,6.1,6.1,0,0,1-.46,3.24l-.93.93c-.81-.29-.45-.09-.93-.46l-2.36.67c-.11-.58-.22-1.15-.34-1.68.16-1.08.31-2.16.47-3.24-1.18-4.36-5.06-8.32-6.48-12.49,4-4.08-1.31-7.08-1.85-10.65l3.23-3.24a12.66,12.66,0,0,0-1.39-5.55c-7.57-3-5.27-7.17-9.25-13-1-1.46-2.51-.92-4.17-1.85-.57-.32-1.17-1.4-.46-1.86h-1.85c-2.29-1.64-3.51-5.53-6-6.94-.48-.27-.62.57-1.39,0a18.34,18.34,0,0,1-1.85-5.09h-1.86c-2.06-5.33-4.93-2.7-7.86-5.09v-1.39l-2.78.46c-1.53-.65-3.21-3.66-5.09-4.62l-4.17-.47c-1.38-.49-2.76-2.32-4.16-2.77l-4.17.46c-1.85-.59-1.83-3.2-3.23-4.17-.77-.52-8-1.61-8.8-1.39-1.63.46-2.57,1.64-5.09,1.86-1.28-2.51-7.91-6.87-10.65-7.87-2-.73-3.47-.22-5.09-.93-2.31-1-5.57-3-7.87-1.39-.25.26-5.55,7.41-5.55,7.41-.82,2,.67,5.1.46,6.48-.15,1-1.59,2.27-1.85,3.24-.71,2.63.76,3.64.93,6A18,18,0,0,1,345.3,213a4.87,4.87,0,0,0-.47-2.78v.46c-1.73,2.86-1.27,8.56-2.31,11.11.19.43.68-.39.93.46-1.17,2.48-3.67,5.86-1.85,10.65l3.23,3.24c.16,1.85.31,3.7.47,5.55.6,1.45,2.64,2.81,3.24,4.17,1,2.28,1.67,13.12.92,15.27-.56,1.63-2.32,2.79-3.24,4.17h.93c1.63.79,2.88-1,5.09-.47l3.71,1.86c-.37,3-.83,5.59,0,9.72l.46-.47c.32-.65.06-2.38,0-4.16,1,.17.89.11,1.39.46.75,1.07.89,2.87.92,4.63,1.51.38.71-.23,1.39.93-.31.35-.6,1-.92,1.38-1.38.86-2.86.38-3.71,1.85h1.85a4.12,4.12,0,0,1,2.32-.46c1,1.4,2.09,3.22,3.24,4.63v.46l3.24.47c.7.6.79,2,1.38,2.77,1.07,1.39,5.79,3.64,6.95,6.95-1.33.64-1.78.79-2.32,2.31,4.55,1.17,3.46,3.75,6.48,4.63v-.47c1.28-.22.55.26.93.93,1.34,1.07,1.9,3.15,2.32,5.09,2.06-.38,3.16-.36,4.62.93a6,6,0,0,1,.57.7,55.62,55.62,0,0,0-5.28,3.08c-3.22-1.38-7,.51-8.33,0-2.18-.88-5-3.53-6.48.46h.47c3.09,3.7,7.25.7,11.1,2.31a11.17,11.17,0,0,1,1.39,4.17c-2.88.05-3.27.08-6,0v1.39c2.52.61,3.74,2,5.55,3.24-.29.81-.09.45-.46.92-1.18,4.74-4.85,8.75-6.94,13-1.18-.14-2.65.16-2.78,0-5.45-3.62-6.54-10.85-11.11-15.27-5.81-5.62-20.23-7.78-29.62-6.94v-2.32l-1.39-.46a29.25,29.25,0,0,0-6.48-.47c-.17-.95-.11-.88-.46-1.38v.46c-1,.87-.56,1-2.32,1.39-1.48-1-4.34-.75-4.62-.93-.73-.44-1.4-2.3-2.32-2.77-2.45-1.26-5.29,0-8.33-.93-1.17-.36-3.73-1.5-5.09-1.85h-4.63c-1-.34-4.67-1.93-5.55-2.78-5.5-5.26-15.64-6-22.22-10.18a179.24,179.24,0,0,0-37.49-18c-6.68-2.25-13-2.52-19.9-4.63-8.79-2.67-16.86-8-25.46-10.18-5.19-1.35-20.48.2-23.6,1.85-1,.51-2,1.7-3.24,2.31a6.55,6.55,0,0,1-.47,2.31c-1.83-.54-1.67-.78-3.7-.46v1.39a3.9,3.9,0,0,1,.46,2.31c-2.68,1.56-5.8,2-8.79,4.17-2.17,1.59-3.68,4.52-5.56,6.48,0,4.63,2.06,5.51,2.78,8.33.67,2.63-1.75,4.25-1.85,7.41.9.94,1.21,2,2.31,2.77,2.49,2,10.53,1,14.82.47v.92c-2.43,1.51-3.74,3.34-3.71,7.41,1.71,1.84,2.42,6.2,4.63,7.4h2.31c.88.52.75,2.33,1.86,2.78,1.71.7,4-.75,5.09-.46L167,320c5.91,2.48,12,4.65,19.9,4.62a16.14,16.14,0,0,1,0,5.1c-2.52-.09-3.91.05-4.63,1.84-1.71,2.41-.7,7.13-3.7,8.34-1.95,1.79-3.38.21-5.09.92-1.88.7-1.59,1.11-1.39,2.78,5.65.46,4.25,4.06,6.48,7.87.89,1.53,3.89,1.89,5.09,3.24.81-.29.45-.09.92-.47.56-.81.35-1.18.93-2.31,2,1,8.69,5.33,9.26,7.41-1.05.68-1.8,1.5-1.39,2.31.52,1.87.84,2.24,3.24,2.31,2.27,1.46,6-.78,9.26-.92l.46.47c-2.33,2.31-4.18,2.48-4.17,7.4,1.21.81,8.56,6.88,9.26,7.87a7.1,7.1,0,0,1,1.85-.93c1.76,2,4.09,2.19,5.09,5.09-.93.65-1,.63-1.39,1.85,1.55,1,1.48,1.71,4.17,1.85.71.34.06.07,1.39,0-.11,2-.31,3.42.92,4.17,1.21-1.64,2.91.65,4.63,0l.46-.46c-.89-.77-.77-.67-.92-2.31h.92a4,4,0,0,1,2.32-.47v.93c1.06,2.06-2,5.06-2.32,7.87l.47.46,2.77.46c1.33-1.38,2.49-2.63,5.1-2.78.78.53,2.26.5,3.7.47.31-1.39.61-2.78.92-4.16h1.86c1.31,2,2.64,3,3.7,5.55,8,0,5.55,4.21,10.64,5.09A2.54,2.54,0,0,1,259.6,400c.71,1.22.85,1.61,1.85,1.39,2-.64,2.84-2,4.16-3.24.16-2.16.31-4.32.47-6.48-.85-2.43-2.82-2.72-2.78-5.55l.46-.47c3.88-.46,4.33.92,7.41,1.85,0-2.08-.15-2.14,1.39-2.77,2.46-1.75,7.55,1.11,8.33,2.77s-.66,2.25-.93,3.7l.93,4.17c4.41,2.93,9.25,5.11,15.74,3.7v-1.85q-1.39-4.39-2.78-8.79c3-2.08,4-6.32,8.79-6.48a4.75,4.75,0,0,0-.93-3.24c-2.52-2.46-7.71-2.6-7.86-7.41,3.2-3,.42-6.9.92-10.64a22.07,22.07,0,0,0,3.7-1.39c1.11-1.59.78-2.92,2.78-3.7,1.22-.79,3.41.15,5.09-.46,1.1-.41,3.08-2.58,4.17-2.78,5.87-1.09,13.48,5.38,17.12,6.94l7.61.85a1.46,1.46,0,0,0,0,.21c.14,2.09,1.44,1.52,2.34,3l-.1.36c.34.78-.16,1.41,0,2.37.45,2.15,2.52,3,2.28,5.75-3,.32-3.69,1.06-4.71,5.34,1.72,2,.6,3.95,1.62,5.56l5.31,3.86c.21.25,2.7,9,2.67,9.39-1,.47-.7,1.13-1.6,1.9-1.73,1.46-1.85-1.17-3,3.08.08.15.15.3.23.46l3,.84c.43.53.83,3.14,1.38,3.92s2,1.51,2.11,2.56l-.92,3.27-2.64-.74c-1.46-5.92-6.85-9.89-14.39-11.93-.21.33-.42.67-.64,1-5.62,5.3,4.2,13,4.52,15.41.44,3.18-2,4.66,1.52,5.93a2.69,2.69,0,0,1,1.73-1.08,16,16,0,0,0,.43,6c1.15,3,5.78,5.67,5.52,9.41-1.86.48-1.81,3.59-3,5.44,1.56,1.2-.1.84.27,2.83.7,3.78,4.77,6.53,3.47,11.58l-.43.27a13,13,0,0,0-4.48-.48c-1.73,1.81-3.57,2.67-4.48,5.8,2.78,2.42,2.2,4.48,3.51,7.66.39.94,1.4,1.85,1.69,2.84.48,1.69-.32,4.18,1,5.37a6,6,0,0,0,2.76,1.57C342,483,346,483.49,345.93,487c-.77.4-.55.19-1.07,1.27,1.85,1.66,4.87,3.08,6.85,4.69.1.95.31,1.54.37,2.46a5.51,5.51,0,0,0-3.34,3,10.4,10.4,0,0,0,3.19,1.3,3.42,3.42,0,0,1,2.08.19c.35,2.06.33,4.57,1,6.56l1.78,2.47-.52,1.82a19.91,19.91,0,0,0,1.71,4c.59.79,1.45,1,2,1.75a2.77,2.77,0,0,1,.3,1.49l0,.19,2.67.76c-.23.8-.45,1.6-.68,2.4a3.87,3.87,0,0,1,2.11,2.51c.41-.13.16-.25.48,0s.43.31.36,1a3.85,3.85,0,0,0-2,.83c-.17-.31-.23-.33-.64-.52a2.64,2.64,0,0,0-.47.55c.46.63.34,1.7.76,2.3.67,1,2.15,1.53,2.55,2.63.3.81.08,1.87.53,2.57l.68.37c.33.67.66,1.34,1,2l1.06.65c.27.45-.3,1.12.37,2a4,4,0,0,0,2.15,1.3,35.12,35.12,0,0,1-.8,3.94,10.13,10.13,0,0,1,.89,1.29c.65-.1.52-.43,1.34-.32.33,1,.87.91.38,2.54.34.54-.06,1.43.23,2l.68.36c.4.6.52,2.12,1,2.7l1.17.85c.3.53,0,1.14.13,1.77.1.36.55.27.78.57,0,.24.07.48.11.72a8.16,8.16,0,0,0,2.11,2.5,15.52,15.52,0,0,0-.32,3.9c.35,2,3.42,6.56,5.62,7.31.55-.24,1,.25,1.69.13.43-.07,1.19-.44,1.72-.55a5.71,5.71,0,0,1,.6-1.56c1.16-.21,4.6.44,5.19-.61.52-.6,0-1,0-1.57,0-.9.75-1.19,1-2a7.86,7.86,0,0,1-1.39-2.3c-.33-1.22,1.16-3.78,1.65-4.73-.59-.23-.54-.12-.59-.69,1.28-.63,2.15-2,2.73-4.08a5.25,5.25,0,0,1-.68-3.13c.39-.2.49-.5.95-.6.36.7.91.68,1.51,1.29,1,1,1.94,3.38,3,4.32l1.75.49c.15.15,0,.56.11.73.28.48,1,.68,1.22,1.21.57,1.42.42,3.24,1,4.63s2.45,1.29,3.61,2.23c.38.31.36.66,1,1-.05.16-.1.32-.14.48,1,1.33,1.34,3.28,3.44,3.92.17-.26.07-.15.23-.28,0-.31,0-.17-.05-.36a6.88,6.88,0,0,0-.58-2.42c-.18-.28-.35-.56-.54-.84.17-.59.33-1.18.5-1.77a14.82,14.82,0,0,0-.7-4.18c-.34-1.09-1.6-1.63-1.49-3l.29.09c.77.61.54-.58,1.09-1.08a29.76,29.76,0,0,1,3.52-2,14.38,14.38,0,0,1,4.71-1.09c1.23,0,2,.53,3.14.54a5.08,5.08,0,0,1,2.56.38,5.64,5.64,0,0,0,1.06.65c.48,1.79,1.7,2.09,2.33,3.43a11.77,11.77,0,0,1,.31,1.65c.18.57.92,1,1.14,1.53s.08,1.17.31,1.65.84.75,1.23,1.21a7.85,7.85,0,0,1,1.27,3.82c1.44.43,1.44,1.16,2.1,2l.44.12c.11.18-.05.71.06.88.24.36.65.16.78.57.27.83-.13,2.13.29,2.85.18.31.71.34.93.61s.24.71.64,1a2.74,2.74,0,0,0,.48-.56,1.24,1.24,0,0,1,0-.68l1.85.69.28-.44a2.56,2.56,0,0,1,.48-2.81,3.83,3.83,0,0,1,4,.27A2,2,0,0,1,449,569.5c.28.34.93.5,1.17.85.25,1,0,1.23,1.28,1.57a16.13,16.13,0,0,1,1.11-2.28c.62,0,.9-.38,1.53-.43,0-.06,0-.11,0-.16-.69-.06-.64-.12-1.12-.49-.32.34-.18.32-.71.32-.41-.66-1.11-.58-.94-1.66.39-.56.65-1.89,1.35-2.56l.86-.27c.53-.43,1.06-1.19,1.66-1.44l1-.07c.63-.45.84-1.22,1.81-1.4,1.18-.22,2.82.66,4,.27.3-.34,0-.52.52-.72,0,.05,0,.1-.05.16a3.29,3.29,0,0,1,.11.72c2-.3,2.3,1,3.92,1.11s3.93-.11,5.13,1.28,1.17,3.2,2.48,4.51c-.07.45-.14.89-.22,1.33a3.73,3.73,0,0,0-.9.43c.16.57-.17,1.25-.07,1.89l.35.45-.74,2c0,.47.39.83.37,1.49.34,0,.34-.1.58.17.42,1.12.42,2.44.88,3.53a24.27,24.27,0,0,0,1.29-6.21c.89.14,3.73.11,4.32-.34.25.73,3.6.93,4.45.91l7.4,2.1c.14-.1.3-.31.43-.4l-.18.64a10.45,10.45,0,0,1,5.25,3l-.09.32-.29-.08c-.19.07-.16.06-.48,0-.17-.4-.35-1.07-.59-.68a2.18,2.18,0,0,1-1.15.19,4,4,0,0,0-2.14-1.3c-.19.64-.37,1.28-.55,1.92l.29.09c.3-.85.43-.78,1.24-.52,0,.16-.09.32-.13.48a1.89,1.89,0,0,0,1.07.65c.54-.14.63.22.73.73.93-.52,1.3-.21,2.61.22,0,0,0,.1-.05.16a4.1,4.1,0,0,0-2,1.67,22.74,22.74,0,0,1,1.62,2c.2.57-.46.24.07.89s2,.64,3.05.86c.2.59.54.63.93,1.13a20.16,20.16,0,0,1,1.15,2.58,7.43,7.43,0,0,0-.63,2.77c.45.05.26-.21.39.28A4.33,4.33,0,0,0,501,596c.76.7,2.24,1,2.4,2.06.06.21,0,.18,0,.52l.73.21c0,.47.41.81.45,1.17-.26.91-.52,1.81-.77,2.72-1-.06-.69.43-1.49.28-.44,1-.87,1.95-1.3,2.92-.06,1.4.77.85-.05,2.93l.15,0a.76.76,0,0,1,.77,0,1.42,1.42,0,0,1-.17,1.16c-1-.26-1.59-.08-1.91,1.2.25.61.16,1.22.8,1.61.35-.21.2-.27.48,0,.85.63.62,1.88.15,3.34a3.31,3.31,0,0,1-1.2-.17c-.45,1.59-.14,2.08-.61,3.81-.63.3-.78.81-1.62.75-.21-.72-.48-.85-1.13-1-.1.37-.21.75-.32,1.13a4.64,4.64,0,0,1,.85,1.44,4,4,0,0,1,.81-.11c.27-1.18.46-1.57,1.47-1.32.15.2.32.25.68.37.43,1.06,1.38,1.89,1.45,3.18-.07.27-.15.54-.22.8a4.24,4.24,0,0,1,.08,1.93c-.46.06-.38.16-1,.08-.25-.23-1.34-.08-1.89-.54-.34-.28-.24-.55-1-.81a6,6,0,0,0-.59,1.57,1.5,1.5,0,0,0,.78.57c.7-.38,2.44.49,3.62,1-.13.48-.27,1-.4,1.44-.88-.32-3-.67-3.63-1-.85-.46-1.12-1-2.05-1.1,0,.11-.06.21-.09.32a2.48,2.48,0,0,0-.46,1.08,5.31,5.31,0,0,0,2.38,1c.53-.17,1.72.39,2.32.66l.27-1,.44.12-.27,1,.87.25a1.86,1.86,0,0,0,.1.2c-.51,3.26-1.24,3.4-3.15,4.48,1,.59.59,2.31.68,3.14.41-.13.16-.25.48,0a1.36,1.36,0,0,1,.74,1.25c.44,1.58-.49,3.48-1.1,5.58l.68.36c-.09.33-.19.65-.27,1-2.67.63-2.35.22-4.2,2.62a5.69,5.69,0,0,1,.28,1.81c1,.26,1.41.38,2.46.7.29.75.89.85.71,1.93-.16.14-.13.13-.28.44l-.87-.24c-.33,1.11-.7,1.2-1.07,2.12.6.24.72,1.06,1.46.93.55-.09,1.18-1,1.92-.15,1.38,1,1.62,5.56,1.44,7.69-.11,1.27-1,1.36-1.06,2.64-.12,2.11.35,4.42-.27,7l-.44-.12c-.32.43-.7.28-.95.59l-.81,2.89c.39.62.1,1.32.36,2,.14.37,1,1.45,1.09,1.7l-.27,1c.06.31.43.58.5,1a9,9,0,0,1,2.48,1.22,2.14,2.14,0,0,1,0,1.73,4.84,4.84,0,0,1,1.75,1c-.07.27-.15.54-.23.81s.05.17,0,.52c.45.11.43,0,.58.16a1.61,1.61,0,0,1,.41,1.33c1.42.22,1.76,1,2.63,1.78-.57,2.07.2,2.82.32,4.43l.29.08.18-.65c.57.29.77.75,1.27,1.06,1.5.92,3.22.74,4.6,1.47a17.35,17.35,0,0,1-.35,7.35,3.76,3.76,0,0,1,.75,1.77,5,5,0,0,1,2.56.38c-.22.66-.38,1-.07,1.37.79,1,2,.22,2.61.74s1,1.7,1.58,2.18,2.16.41,3,1c-.18.56-.19.41-.22.8a1.62,1.62,0,0,1,.34.45l.29.08.09-.32c.23-.3.17-1,.45-1.61l.73.21c1.17,1.69,4.32,2.15,3.79,4.89.06.4-.31.54-.6,1,.51.52.06.58.26,1.28.07.26.37.11.53.33.47.61.52,1.81,1.06,2.37s1.06.52,1.75,1c.24.17.57.74,1,.81.77.12,1.4-.35,2.26-.22.29,1,.91,1.38.63,2.77-.53.13-1.44.44-1.38,1,0,.94.48,1.52.52,2.06-.12.77-.23,1.55-.35,2.32,3.24,1.26,3.72,4.92,7.65,2.34a21.22,21.22,0,0,1,2.53,1.58c1.6,1.6,2.35,3.84,3.37,5.81a14.22,14.22,0,0,1,1.09,1.7c.11.5-.18.91-.07,1.36.38,1.57.62,3.1,1,4.79.26,1.2,1.17,5.62-.31,7.71-.11.17-.66.43-.8.64A18.71,18.71,0,0,1,547,762c-.49.47-2.28.77-2.68,1.15-.1.37-.21.74-.31,1.12-.36.47-1.3.86-1.62,1.27l-.72,2.57a12.89,12.89,0,0,0-1.07,4.89,10.43,10.43,0,0,1,1.32,1.42c.12.19-.05.68.06.88.32.57,1.36.86,1.81,1.38l.21.92c.3.41.73.68.93,1.13s.06,1.31.23,2l1,1.86,1.12.49c0,.23,0,.45,0,.68l1.6.45c-.11.55-.21,1.1-.31,1.65.63.41.73,1.17,1.28,1.57l1.16.33a20,20,0,0,1,2,1.94c1.26,1.22,1.91.08,2.39,2.06.34-.14.19-.17.68-.15a6.37,6.37,0,0,1,.17,1.61,12.11,12.11,0,0,0-1.29.67,2.43,2.43,0,0,1,0,.68l.44.12c0,1.09.89,1.31.67,2.62l.87.25.19-.12c.15-.48.23-.41.18-.65a2.77,2.77,0,0,0-.26-1.28,2,2,0,0,1,1-.76c.78-.34,1.66.23,2.51.54-.26,1.4.82,3.19,1,4.71H600V0ZM337.67,355.54l-.36,1.26c0-.35.05-.74.05-1.21h-.46c.15-.16.3-.31.46-.46a3.42,3.42,0,0,1,3.1-.76Z"/></g><path class="cls-5" d="M477.55,277.59a15,15,0,1,1-15-15,15,15,0,0,1,15,15"/><path class="cls-6" d="M470.25,277.59a7.7,7.7,0,1,1-7.69-7.7,7.69,7.69,0,0,1,7.69,7.7"/><path class="cls-5" d="M285.67,107.48a10,10,0,1,1-10-10,10,10,0,0,1,10,10"/><path class="cls-6" d="M280.67,107.47a5,5,0,1,1-5-5,5,5,0,0,1,5,5"/><path class="cls-5" d="M365.38,267.59a10,10,0,1,1-10-10,10,10,0,0,1,10,10"/><path class="cls-6" d="M360.38,267.59a5,5,0,1,1-5-5,5,5,0,0,1,5,5"/><path class="cls-5" d="M476.64,556.51a10,10,0,1,1-10-10,10,10,0,0,1,10,10"/><path class="cls-6" d="M471.65,556.5a5,5,0,1,1-5-5,5,5,0,0,1,5,5"/><path class="cls-5" d="M555.41,741.17a10,10,0,1,1-10-10,10,10,0,0,1,10,10"/><path class="cls-6" d="M550.41,741.17a5,5,0,1,1-5-5,5,5,0,0,1,5,5"/><path class="cls-5" d="M368,85.17a10,10,0,1,0,10,10A10,10,0,0,0,368,85.17Z"/><path class="cls-6" d="M368,90.17a5,5,0,1,0,5,5A5,5,0,0,0,368,90.17Z"/><text class="cls-7" transform="translate(412.4 327.86)">KOTOR</text><text class="cls-8" transform="translate(355.9 249.21)">tivat</text><text class="cls-8" transform="translate(372.54 127.18)">perast</text><text class="cls-8" transform="translate(418.21 750.47)">petrovac</text><text class="cls-8" transform="translate(425.18 538.1)">budva</text><text class="cls-8" transform="translate(218.53 144.48)">morinj</text></g></g></svg>