<svg xmlns="http://www.w3.org/2000/svg" xmlns:xlink="http://www.w3.org/1999/xlink" width="759" height="1207" viewBox="0 0 759 1207"><defs><clipPath id="a"><rect width="759" height="1207" opacity="0.736" fill="#fff" stroke="#707070" stroke-width="1" transform="translate(9171 10508)"/></clipPath></defs><g transform="translate(-9171 -10508)" clip-path="url(#a)"><g transform="translate(9025 10508.001)"><g transform="translate(0 -0.001)"><path d="M0,0V1207H905.249V0Z" transform="translate(0 0.001)" fill="#fff"/><path d="M394.986,305.563" transform="translate(200.948 155.456)" fill="#d6eeee"/><g transform="translate(0 0.002)"><path d="M561.536,800.387l5.913-1.148h-5.958A4.708,4.708,0,0,1,561.536,800.387Z" transform="translate(285.658 406.611)" fill="#d6eeee"/><path d="M337.541,355.214c-.234.228-.471.46-.7.694h.7c0,.714-.03,1.293-.071,1.821l.536-1.892,4.22-1.771A5.173,5.173,0,0,0,337.541,355.214Z" transform="translate(171.368 180.075)" fill="none"/><path d="M0,0V300.629q1.711,1.865,3.422,3.733c1.355,1.036,3.345,1.358,4.191,2.8,4.179,7.1,7.864,19.037,16.761,20.949.51,4.173,1.895,11.023,4.187,13.965,1.4.7,2.8,1.4,4.191,2.1,1.166,1.543.376,3.819,1.4,5.585,1.082,1.868,4.436,1.91,5.587,3.494,3.057,4.2,3.817,9.243,6.981,13.266,2.517,3.194,15.4,9.485,19.553,12.572,4.573,3.383,8.042,9.051,11.874,13.262C84.019,398.812,92,403.862,98.39,409.809c-.984,3.843-2.411,8.143-2.791,13.265,5.75,3.19,6.4,6.586,10.472,9.778,1.984,1.553,4.238,1.976,6.285,3.5,1.26.929,1.6,3.271,2.8,4.184,1.162.235,2.328.471,3.49.7.8.673.427,2.953,1.4,3.494q3.139.349,6.284.7c2.7,1.135,4.526,4.493,6.978,5.587H136.8c5.419,1.726,9.451,4.081,16.761,4.193v-1.4h-.7c-2.239-6.331-10.43-7.459-16.059-10.474-6.776-3.632-10.083-11.282-16.061-15.365-5.326-3.633-16.445-10.287-18.158-16.759,1.234-1.4-1.8-18.384-2.094-23.74,4.354-2.511,7.7-4.991,9.077-10.477.812-3.239-.708-7.458.7-9.775.822-.563,1.177-.542,2.791-.7,4.342,4.335,17.652,5,20.25,2.793,2.182-1.384,2.687-1.973,2.8-5.587.525-.75.416-.658.7-2.093q4.187-.351,8.378-.7c-1.678-10.582-7-14.33-13.966-19.553q-2.444-2.79-4.885-5.587c-1.5-.533-3.989.094-6.284-1.4-3.568-2.311-3.235-9.065-6.291-11.872-3.167-2.91-8.014-3.367-10.472-6.984-2.449-3.592-3.191-7.705-5.587-11.174-2.645-3.831-11.252-18.081-9.774-23.74,2.936-11.243,12.981-17.2,22.345-22.346,2.151-1.181,3.41-5.561,7.683-4.19,1.623.519,11.652,5.816,12.569,6.984,1.417,1.8,1.056,5.566,2.791,6.981h2.8c1.13.776,2,2.9,3.488,3.491h3.494q1.743,2.1,3.49,4.19a49.914,49.914,0,0,0,8.383,3.491v1.4l-4.89.7v1.4h1.4c4.816-3.076,7.044,1.346,11.174.7,2.874-.45,8.2-4.158,11.169-3.491,4.786,1.073,14.931,5.744,22.351,2.791,1.77-.7,4.342-3.349,6.285-4.19q2.093-.349,4.187-.7,2.8-3.49,5.588-6.979h13.966c2.145,2,3.417,1.605,6.285,2.1,2.4,5.164,8.3,8.4,11.874,12.571,3.316,3.868,4.989,11,9.077,13.966,2.969,2.156,7.711,1.854,9.78,4.884.229,1.166.465,2.328.7,3.494.765,1.249,13.909,12.269,15.361,12.568.938.442,3.016-.45,5.588-.7,1.583,2.262,2.53,1.23,4.888,2.793,2.2,1.464.641,4.3,3.49,5.588.751.522.661.418,2.094.7v2.791a14.935,14.935,0,0,0,4.888.7c1.085-.732,2.85-.723,4.891-.7.748-2,.848-3.223,2.79-4.187,3.9-2.176,8.979,1.892,15.362-.7,1.166-1.4,2.327-2.8,3.494-4.191,1.632-1.073,3.834-.33,5.588-1.4,1.215-.739,1.073-3.469,2.094-4.193,2.15-1.524,10.383-.246,11.872-.7.709-.213,2.578-2.456,3.491-2.791,2.924-1.073,5.419,1.307,6.981.7.463-.7.932-1.4,1.4-2.1,2.152-1.2,7.806-2.743,9.774-3.488,2.247-.848,3.585,1.257,5.588,0,1.551-.973,2.485-4.516,4.187-5.584,3.494-2.2,8.624-1.373,11.874-3.491.294-.193.585-.388.872-.587l1.839-9.974a33.35,33.35,0,0,1,8.455-2.957c1.623,2.387,3.5,2.814,4.193,6.284a10.772,10.772,0,0,0-5.587,4.191h1.394c2.761-3.451,8.15-4.562,9.78-9.078-2.606-1.193-1.45-.178-1.4-2.794,4.7-4.158,7.461-11.9,12.571-15.364,3.837-2.594,8.289-1.693,13.266-3.49,2.072-.75,3.28-3.131,4.888-4.191,3.073-2.019,8.307-1.969,12.571-2.791.229-.7.463-1.4.7-2.094.507-.922-.374-2.627-.7-4.89-3.348-.617-4.6-1-4.888-4.891,1.388-2.185,0-5.742,1.394-8.377.934-.466,1.865-.934,2.8-1.4q1.043-3.148,2.093-6.285c2.09-3.214,8.472-5.54,9.775-8.378,1.288-2.044.8-5.717,2.1-7.681,2.755-4.176,10.747-10.852,11.866-16.062-.557-.717-.244-.193-.7-1.4-10.266-5.783-21.314-12.652-32.117-18.155h-8.384c-2.85-1.012-5.027-4.575-8.381-5.585-5.08-1.531-9.842-.281-14.481.2l1.918-10.427v-2.1c2.043-3.392,1.246-11.153,4.187-14.662.9-1.076,2.112.033,3.494-.7q2.444-2.442,4.885-4.885h3.494c3.215-1.687,5.908-10.347,8.378-13.268l2.1-.7c1.24-1.717,1.014-4.482,2.791-5.585q4.54-1.4,9.077-2.8c.235-.7.471-1.4.7-2.094,4-1.91,13.1.527,18.158-1.394,1.58-2.959,1.361-5.389,2.8-8.38.572-1.207,2.865-2.7,3.488-4.193q.348-2.79.7-5.587c1.163-1.605,4.529-1.655,5.587-3.488.863-1.5-.256-3.743,0-4.191a21.1,21.1,0,0,1,18.152-10.472l.7.272c2.69-1.189,5.436-2.316,8.209-3.395a23.669,23.669,0,0,0,5.16,3.241q1.838-1.039,3.684-2.059c2.755,1.317,5.053,2.443,5.1,3.36-1.854,2.225-6.417,7.7-6.985,10.475,1.352,1.628,1.9,3.463,2.1,6.284-1.833.951-3.333,1.385-4.193,3.493-1.6,2.734.524,8.52-.7,12.569-.475,1.6-2.431,3.971-2.8,5.59-.527,2.337,1.05,4.179,1.4,5.582v7.684c1.945,6.954,7.575,9.986,12.568,13.968a22.341,22.341,0,0,1,3.46,4.2l-.167.246.371.012a9.526,9.526,0,0,0,4.019,3.227h3.253l.124-.2,4.943.158c11.53,3.214,29.691,3.458,42.574,1.364a13.078,13.078,0,0,1,3.456-.009c.367.492.738.984,1.106,1.477H596.8c3.419.868,6.7,1.691,9.036,1.367a123.461,123.461,0,0,0,34.55-1.367c5.76-1.124,15.573,3.395,20.253,2.093,6.613-1.838,13.977-5.457,19.552-8.378,2.5-1.307,6.171-.41,8.378-2.094,1.373-1.049,1.98-3.837,3.494-4.888,1.533-1.067,3.546-.875,4.885-2.094a2.859,2.859,0,0,0,.59-1.367c.158-.605.336-1.206.81-1.43h6.177l12.766,8.687a9.123,9.123,0,0,0,1.178,1.2c-.773,4.594-1.851,9.28-2.823,13.991.851.76,1.494,1.69,1.738,4.033-3.476,3.939.732,5.4,0,9.775-.294,1.779-2.919,5.849-3.491,7.681v5.59c-.8,2.9-3.383,6.233-1.394,10.469q1.043,1.052,2.1,2.094v8.381q-1.057.353-2.1.7c-1.406,2.738,1.747,5.895,2.1,6.982,1.32,4.187-3.407,7.654-3.49,11.169-.018.646,1.871,4.062,2.09,4.89,1.326,4.953.754,10.534.7,14.664.471.469.931.932,1.4,1.4,1.672,5.447,3.027,12.227,2.093,17.456a12.212,12.212,0,0,0-2.79,1.4c2.124,2.707,1.747,7.108,1.4,10.477-.436,4.1,3.082,7.349,1.394,12.571-1.716,5.306-7.173,10.05-8.375,15.362,1.9,2.082,5.45,10.216,5.585,13.966-1.138.941-.786.447-1.4,2.093,10.658,2.1,5.7,8.636,8.381,17.461.653,2.13,2.925,2.829,2.1,4.884-.318.788-4.418,5.232-4.888,2.1v6.979c1.918-.364,3.957.859,5.4,2.687-.347,1-.717,1.966-1.1,2.9h-.81l.754.142c-.616,1.518-1.234,2.954-1.738,4.247.275.6.545,1.2.819,1.8-.346,5.688-1.456,12.511-4.161,17.081a12.193,12.193,0,0,0-3.1.327c1.038,3.28-.857,7.269-2.372,10.3-1.85,3.69.312,7.966-3.1,12.263-3.472,4.368-10.244,6.893-13.235,11.447.015.033.027.08.041.116a7.492,7.492,0,0,1-.751-.181c.039,2.025.032,3.82-.7,4.887-.471.468-.931.932-1.4,1.4-1.225-.439-.68-.13-1.4-.7l-3.559,1.011c-.166-.875-.336-1.726-.51-2.524.229-1.629.468-3.26.7-4.89-1.771-6.577-7.63-12.551-9.775-18.852,5.991-6.151-1.966-10.674-2.793-16.064q2.444-2.444,4.882-4.887a19.315,19.315,0,0,0-2.093-8.381c-11.421-4.558-7.953-10.812-13.968-19.555-1.515-2.2-3.775-1.379-6.285-2.791-.86-.483-1.765-2.1-.7-2.793h-2.793c-3.451-2.479-5.29-8.354-9.083-10.475-.727-.41-.925.855-2.094,0a27.841,27.841,0,0,1-2.791-7.68h-2.8c-3.11-8.046-7.447-4.071-11.868-7.681v-2.1c-1.4.234-2.8.469-4.19.7-2.313-.987-4.851-5.528-7.682-6.982-2.094-.232-4.184-.466-6.285-.7-2.093-.745-4.172-3.508-6.285-4.19-2.093.235-4.19.463-6.285.7-2.8-.89-2.758-4.834-4.882-6.285-1.156-.786-12.05-2.435-13.272-2.1-2.452.685-3.878,2.467-7.683,2.794-1.927-3.782-11.928-10.362-16.059-11.868-3.015-1.1-5.237-.332-7.683-1.4-3.488-1.518-8.413-4.591-11.872-2.091-.377.389-8.381,11.174-8.381,11.174-1.237,3.045,1.017,7.692.7,9.775-.222,1.479-2.4,3.426-2.791,4.89-1.067,3.962,1.147,5.5,1.4,9.077a26.257,26.257,0,0,1-4.193,2.1c0-1.9-.024-3.212-.7-4.188v.7c-2.622,4.311-1.916,12.918-3.488,16.756.278.646,1.017-.579,1.4.7-1.756,3.745-5.528,8.837-2.793,16.065q2.435,2.442,4.882,4.884.353,4.2.7,8.38c.907,2.188,3.989,4.238,4.888,6.29,1.518,3.449,2.526,19.795,1.4,23.043-.848,2.45-3.509,4.208-4.884,6.287h1.4c2.455,1.2,4.338-1.471,7.68-.7l5.59,2.794c-.551,4.6-1.249,8.446,0,14.665.231-.231.46-.463.7-.7.486-.981.1-3.6,0-6.285,1.447.259,1.347.169,2.1.7,1.141,1.62,1.346,4.327,1.394,6.984,2.274.576,1.07-.339,2.1,1.4-.477.539-.913,1.56-1.394,2.1-2.078,1.3-4.31.56-5.593,2.791h2.8c.907-.61,1.726-.626,3.494-.7,1.435,2.115,3.15,4.858,4.884,6.983v.7q2.444.348,4.888.7c1.061.91,1.2,3.03,2.093,4.191,1.605,2.088,8.731,5.487,10.478,10.474-2.013.969-2.687,1.206-3.493,3.491,6.851,1.77,5.216,5.655,9.775,6.981v-.7c1.924-.341.825.391,1.4,1.4,2.016,1.607,2.861,4.751,3.494,7.681,3.113-.575,4.771-.543,6.978,1.393a9.418,9.418,0,0,1,.852,1.061,86.427,86.427,0,0,0-7.954,4.642c-4.86-2.073-10.632.78-12.571,0-3.286-1.317-7.575-5.326-9.775.7h.7c4.671,5.587,10.941,1.058,16.756,3.494a16.924,16.924,0,0,1,2.1,6.284c-4.351.074-4.947.127-9.081,0v2.094c3.8.922,5.646,3.057,8.381,4.888-.442,1.225-.136.677-.7,1.4-1.771,7.142-7.317,13.194-10.474,19.553-1.768-.208-3.992.238-4.187,0-8.221-5.472-9.863-16.377-16.761-23.042-8.773-8.482-30.518-11.734-44.689-10.478v-3.491q-1.059-.346-2.1-.7c-1.282-.492-6.047-.736-9.775-.7-.26-1.445-.171-1.34-.7-2.093v.7c-1.516,1.317-.842,1.551-3.494,2.093-2.242-1.447-6.551-1.132-6.981-1.394-1.094-.667-2.1-3.475-3.488-4.19-3.71-1.9-7.995.024-12.571-1.4-1.765-.548-5.638-2.26-7.68-2.793h-6.987c-1.509-.5-7.043-2.91-8.378-4.188-8.289-7.937-23.589-9.021-33.52-15.365a271.4,271.4,0,0,0-56.567-27.234c-10.072-3.393-19.549-3.8-30.026-6.984-13.251-4.03-25.431-11.993-38.41-15.362-7.83-2.034-30.895.308-35.612,2.791-1.468.777-3,2.577-4.885,3.493a9.939,9.939,0,0,1-.7,3.491c-2.76-.816-2.52-1.189-5.582-.7V405.2c.616.908.626,1.728.7,3.494-4.046,2.343-8.764,2.98-13.268,6.284-3.276,2.4-5.557,6.827-8.386,9.775.072,6.988,3.1,8.322,4.193,12.572,1.015,3.96-2.636,6.4-2.791,11.171,1.359,1.427,1.818,3.011,3.488,4.193,3.755,3.081,15.883,1.545,22.349.7v1.4c-3.654,2.275-5.644,5.041-5.587,11.169,2.577,2.781,3.639,9.365,6.982,11.174h3.488c1.319.786,1.13,3.512,2.8,4.19,2.583,1.056,6.073-1.133,7.681-.694q1.046,1.041,2.093,2.093c8.92,3.746,18.122,7.02,30.027,6.982.26,3.294.561,4.756,0,7.683-3.792-.125-5.895.088-6.984,2.79-2.572,3.632-1.047,10.748-5.581,12.572-2.948,2.7-5.092.326-7.681,1.4-2.829,1.049-2.4,1.67-2.1,4.187,8.534.69,6.415,6.119,9.78,11.877,1.343,2.3,5.863,2.849,7.68,4.885,1.225-.441.677-.131,1.4-.7.837-1.231.516-1.78,1.4-3.488,3.051,1.47,13.107,8.033,13.966,11.174-1.574,1.027-2.714,2.268-2.094,3.491.786,2.811,1.276,3.371,4.89,3.488,3.422,2.2,9-1.18,13.965-1.391.229.232.463.465.7.7-3.509,3.5-6.305,3.748-6.285,11.171,1.827,1.227,12.913,10.386,13.966,11.871a10.535,10.535,0,0,1,2.791-1.394c2.657,2.992,6.166,3.292,7.686,7.681-1.4.975-1.441.941-2.1,2.791,2.331,1.559,2.233,2.578,6.285,2.791,1.077.5.094.094,2.093,0-.161,2.984-.463,5.152,1.4,6.292,1.823-2.482,4.378.979,6.982,0,.229-.238.462-.469.7-.7-1.352-1.163-1.165-1-1.4-3.491h1.4c.9-.616,1.718-.628,3.488-.7v1.4c1.6,3.107-2.935,7.63-3.488,11.874.229.232.463.466.7.7l4.185.7c2-2.087,3.751-3.968,7.689-4.193,1.175.8,3.416.747,5.584.7q.7-3.148,1.4-6.285h2.794c1.982,3.016,3.983,4.568,5.585,8.38,12.094-.042,8.369,6.359,16.062,7.681.978-1.406.937-1.445,2.8-2.1,1.073,1.848,1.285,2.437,2.791,2.1,2.986-.963,4.291-3.005,6.285-4.893q.348-4.886.7-9.774c-1.276-3.669-4.255-4.1-4.193-8.378.232-.234.469-.468.7-.7,5.843-.688,6.533,1.387,11.171,2.8.053-3.143-.216-3.229,2.1-4.191,3.719-2.633,11.393,1.688,12.568,4.191,1.172,2.342-.984,3.387-1.394,5.584q.695,3.146,1.394,6.287c6.66,4.425,13.968,7.7,23.748,5.587v-2.793q-2.1-6.633-4.193-13.268c4.561-3.14,6.026-9.531,13.268-9.777-.094-2.363-.345-3.6-1.4-4.89-3.811-3.711-11.643-3.914-11.872-11.175,4.836-4.477.637-10.41,1.4-16.056,1.32-.548,4.341-1.21,5.587-2.1,1.666-2.393,1.166-4.4,4.19-5.585,1.839-1.181,5.142.231,7.682-.7,1.661-.613,4.638-3.885,6.285-4.194,8.855-1.635,20.338,8.119,25.831,10.475q5.746.641,11.48,1.278a2.771,2.771,0,0,0-.006.32c.225,3.153,2.173,2.3,3.536,4.553l-.157.551c.527,1.174-.24,2.127.062,3.57.68,3.245,3.807,4.514,3.438,8.675-4.464.489-5.555,1.607-7.1,8.058,2.6,3.034.9,5.97,2.446,8.393q4,2.91,8,5.816c.318.383,4.075,13.559,4.033,14.175-1.559.7-1.058,1.711-2.42,2.868-2.606,2.207-2.779-1.768-4.532,4.642.115.231.226.459.339.693l4.467,1.264c.653.81,1.258,4.742,2.081,5.914.869,1.243,3.014,2.292,3.191,3.865l-1.4,4.94-3.97-1.124c-2.2-8.933-10.336-14.912-21.712-17.995-.32.5-.644,1-.966,1.506-8.478,8,6.329,19.636,6.821,23.257.658,4.8-3.07,7.028,2.293,8.942a4.083,4.083,0,0,1,2.609-1.633c-.217,2.984-.259,6.648.649,9.069,1.725,4.582,8.722,8.552,8.316,14.2-2.806.724-2.72,5.413-4.47,8.214,2.352,1.812-.154,1.261.4,4.259,1.064,5.714,7.2,9.864,5.241,17.476-.217.133-.433.273-.653.406a20.136,20.136,0,0,0-6.758-.729c-2.616,2.732-5.386,4.039-6.765,8.751,4.2,3.653,3.318,6.77,5.306,11.569.587,1.418,2.114,2.781,2.541,4.276.73,2.554-.486,6.307,1.459,8.109.807,1.1,2.539,1.8,4.155,2.363-.309,6.177,5.8,6.893,5.643,12.259-1.153.6-.825.288-1.611,1.913,2.8,2.5,7.34,4.65,10.33,7.071.148,1.432.469,2.319.557,3.713a8.3,8.3,0,0,0-5.027,4.5,15.651,15.651,0,0,0,4.81,1.951c.851-.332,1.782-.075,3.132.291.536,3.111.5,6.89,1.491,9.9q1.349,1.865,2.693,3.728l-.78,2.743a29.474,29.474,0,0,0,2.578,6.056c.878,1.193,2.189,1.432,3.005,2.634a4.02,4.02,0,0,1,.463,2.245l-.083.3,4.034,1.141q-.518,1.819-1.029,3.628a5.831,5.831,0,0,1,3.188,3.782c.617-.192.24-.374.726-.054.661.475.646.475.534,1.456a5.9,5.9,0,0,0-2.959,1.255c-.25-.465-.341-.5-.96-.8a4.106,4.106,0,0,0-.711.843c.693.95.519,2.563,1.147,3.463,1,1.444,3.238,2.313,3.85,3.968.451,1.221.113,2.829.791,3.879l1.031.554q.749,1.521,1.5,3.043c.534.326,1.077.652,1.611.979.409.674-.454,1.685.56,3.033A6.034,6.034,0,0,0,560.029,814a52.082,52.082,0,0,1-1.208,5.935,15.576,15.576,0,0,1,1.346,1.945c.979-.142.788-.637,2.028-.471.5,1.5,1.305,1.365.572,3.82.507.822-.1,2.156.345,2.975.341.186.683.362,1.027.549.6.9.779,3.194,1.45,4.069.59.428,1.174.86,1.765,1.287.442.791-.065,1.709.192,2.67.145.536.837.409,1.178.857.053.361.107.723.16,1.088.433.863,2.236,3.312,3.188,3.776-.256,1.654-.745,4.383-.48,5.88.533,2.977,5.16,9.9,8.475,11.024.828-.353,1.462.377,2.545.193.652-.106,1.8-.659,2.6-.827a8.66,8.66,0,0,1,.905-2.358c1.75-.317,6.946.67,7.832-.919.782-.9-.03-1.534-.041-2.363-.024-1.352,1.122-1.8,1.546-2.963-.554-.744-1.948-2.491-2.1-3.464-.5-1.842,1.752-5.7,2.491-7.136-.887-.344-.816-.187-.887-1.038,1.921-.955,3.244-3,4.108-6.153-.534-1.1-1.4-3.141-1.026-4.733.6-.291.745-.744,1.438-.907.539,1.067,1.37,1.027,2.284,1.955,1.494,1.522,2.919,5.1,4.543,6.513q1.322.371,2.63.745c.235.217.014.834.164,1.091.43.735,1.533,1.038,1.85,1.83.852,2.148.623,4.888,1.569,6.983.863,1.9,3.686,1.951,5.439,3.363.572.466.551,1.006,1.477,1.465-.069.244-.14.486-.208.727,1.556,2.011,2.022,4.943,5.187,5.911.259-.383.107-.223.352-.421-.015-.465.029-.247-.08-.543a10.133,10.133,0,0,0-.863-3.642c-.272-.427-.54-.852-.819-1.281.25-.89.5-1.774.751-2.666a22.323,22.323,0,0,0-1.05-6.311c-.524-1.634-2.419-2.459-2.257-4.558l.436.125c1.174.925.816-.878,1.645-1.628a45.712,45.712,0,0,1,5.323-2.936,21.5,21.5,0,0,1,7.093-1.651c1.868,0,3.005.8,4.737.816a7.7,7.7,0,0,1,3.864.57,7.844,7.844,0,0,0,1.611.979c.723,2.711,2.556,3.165,3.5,5.173a19.25,19.25,0,0,1,.477,2.491c.272.862,1.379,1.486,1.712,2.307.3.756.121,1.777.477,2.491.4.789,1.264,1.144,1.848,1.83,1.2,1.4,1.649,3.784,1.918,5.769,2.167.65,2.173,1.738,3.174,2.99l.659.184c.163.273-.081,1.074.094,1.334.362.534.978.234,1.178.854.4,1.26-.2,3.217.436,4.309.271.463,1.073.513,1.4.911.424.534.353,1.079.969,1.59a4.078,4.078,0,0,0,.717-.848,1.829,1.829,0,0,1,.053-1.029c.925.346,1.854.7,2.779,1.047.142-.222.284-.445.424-.664a3.891,3.891,0,0,1,.726-4.243c1.945-1.068,3.856-.816,6.038.4a2.957,2.957,0,0,1,3.6-1.854c.422.514,1.409.751,1.765,1.284.383,1.45-.059,1.854,1.93,2.373a25.577,25.577,0,0,1,1.681-3.443c.931-.068,1.358-.572,2.313-.65q.036-.124.068-.24c-1.032-.088-.97-.186-1.682-.736-.487.51-.275.483-1.082.475-.616-1-1.666-.87-1.421-2.494.6-.852.994-2.858,2.043-3.867.43-.139.863-.278,1.3-.412.8-.65,1.595-1.794,2.5-2.168.481-.036.97-.077,1.453-.112.949-.674,1.264-1.836,2.723-2.106,1.777-.332,4.252.994,6.038.4.457-.5-.03-.781.779-1.088-.021.08-.042.161-.068.244a5.252,5.252,0,0,1,.167,1.091c3.045-.457,3.463,1.552,5.911,1.673,2.222.106,5.926-.168,7.735,1.927,1.753,2.029,1.762,4.825,3.748,6.813q-.163,1-.329,1.995a5.8,5.8,0,0,0-1.365.661c.247.848-.25,1.872-.1,2.85l.519.669q-.555,1.543-1.109,3.084c.018.712.578,1.245.548,2.25.519.009.516-.151.874.247.641,1.7.641,3.684,1.331,5.339a36.447,36.447,0,0,0,1.948-9.38c1.341.22,5.632.172,6.525-.51.365,1.1,5.43,1.4,6.709,1.375q5.583,1.582,11.168,3.164c.2-.142.442-.457.646-.6-.092.321-.183.649-.275.967,3.31.9,6.341,2.613,7.927,4.6-.047.158-.094.324-.139.481-.146-.039-.291-.083-.439-.124-.285.115-.247.091-.724.056-.25-.6-.534-1.623-.89-1.035a3.183,3.183,0,0,1-1.738.287,6.119,6.119,0,0,0-3.23-1.957c-.279.967-.551,1.939-.825,2.9.148.039.293.083.442.122.451-1.279.652-1.165,1.874-.776-.069.243-.137.483-.205.727a2.8,2.8,0,0,0,1.614.975c.816-.217.958.329,1.107,1.1,1.4-.783,1.957-.321,3.929.327-.021.078-.044.158-.068.243a6.216,6.216,0,0,0-3.079,2.527,36.66,36.66,0,0,1,2.449,3.048c.294.863-.7.353.094,1.337.6.993,3,.975,4.6,1.3.309.9.822.944,1.409,1.708.772,1,1.12,2.738,1.735,3.887-.566,1.817-1.027,2.686-.946,4.176.67.089.389-.315.59.43a6.469,6.469,0,0,0-1.918,2.594c1.135,1.061,3.375,1.462,3.615,3.113.092.306.065.267.012.786.365.1.73.21,1.1.312.068.7.631,1.215.68,1.762q-.582,2.055-1.163,4.111c-1.477-.091-1.038.647-2.245.412q-.982,2.211-1.957,4.412c-.1,2.106,1.166,1.284-.071,4.425.071.023.148.041.22.063a1.18,1.18,0,0,1,1.163.069,2.19,2.19,0,0,1-.262,1.755c-1.553-.4-2.393-.122-2.876,1.8.371.93.238,1.845,1.206,2.432.534-.314.3-.4.724-.059,1.279.957.931,2.836.232,5.038a5.177,5.177,0,0,1-1.824-.255c-.668,2.4-.2,3.138-.916,5.751-.949.457-1.172,1.216-2.449,1.135-.309-1.085-.723-1.282-1.7-1.524-.158.561-.321,1.126-.48,1.694a6.989,6.989,0,0,1,1.275,2.185,5.538,5.538,0,0,1,1.23-.174c.409-1.782.686-2.373,2.221-1.984.22.294.478.371,1.026.549.643,1.608,2.068,2.856,2.189,4.808-.115.406-.229.8-.344,1.207a6.4,6.4,0,0,1,.124,2.912c-.687.077-.566.238-1.453.112-.374-.35-2.019-.112-2.847-.807-.513-.425-.362-.837-1.547-1.22a9.091,9.091,0,0,0-.9,2.357,2.2,2.2,0,0,0,1.175.859c1.067-.56,3.684.741,5.475,1.548-.208.723-.412,1.454-.616,2.176-1.317-.481-4.49-1.012-5.475-1.549-1.278-.691-1.688-1.512-3.082-1.654-.044.158-.094.323-.136.484a3.622,3.622,0,0,0-.7,1.629,8.024,8.024,0,0,0,3.583,1.539c.81-.259,2.607.588,3.506.993.136-.483.276-.97.409-1.454l.661.185c-.136.484-.275.972-.41,1.453l1.314.373c.048.1.1.207.154.3-.769,4.924-1.868,5.131-4.753,6.758,1.543.887.884,3.481,1.027,4.734.614-.189.241-.371.723-.056a2.079,2.079,0,0,1,1.123,1.888c.652,2.379-.742,5.247-1.669,8.414.342.181.682.367,1.026.552-.136.486-.276.969-.409,1.454-4.025.952-3.546.335-6.325,3.96.1.907.557,1.447.409,2.728,1.559.4,2.133.579,3.725,1.053.427,1.129,1.343,1.289,1.071,2.918-.241.21-.2.192-.427.661l-1.314-.37c-.5,1.676-1.055,1.82-1.617,3.2.91.365,1.088,1.6,2.2,1.408.837-.142,1.78-1.565,2.9-.22,2.072,1.506,2.434,8.384,2.165,11.592-.164,1.922-1.494,2.062-1.6,3.991-.183,3.174.534,6.667-.4,10.6-.22-.065-.442-.124-.659-.189-.484.661-1.062.43-1.436.9-.409,1.453-.824,2.9-1.231,4.362.59.928.151,1.981.557,3.032.21.545,1.571,2.183,1.645,2.554-.136.481-.275.969-.409,1.453.087.469.638.874.748,1.521.721.291,3.2,1.159,3.74,1.845a3.218,3.218,0,0,1-.029,2.607,7.008,7.008,0,0,1,2.64,1.53c-.11.406-.225.807-.342,1.21.092.3.068.268.012.787.674.169.656-.012.878.247a2.409,2.409,0,0,1,.616,2c2.142.332,2.655,1.465,3.973,2.693-.869,3.123.3,4.255.474,6.672.148.039.29.083.436.124.094-.324.186-.646.278-.97.86.436,1.163,1.129,1.916,1.589,2.268,1.391,4.858,1.116,6.945,2.229.587,2.421.475,8.432-.536,11.086a5.631,5.631,0,0,1,1.136,2.673,7.44,7.44,0,0,1,3.861.572c-.327.993-.572,1.518-.109,2.059,1.2,1.583,3.055.328,3.939,1.112.848.754,1.512,2.577,2.381,3.294,1.041.848,3.262.628,4.532,1.542-.272.844-.288.613-.339,1.2a2.726,2.726,0,0,1,.519.676l.436.124c.042-.164.092-.327.139-.486.345-.453.256-1.474.683-2.42.365.1.729.21,1.1.308,1.768,2.551,6.521,3.242,5.72,7.378.08.6-.472.825-.914,1.568.773.786.094.881.4,1.94.112.394.557.163.807.49.708.923.775,2.731,1.589,3.586s1.6.78,2.64,1.536c.359.26.869,1.11,1.547,1.222,1.165.186,2.1-.537,3.407-.341.433,1.477,1.367,2.087.946,4.181-.789.2-2.177.673-2.081,1.506-.056,1.418.72,2.287.781,3.094-.177,1.171-.345,2.343-.525,3.511,4.888,1.893,5.617,7.412,11.54,3.529,1.3.944,2.708,1.289,3.819,2.388,2.421,2.409,3.55,5.792,5.092,8.76a23.467,23.467,0,0,1,1.642,2.557c.167.76-.278,1.375-.11,2.059.575,2.366.943,4.683,1.5,7.225.4,1.813,1.77,8.484-.454,11.631-.18.257-1,.644-1.218.964-1.008,1.477-1.729,3.283-2.906,4.408-.739.7-3.448,1.165-4.039,1.729-.16.566-.321,1.127-.478,1.69-.533.718-1.957,1.3-2.437,1.927-.365,1.289-.73,2.582-1.1,3.867-1,1.732-1.485,5.127-1.614,7.387a15.05,15.05,0,0,1,1.995,2.133c.18.291-.075,1.034.1,1.331.489.859,2.053,1.3,2.725,2.082.1.465.213.926.315,1.4.457.62,1.1,1.015,1.412,1.707.4.9.094,1.966.34,2.974l1.577,2.8c.56.244,1.12.492,1.685.736-.021.346-.039.685-.059,1.033.8.225,1.605.454,2.412.679-.157.827-.309,1.655-.468,2.483.955.619,1.1,1.768,1.93,2.378.584.161,1.165.329,1.75.495a29.367,29.367,0,0,1,2.959,2.925c1.9,1.844,2.888.116,3.613,3.111.51-.208.282-.256,1.017-.235a9.862,9.862,0,0,1,.257,2.428,20.968,20.968,0,0,0-1.943,1.018,3.749,3.749,0,0,1-.056,1.027c.22.065.442.124.661.186.077,1.645,1.343,1.976,1.011,3.95l1.314.371c.094-.059.195-.118.285-.18.225-.73.352-.619.278-.973a4.222,4.222,0,0,0-.4-1.936,3,3,0,0,1,1.506-1.147c1.174-.511,2.513.345,3.793.812-.4,2.108,1.234,4.81,1.568,7.1h58.008V0ZM509.454,536.42l-.536,1.893c.041-.528.072-1.107.072-1.823h-.7c.226-.234.465-.468.7-.7a5.169,5.169,0,0,1,4.683-1.148Z" fill="#8da9c4"/></g></g><g transform="translate(675.245 396.175)"><path d="M492.815,285.23A22.631,22.631,0,1,1,470.2,262.585a22.6,22.6,0,0,1,22.619,22.645" transform="translate(-447.553 -262.585)" fill="#133c55"/><path d="M478.087,281.505a11.614,11.614,0,1,1-11.613-11.62,11.6,11.6,0,0,1,11.613,11.62" transform="translate(-443.837 -258.871)" fill="#c2b59b"/></g><g transform="translate(400.822 147.061)"><path d="M295.84,112.569a15.087,15.087,0,1,1-15.081-15.1,15.068,15.068,0,0,1,15.081,15.1" transform="translate(-265.665 -97.472)" fill="#133c55"/><path d="M285.757,110.017a7.547,7.547,0,1,1-7.527-7.545,7.527,7.527,0,0,1,7.527,7.545" transform="translate(-263.122 -94.928)" fill="#c2b59b"/></g><g transform="translate(521.091 388.63)"><path d="M375.555,272.681a15.087,15.087,0,1,1-15.081-15.1,15.068,15.068,0,0,1,15.081,15.1" transform="translate(-345.38 -257.584)" fill="#133c55"/><path d="M365.471,270.13a7.547,7.547,0,1,1-7.527-7.545,7.526,7.526,0,0,1,7.527,7.545" transform="translate(-342.837 -255.04)" fill="#c2b59b"/></g><g transform="translate(688.961 824.531)"><path d="M486.819,561.6a15.087,15.087,0,1,1-15.08-15.1,15.067,15.067,0,0,1,15.08,15.1" transform="translate(-456.644 -546.5)" fill="#133c55"/><path d="M476.736,559.047a7.548,7.548,0,1,1-7.527-7.547,7.525,7.525,0,0,1,7.527,7.547" transform="translate(-454.102 -543.956)" fill="#c2b59b"/></g><g transform="translate(807.8 1103.144)"><path d="M565.586,746.26a15.087,15.087,0,1,1-15.081-15.1,15.067,15.067,0,0,1,15.081,15.1" transform="translate(-535.411 -731.165)" fill="#133c55"/><path d="M555.5,743.712a7.547,7.547,0,1,1-7.527-7.547,7.526,7.526,0,0,1,7.527,7.547" transform="translate(-532.868 -728.621)" fill="#c2b59b"/></g><g transform="translate(540.109 128.501)"><path d="M373.079,85.17a15.087,15.087,0,1,0,15.081,15.1A15.1,15.1,0,0,0,373.079,85.17Z" transform="translate(-357.985 -85.17)" fill="#133c55"/><path d="M370.549,90.17a7.544,7.544,0,1,0,7.527,7.545A7.558,7.558,0,0,0,370.549,90.17Z" transform="translate(-355.442 -82.626)" fill="#c2b59b"/></g><path d="M28.254-27.438l-9.231,9.792,7.191,9.792H28L27.183,0H15.4l.816-7.854H17.85q-1.071-1.479-2.142-2.932t-2.193-2.932h-.969l-.612,5.865h1.989L13.107,0H1.326l.816-7.854H4.131l2.04-19.584H4.182L5-35.292H16.779l-.816,7.854H13.974l-.612,5.865h.969q1.428-1.479,2.805-2.933t2.754-2.932H18.258l.816-7.854H30.855l-.816,7.854ZM53.3-3.927,48.96,0h-15.2L30.294-3.927,33.15-31.314l4.284-3.927h15.2l3.519,3.927ZM45.849-7.8l2.04-19.635H40.545L38.505-7.8ZM82.11-35.292,80.886-23.511H75.021l.408-3.927H73.44L71.4-7.854h1.989L72.573,0H60.792l.816-7.854H63.6l2.04-19.584H63.648l-.408,3.927H57.324l1.224-11.781ZM103.989-3.927,99.654,0h-15.2L80.988-3.927l2.856-27.387,4.284-3.927h15.2l3.519,3.927ZM96.543-7.8l2.04-19.635H91.239L89.2-7.8Zm35.292,0L131.019,0H120.156l.816-7.8h1.581l.612-5.916h-6.12L116.433-7.8h1.989L117.606,0H105.825l.816-7.8h1.989l2.04-19.635h-1.989l.816-7.8h19.839l3.519,3.927-1.224,11.73-2.142,1.938,1.734,1.989L130.407-7.8Zm-7.854-13.719.612-5.916h-6.12l-.612,5.916Z" transform="translate(622.208 493.432)" fill="#001024"/><path d="M19.8-24.912,18.936-16.6H14.8l.288-2.772h-1.4L12.24-5.544h1.4L13.068,0H4.752l.576-5.544h1.4l1.44-13.824h-1.4L6.48-16.6H2.3l.864-8.316ZM27.72-5.544,27.144,0h-8.28l.576-5.544h1.368l1.44-13.824H20.88l.576-5.544h8.28l-.576,5.544H27.792L26.352-5.544Zm11.412-.9,4.1-12.924H41.868l.576-5.508h8.28l-.576,5.508H48.78L42.624,0H34.308L32.184-19.368H30.816l.576-5.508h8.28L39.1-19.368H37.728Zm19.944-6.012h2.556l-.684-5.976ZM69.3-5.508,68.724,0h-8.28l.576-5.508h1.368l-.144-1.4H57.312l-.432,1.4h1.368L57.672,0h-8.28l.576-5.508h1.368l4.392-13.86H54.144l.576-5.508H68.544l-.576,5.508H66.42l1.512,13.86Zm19.836-19.4L88.272-16.6h-4.14l.288-2.772h-1.4L81.576-5.544h1.4L82.4,0H74.088l.576-5.544h1.4l1.44-13.824H76.1L75.816-16.6H71.64l.864-8.316Z" transform="translate(535.958 379.331)" fill="#001024"/><path d="M19.728-22.14,18.72-12.456,15.66-9.684H8.712L8.28-5.544H9.648L9.072,0H.792l.576-5.544H2.736l1.44-13.824H2.808l.576-5.508h13.86Zm-6.264,6.912.432-4.14H9.72l-.432,4.14ZM35.892,0H19.116l.576-5.544h1.4l1.44-13.824h-1.4l.576-5.544H38.484L37.62-16.6H32.076l.288-2.772h-4.32l-.432,4.14h5.364L32.4-9.684H27.036L26.6-5.544h4.32l.288-2.772h5.544ZM55.944-5.508,55.368,0H47.7l.576-5.508h1.116l.432-4.176H45.5l-.432,4.176h1.4L45.9,0H37.584l.576-5.508h1.4L41-19.368H39.6l.576-5.508h14L56.664-22.1l-.864,8.28-1.512,1.368,1.224,1.4-.576,5.544ZM50.4-15.192l.432-4.176h-4.32l-.432,4.176Zm15.876,2.736h2.556l-.684-5.976ZM76.5-5.508,75.924,0h-8.28l.576-5.508h1.368l-.144-1.4H64.512l-.432,1.4h1.368L64.872,0h-8.28l.576-5.508h1.368l4.392-13.86H61.344l.576-5.508H75.744l-.576,5.508H73.62l1.512,13.86ZM93.888-2.772,90.828,0H80.1L77.616-2.772l.576-5.544h5.544l-.288,2.772h5.184l.432-4.14H81.108l-2.484-2.772,1.008-9.684,3.06-2.772H93.42L95.9-22.14,95.328-16.6H89.784l.288-2.772H84.888l-.432,4.14h7.956L94.9-12.456Zm20.34-22.14-.864,8.316h-4.14l.288-2.772h-1.4l-1.44,13.824h1.4L107.5,0H99.18l.576-5.544h1.4l1.44-13.824h-1.4l-.288,2.772H96.732l.864-8.316Z" transform="translate(521.065 196.215)" fill="#001024"/><path d="M19.728-22.14,18.72-12.456,15.66-9.684H8.712L8.28-5.544H9.648L9.072,0H.792l.576-5.544H2.736l1.44-13.824H2.808l.576-5.508h13.86Zm-6.264,6.912.432-4.14H9.72l-.432,4.14ZM35.892,0H19.116l.576-5.544h1.4l1.44-13.824h-1.4l.576-5.544H38.484L37.62-16.6H32.076l.288-2.772h-4.32l-.432,4.14h5.364L32.4-9.684H27.036L26.6-5.544h4.32l.288-2.772h5.544ZM56.628-24.912,55.764-16.6h-4.14l.288-2.772h-1.4L49.068-5.544h1.4L49.9,0H41.58l.576-5.544h1.4L45-19.368H43.6L43.308-16.6H39.132L40-24.912ZM73.8-5.508,73.224,0H65.556l.576-5.508h1.116l.432-4.176H63.36l-.432,4.176h1.4L63.756,0H55.44l.576-5.508h1.4l1.44-13.86h-1.4l.576-5.508h14L74.52-22.1l-.864,8.28-1.512,1.368,1.224,1.4-.576,5.544Zm-5.544-9.684.432-4.176h-4.32l-.432,4.176ZM91.332-2.772,88.272,0H77.544L75.1-2.772,77.112-22.1l3.024-2.772H90.864L93.348-22.1ZM86.076-5.508l1.44-13.86H82.332l-1.44,13.86Zm16.848-.936,4.1-12.924H105.66l.576-5.508h8.28l-.576,5.508h-1.368L106.416,0H98.1L95.976-19.368H94.608l.576-5.508h8.28l-.576,5.508H101.52Zm19.944-6.012h2.556l-.684-5.976Zm10.224,6.948L132.516,0h-8.28l.576-5.508h1.368l-.144-1.4H121.1l-.432,1.4h1.368L121.464,0h-8.28l.576-5.508h1.368l4.392-13.86h-1.584l.576-5.508h13.824l-.576,5.508h-1.548l1.512,13.86ZM151.2-2.772,148.14,0H136.764L134.28-2.772,136.3-22.1l3.06-2.772h11.376l2.484,2.772L152.64-16.6H147.1l.288-2.772h-5.832l-1.44,13.86h5.832l.288-2.772h5.544Z" transform="translate(643.977 1130.609)" fill="#001024"/><path d="M10.188-12.456h2.556l-.684-5.976ZM20.412-5.508,19.836,0h-8.28l.576-5.508H13.5l-.144-1.4H8.424l-.432,1.4H9.36L8.784,0H.5L1.08-5.508H2.448L6.84-19.368H5.256l.576-5.508H19.656l-.576,5.508H17.532l1.512,13.86Zm18.72,2.736L36.072,0H21.348l.576-5.508h1.368l1.44-13.86H23.364l.576-5.508H38.664L41.148-22.1ZM33.876-5.508l1.44-13.86h-5.04l-1.44,13.86Zm24.948,0L58.248,0H50.58l.576-5.508h1.116L52.7-9.684h-4.32l-.432,4.176h1.4L48.78,0H40.464l.576-5.508h1.4l1.44-13.86h-1.4l.576-5.508h14L59.544-22.1l-.864,8.28-1.512,1.368,1.224,1.4-.576,5.544ZM53.28-15.192l.432-4.176h-4.32l-.432,4.176ZM68.832-5.544,68.256,0h-8.28l.576-5.544H61.92l1.44-13.824H61.992l.576-5.544h8.28l-.576,5.544H68.9L67.464-5.544ZM79.38-12.456h2.556l-.684-5.976ZM89.6-5.508,89.028,0h-8.28l.576-5.508h1.368l-.144-1.4H77.616l-.432,1.4h1.368L77.976,0H69.7l.576-5.508H71.64l4.392-13.86H74.448l.576-5.508H88.848l-.576,5.508H86.724l1.512,13.86Zm19.836-19.4-.864,8.316h-4.14l.288-2.772h-1.4L101.88-5.544h1.4L102.708,0H94.392l.576-5.544h1.4l1.44-13.824h-1.4L96.12-16.6H91.944l.864-8.316Zm7.92,19.368L116.784,0H108.5l.576-5.544h1.368l1.44-13.824H110.52l.576-5.544h8.28l-.576,5.544h-1.368l-1.44,13.824Zm18.432,2.772L132.732,0H121.356l-2.484-2.772L120.888-22.1l3.06-2.772h11.376l2.484,2.772-.576,5.508h-5.544l.288-2.772h-5.832L124.7-5.508h5.832l.288-2.772h5.544Zm25.668,0L158.4,0H147.672l-2.484-2.772.576-5.544h5.544l-.288,2.772H156.2l.432-4.14H148.68L146.2-12.456,147.2-22.14l3.06-2.772h10.728l2.484,2.772L162.9-16.6h-5.544l.288-2.772H152.46l-.432,4.14h7.956l2.484,2.772ZM179.64,0H162.864l.576-5.544h1.4l1.44-13.824h-1.4l.576-5.544h16.776l-.864,8.316h-5.544l.288-2.772h-4.32l-.432,4.14h5.364l-.576,5.544h-5.364l-.432,4.14h4.32l.288-2.772H180.5Zm11.124-12.456h2.556l-.684-5.976Zm10.224,6.948L200.412,0h-8.28l.576-5.508h1.368l-.144-1.4H189l-.432,1.4h1.368L189.36,0h-8.28l.576-5.508h1.368l4.392-13.86h-1.584l.576-5.508h13.824l-.576,5.508h-1.548l1.512,13.86Z" transform="translate(247.977 947.609)" fill="#aa9e88"/><path d="M18.144-2.772,15.084,0H.792l.576-5.544H2.736l1.44-13.824H2.808l.576-5.508H17.676L20.16-22.1l-.864,8.28-1.548,1.368,1.26,1.4ZM12.888-5.544l.432-4.14H8.712L8.28-5.544ZM13.9-15.192l.432-4.176H9.72l-.432,4.176Zm26.892-9.72-.576,5.544H38.844l-1.728,16.6L34.056,0H23.76L21.276-2.772,23-19.368H21.636l.576-5.544h8.28l-.576,5.544H28.548L27.108-5.544H31.86L33.3-19.368H31.932l.576-5.544Zm16.92,22.14L54.648,0H39.924L40.5-5.508h1.368l1.44-13.86H41.94l.576-5.508H57.24L59.724-22.1ZM52.452-5.508l1.44-13.86h-5.04l-1.44,13.86Zm16.884-.936,4.1-12.924H72.072l.576-5.508h8.28l-.576,5.508H78.984L72.828,0H64.512L62.388-19.368H61.02l.576-5.508h8.28L69.3-19.368H67.932ZM89.28-12.456h2.556l-.684-5.976ZM99.5-5.508,98.928,0h-8.28l.576-5.508h1.368l-.144-1.4H87.516l-.432,1.4h1.368L87.876,0H79.6l.576-5.508H81.54l4.392-13.86H84.348l.576-5.508H98.748l-.576,5.508H96.624l1.512,13.86Z" transform="translate(647.496 815.185)" fill="#001024"/><path d="M23.076-5.544,22.5,0H14.22L14.8-5.544h1.368l.828-8.1L12.276-6.012l-3.06-7.632-.828,8.1H9.756L9.18,0H.9l.576-5.544H2.844l1.44-13.824H2.916l.576-5.544h6.516l3.456,7.668,5.148-7.668h6.48l-.576,5.544H23.148L21.708-5.544Zm17.6,2.772L37.62,0H26.892L24.444-2.772,26.46-22.1l3.024-2.772H40.212L42.7-22.1ZM35.424-5.508l1.44-13.86H31.68L30.24-5.508Zm24.912,0L59.76,0H52.092l.576-5.508h1.116l.432-4.176H49.9l-.432,4.176h1.4L50.292,0H41.976l.576-5.508h1.4l1.44-13.86h-1.4l.576-5.508h14L61.056-22.1l-.864,8.28L58.68-12.456l1.224,1.4-.576,5.544Zm-5.544-9.684.432-4.176H50.9l-.432,4.176ZM70.344-5.544,69.768,0h-8.28l.576-5.544h1.368l1.44-13.824H63.5l.576-5.544h8.28l-.576,5.544H70.416L68.976-5.544ZM92.916-24.912l-.576,5.544h-1.4L88.92,0H83.3L79.7-11.88l-.648,6.336h1.4L79.884,0H71.568l.576-5.544h1.4l1.44-13.824h-1.4l.576-5.544h6.8l3.744,12.24.72-6.7h-1.4l.576-5.544Zm16.956,0-.576,5.544h-1.4l-1.728,16.6L103.1,0H94.536L92.052-2.772l.576-5.544h5.508l-.288,2.772h3.1l1.44-13.824h-1.4l.576-5.544Z" transform="translate(329.713 216.319)" fill="#001024"/></g></g></svg>