<svg xmlns="http://www.w3.org/2000/svg" width="64.374" height="91.598" viewBox="0 0 64.374 91.598">
  <g id="Group_272" data-name="Group 272" transform="translate(426.494 442.01)">
    <path id="Path_106" data-name="Path 106" d="M-382.461-441.978a30.6,30.6,0,0,1,18.7,5.966,31.772,31.772,0,0,1,13.11,21.115c1.015,5.894.023,11.6-1.83,17.2-2.832,8.556-7.107,16.4-11.849,24.011A220.507,220.507,0,0,1-380.2-351.561a4.621,4.621,0,0,1-1.552,1.157h-.715q0-18.956,0-37.912c1.9-.329,2.686-1.241,2.686-3.138,0-.626.015-1.253-.005-1.878a.608.608,0,0,1,.551-.736q10.064-2.406,12.522-12.47a.67.67,0,0,1,.8-.611,21.462,21.462,0,0,0,2.324,0,2.729,2.729,0,0,0,2.58-2.788,2.672,2.672,0,0,0-2.7-2.556c-.715-.016-1.434-.043-2.145.009-.584.043-.746-.22-.869-.736a15.989,15.989,0,0,0-10.781-11.962c-.741-.267-1.825-.1-2.177-.747-.34-.624-.093-1.569-.095-2.373a2.678,2.678,0,0,0-2.691-3.006Z" transform="translate(-11.869 -0.008)" fill="#aa9e88"/>
    <path id="Path_107" data-name="Path 107" d="M-394.336-388.324q0,18.956,0,37.912h-.716a7.55,7.55,0,0,1-2.645-2.572c-8.27-10.43-15.838-21.325-21.809-33.26a66.7,66.7,0,0,1-6.387-17.651,31.12,31.12,0,0,1,7.083-26.762,31.315,31.315,0,0,1,19.233-10.924,23.264,23.264,0,0,1,5.243-.405q0,5.333-.009,10.667l.012.067a2.62,2.62,0,0,0-2.685,2.628c-.023.715-.041,1.433.007,2.145.039.587-.168.8-.752.938a15.932,15.932,0,0,0-11.834,10.589c-.292.8-.125,1.957-.823,2.334-.673.364-1.685.1-2.548.11a2.685,2.685,0,0,0-2.826,2.614,2.758,2.758,0,0,0,2.813,2.744c.685.016,1.372.034,2.055-.007.55-.033.741.159.876.712a15.961,15.961,0,0,0,10.664,11.873c.77.279,1.889.15,2.257.783s.1,1.621.107,2.456a2.71,2.71,0,0,0,2.7,2.929Z" transform="translate(0 0)" fill="#c2b59b"/>
    <path id="Path_108" data-name="Path 108" d="M-382.472-427.372a2.678,2.678,0,0,1,2.691,3.006c0,.8-.245,1.749.095,2.373.353.648,1.436.48,2.177.747a15.989,15.989,0,0,1,10.781,11.962c.123.516.285.779.869.736.711-.052,1.43-.025,2.145-.009a2.672,2.672,0,0,1,2.7,2.556,2.729,2.729,0,0,1-2.58,2.788,21.461,21.461,0,0,1-2.324,0,.67.67,0,0,0-.8.611q-2.451,10.054-12.522,12.47a.608.608,0,0,0-.551.736c.02.625.006,1.252.005,1.878,0,1.9-.782,2.808-2.686,3.138l.014-.079q-.011-5.353-.022-10.705c0-.044.01-.088.018-.131,6.83.359,12.2-6.7,10.283-13.47a10.689,10.689,0,0,0-10.3-7.8l.012-.065q0-5.337,0-10.673Z" transform="translate(-11.867 -3.946)" fill="#dee5f2"/>
    <path id="Path_109" data-name="Path 109" d="M-390.376-427.28q0,5.337,0,10.673c-.118.01-.236.027-.354.031a10.771,10.771,0,0,0-10.38,10.621,10.789,10.789,0,0,0,10.718,10.818q.011,5.353.022,10.705a2.71,2.71,0,0,1-2.7-2.929c-.009-.834.257-1.828-.107-2.456s-1.487-.5-2.257-.783a15.961,15.961,0,0,1-10.664-11.873c-.134-.554-.326-.745-.876-.712-.683.041-1.37.023-2.055.007a2.758,2.758,0,0,1-2.813-2.744,2.685,2.685,0,0,1,2.826-2.614c.863-.012,1.876.254,2.548-.11.7-.378.531-1.538.823-2.334a15.932,15.932,0,0,1,11.834-10.589c.584-.142.791-.351.752-.938-.047-.712-.03-1.43-.007-2.145A2.62,2.62,0,0,1-390.376-427.28Z" transform="translate(-3.951 -3.971)" fill="#eff5fd"/>
    <path id="Path_110" data-name="Path 110" d="M-386.434-391.2a10.789,10.789,0,0,1-10.719-10.818,10.771,10.771,0,0,1,10.38-10.621c.118,0,.237-.021.354-.031l-.012.065q.008,10.637.014,21.274A1.312,1.312,0,0,0-386.434-391.2Z" transform="translate(-7.911 -7.911)" fill="#c2b59b"/>
    <path id="Path_111" data-name="Path 111" d="M-382.458-391.3q-.007-10.637-.014-21.274a10.689,10.689,0,0,1,10.3,7.8C-370.254-398-375.628-390.946-382.458-391.3Z" transform="translate(-11.869 -7.934)" fill="#aa9e88"/>
  </g>
</svg>
