<svg xmlns="http://www.w3.org/2000/svg" width="264.659" height="65" viewBox="0 0 264.659 65"><g transform="translate(-434.341 376.661)"><path d="M485-359.887h26.8v5.009H501.281v28.1h-5.8v-28.1H485Zm25.645,9.136h4.962v4.637h.092a5.351,5.351,0,0,1,.9-1.9,8.811,8.811,0,0,1,1.623-1.693,8.164,8.164,0,0,1,2.11-1.229,6.316,6.316,0,0,1,2.364-.464,11.627,11.627,0,0,1,1.276.047c.232.032.471.062.719.092v5.1q-.556-.093-1.137-.163a9.764,9.764,0,0,0-1.136-.069,6.093,6.093,0,0,0-2.528.533,5.8,5.8,0,0,0-2.064,1.578,7.693,7.693,0,0,0-1.391,2.573,11.125,11.125,0,0,0-.511,3.525v11.408h-5.286Zm38.311,23.976h-5.194v-3.339h-.092a7.266,7.266,0,0,1-2.9,2.9,7.874,7.874,0,0,1-3.919,1.09q-4.731,0-6.84-2.342t-2.11-7.072v-15.21h5.286v14.7q0,3.153,1.207,4.451a4.387,4.387,0,0,0,3.385,1.3,6.654,6.654,0,0,0,2.783-.511,4.911,4.911,0,0,0,1.808-1.368,5.224,5.224,0,0,0,1-2.064,10.7,10.7,0,0,0,.3-2.6v-13.913h5.286Zm9-7.7a3.986,3.986,0,0,0,1.763,3.247,6.937,6.937,0,0,0,3.663.927,14.243,14.243,0,0,0,1.693-.115,7.322,7.322,0,0,0,1.785-.441,3.349,3.349,0,0,0,1.369-.951,2.284,2.284,0,0,0,.486-1.646,2.334,2.334,0,0,0-.741-1.67,5.175,5.175,0,0,0-1.785-1.043,17.423,17.423,0,0,0-2.481-.671q-1.392-.28-2.83-.6a26.411,26.411,0,0,1-2.852-.789,9.11,9.11,0,0,1-2.458-1.252,5.772,5.772,0,0,1-1.74-2.017,6.445,6.445,0,0,1-.649-3.037,5.446,5.446,0,0,1,.951-3.269,7.279,7.279,0,0,1,2.411-2.134,10.517,10.517,0,0,1,3.247-1.137,19.126,19.126,0,0,1,3.408-.324,15.631,15.631,0,0,1,3.548.394,9.681,9.681,0,0,1,3.06,1.276,7.492,7.492,0,0,1,2.272,2.3,7.954,7.954,0,0,1,1.137,3.408H567.7a3.289,3.289,0,0,0-1.738-2.55,7.229,7.229,0,0,0-3.13-.649,11.213,11.213,0,0,0-1.322.092,6.166,6.166,0,0,0-1.437.349,3.012,3.012,0,0,0-1.135.741,1.769,1.769,0,0,0-.464,1.275,2.012,2.012,0,0,0,.673,1.576,5.3,5.3,0,0,0,1.761,1,17.371,17.371,0,0,0,2.481.671q1.392.278,2.875.6,1.437.325,2.83.789a9.171,9.171,0,0,1,2.481,1.251,6.118,6.118,0,0,1,1.761,1.995,6.029,6.029,0,0,1,.673,2.969,6.457,6.457,0,0,1-.973,3.616,7.7,7.7,0,0,1-2.528,2.411,11.506,11.506,0,0,1-3.456,1.346,17.533,17.533,0,0,1-3.755.417,16.321,16.321,0,0,1-4.2-.511,9.776,9.776,0,0,1-3.339-1.553,7.5,7.5,0,0,1-2.226-2.6,8.249,8.249,0,0,1-.858-3.687Zm17.437-16.277h3.989v-7.188h5.286v7.188h4.777v3.942h-4.777v12.8a12.686,12.686,0,0,0,.07,1.438,2.482,2.482,0,0,0,.324,1.02,1.548,1.548,0,0,0,.766.626,3.767,3.767,0,0,0,1.391.209c.371,0,.741-.007,1.113-.023a5.545,5.545,0,0,0,1.112-.162v4.081q-.881.093-1.716.185a15.523,15.523,0,0,1-1.715.093,11.726,11.726,0,0,1-3.363-.394,4.469,4.469,0,0,1-1.994-1.16,3.986,3.986,0,0,1-.975-1.924,14.418,14.418,0,0,1-.3-2.643v-14.145h-3.989Zm17.761,0h5.009v3.246h.092a6.542,6.542,0,0,1,3.107-2.99,10.32,10.32,0,0,1,4.314-.9,11.455,11.455,0,0,1,4.939,1,9.767,9.767,0,0,1,3.5,2.736,11.906,11.906,0,0,1,2.087,4.057,17.236,17.236,0,0,1,.695,4.962,17.552,17.552,0,0,1-.626,4.685,12.181,12.181,0,0,1-1.9,4.011,9.512,9.512,0,0,1-3.224,2.783,9.579,9.579,0,0,1-4.591,1.043,13.081,13.081,0,0,1-2.318-.209,9.988,9.988,0,0,1-2.227-.673,8.76,8.76,0,0,1-1.97-1.182,6.538,6.538,0,0,1-1.508-1.693h-.093v11.965h-5.286Zm18.458,12.011a11.911,11.911,0,0,0-.417-3.154,8.587,8.587,0,0,0-1.252-2.713,6.48,6.48,0,0,0-2.087-1.9,5.684,5.684,0,0,0-2.875-.718,5.831,5.831,0,0,0-5.032,2.319,10.23,10.23,0,0,0-1.693,6.168,12.283,12.283,0,0,0,.441,3.363,7.576,7.576,0,0,0,1.322,2.666,6.585,6.585,0,0,0,2.11,1.762,6,6,0,0,0,2.852.649,5.91,5.91,0,0,0,3.06-.741,6.471,6.471,0,0,0,2.064-1.925,7.777,7.777,0,0,0,1.159-2.69,13.657,13.657,0,0,0,.349-3.084m9.321-21.147h5.286v5.009h-5.286Zm0,9.136h5.286v23.976h-5.286Zm10.011-9.136h5.286v33.112h-5.286Zm21.471,33.761a13.045,13.045,0,0,1-5.124-.951,10.9,10.9,0,0,1-3.8-2.62,11.184,11.184,0,0,1-2.366-3.989,15.345,15.345,0,0,1-.812-5.1,15.2,15.2,0,0,1,.812-5.054,11.185,11.185,0,0,1,2.366-3.989,10.924,10.924,0,0,1,3.8-2.621,13.069,13.069,0,0,1,5.124-.95,13.081,13.081,0,0,1,5.125.95,10.936,10.936,0,0,1,3.8,2.621,11.2,11.2,0,0,1,2.366,3.989,15.242,15.242,0,0,1,.812,5.054,15.383,15.383,0,0,1-.812,5.1,11.2,11.2,0,0,1-2.366,3.989,10.915,10.915,0,0,1-3.8,2.62,13.056,13.056,0,0,1-5.125.951m0-4.174a6.074,6.074,0,0,0,3.062-.741,6.437,6.437,0,0,0,2.132-1.948,8.456,8.456,0,0,0,1.229-2.713,12.147,12.147,0,0,0,.394-3.084,12.246,12.246,0,0,0-.394-3.06,8.169,8.169,0,0,0-1.229-2.713,6.563,6.563,0,0,0-2.132-1.925,6.074,6.074,0,0,0-3.062-.741,6.065,6.065,0,0,0-3.06.741,6.584,6.584,0,0,0-2.134,1.925,8.2,8.2,0,0,0-1.229,2.713,12.252,12.252,0,0,0-.394,3.06,12.153,12.153,0,0,0,.394,3.084,8.49,8.49,0,0,0,1.229,2.713,6.458,6.458,0,0,0,2.134,1.948,6.065,6.065,0,0,0,3.06.741m13.634-20.451h3.989v-7.188h5.286v7.188H680.1v3.942h-4.777v12.8a12.661,12.661,0,0,0,.07,1.438,2.481,2.481,0,0,0,.324,1.02,1.549,1.549,0,0,0,.766.626,3.767,3.767,0,0,0,1.391.209c.371,0,.741-.007,1.114-.023a5.548,5.548,0,0,0,1.112-.162v4.081c-.588.062-1.159.124-1.716.185a15.525,15.525,0,0,1-1.715.093,11.717,11.717,0,0,1-3.362-.394,4.462,4.462,0,0,1-1.994-1.16,3.985,3.985,0,0,1-.975-1.924,14.424,14.424,0,0,1-.3-2.643v-14.145H666.05Z" transform="translate(18.898 6.257)"/><path d="M497.729-353.63l-24.213,0-7.482-23.027-7.479,23.024-24.215,0,19.59,14.237-7.482,23.03,19.589-14.231,19.582,14.231-7.48-23.024Z" transform="translate(0 0)" fill="#21b685"/><path d="M471.225-344.3l-1.7-5.22-12.1,8.794Z" transform="translate(8.611 10.123)" fill="#00562f"/></g></svg>