<svg xmlns="http://www.w3.org/2000/svg" width="184.068" height="45.207" viewBox="0 0 184.068 45.207"><g transform="translate(-434.341 376.661)"><path d="M485-359.887h18.642v3.484h-7.321v19.545h-4.032V-356.4H485Zm17.836,6.354h3.451v3.225h.064a3.723,3.723,0,0,1,.629-1.322,6.128,6.128,0,0,1,1.129-1.177,5.678,5.678,0,0,1,1.468-.855,4.393,4.393,0,0,1,1.644-.323,8.072,8.072,0,0,1,.887.033c.161.022.327.043.5.064v3.548q-.387-.064-.791-.114a6.785,6.785,0,0,0-.79-.048,4.237,4.237,0,0,0-1.758.371,4.03,4.03,0,0,0-1.435,1.1,5.351,5.351,0,0,0-.967,1.79,7.74,7.74,0,0,0-.355,2.451v7.934H502.84Zm26.645,16.675h-3.613v-2.322h-.064a5.055,5.055,0,0,1-2.016,2.016,5.477,5.477,0,0,1-2.725.758q-3.29,0-4.758-1.629a7.15,7.15,0,0,1-1.468-4.919v-10.579h3.676v10.224a4.518,4.518,0,0,0,.839,3.1,3.051,3.051,0,0,0,2.354.9,4.626,4.626,0,0,0,1.936-.355,3.413,3.413,0,0,0,1.258-.951,3.632,3.632,0,0,0,.693-1.435,7.445,7.445,0,0,0,.21-1.806v-9.676h3.677Zm6.257-5.354a2.772,2.772,0,0,0,1.226,2.258,4.825,4.825,0,0,0,2.548.645,9.9,9.9,0,0,0,1.177-.08,5.093,5.093,0,0,0,1.241-.307,2.329,2.329,0,0,0,.952-.662,1.589,1.589,0,0,0,.338-1.145,1.623,1.623,0,0,0-.516-1.161,3.6,3.6,0,0,0-1.241-.726,12.12,12.12,0,0,0-1.726-.467q-.968-.195-1.968-.419a18.372,18.372,0,0,1-1.983-.549,6.337,6.337,0,0,1-1.709-.871,4.014,4.014,0,0,1-1.21-1.4,4.483,4.483,0,0,1-.452-2.112,3.788,3.788,0,0,1,.662-2.274,5.063,5.063,0,0,1,1.677-1.484,7.315,7.315,0,0,1,2.258-.791,13.3,13.3,0,0,1,2.37-.225,10.873,10.873,0,0,1,2.468.274,6.735,6.735,0,0,1,2.128.887,5.211,5.211,0,0,1,1.58,1.6,5.531,5.531,0,0,1,.791,2.37h-3.839a2.288,2.288,0,0,0-1.209-1.773,5.028,5.028,0,0,0-2.177-.452,7.8,7.8,0,0,0-.92.064,4.287,4.287,0,0,0-1,.243,2.1,2.1,0,0,0-.79.516,1.231,1.231,0,0,0-.323.887,1.4,1.4,0,0,0,.468,1.1,3.685,3.685,0,0,0,1.225.694,12.088,12.088,0,0,0,1.726.467q.968.193,2,.419,1,.226,1.968.549a6.376,6.376,0,0,1,1.726.87,4.255,4.255,0,0,1,1.225,1.387,4.194,4.194,0,0,1,.468,2.065,4.491,4.491,0,0,1-.677,2.515,5.352,5.352,0,0,1-1.758,1.677,8,8,0,0,1-2.4.936,12.194,12.194,0,0,1-2.612.29,11.351,11.351,0,0,1-2.919-.355,6.8,6.8,0,0,1-2.322-1.08,5.217,5.217,0,0,1-1.548-1.807,5.738,5.738,0,0,1-.6-2.564Zm12.128-11.321h2.774v-5h3.676v5h3.322v2.742H554.32v8.9a8.815,8.815,0,0,0,.049,1,1.727,1.727,0,0,0,.225.71,1.077,1.077,0,0,0,.533.435,2.62,2.62,0,0,0,.967.145c.258,0,.516,0,.774-.016a3.862,3.862,0,0,0,.773-.113v2.838q-.613.064-1.194.129a10.8,10.8,0,0,1-1.193.065,8.156,8.156,0,0,1-2.339-.274,3.109,3.109,0,0,1-1.387-.807,2.771,2.771,0,0,1-.678-1.338,10.016,10.016,0,0,1-.209-1.838v-9.838h-2.774Zm12.353,0h3.484v2.257h.064a4.55,4.55,0,0,1,2.161-2.08,7.177,7.177,0,0,1,3-.629,7.967,7.967,0,0,1,3.435.693,6.794,6.794,0,0,1,2.435,1.9,8.28,8.28,0,0,1,1.452,2.822,11.987,11.987,0,0,1,.483,3.451,12.21,12.21,0,0,1-.435,3.258,8.472,8.472,0,0,1-1.322,2.789,6.613,6.613,0,0,1-2.242,1.936,6.662,6.662,0,0,1-3.193.726,9.1,9.1,0,0,1-1.612-.145,6.941,6.941,0,0,1-1.549-.468,6.092,6.092,0,0,1-1.37-.822,4.546,4.546,0,0,1-1.048-1.177H563.9v8.321h-3.677Zm12.837,8.354a8.289,8.289,0,0,0-.29-2.193,5.973,5.973,0,0,0-.871-1.887,4.507,4.507,0,0,0-1.451-1.323,3.953,3.953,0,0,0-2-.5,4.055,4.055,0,0,0-3.5,1.613,7.115,7.115,0,0,0-1.177,4.289,8.547,8.547,0,0,0,.307,2.339,5.27,5.27,0,0,0,.92,1.854,4.581,4.581,0,0,0,1.468,1.225,4.171,4.171,0,0,0,1.983.452,4.111,4.111,0,0,0,2.128-.516,4.5,4.5,0,0,0,1.435-1.339,5.409,5.409,0,0,0,.806-1.871,9.5,9.5,0,0,0,.243-2.145m6.483-14.708h3.677v3.484h-3.677Zm0,6.354h3.677v16.675h-3.677Zm6.962-6.354h3.676v23.029H586.5Zm14.933,23.481a9.072,9.072,0,0,1-3.564-.662,7.583,7.583,0,0,1-2.644-1.822,7.781,7.781,0,0,1-1.645-2.774,10.672,10.672,0,0,1-.564-3.548,10.574,10.574,0,0,1,.564-3.515,7.781,7.781,0,0,1,1.645-2.774,7.6,7.6,0,0,1,2.644-1.823,9.09,9.09,0,0,1,3.564-.661,9.1,9.1,0,0,1,3.565.661,7.606,7.606,0,0,1,2.644,1.823,7.794,7.794,0,0,1,1.645,2.774,10.6,10.6,0,0,1,.564,3.515,10.7,10.7,0,0,1-.564,3.548,7.794,7.794,0,0,1-1.645,2.774A7.591,7.591,0,0,1,605-337.068a9.08,9.08,0,0,1-3.565.662m0-2.9a4.224,4.224,0,0,0,2.129-.516,4.478,4.478,0,0,0,1.483-1.355,5.885,5.885,0,0,0,.855-1.887,8.455,8.455,0,0,0,.274-2.145,8.524,8.524,0,0,0-.274-2.129,5.686,5.686,0,0,0-.855-1.887,4.565,4.565,0,0,0-1.483-1.339,4.224,4.224,0,0,0-2.129-.516,4.218,4.218,0,0,0-2.129.516,4.58,4.58,0,0,0-1.484,1.339,5.707,5.707,0,0,0-.855,1.887,8.524,8.524,0,0,0-.274,2.129,8.455,8.455,0,0,0,.274,2.145,5.907,5.907,0,0,0,.855,1.887,4.492,4.492,0,0,0,1.484,1.355,4.219,4.219,0,0,0,2.129.516m9.482-14.224h2.774v-5h3.676v5h3.322v2.742h-3.322v8.9a8.829,8.829,0,0,0,.049,1,1.727,1.727,0,0,0,.225.71,1.077,1.077,0,0,0,.533.435,2.62,2.62,0,0,0,.967.145c.258,0,.516,0,.774-.016a3.864,3.864,0,0,0,.773-.113v2.838q-.613.064-1.194.129a10.8,10.8,0,0,1-1.193.065,8.152,8.152,0,0,1-2.339-.274,3.1,3.1,0,0,1-1.387-.807,2.772,2.772,0,0,1-.678-1.338,10.021,10.021,0,0,1-.209-1.838v-9.838H610.92Z" transform="translate(-2.284 -0.756)" fill="#fff"/><path d="M478.427-360.643l-16.84,0-5.2-16.015-5.2,16.013-16.841,0,13.625,9.9-5.2,16.017,13.624-9.9,13.619,9.9-5.2-16.013Z" transform="translate(0 0)" fill="#21b685"/><path d="M467.023-345.891l-1.179-3.631-8.418,6.116Z" transform="translate(-1.041 -1.223)" fill="#00562f"/></g></svg>