<svg xmlns="http://www.w3.org/2000/svg" viewBox="0 0 759 1207"><defs><clipPath id="a"><path fill="#fff" stroke="#707070" d="M0 0h759v1207H0z" opacity=".736" transform="translate(9376 10130)"/></clipPath></defs><g clip-path="url(#a)" transform="translate(-9376 -10130)"><path fill="#fff" d="M9232 10130h906.642v1207H9232z"/><path fill="#8da9c4" d="M9232 10130v239.926c15.274 7.153 38.965 17.81 42.25 17.034-.13.621-.26 1.242-.4 1.859 9.512.817 19.15 8.094 25.457 15.193 2.919 3.282 19.207 25.067 19.542 29.027-7.312 8.624-14.593 1.9-13.422 20.017-4.2 10.166 1.9 17.206 7.9 6.982l-.791-.929c5.256-5.156 17.232-10.233 23.684-8.845.284 2.335 6.587 12.231 8.292 13.03 5.961 4.978 4.357 15.309 4.735 23.741 2.66-.239 14.622-4.98 21.707-3.516 4.587 7.86 11.929 23.765 11.4 27.117-9.793 1.118-15.93 5.273-18.552 15.36-5.042.489-8.867-1.178-12.238 2.793-9.479-1.862 2.7 7.531 1.186 11.639-2.107 1.24-4.255 10.764-4.341 13.963 2.752 0 7.168-.659 7.5 4.653-4.326-.2-.8 4.027-.787 6.516a4.336 4.336 0 0 0-1.58.47c.733 3.5 11.906 12.266 14.694 15.332 3.616 3.977 4.736 14.513 7.408 16.78 3.377-5.144 9.16-7.632 12.574-13.193 8.148-13.261 12.83-5.013 23.148-9.817-2.053-.646-8.891-7.259-8.879-7.241 1.386-3.614.189-10.317.4-13.968-7.647-2.158 3.549-7.529 3.549-7.908-2.1 0-6.393 3.644-7.106-1.4 2.089-.2 3.58-.921 3.947-3.253q-1.18-2.327-2.367-4.656c1.713-2.019 4.344-.139 4.344 2.323q3.351-.226 6.709-.461a21.43 21.43 0 0 0-2.762-6.516c5.848-3.052 4.016-1.457 8.683-.932 6.244-6.513-2.391-4.333-2.767-8.846 4.679-.867 12.622 1.85 16.582-.93q-7.943.462-7.893-6.516c2.885-.566 3.658-3.956 6.707-6.516-.643-.63-.444-.3-.787-1.4 2.755-.959 3.549-.575 3.549-4.187 7.36.745 6.907 3.1 6.709-2.793 4.338 1.133 2.7 2.4 10.264 4.187 0-2.929-2.22-8.147-2.761-11.171 2.294-1.3 6.093-2.231 4.735-6.517-7.639-3.734-18.728 8.7-18.771 11.929a3.191 3.191 0 0 1 .619-3.081c-1.364-4.865-4.037 1.9-6.715 1.859-2.057-7.064-6.5-9.147-12.238-7.913a73.272 73.272 0 0 1-.788 18.617q4.574-.152 5.132 5.59c-5.2 1.766-10.384 2.923-15.786 2.324-.133-1.241-.263-2.481-.4-3.723-4.111 0-6.966-8.678-7.893-13.031 2.359-.983 4.095 3.086 6.315.465 0-8.524-17.461 1.39-16.183 4.19-.334-1.785-7.481-20.044-11.118-27.58 5.452-6.271 17.54-8.944 19.061-17.9-3.744-1.541-9.233-3.857-11.844-3.261q-2.143-2.376 1.186-4.653c-2.9-.411-4.386-1.408-5.528 2.323-14.085-7.271 8.621-16.479 9.87-19.079 10.065 6.082 6.356-6.928 6.707-11.172a3.711 3.711 0 0 0-2.368-.93 11.774 11.774 0 0 0-.393 3.256c-10.3 0-8.325-6.943-3.158-11.172 4.694-8.077 6.38-9.482 5.526-20.014 5.084-4.308 2.329-6.053-1.186-7.911 0-13.374 7.2-3.789 15 .465q3.813-1.706 2.761-6.049c-10.6 0 3.365-6.94 5.531-7.449 8.305 1.371 13.876 1.353 21.311 5.12 0-.729.091-1.4.788-1.4-7.738-9.127-2.557-9.573 6.318-8.845 0-4.146 8.429-8.488-.39-7.448v-2.329c-5.667 0-9.6-3.145-16.185-.464 0-7.248 9.051-12.151 12.63-6.982 2.728-4.126 4.693-.834 8.29-.932.486-6.446 5.7-14.563 5.523-19.548-2.687.316-3.113 1.971-5.921 2.332-.63-1.374 5.921-13.891 8.292-14.433a6.005 6.005 0 0 0 4.735 4.188c1.391-.879 2.652-3.315 3.158-5.119-1.753-.665-3.9-.878-4.338-3.261 4.024-3.478 9.908-2.093 13.418-3.723.994-.684.6-.2.787-1.862-12 4.605-.3-31.245.391-27a6.458 6.458 0 0 1 2.371-.467c0-7.1-6.505 3.145-9.869 3.262-1.083-2.133-3.631-4.252-3.947-6.517 4.878 0 8.106-.6 8.688-6.984 5.715 1.266 2.987 1.408 7.895-1.394 8.866-6.81 16.6 32.613 19.734 36.3 15.706 6.949 9.669 12.483 19.335 27a120.672 120.672 0 0 0-.4-13.039c4.756-3.838 10.2-5.279 12.238 3.259-.261.313-.527.622-.787.933 3.809 0 7.141 1.844 7.079 6.76-.131 10.578 7.529 5.328 10.681 12.324 2.167 2.042 3.963 10.237 7.108 9.308 4.927 17.448 6.023-5.578 8.683-5.581v1.411c2.385 0 8.538 5.487 11.45 6.982 0-4.969 9.84-7.642 12.231-10.708 8.621 10.362-15.7 25.15.788 26.067-.217-3.261 3.29-7.1 5.132-10.24 1.92 2.259 1.906 6.466 5.531 6.516-.13-1.084-.267-2.173-.391-3.258a8.014 8.014 0 0 1 3.151.464 4.261 4.261 0 0 0-1.186-3.721c7.061 0 6.032.828 3.558 8.846a1.554 1.554 0 0 0 1.575-.932c0 5.187-.1 8.807.4 14.9 0-3.6 22.223 22.223 26.374 24.958 6.066 3.978 36.387-.455 36.387 5.759 10.855-.378 14.288 2.086 21.553 11.8 1.719 2.3 13.2 27.843 13.178 34.235 16.179-10.553 17.941 46.493 3.253 54.042-6.893 3.54-11.553 2.906-19.754 5.715-18.145 6.22-11-8.456-8.757-7.574 0-2.522.02-10.592 4.733-10.7.5.642 2.865 3.208 3.95 2.8 2.732-4.3 1.069-1.258 3.158-6.522h1.186c0-3.732-3.83-1.047-3.948-6.047 1.488-.773 2.118-5.328 3.16-7.449-3.605 0-1.823 4.664-5.129 6.05 0-3.1-3.545-10.225-6.01-10.82-2.247-.539-10.086-.362-9.78-.349-3.672 1.083-8.941-6.348-7.893 0q-2.365 3.679-3.948.465c-1.486 5.928 4.036 20.964 4.735 28.394q-2.918 3.009-5.531-.47v.932c2.537 0 6.825 9.7 7.108 12.568-3.427 2.586-5.413 1.4-9.073 0-.171 2.152-.589 2.045-.794 4.188 3.851 0 .92 3.723 5.132 3.723-.446 3.318-.81 3.8-3.551 3.261v-.932c-.178-.08-5.069 1.294-5.919 1.394v-1.394q-8.192 4.193-8.689-4.191c-.657 0-6.839 6.146-8.207 8.106-1.927 2.767-11.335-12.572-13.891-14.622 0 1.791 1.323 4.188-.787 4.188v-1.4c-1.968 0-1.029 1.862-3.16 1.862v-.932c-4.187 4.936-6.661 9.346-5.748 15.33.926 6.043-9.2 5.12-6.49 16.324a3.817 3.817 0 0 1-2.761-.467c-4.913 4.5 5.585 10.48-.4 11.169.275 5.035-.2 11.287.4 14.9-4.961-.728-2.117.909-7.106.468-2.193 4.674.486 7.307-.4 11.637 4.659 2.749 22.412 8.737 13.422 19.082-9.107 11.77 13.356 5.49 16.186 12.107 1.406 1.442-1.707 6.655-2.371 7.446 2.391.39 2.261 2.175 3.549 3.723-.938 5.742-13.019 6-13.019 11.172-7.887.288-7.99 10.7-13.033 10.7v1.4c-8.792.982-12.717-3.682-20.125-1.859 0 3.925-1.612 4.244-2.764 7.444 1.1.089 2.022-.533 2.764-1.861a13.446 13.446 0 0 0 1.184 3.725c3.839-2.324 19.337 5.9 24.079 7.913.726-2.657.467-8.843 3.549-8.843v-1.862c4 0 3.839 7.378 8.29 8.376v1.865c3.592 0 7.2-5.2 11.444-4.656 0 3.956 1.18 3.259 4.736 3.259v-.468c-7.94.195 1.666-9.675 3.557-7.446-.849-1.522-4.826-5.585-6.319-5.585 2.962-5.528-2.5-16.087-2.37-22.809 2.639 0 12.752 5.818 14.211 3.259-1.473-.8-.816-.119-.787-1.861 1.069-.785 26.12-.6 27.23 0 0-4.522 1.652-5.612.8-10.708 1.467.278 1.3.624 2.761.932a47.847 47.847 0 0 0 1.974-5.122c1.007.2 2.844-.213 3.16 0 6.735 9.2.953 21.725 10.656 27.931a19.329 19.329 0 0 0-3.55 6.031c5.236 1.744 16.843 3.584 16.584 5.122l4.336 1.861a4.741 4.741 0 0 0-1.184-4.194c33.939-30.248 13.066 77.937 14.472 79.583 15.957 18.66-3.737 8.66-7.716 18.565-1.906 4.752-6.357 15.566-6.357 19.156-1.729 2.531-14.057 16.7-8.683 14.89-.177 14.058 6.306 7.235 12.24 14.9 1.938 1.269 2.29 7.182 3.16 7.911 7.387 4.6 16.437-3.566 10.415 10.663-4.256 10.059 2.987 14.137-2.134 26.576 2.565 0 7.845-3.256 11.056-3.256a10.408 10.408 0 0 0-1.976 3.256c3.927 2.324 1.535 14.533 5.043 21.352 8.189 15.911-18.068 4.24-18.068 11.693 2.82 0 15.685 6.874 15.785 11.174q-2.746-.535-1.973 2.329c12.217 6.288-14.584 8.74-18.949 8.842.267 1.55.529 3.1.794 4.656h-1.982c.157 6.792-3.38 1.557-3.154 8.379-10.518-1.831-7.455 8.681-9.079 9.772-2.974 2.853-2.932 10.053-4.742 13.966.82.547.745.317 1.183 1.4a3.458 3.458 0 0 0-1.575 2.326c4.789 1.095 1.667 3.826 2.37 6.047.933 1.089 10.026 2.577 10.656 2.327 1.154-9.023 6.168-15.724 14.6-9.773-3.728 5.831-1.062 16.7 5.134 15.827 0 6.738-9.471 7.4-9.471 13.033 1.355 0 9.166-1.542 10.255-.93 0-2.25 3.361-2.874 5.135-3.256-.166 2.117-.3 2.688.787 4.187 2.269-4.945 19.748-5.315 21.708-1.4-2.22.965-2.886 2.358-1.969 4.19-4.733 8.956-7.553 7.837-3.554 15.824-9.967 0-8.891 11.361-.393 12.574a5.955 5.955 0 0 1-.793 3.723c9.332-1.4 3.851 2.27 11.444 4.188.745-1.518 1.622-3.992 3.16-4.655 5.99 4.818 7.05 5.129 13.422 4.655-.636 6.535-4.584 8.627-5.129 14.428h1.184c0 4.182 4.421 5.3 3.152 9.305 4.105 3.424 7.449-1.491 11.041-3.9 3.942-2.642 7.757 2.506 12.253 2.042a18.3 18.3 0 0 1 0 10.71h1.58c0 11.616 11.3 1.394 14.212 1.4 3.428 5.727 8.683 6.763 11.047 12.1 8.31 11.086 4.344-.006 4.344 11.637 6.646 0 16.979-13.756 25.265-6.982 2.808 9.968 15.564 11.689 16.966 23.271 7.573 14.154 21.167 27.094 27.635 40.5 1.056-1.072 51.4 65.632 52.1 65.632-.15 1.7-.337 1.908 0 3.256 5.868-2.625 16.186 8.852 12.24 15.825 24.095 0 18.885 1.494 39.471 18.156 12.963 2.546 5.384 17.928 21.078 5.984 7.142-5.439 5.413-8.369 10.106-13.9 2.933-9 3.385-18.012 4.339-27.464-5.955 0-6.724-4.828-7.1-10.24 7.269-5.854 19.036 2.678 28.416-4.652 5.384-4.019 9.367 6.291 12.5 9.39 5.016 4.957 7.232-4.321 11.972-5.2 3.613 2.7 10.051-4.519 9.867 6.513 1.894 4.709-3.151 17.254-7.5 16.759-1.678 6.827-8.437 11.072-7.9 9.775-2.269 3.945 7.413 31.149 9.471 35.84 8.249-6.189 11.365-12.1 20.532-12.1v-1.4h1.183c0 7.318 37.964-2.255 30.391 20.944a5.867 5.867 0 0 0 2.285 1.072V10130z"/><path fill="#133c55" d="M9500.646 10275.171a22.655 22.655 0 1 1-22.643-22.67 22.625 22.625 0 0 1 22.643 22.67"/><path fill="#c2b59b" d="M9489.623 10275.159a11.627 11.627 0 1 1-11.63-11.631 11.614 11.614 0 0 1 11.63 11.631"/><path fill="#133c55" d="M9427.681 10346.319a15.1 15.1 0 1 0 15.1 15.113 15.114 15.114 0 0 0-15.1-15.113z"/><path fill="#c2b59b" d="M9427.693 10353.871a7.552 7.552 0 1 0 7.535 7.553 7.566 7.566 0 0 0-7.535-7.553z"/><path fill="#133c55" d="M9705.509 10417.267a15.1 15.1 0 1 0 15.1 15.113 15.114 15.114 0 0 0-15.1-15.113z"/><path fill="#c2b59b" d="M9705.521 10424.819a7.552 7.552 0 1 0 7.537 7.553 7.566 7.566 0 0 0-7.537-7.553z"/><path fill="#133c55" d="M9662.419 10607.74a15.1 15.1 0 1 0 15.1 15.112 15.113 15.113 0 0 0-15.1-15.112z"/><path fill="#c2b59b" d="M9662.432 10615.292a7.552 7.552 0 1 0 7.537 7.553 7.566 7.566 0 0 0-7.537-7.553z"/><path fill="#133c55" d="M9731.996 10852.283a15.1 15.1 0 1 0 15.1 15.114 15.114 15.114 0 0 0-15.1-15.114z"/><path fill="#c2b59b" d="M9732.009 10859.835a7.552 7.552 0 1 0 7.537 7.555 7.566 7.566 0 0 0-7.537-7.555z"/><path fill="#133c55" d="M10054.592 11159.964a15.1 15.1 0 1 0 15.1 15.113 15.113 15.113 0 0 0-15.1-15.113z"/><path fill="#c2b59b" d="M10054.603 11167.516a7.552 7.552 0 1 0 7.535 7.555 7.566 7.566 0 0 0-7.535-7.555z"/><g fill="#001024"><path d="M9537.071 10269.592l-4.42 4h-16.172l-3.588-4 2.912-27.98 4.42-4h16.172l3.588 4-.832 8.008h-8.008l.416-4h-8.164l-2.08 19.964h8.164l.416-4h-5.98l.832-7.956h13.988zm25.844 0l-4.42 4h-15.496l-3.536-4 2.916-27.928 4.368-4h15.5l3.588 4zm-7.592-3.956l2.08-20.02h-7.488l-2.08 20.02zm34.476 3.956l-4.42 4h-16.432l-3.588-4 2.912-27.924 4.42-4h16.432l3.588 4-.832 7.952h-8.008l.416-4h-8.424l-2.084 20.016h8.424l.416-4h8.008zm26.26 4h-24.232l.832-8.008h2.028l2.08-19.968h-2.028l.832-8.008h24.232l-1.248 12.012h-8.008l.416-4h-6.24l-.624 5.972h7.748l-.832 8.008h-7.748l-.624 5.98h6.236l.416-4h8.008zm30.16-27.976l-9.412 9.984 7.332 9.984h1.82l-.832 8.008h-12.012l.832-8.008h1.664q-1.092-1.508-2.184-2.992t-2.236-2.99h-.988l-.624 5.98h2.028l-.828 8.01h-12.016l.832-8.008h2.028l2.08-19.968h-2.024l.832-8.008h12.008l-.832 8.008h-2.028l-.624 5.976h.988q1.456-1.508 2.86-2.99t2.808-2.99h-1.664l.832-8.008h12.012l-.832 8.008z"/><text font-family="SoccerLeague-Italic, Soccer League" font-size="51" font-style="italic" transform="translate(9545.443 10233.297)"><tspan x="0" y="0">..</tspan></text></g><path fill="#001024" d="M9652.977 10576.123l-6.7 7.1 5.217 7.1h1.3l-.596 5.706h-8.547l.592-5.7h1.184q-.777-1.071-1.55-2.126t-1.6-2.127h-.7l-.442 4.253h1.442l-.591 5.7h-8.547l.592-5.7h1.446l1.48-14.208h-1.446l.592-5.7h8.547l-.592 5.7h-1.443l-.444 4.255h.7q1.036-1.073 2.035-2.127t2-2.128h-1.183l.592-5.7h8.547l-.592 5.7zm10.767 7.1h2.627l-.7-6.142zm10.506 7.145l-.592 5.661h-8.51l.592-5.661h1.406l-.148-1.439h-5.069l-.444 1.443h1.406l-.592 5.657h-8.51l.588-5.661h1.41l4.514-14.245h-1.624l.592-5.661h14.208l-.6 5.661h-1.587l1.554 14.245zm19.684 0l-.592 5.661h-7.881l.592-5.661h1.147l.444-4.292h-4.44l-.444 4.292h1.443l-.592 5.661h-8.547l.592-5.661h1.443l1.478-14.245h-1.441l.592-5.661h14.393l2.556 2.849-.888 8.51-1.557 1.408 1.258 1.443-.592 5.7zm-5.7-9.953l.444-4.292h-4.44l-.444 4.292zm16.319 2.814h2.624l-.7-6.144zm10.508 7.139l-.592 5.661h-8.51l.592-5.661h1.406l-.148-1.439h-5.069l-.444 1.443h1.406l-.592 5.657h-8.51l.592-5.661h1.406l4.514-14.245h-1.628l.592-5.661h14.208l-.592 5.661h-1.591l1.554 14.245zm18.611 2.812l-3.145 2.849h-11.692l-2.553-2.849 2.072-19.869 3.145-2.849h11.692l2.553 2.849-.592 5.661h-5.7l.3-2.849h-5.996l-1.479 14.245h5.994l.3-2.849h5.7zm11.026-9.951h2.627l-.7-6.142zm10.508 7.141l-.592 5.659h-8.51l.592-5.661h1.406l-.148-1.439h-5.069l-.444 1.443h1.406l-.592 5.657h-8.51l.592-5.661h1.406l4.514-14.245h-1.628l.592-5.661h14.208l-.592 5.661h-1.591l1.554 14.245zm17.908 2.812l-3.145 2.847h-11.026l-2.516-2.849 2.072-19.869 3.108-2.849h11.026l2.553 2.849zm-5.4-2.812l1.48-14.245h-5.328l-1.48 14.245zm25.6 0l-.59 5.659h-7.881l.592-5.661h1.142l.444-4.292h-4.44l-.444 4.292h1.443l-.587 5.661h-8.547l.592-5.661h1.439l1.48-14.245h-1.443l.592-5.661h14.393l2.553 2.849-.888 8.51-1.55 1.408 1.258 1.443-.592 5.7zm-5.7-9.953l.444-4.292h-4.44l-.444 4.292zm23.98 15.612h-17.242l.592-5.7h1.443l1.48-14.208h-1.443l.592-5.7h17.242l-.888 8.547h-5.7l.3-2.849h-4.44l-.444 4.255h5.513l-.592 5.7h-5.513l-.446 4.255h4.44l.3-2.849h5.7zm23.791-25.6l-.592 5.7h-1.443l-2.073 19.9h-5.772l-3.7-12.21-.665 6.51h1.443l-.592 5.7h-8.547l.592-5.7h1.441l1.48-14.208h-1.443l.592-5.7h6.993l3.848 12.58.74-6.882h-1.443l.592-5.7zM9750.7 10428.199h-5.661l.3-2.849h-3.741l-.444 4.255h5.661l-.592 5.7h-5.661l-.444 4.251h1.406l-.59 5.7h-8.549l.592-5.7h1.443l1.48-14.208h-1.443l.592-5.7h16.539zm17.168 17.057h-17.242l.592-5.7h1.443l1.48-14.208h-1.443l.592-5.7h17.244l-.888 8.547h-5.7l.3-2.849h-4.44l-.444 4.255h5.513l-.592 5.7h-5.517l-.444 4.255h4.44l.3-2.849h5.7zm21.312-25.6l-.888 8.547h-4.258l.3-2.849h-1.444l-1.48 14.202h1.443l-.592 5.7h-8.547l.592-5.7h1.443l1.48-14.208h-1.443l-.3 2.849h-4.288l.888-8.547zm19.092 19.9l-.592 5.7h-8.546l.592-5.7h1.443l.444-4.255h-5.292l-.444 4.255h1.406l-.592 5.7h-8.51l.592-5.7h1.406l1.48-14.208h-1.406l.592-5.7h8.51l-.592 5.7h-1.406l-.444 4.255h5.291l.444-4.255h-1.443l.592-5.7h8.547l-.592 5.7h-1.443l-1.48 14.208zm10.656 0l-.594 5.7h-8.51l.592-5.7h1.408l1.48-14.208h-1.406l.592-5.7h8.51l-.592 5.7h-1.406l-1.48 14.208zm22.237-19.869l-.592 5.7h-1.439l-6.142 10.4-.37 3.811h1.406l-.594 5.658h-8.51l.592-5.661h1.406l.37-3.811-.259-.74q-.259-.74-.666-1.832t-.888-2.386l-.907-2.442q-.426-1.147-.74-1.98t-.389-1.017h-1.409l.592-5.7h8.508l-.592 5.7h-1.402l1.554 5.217 2.775-5.217h-1.443l.592-5.7zm16.206 25.569h-17.237l.592-5.7h1.443l1.48-14.208h-1.443l.592-5.7h17.236l-.888 8.547h-5.7l.3-2.849h-4.44l-.444 4.255h5.513l-.592 5.7h-5.513l-.445 4.255h4.44l.3-2.849h5.7zM9432.795 10391.473l-.888 8.547h-4.255l.3-2.849h-1.447l-1.48 14.202h1.443l-.592 5.7h-8.547l.592-5.7h1.443l1.481-14.206h-1.444l-.3 2.849h-4.288l.888-8.543zm15.873 22.751l-3.145 2.849h-11.026l-2.516-2.849 2.072-19.869 3.108-2.849h11.026l2.553 2.849zm-5.4-2.812l1.477-14.245h-5.327l-1.48 14.245zm29.672-.039l-.595 5.7h-8.51l.592-5.7h1.406l.851-8.325-4.839 7.846-3.15-7.844-.85 8.323h1.406l-.593 5.7h-8.513l.592-5.7h1.408l1.48-14.208h-1.405l.592-5.7h6.7l3.552 7.881 5.288-7.873h6.66l-.592 5.7h-1.406l-1.48 14.2zm18.87 2.849l-3.145 2.851h-14.689l.592-5.7h1.406l1.48-14.208h-1.409l.592-5.661h14.692l2.553 2.849-.888 8.51-1.591 1.41 1.295 1.443zm-5.402-2.849l.444-4.255h-4.736l-.444 4.255zm1.037-9.914l.444-4.292h-4.737l-.444 4.292zm31.6 12.765l-3.148 2.849h-14.689l.592-5.7h1.406l1.48-14.208h-1.406l.592-5.661h14.689l2.553 2.849-.888 8.51-1.591 1.41 1.3 1.443zm-5.4-2.849l.444-4.255h-4.744l-.441 4.253zm1.036-9.916l.444-4.292h-4.741l-.444 4.292zm15.424 2.814h2.627l-.7-6.142zm10.508 7.141l-.592 5.659h-8.51l.592-5.661h1.406l-.148-1.439h-5.069l-.447 1.439h1.406l-.589 5.661h-8.51l.592-5.661h1.406l4.514-14.245h-1.628l.592-5.661h14.208l-.592 5.661h-1.591l1.554 14.245zm21.9-19.906l-.592 5.7h-1.443l-6.133 10.393-.37 3.811h1.406l-.597 5.661h-8.51l.592-5.661h1.406l.37-3.811-.259-.74q-.259-.74-.666-1.832t-.888-2.386l-.906-2.442q-.426-1.147-.74-1.98t-.389-1.017h-1.406l.592-5.7h8.51l-.592 5.7h-1.406l1.554 5.217 2.775-5.217h-1.443l.592-5.7zM9991.867 11122.689l-6.7 7.1 5.217 7.1h1.3l-.596 5.706h-8.547l.592-5.7h1.184q-.777-1.071-1.55-2.126t-1.6-2.127h-.7l-.442 4.253h1.442l-.591 5.7h-8.547l.592-5.7h1.446l1.48-14.208h-1.446l.592-5.7h8.547l-.592 5.7h-1.443l-.444 4.255h.7q1.036-1.073 2.035-2.127t2-2.128h-1.183l.592-5.7h8.547l-.592 5.7zm10.767 7.1h2.627l-.7-6.142zm10.506 7.145l-.592 5.661h-8.51l.592-5.661h1.406l-.148-1.439h-5.069l-.444 1.443h1.406l-.592 5.657h-8.51l.588-5.661h1.41l4.514-14.245h-1.624l.592-5.661h14.208l-.6 5.661h-1.587l1.554 14.245zm18.019-2.849l-.892 8.51h-16.128l.592-5.661h1.406l1.48-14.245h-1.406l.592-5.661h8.51l-.592 5.661h-1.406l-1.48 14.245h3.332l.3-2.849zm20.461-11.4l-6.7 7.1 5.217 7.1h1.295l-.589 5.71h-8.547l.592-5.7h1.184q-.777-1.073-1.554-2.128t-1.591-2.125h-.7l-.447 4.253h1.443l-.592 5.7h-8.547l.592-5.7h1.443l1.48-14.208h-1.443l.592-5.7h8.547l-.592 5.7h-1.443l-.444 4.255h.7q1.036-1.073 2.035-2.127t2-2.128h-1.184l.592-5.7h8.548l-.592 5.7zm10.767 7.11h2.627l-.7-6.142zm10.508 7.141l-.592 5.659h-8.51l.592-5.661h1.406l-.148-1.439h-5.069l-.444 1.443h1.406l-.592 5.657h-8.51l.592-5.661h1.406l4.514-14.245h-1.628l.592-5.661h14.208l-.592 5.661h-1.591l1.554 14.245zm22.866-19.941l-.592 5.7h-1.443l-2.072 19.9h-5.772l-3.7-12.21-.666 6.51h1.443l-.592 5.7h-8.547l.592-5.7h1.443l1.48-14.208h-1.443l.592-5.7h6.993l3.848 12.58.74-6.882h-1.443l.592-5.7zM9779.125 10878.558l-3.145 2.849h-11.692l-2.553-2.849 2.072-19.869 3.144-2.849h11.693l2.553 2.849-.592 5.661h-5.7l.3-2.849h-5.996l-1.48 14.245h5.994l.3-2.849h5.7zm18.426 0l-3.145 2.849h-11.026l-2.516-2.849 2.072-19.869 3.108-2.849h11.026l2.553 2.849zm-5.4-2.812l1.48-14.245h-5.33l-1.48 14.245zm23.937-2.849l-.888 8.51h-16.132l.592-5.661h1.406l1.48-14.245h-1.406l.592-5.661h8.51l-.591 5.661h-1.407l-1.48 14.245h3.33l.3-2.849zm19.163 5.661l-3.142 2.849h-15.133l.592-5.661h1.406l1.477-14.245h-1.4l.592-5.661h15.13l2.553 2.849zm-5.4-2.812l1.48-14.245h-5.18l-1.479 14.245zm32.3-19.869l-.592 5.661h-1.441l-2.109 19.906h-5.658l-3.4-6.771-5.3 6.771h-5.659l2.109-19.906h-1.443l.593-5.661h8.547l-.592 5.661h-1.444l-.888 8.362 5.254-6.771 3.441 6.771.888-8.362h-1.443l.592-5.661zm8.438 12.73h2.627l-.7-6.142zm10.508 7.141l-.592 5.659h-8.51l.592-5.661h1.406l-.148-1.439h-5.069l-.444 1.443h1.406l-.587 5.657h-8.51l.592-5.661h1.406l4.512-14.245h-1.628l.592-5.661h14.208l-.592 5.661h-1.591l1.551 14.245zm20.387-19.941l-.888 8.547h-4.255l.3-2.849h-1.443l-1.484 14.202h1.443l-.592 5.7h-8.547l.592-5.7h1.441l1.48-14.208h-1.443l-.3 2.849h-4.292l.888-8.547zm16.132 25.6h-17.242l.592-5.7h1.443l1.48-14.208h-1.438l.592-5.7h17.242l-.888 8.547h-5.7l.3-2.849h-4.446l-.444 4.255h5.513l-.592 5.7h-5.513l-.445 4.255h4.44l.3-2.849h5.7zm20.609-5.661l-.592 5.661h-7.882l.592-5.661h1.147l.444-4.292h-4.44l-.443 4.292h1.443l-.592 5.661h-8.551l.592-5.661h1.443l1.48-14.245h-1.443l.592-5.661h14.393l2.553 2.849-.888 8.51-1.55 1.408 1.258 1.443-.592 5.7zm-5.7-9.953l.444-4.292h-4.44l-.444 4.292zm32.488 12.765l-3.145 2.849h-14.689l.592-5.7h1.406l1.48-14.208h-1.406l.592-5.661h14.689l2.553 2.849-.888 8.51-1.591 1.41 1.295 1.443zm-5.402-2.851l.444-4.255h-4.736l-.444 4.255zm1.036-9.916l.444-4.292h-4.74l-.444 4.292zm15.429 2.816h2.627l-.7-6.142zm10.508 7.141l-.592 5.659h-8.51l.592-5.661h1.406l-.148-1.439h-5.069l-.444 1.443h1.406l-.592 5.657h-8.51l.592-5.661h1.406l4.514-14.245h-1.628l.592-5.661h14.208l-.592 5.661h-1.591l1.554 14.245zm21.9-19.906l-.592 5.7h-1.441l-6.142 10.4-.37 3.811h1.412l-.6 5.654h-8.51l.592-5.661h1.406l.37-3.811-.259-.74q-.259-.74-.666-1.832t-.888-2.386l-.906-2.442q-.426-1.147-.74-1.98t-.389-1.017h-1.406l.592-5.7h8.51l-.592 5.7h-1.406l1.554 5.217 2.775-5.217h-1.437l.592-5.7z"/><path fill="#aa9e88" d="M9465.268 11182.707l-.592 5.7h-8.51l.592-5.7h1.406l.851-8.325-4.847 7.846-3.145-7.844-.851 8.323h1.406l-.592 5.7h-8.51l.592-5.7h1.406l1.477-14.206h-1.4l.592-5.7h6.7l3.552 7.881 5.285-7.875h6.66l-.592 5.7h-1.406l-1.48 14.2zm18.352 5.7h-17.242l.592-5.7h1.443l1.48-14.208h-1.442l.592-5.7h17.241l-.888 8.547h-5.7l.3-2.849h-4.445l-.444 4.255h5.513l-.592 5.7h-5.51l-.444 4.255h4.44l.3-2.849h5.7zm20.165-2.849l-3.145 2.849h-15.133l.592-5.661h1.406l1.48-14.245h-1.406l.592-5.661h15.133l2.553 2.849zm-5.4-2.812l1.48-14.245h-5.18l-1.482 14.245zm16.13-.039l-.592 5.7h-8.51l.592-5.7h1.406l1.48-14.208h-1.406l.592-5.7h8.51l-.592 5.7h-1.406l-1.48 14.208zm20.72-19.9l-.884 8.543h-4.259l.3-2.849h-1.447l-1.48 14.206h1.443l-.592 5.7h-8.547l.592-5.7h1.443l1.48-14.208h-1.443l-.3 2.849h-4.29l.89-8.541zm16.132 25.6h-17.242l.592-5.7h1.443l1.48-14.208h-1.443l.592-5.7h17.242l-.888 8.547h-5.7l.3-2.849h-4.44l-.444 4.255h5.513l-.592 5.7h-5.513l-.446 4.255h4.44l.3-2.849h5.7zm20.609-5.661l-.592 5.661h-7.881l.592-5.661h1.147l.444-4.292h-4.44l-.444 4.292h1.443l-.594 5.661h-8.547l.592-5.661h1.443l1.48-14.245h-1.443l.592-5.661h14.393l2.553 2.849-.888 8.51-1.552 1.408 1.258 1.443-.592 5.7zm-5.7-9.953l.444-4.292h-4.44l-.444 4.292zm25.495 9.953l-.592 5.661h-7.881l.592-5.661h1.147l.444-4.292h-4.44l-.444 4.292h1.443l-.589 5.661h-8.55l.592-5.661h1.443l1.48-14.245h-1.443l.592-5.661h14.393l2.553 2.849-.888 8.51-1.554 1.408 1.258 1.443-.592 5.7zm-5.7-9.953l.444-4.292h-4.44l-.444 4.292zm16.319 2.814h2.627l-.7-6.142zm10.508 7.141l-.592 5.659h-8.51l.592-5.661h1.406l-.143-1.439h-5.069l-.444 1.443h1.406l-.593 5.657h-8.51l.592-5.661h1.406l4.512-14.245h-1.63l.592-5.661h14.208l-.592 5.661h-1.591l1.554 14.245zm22.866-19.941l-.592 5.7h-1.443l-2.072 19.9h-5.772l-3.7-12.21-.666 6.51h1.443l-.592 5.7h-8.547l.592-5.7h1.443l1.48-14.208h-1.443l.592-5.7h6.993l3.848 12.58.74-6.882h-1.443l.592-5.7zm16.058 25.6h-17.242l.592-5.7h1.443l1.48-14.208h-1.444l.592-5.7h17.242l-.888 8.547h-5.7l.3-2.849h-4.44l-.444 4.255h5.513l-.592 5.7h-5.513l-.445 4.255h4.44l.3-2.849h5.7zm11.429-12.8h2.627l-.7-6.142zm10.508 7.141l-.588 5.659h-8.51l.592-5.661h1.406l-.148-1.439h-5.069l-.444 1.443h1.406l-.592 5.657h-8.51l.592-5.661h1.406l4.514-14.245h-1.628l.592-5.661h14.208l-.592 5.661h-1.591l1.554 14.245zm22.87-19.941l-.592 5.7h-1.443l-2.072 19.9h-5.771l-3.7-12.21-.667 6.51h1.443l-.592 5.7h-8.547l.592-5.7h1.443l1.48-14.208h-1.443l.592-5.7h6.993l3.848 12.58.74-6.882h-1.443l.592-5.7zm23.754 22.751l-3.145 2.849h-11.026l-2.553-2.849.592-5.7h5.7l-.3 2.849h5.328l.444-4.255h-8.172l-2.556-2.845 1.036-9.953 3.145-2.849h11.026l2.553 2.849-.592 5.7h-5.7l.3-2.849h-5.328l-.444 4.255h8.177l2.553 2.849zm18.685 2.849h-17.242l.592-5.7h1.443l1.48-14.208h-1.443l.592-5.7h17.242l-.888 8.547h-5.7l.3-2.849h-4.44l-.444 4.255h5.513l-.592 5.7h-5.513l-.446 4.255h4.44l.3-2.849h5.7zm11.433-12.8h2.627l-.7-6.142zm10.508 7.141l-.592 5.659h-8.51l.592-5.661h1.406l-.148-1.439h-5.069l-.444 1.443h1.407l-.593 5.657h-8.507l.592-5.661h1.406l4.514-14.245h-1.628l.592-5.661h14.208l-.592 5.661h-1.592l1.554 14.245z"/></g></svg>