<svg xmlns="http://www.w3.org/2000/svg" viewBox="0 0 600.3 799.2"><defs><style>.cls-1{fill:#fff;}.cls-2{fill:#8da9c4;}.cls-3{fill:#133c55;}.cls-4{fill:#c2b59b;}.cls-5,.cls-6{isolation:isolate;fill:#001024;font-family:SoccerLeague-Italic, Soccer League;font-style:italic;}.cls-5{font-size:34.78px;}.cls-6{font-size:25.43px;}</style></defs><g id="Layer_2" data-name="Layer 2"><g id="Layer_1-2" data-name="Layer 1"><rect class="cls-1" width="600.3" height="799.2"/><g id="Layer_2-2" data-name="Layer 2"><path class="cls-2" d="M0,0V158.9c10.1,4.7,25.8,11.8,28,11.3l-.3,1.2c6.3.5,12.7,5.4,16.9,10.1,1.9,2.2,12.7,16.6,12.9,19.2-4.8,5.7-9.7,1.3-8.9,13.3-2.8,6.7,1.3,11.4,5.2,4.6-.2-.2-.3-.4-.5-.6,3.5-3.4,11.4-6.8,15.7-5.9.2,1.5,4.4,8.1,5.5,8.6,3.9,3.3,2.9,10.1,3.1,15.7,1.8-.2,9.7-3.3,14.4-2.3,3,5.2,7.9,15.7,7.6,18-6.5.7-10.5,3.5-12.3,10.2-3.3.3-5.9-.8-8.1,1.8-6.3-1.2,1.8,5,.8,7.7-1.4.8-2.8,7.1-2.9,9.2,1.8,0,4.7-.4,5,3.1-2.9-.1-.5,2.7-.5,4.3a2.37,2.37,0,0,0-1,.3c.5,2.3,7.9,8.1,9.7,10.2,2.4,2.6,3.1,9.6,4.9,11.1,2.2-3.4,6.1-5.1,8.3-8.7,5.4-8.8,8.5-3.3,15.3-6.5-1.4-.4-5.9-4.8-5.9-4.8.9-2.4.1-6.8.3-9.2-5.1-1.4,2.3-5,2.3-5.2-1.4,0-4.2,2.4-4.7-.9,1.4-.1,2.4-.6,2.6-2.2-.5-1-1-2.1-1.6-3.1,1.1-1.3,2.9-.1,2.9,1.5l4.4-.3a15,15,0,0,0-1.8-4.3c3.9-2,2.7-1,5.7-.6,4.1-4.3-1.6-2.9-1.8-5.9,3.1-.6,8.4,1.2,11-.6-3.5.2-5.2-1.2-5.2-4.3,1.9-.4,2.4-2.6,4.4-4.3-.4-.4-.3-.2-.5-.9,1.8-.6,2.4-.4,2.4-2.8,4.9.5,4.6,2.1,4.4-1.8,2.9.8,1.8,1.6,6.8,2.8,0-1.9-1.5-5.4-1.8-7.4,1.5-.9,4-1.5,3.1-4.3-5.1-2.5-12.4,5.8-12.4,7.9a2.1,2.1,0,0,1,.4-2c-.9-3.2-2.7,1.3-4.4,1.2-1.4-4.7-4.3-6.1-8.1-5.2a50.54,50.54,0,0,1-.5,12.3c2-.1,3.1,1.2,3.4,3.7a23.56,23.56,0,0,1-10.5,1.5c-.1-.8-.2-1.6-.3-2.5-2.7,0-4.6-5.7-5.2-8.6,1.6-.7,2.7,2,4.2.3,0-5.6-11.6.9-10.7,2.8-.2-1.2-5-13.3-7.4-18.3,3.6-4.2,11.6-5.9,12.6-11.9-2.5-1-6.1-2.6-7.8-2.2-.9-1-.7-2.1.8-3.1-1.9-.3-2.9-.9-3.7,1.5-9.3-4.8,5.7-10.9,6.5-12.6,6.7,4,4.2-4.6,4.4-7.4a2.36,2.36,0,0,0-1.6-.6,10.58,10.58,0,0,0-.3,2.2c-6.8,0-5.5-4.6-2.1-7.4,3.1-5.3,4.2-6.3,3.7-13.3,3.4-2.9,1.5-4-.8-5.2,0-8.9,4.8-2.5,9.9.3a3.07,3.07,0,0,0,1.8-4c-7,0,2.2-4.6,3.7-4.9,5.5.9,9.2.9,14.1,3.4,0-.5.1-.9.5-.9-5.1-6-1.7-6.3,4.2-5.9,0-2.7,5.6-5.6-.3-4.9v-1.5c-3.8,0-6.4-2.1-10.7-.3,0-4.8,6-8,8.4-4.6,1.8-2.7,3.1-.6,5.5-.6.3-4.3,3.8-9.6,3.7-12.9-1.8.2-2.1,1.3-3.9,1.5-.4-.9,3.9-9.2,5.5-9.6a4.15,4.15,0,0,0,3.1,2.8,6.59,6.59,0,0,0,2.1-3.4c-1.2-.4-2.6-.6-2.9-2.2,2.7-2.3,6.6-1.4,8.9-2.5.7-.5.4-.1.5-1.2-7.9,3-.2-20.7.3-17.9a3.51,3.51,0,0,1,1.6-.3c0-4.7-4.3,2.1-6.5,2.2-.7-1.4-2.4-2.8-2.6-4.3,3.2,0,5.4-.4,5.8-4.6,3.8.8,2,.9,5.2-.9,5.9-4.5,11,21.6,13.1,24,10.4,4.6,6.4,8.3,12.8,17.9a61.82,61.82,0,0,0-.3-8.6c3.1-2.5,6.8-3.5,8.1,2.2-.2.2-.3.4-.5.6,2.5,0,4.7,1.2,4.7,4.5-.1,7,5,3.5,7.1,8.2,1.4,1.4,2.6,6.8,4.7,6.2,3.3,11.6,4-3.7,5.7-3.7v.9c1.6,0,5.7,3.6,7.6,4.6,0-3.3,6.5-5.1,8.1-7.1,5.7,6.9-10.4,16.7.5,17.3-.1-2.2,2.2-4.7,3.4-6.8,1.3,1.5,1.3,4.3,3.7,4.3-.1-.7-.2-1.4-.3-2.2a5.84,5.84,0,0,1,2.1.3,2.94,2.94,0,0,0-.8-2.5c4.7,0,4,.5,2.4,5.9a.85.85,0,0,0,1-.6,86.19,86.19,0,0,0,.3,9.9c0-2.4,14.7,14.7,17.5,16.5,4,2.6,24.1-.3,24.1,3.8,7.2-.2,9.5,1.4,14.3,7.8,1.1,1.5,8.7,18.4,8.7,22.7,10.7-7,11.9,30.8,2.2,35.8-4.6,2.3-7.6,1.9-13.1,3.8-12,4.1-7.3-5.6-5.8-5,0-1.7,0-7,3.1-7.1.3.4,1.9,2.1,2.6,1.9,1.8-2.8.7-.8,2.1-4.3h.8c0-2.5-2.5-.7-2.6-4,1-.5,1.4-3.5,2.1-4.9-2.4,0-1.2,3.1-3.4,4,0-2.1-2.3-6.8-4-7.2a39.05,39.05,0,0,0-6.5-.2c-2.4.7-5.9-4.2-5.2,0-1,1.6-1.9,1.7-2.6.3-1,3.9,2.7,13.9,3.1,18.8-1.3,1.3-2.5,1.2-3.7-.3v.6c1.7,0,4.5,6.4,4.7,8.3-2.3,1.7-3.6.9-6,0-.1,1.4-.4,1.4-.5,2.8,2.5,0,.6,2.5,3.4,2.5-.3,2.2-.5,2.5-2.4,2.2v-.6c-.1-.1-3.4.9-3.9.9v-.9c-3.6,1.9-5.5.9-5.8-2.8-.4,0-4.5,4.1-5.4,5.4-1.3,1.8-7.5-8.3-9.2-9.7,0,1.2.9,2.8-.5,2.8v-.9c-1.3,0-.7,1.2-2.1,1.2V261c-2.8,3.3-4.4,6.2-3.8,10.1s-6.1,3.4-4.3,10.8a2.89,2.89,0,0,1-1.8-.3c-3.3,3,3.7,6.9-.3,7.4.2,3.3-.1,7.5.3,9.9-3.3-.5-1.4.6-4.7.3-1.5,3.1.3,4.8-.3,7.7,3.1,1.8,14.8,5.8,8.9,12.6-6,7.8,8.8,3.6,10.7,8,.9,1-1.1,4.4-1.6,4.9,1.6.3,1.5,1.4,2.4,2.5-.6,3.8-8.6,4-8.6,7.4-5.2.2-5.3,7.1-8.6,7.1v.9c-5.8.6-8.4-2.4-13.3-1.2,0,2.6-1.1,2.8-1.8,4.9.7.1,1.3-.4,1.8-1.2a6.68,6.68,0,0,0,.8,2.5c2.5-1.5,12.8,3.9,15.9,5.2.5-1.8.3-5.9,2.4-5.9v-1.2c2.6,0,2.5,4.9,5.5,5.5v1.2c2.4,0,4.8-3.4,7.6-3.1,0,2.6.8,2.2,3.1,2.2v-.3c-5.3.1,1.1-6.4,2.4-4.9-.6-1-3.2-3.7-4.2-3.7,2-3.7-1.7-10.7-1.6-15.1,1.7,0,8.4,3.9,9.4,2.2-1-.5-.5-.1-.5-1.2.7-.5,17.3-.4,18,0,0-3,1.1-3.7.5-7.1,1,.2.9.4,1.8.6a26.8,26.8,0,0,0,1.3-3.4c.7.1,1.9-.1,2.1,0,4.5,6.1.6,14.4,7.1,18.5a13.31,13.31,0,0,0-2.4,4c3.5,1.2,11.2,2.4,11,3.4,1,.4,1.9.8,2.9,1.2a3.16,3.16,0,0,0-.8-2.8c22.5-20,8.7,51.6,9.6,52.7,10.6,12.4-2.5,5.7-5.1,12.3-1.3,3.1-4.2,10.3-4.2,12.7-1.1,1.7-9.3,11.1-5.7,9.9-.1,9.3,4.2,4.8,8.1,9.9,1.3.8,1.5,4.8,2.1,5.2,4.9,3,10.9-2.4,6.9,7.1-2.8,6.7,2,9.4-1.4,17.6,1.7,0,5.2-2.2,7.3-2.2a5.37,5.37,0,0,0-1.3,2.2c2.6,1.5,1,9.6,3.3,14.1,5.4,10.5-12,2.8-12,7.7,1.9,0,10.4,4.6,10.5,7.4-1.2-.2-1.6.3-1.3,1.5,8.1,4.2-9.7,5.8-12.5,5.9.2,1,.4,2.1.5,3.1h-1.3c.1,4.5-2.2,1-2.1,5.5-7-1.2-4.9,5.7-6,6.5-2,1.9-1.9,6.7-3.1,9.2.5.4.5.2.8.9a2.05,2.05,0,0,0-1,1.5c3.2.7,1.1,2.5,1.6,4,.6.7,6.6,1.7,7.1,1.5.8-6,4.1-10.4,9.7-6.5-2.5,3.9-.7,11.1,3.4,10.5,0,4.5-6.3,4.9-6.3,8.6.9,0,6.1-1,6.8-.6,0-1.5,2.2-1.9,3.4-2.2-.1,1.4-.2,1.8.5,2.8,1.5-3.3,13.1-3.5,14.4-.9-1.5.6-1.9,1.6-1.3,2.8-3.1,5.9-5,5.2-2.4,10.5-6.6,0-5.9,7.5-.3,8.3a4.34,4.34,0,0,1-.5,2.5c6.2-.9,2.5,1.5,7.6,2.8.5-1,1.1-2.6,2.1-3.1,4,3.2,4.7,3.4,8.9,3.1-.4,4.3-3,5.7-3.4,9.6h.8c0,2.8,2.9,3.5,2.1,6.2,2.7,2.3,4.9-1,7.3-2.6,2.6-1.7,5.1,1.7,8.1,1.4a12.26,12.26,0,0,1,0,7.1h1c0,7.7,7.5.9,9.4.9,2.3,3.8,5.7,4.5,7.3,8,5.5,7.3,2.9,0,2.9,7.7,4.4,0,11.2-9.1,16.7-4.6,1.9,6.6,10.3,7.7,11.2,15.4,5,9.4,14,17.9,18.3,26.8.7-.7,34,43.5,34.5,43.5a5.41,5.41,0,0,0,0,2.2c3.9-1.7,10.7,5.9,8.1,10.5,16,0,12.5,1,26.1,12,8.6,1.7,3.6,11.9,14,4,4.7-3.6,3.6-5.5,6.7-9.2,1.9-6,2.2-11.9,2.9-18.2-3.9,0-4.5-3.2-4.7-6.8,4.8-3.9,12.6,1.8,18.8-3.1,3.6-2.7,6.2,4.2,8.3,6.2,3.3,3.3,4.8-2.9,7.9-3.4,2.4,1.8,6.7-3,6.5,4.3,1.3,3.1-2.1,11.4-5,11.1-1.1,4.5-5.6,7.3-5.2,6.5-1.5,2.6,4.9,20.6,6.3,23.7,5.5-4.1,7.5-8,13.6-8V735h.8c0,4.8,25.1-1.5,20.1,13.9a3.43,3.43,0,0,0,1.5.7V0Z"/></g><path class="cls-3" d="M177.9,96.1a15,15,0,1,1-15-15,15,15,0,0,1,15,15"/><path class="cls-4" d="M170.6,96.1a7.7,7.7,0,1,1-7.7-7.7,7.77,7.77,0,0,1,7.7,7.7"/><path class="cls-3" d="M129.6,143.2a10,10,0,1,0,10,10A10,10,0,0,0,129.6,143.2Z"/><path class="cls-4" d="M129.6,148.2a5,5,0,1,0,5,5A5.08,5.08,0,0,0,129.6,148.2Z"/><path class="cls-3" d="M313.5,190.2a10,10,0,1,0,10,10A10,10,0,0,0,313.5,190.2Z"/><path class="cls-4" d="M313.5,195.2a5,5,0,1,0,5,5A5,5,0,0,0,313.5,195.2Z"/><path class="cls-3" d="M285,316.3a10,10,0,1,0,10,10A10,10,0,0,0,285,316.3Z"/><path class="cls-4" d="M285,321.3a5,5,0,1,0,5,5A5.08,5.08,0,0,0,285,321.3Z"/><path class="cls-3" d="M331,478.2a10,10,0,1,0,10,10A10,10,0,0,0,331,478.2Z"/><path class="cls-4" d="M331.1,483.2a5,5,0,1,0,5,5A5.15,5.15,0,0,0,331.1,483.2Z"/><path class="cls-3" d="M544.6,681.9a10,10,0,1,0,10,10A10,10,0,0,0,544.6,681.9Z"/><path class="cls-4" d="M544.6,686.9a5,5,0,1,0,5,5A5,5,0,0,0,544.6,686.9Z"/><text class="cls-5" transform="translate(184.91 95.25)">GOcek</text><text class="cls-5" transform="translate(207.53 69.23)">..</text><text class="cls-6" transform="translate(265.16 309.02)">KARACAOREN</text><text class="cls-6" transform="translate(330.74 209.19)">FETHIYE</text><text class="cls-6" transform="translate(38.03 134.92)">TOMB BAY</text><text class="cls-6" transform="translate(489.54 670.9)">KALKAN</text><text class="cls-6" transform="translate(349.95 497.97)">COLDWATER BAY</text></g></g></svg>