<svg xmlns="http://www.w3.org/2000/svg" xmlns:xlink="http://www.w3.org/1999/xlink" width="759" height="1207" viewBox="0 0 759 1207"><defs><clipPath id="a"><rect width="759" height="1207" opacity="0.736" fill="#fff" stroke="#707070" stroke-width="1" transform="translate(9376 10130)"/></clipPath></defs><g transform="translate(-9376 -10130)" clip-path="url(#a)"><g transform="translate(9232 10130)"><rect width="906.642" height="1207" transform="translate(0 0)" fill="#fff"/><path d="M0,0V239.926c15.274,7.153,38.965,17.81,42.25,17.034-.13.621-.26,1.242-.4,1.859,9.512.817,19.15,8.094,25.457,15.193,2.919,3.282,19.207,25.067,19.542,29.027-7.312,8.624-14.593,1.9-13.422,20.017-4.2,10.166,1.9,17.206,7.9,6.982-.263-.31-.529-.621-.791-.929,5.256-5.156,17.232-10.233,23.684-8.845.284,2.335,6.587,12.231,8.292,13.03,5.961,4.978,4.357,15.309,4.735,23.741,2.66-.239,14.622-4.98,21.707-3.516,4.587,7.86,11.929,23.765,11.4,27.117-9.793,1.118-15.93,5.273-18.552,15.36-5.042.489-8.867-1.178-12.238,2.793-9.479-1.862,2.7,7.531,1.186,11.639-2.107,1.24-4.255,10.764-4.341,13.963,2.752,0,7.168-.659,7.5,4.653-4.326-.2-.8,4.027-.787,6.516a4.336,4.336,0,0,0-1.58.47c.733,3.5,11.906,12.266,14.694,15.332,3.616,3.977,4.736,14.513,7.408,16.78,3.377-5.144,9.16-7.632,12.574-13.193,8.148-13.261,12.83-5.013,23.148-9.817-2.053-.646-8.891-7.259-8.879-7.241,1.386-3.614.189-10.317.4-13.968-7.647-2.158,3.549-7.529,3.549-7.908-2.1,0-6.393,3.644-7.106-1.4,2.089-.2,3.58-.921,3.947-3.253q-1.18-2.327-2.367-4.656c1.713-2.019,4.344-.139,4.344,2.323q3.351-.226,6.709-.461a21.43,21.43,0,0,0-2.762-6.516c5.848-3.052,4.016-1.457,8.683-.932,6.244-6.513-2.391-4.333-2.767-8.846,4.679-.867,12.622,1.85,16.582-.93q-7.943.462-7.893-6.516c2.885-.566,3.658-3.956,6.707-6.516-.643-.63-.444-.3-.787-1.4,2.755-.959,3.549-.575,3.549-4.187,7.36.745,6.907,3.1,6.709-2.793,4.338,1.133,2.7,2.4,10.264,4.187,0-2.929-2.22-8.147-2.761-11.171,2.294-1.3,6.093-2.231,4.735-6.517-7.639-3.734-18.728,8.7-18.771,11.929a3.191,3.191,0,0,1,.619-3.081c-1.364-4.865-4.037,1.9-6.715,1.859-2.057-7.064-6.5-9.147-12.238-7.913a73.272,73.272,0,0,1-.788,18.617q4.574-.152,5.132,5.59c-5.2,1.766-10.384,2.923-15.786,2.324-.133-1.241-.263-2.481-.4-3.723-4.111,0-6.966-8.678-7.893-13.031,2.359-.983,4.095,3.086,6.315.465,0-8.524-17.461,1.39-16.183,4.19-.334-1.785-7.481-20.044-11.118-27.58,5.452-6.271,17.54-8.944,19.061-17.9-3.744-1.541-9.233-3.857-11.844-3.261q-2.143-2.376,1.186-4.653c-2.9-.411-4.386-1.408-5.528,2.323-14.085-7.271,8.621-16.479,9.87-19.079,10.065,6.082,6.356-6.928,6.707-11.172a3.711,3.711,0,0,0-2.368-.93,11.774,11.774,0,0,0-.393,3.256c-10.3,0-8.325-6.943-3.158-11.172,4.694-8.077,6.38-9.482,5.526-20.014,5.084-4.308,2.329-6.053-1.186-7.911,0-13.374,7.2-3.789,15,.465q3.813-1.706,2.761-6.049c-10.6,0,3.365-6.94,5.531-7.449,8.305,1.371,13.876,1.353,21.311,5.12,0-.729.091-1.4.788-1.4-7.738-9.127-2.557-9.573,6.318-8.845,0-4.146,8.429-8.488-.39-7.448v-2.329c-5.667,0-9.6-3.145-16.185-.464,0-7.248,9.051-12.151,12.63-6.982,2.728-4.126,4.693-.834,8.29-.932.486-6.446,5.7-14.563,5.523-19.548-2.687.316-3.113,1.971-5.921,2.332-.63-1.374,5.921-13.891,8.292-14.433a6.005,6.005,0,0,0,4.735,4.188c1.391-.879,2.652-3.315,3.158-5.119-1.753-.665-3.9-.878-4.338-3.261,4.024-3.478,9.908-2.093,13.418-3.723.994-.684.6-.2.787-1.862-12,4.605-.3-31.245.391-27a6.458,6.458,0,0,1,2.371-.467c0-7.1-6.505,3.145-9.869,3.262-1.083-2.133-3.631-4.252-3.947-6.517,4.878,0,8.106-.6,8.688-6.984,5.715,1.266,2.987,1.408,7.895-1.394,8.866-6.81,16.6,32.613,19.734,36.3,15.706,6.949,9.669,12.483,19.335,27a120.672,120.672,0,0,0-.4-13.039c4.756-3.838,10.2-5.279,12.238,3.259-.261.313-.527.622-.787.933,3.809,0,7.141,1.844,7.079,6.76-.131,10.578,7.529,5.328,10.681,12.324,2.167,2.042,3.963,10.237,7.108,9.308,4.927,17.448,6.023-5.578,8.683-5.581V217.4c2.385,0,8.538,5.487,11.45,6.982,0-4.969,9.84-7.642,12.231-10.708,8.621,10.362-15.7,25.15.788,26.067-.217-3.261,3.29-7.1,5.132-10.24,1.92,2.259,1.906,6.466,5.531,6.516-.13-1.084-.267-2.173-.391-3.258a8.014,8.014,0,0,1,3.151.464,4.261,4.261,0,0,0-1.186-3.721c7.061,0,6.032.828,3.558,8.846a1.554,1.554,0,0,0,1.575-.932c0,5.187-.1,8.807.4,14.9,0-3.6,22.223,22.223,26.374,24.958,6.066,3.978,36.387-.455,36.387,5.759,10.855-.378,14.288,2.086,21.553,11.8,1.719,2.3,13.2,27.843,13.178,34.235,16.179-10.553,17.941,46.493,3.253,54.042-6.893,3.54-11.553,2.906-19.754,5.715-18.145,6.22-11-8.456-8.757-7.574,0-2.522.02-10.592,4.733-10.7.5.642,2.865,3.208,3.95,2.8,2.732-4.3,1.069-1.258,3.158-6.522h1.186c0-3.732-3.83-1.047-3.948-6.047,1.488-.773,2.118-5.328,3.16-7.449-3.605,0-1.823,4.664-5.129,6.05,0-3.1-3.545-10.225-6.01-10.82-2.247-.539-10.086-.362-9.78-.349-3.672,1.083-8.941-6.348-7.893,0q-2.365,3.679-3.948.465c-1.486,5.928,4.036,20.964,4.735,28.394q-2.918,3.009-5.531-.47v.932c2.537,0,6.825,9.7,7.108,12.568-3.427,2.586-5.413,1.4-9.073,0-.171,2.152-.589,2.045-.794,4.188,3.851,0,.92,3.723,5.132,3.723-.446,3.318-.81,3.8-3.551,3.261v-.932c-.178-.08-5.069,1.294-5.919,1.394v-1.394q-8.192,4.193-8.689-4.191c-.657,0-6.839,6.146-8.207,8.106-1.927,2.767-11.335-12.572-13.891-14.622,0,1.791,1.323,4.188-.787,4.188v-1.4c-1.968,0-1.029,1.862-3.16,1.862v-.932c-4.187,4.936-6.661,9.346-5.748,15.33.926,6.043-9.2,5.12-6.49,16.324a3.817,3.817,0,0,1-2.761-.467c-4.913,4.5,5.585,10.48-.4,11.169.275,5.035-.2,11.287.4,14.9-4.961-.728-2.117.909-7.106.468-2.193,4.674.486,7.307-.4,11.637,4.659,2.749,22.412,8.737,13.422,19.082-9.107,11.77,13.356,5.49,16.186,12.107,1.406,1.442-1.707,6.655-2.371,7.446,2.391.39,2.261,2.175,3.549,3.723-.938,5.742-13.019,6-13.019,11.172-7.887.288-7.99,10.7-13.033,10.7v1.4c-8.792.982-12.717-3.682-20.125-1.859,0,3.925-1.612,4.244-2.764,7.444,1.1.089,2.022-.533,2.764-1.861a13.446,13.446,0,0,0,1.184,3.725c3.839-2.324,19.337,5.9,24.079,7.913.726-2.657.467-8.843,3.549-8.843v-1.862c4,0,3.839,7.378,8.29,8.376v1.865c3.592,0,7.2-5.2,11.444-4.656,0,3.956,1.18,3.259,4.736,3.259v-.468c-7.94.195,1.666-9.675,3.557-7.446-.849-1.522-4.826-5.585-6.319-5.585,2.962-5.528-2.5-16.087-2.37-22.809,2.639,0,12.752,5.818,14.211,3.259-1.473-.8-.816-.119-.787-1.861,1.069-.785,26.12-.6,27.23,0,0-4.522,1.652-5.612.8-10.708,1.467.278,1.3.624,2.761.932a47.847,47.847,0,0,0,1.974-5.122c1.007.2,2.844-.213,3.16,0,6.735,9.2.953,21.725,10.656,27.931A19.329,19.329,0,0,0,449.211,526c5.236,1.744,16.843,3.584,16.584,5.122l4.336,1.861a4.741,4.741,0,0,0-1.184-4.194c33.939-30.248,13.066,77.937,14.472,79.583,15.957,18.66-3.737,8.66-7.716,18.565-1.906,4.752-6.357,15.566-6.357,19.156-1.729,2.531-14.057,16.7-8.683,14.89-.177,14.058,6.306,7.235,12.24,14.9,1.938,1.269,2.29,7.182,3.16,7.911,7.387,4.6,16.437-3.566,10.415,10.663-4.256,10.059,2.987,14.137-2.134,26.576,2.565,0,7.845-3.256,11.056-3.256a10.408,10.408,0,0,0-1.976,3.256c3.927,2.324,1.535,14.533,5.043,21.352,8.189,15.911-18.068,4.24-18.068,11.693,2.82,0,15.685,6.874,15.785,11.174q-2.746-.535-1.973,2.329c12.217,6.288-14.584,8.74-18.949,8.842.267,1.55.529,3.1.794,4.656h-1.982c.157,6.792-3.38,1.557-3.154,8.379-10.518-1.831-7.455,8.681-9.079,9.772-2.974,2.853-2.932,10.053-4.742,13.966.82.547.745.317,1.183,1.4a3.458,3.458,0,0,0-1.575,2.326c4.789,1.095,1.667,3.826,2.37,6.047.933,1.089,10.026,2.577,10.656,2.327,1.154-9.023,6.168-15.724,14.6-9.773-3.728,5.831-1.062,16.7,5.134,15.827,0,6.738-9.471,7.4-9.471,13.033,1.355,0,9.166-1.542,10.255-.93,0-2.25,3.361-2.874,5.135-3.256-.166,2.117-.3,2.688.787,4.187,2.269-4.945,19.748-5.315,21.708-1.4-2.22.965-2.886,2.358-1.969,4.19-4.733,8.956-7.553,7.837-3.554,15.824-9.967,0-8.891,11.361-.393,12.574a5.955,5.955,0,0,1-.793,3.723c9.332-1.4,3.851,2.27,11.444,4.188.745-1.518,1.622-3.992,3.16-4.655,5.99,4.818,7.05,5.129,13.422,4.655-.636,6.535-4.584,8.627-5.129,14.428h1.184c0,4.182,4.421,5.3,3.152,9.305,4.105,3.424,7.449-1.491,11.041-3.9,3.942-2.642,7.757,2.506,12.253,2.042a18.3,18.3,0,0,1,0,10.71h1.58c0,11.616,11.3,1.394,14.212,1.4,3.428,5.727,8.683,6.763,11.047,12.1,8.31,11.086,4.344-.006,4.344,11.637,6.646,0,16.979-13.756,25.265-6.982,2.808,9.968,15.564,11.689,16.966,23.271,7.573,14.154,21.167,27.094,27.635,40.5,1.056-1.072,51.4,65.632,52.1,65.632-.15,1.7-.337,1.908,0,3.256,5.868-2.625,16.186,8.852,12.24,15.825,24.095,0,18.885,1.494,39.471,18.156,12.963,2.546,5.384,17.928,21.078,5.984,7.142-5.439,5.413-8.369,10.106-13.9,2.933-9,3.385-18.012,4.339-27.464-5.955,0-6.724-4.828-7.1-10.24,7.269-5.854,19.036,2.678,28.416-4.652,5.384-4.019,9.367,6.291,12.5,9.39,5.016,4.957,7.232-4.321,11.972-5.2,3.613,2.7,10.051-4.519,9.867,6.513,1.894,4.709-3.151,17.254-7.5,16.759-1.678,6.827-8.437,11.072-7.9,9.775-2.269,3.945,7.413,31.149,9.471,35.84,8.249-6.189,11.365-12.1,20.532-12.1v-1.4h1.183c0,7.318,37.964-2.255,30.391,20.944a5.867,5.867,0,0,0,2.285,1.072V0Z" fill="#8da9c4"/><g transform="translate(223.336 122.501)"><path d="M193.181,103.778a22.655,22.655,0,1,1-22.643-22.67,22.625,22.625,0,0,1,22.643,22.67" transform="translate(-147.871 -81.108)" fill="#133c55"/><path d="M178.43,100.04A11.627,11.627,0,1,1,166.8,88.409,11.614,11.614,0,0,1,178.43,100.04" transform="translate(-144.143 -77.382)" fill="#c2b59b"/></g><g transform="translate(180.572 216.319)"><path d="M134.666,143.225a15.1,15.1,0,1,0,15.1,15.113A15.114,15.114,0,0,0,134.666,143.225Z" transform="translate(-119.557 -143.225)" fill="#133c55"/><path d="M132.128,148.225a7.552,7.552,0,1,0,7.535,7.553A7.566,7.566,0,0,0,132.128,148.225Z" transform="translate(-117.007 -140.673)" fill="#c2b59b"/></g><g transform="translate(458.399 287.265)"><path d="M318.616,190.2a15.1,15.1,0,1,0,15.1,15.113A15.114,15.114,0,0,0,318.616,190.2Z" transform="translate(-303.506 -190.198)" fill="#133c55"/><path d="M316.077,195.2a7.552,7.552,0,1,0,7.537,7.553A7.566,7.566,0,0,0,316.077,195.2Z" transform="translate(-300.955 -187.646)" fill="#c2b59b"/></g><g transform="translate(415.31 477.74)"><path d="M290.086,316.312a15.1,15.1,0,1,0,15.1,15.112A15.113,15.113,0,0,0,290.086,316.312Z" transform="translate(-274.977 -316.312)" fill="#133c55"/><path d="M287.548,321.312a7.552,7.552,0,1,0,7.537,7.553A7.566,7.566,0,0,0,287.548,321.312Z" transform="translate(-272.426 -313.76)" fill="#c2b59b"/></g><g transform="translate(484.887 722.283)"><path d="M336.153,478.224a15.1,15.1,0,1,0,15.1,15.114A15.114,15.114,0,0,0,336.153,478.224Z" transform="translate(-321.044 -478.224)" fill="#133c55"/><path d="M333.615,483.224a7.552,7.552,0,1,0,7.537,7.555A7.566,7.566,0,0,0,333.615,483.224Z" transform="translate(-318.493 -475.672)" fill="#c2b59b"/></g><g transform="translate(807.482 1029.964)"><path d="M549.744,681.939a15.1,15.1,0,1,0,15.1,15.113A15.113,15.113,0,0,0,549.744,681.939Z" transform="translate(-534.634 -681.939)" fill="#133c55"/><path d="M547.205,686.939a7.552,7.552,0,1,0,7.535,7.555A7.566,7.566,0,0,0,547.205,686.939Z" transform="translate(-532.084 -679.387)" fill="#c2b59b"/></g><g transform="translate(279.279 65.297)"><path d="M25.792-4l-4.42,4H5.2L1.612-4,4.524-31.98l4.42-4H25.116l3.588,4-.832,8.008H19.864l.416-4H12.116L10.036-8.008H18.2l.416-4h-5.98l.832-7.956H27.456ZM51.636-4l-4.42,4H31.72L28.184-4,31.1-31.928l4.368-4h15.5l3.588,4ZM44.044-7.956l2.08-20.02H38.636l-2.08,20.02ZM78.52-4,74.1,0H57.668L54.08-4l2.912-27.924,4.42-4H77.844l3.588,4L80.6-23.972H72.592l.416-4H64.584L62.5-7.956h8.424l.416-4h8.008Zm26.26,4H80.548l.832-8.008h2.028l2.08-19.968H83.46l.832-8.008h24.232l-1.248,12.012H99.268l.416-4h-6.24L92.82-22h7.748l-.832,8.008H91.988l-.624,5.98H97.6l.416-4h8.008Zm30.16-27.976-9.412,9.984,7.332,9.984h1.82L133.848,0H121.836l.832-8.008h1.664Q123.24-9.516,122.148-11t-2.236-2.99h-.988l-.624,5.98h2.028L119.5,0H107.484l.832-8.008h2.028l2.08-19.968H110.4l.832-8.008H123.24l-.832,8.008H120.38L119.756-22h.988q1.456-1.508,2.86-2.99t2.808-2.99h-1.664l.832-8.008h12.012l-.832,8.008Z" transform="translate(0 78.295)" fill="#001024"/><text transform="translate(34.164 38)" fill="#001024" font-size="51" font-family="SoccerLeague-Italic, Soccer League" font-style="italic"><tspan x="0" y="0">..</tspan></text></g><path d="M20.5-19.906l-6.7,7.1,5.217,7.1h1.3L19.721,0H11.174l.592-5.7H12.95Q12.173-6.771,11.4-7.826T9.8-9.953H9.1L8.658-5.7H10.1L9.509,0H.962l.592-5.7H3l1.48-14.208H3.034l.592-5.7h8.547l-.592,5.7H10.138l-.444,4.255h.7q1.036-1.073,2.035-2.127t2-2.128H13.246l.592-5.7h8.547l-.592,5.7Zm10.767,7.1h2.627l-.7-6.142ZM41.773-5.661,41.181,0h-8.51l.592-5.661h1.406L34.521-7.1H29.452l-.444,1.443h1.406L29.822,0h-8.51L21.9-5.661H23.31l4.514-14.245H26.2l.592-5.661H41L40.4-19.906H38.813L40.367-5.661Zm19.684,0L60.865,0H52.984l.592-5.661h1.147l.444-4.292h-4.44l-.444,4.292h1.443L51.134,0H42.587l.592-5.661h1.443L46.1-19.906H44.659l.592-5.661H59.644L62.2-22.718l-.888,8.51L59.755-12.8l1.258,1.443-.592,5.7Zm-5.7-9.953.444-4.292h-4.44l-.444,4.292ZM72.076-12.8H74.7L74-18.944ZM82.584-5.661,81.992,0h-8.51l.592-5.661H75.48L75.332-7.1H70.263l-.444,1.443h1.406L70.633,0h-8.51l.592-5.661h1.406l4.514-14.245H67.007l.592-5.661H81.807l-.592,5.661H79.624L81.178-5.661Zm18.611,2.812L98.05,0H86.358L83.805-2.849l2.072-19.869,3.145-2.849h11.692l2.553,2.849-.592,5.661h-5.7l.3-2.849H91.279L89.8-5.661h5.994l.3-2.849h5.7ZM112.221-12.8h2.627l-.7-6.142Zm10.508,7.141L122.137,0h-8.51l.592-5.661h1.406L115.477-7.1h-5.069l-.444,1.443h1.406L110.778,0h-8.51l.592-5.661h1.406l4.514-14.245h-1.628l.592-5.661h14.208l-.592,5.661h-1.591l1.554,14.245Zm17.908,2.812L137.492,0H126.466L123.95-2.849l2.072-19.869,3.108-2.849h11.026l2.553,2.849Zm-5.4-2.812,1.48-14.245h-5.328l-1.48,14.245Zm25.6,0L160.247,0h-7.881l.592-5.661H154.1l.444-4.292h-4.44l-.444,4.292h1.443L150.516,0h-8.547l.592-5.661H144l1.48-14.245h-1.443l.592-5.661h14.393l2.553,2.849-.888,8.51L159.137-12.8l1.258,1.443-.592,5.7Zm-5.7-9.953.444-4.292h-4.44l-.444,4.292ZM179.117,0H161.875l.592-5.7h1.443l1.48-14.208h-1.443l.592-5.7h17.242l-.888,8.547h-5.7l.3-2.849h-4.44l-.444,4.255h5.513l-.592,5.7h-5.513L169.571-5.7h4.44l.3-2.849h5.7Zm23.791-25.6-.592,5.7h-1.443L198.8,0h-5.772l-3.7-12.21L188.663-5.7h1.443L189.514,0h-8.547l.592-5.7H183l1.48-14.208h-1.443l.592-5.7h6.993l3.848,12.58.74-6.882h-1.443l.592-5.7Z" transform="translate(400.477 466.029)" fill="#001024"/><path d="M19.166-17.057H13.505l.3-2.849H10.064L9.62-15.651h5.661l-.592,5.7H9.028L8.584-5.7H9.99L9.4,0H.851l.592-5.7H2.886l1.48-14.208H2.923l.592-5.7H20.054ZM36.334,0H19.092l.592-5.7h1.443l1.48-14.208H21.164l.592-5.7H39l-.888,8.547h-5.7l.3-2.849h-4.44l-.444,4.255h5.513l-.592,5.7H27.232L26.788-5.7h4.44l.3-2.849h5.7ZM57.646-25.6l-.888,8.547H52.5l.3-2.849H51.356L49.876-5.7h1.443L50.727,0H42.18l.592-5.7h1.443l1.48-14.208H44.252l-.3,2.849H39.664l.888-8.547ZM76.738-5.7,76.146,0H67.6l.592-5.7h1.443l.444-4.255H64.787L64.343-5.7h1.406L65.157,0h-8.51l.592-5.7h1.406l1.48-14.208H58.719l.592-5.7h8.51l-.592,5.7H65.823l-.444,4.255H70.67l.444-4.255H69.671l.592-5.7H78.81l-.592,5.7H76.775L75.295-5.7Zm10.656,0L86.8,0h-8.51l.592-5.7H80.29l1.48-14.208H80.364l.592-5.7h8.51l-.592,5.7H87.468L85.988-5.7Zm22.237-19.869-.592,5.7H107.6l-6.142,10.4-.37,3.811h1.406L101.9,0h-8.51l.592-5.661h1.406l.37-3.811-.259-.74q-.259-.74-.666-1.832t-.888-2.386l-.907-2.442q-.426-1.147-.74-1.98t-.389-1.017H90.5l.592-5.7H99.6l-.592,5.7H97.606l1.554,5.217,2.775-5.217h-1.443l.592-5.7ZM125.837,0H108.6l.592-5.7h1.443l1.48-14.208h-1.443l.592-5.7H128.5l-.888,8.547h-5.7l.3-2.849h-4.44l-.444,4.255h5.513l-.592,5.7h-5.513L116.291-5.7h4.44l.3-2.849h5.7Z" transform="translate(499.534 315.256)" fill="#001024"/><path d="M20.35-25.6l-.888,8.547H15.207l.3-2.849H14.06L12.58-5.7h1.443L13.431,0H4.884l.592-5.7H6.919L8.4-19.906H6.956l-.3,2.849H2.368L3.256-25.6ZM36.223-2.849,33.078,0H22.052L19.536-2.849l2.072-19.869,3.108-2.849H35.742l2.553,2.849Zm-5.4-2.812L32.3-19.906H26.973L25.493-5.661ZM60.495-5.7,59.9,0h-8.51l.592-5.7h1.406l.851-8.325L49.4-6.179,46.25-14.023,45.4-5.7h1.406L46.213,0H37.7l.592-5.7H39.7l1.48-14.208H39.775l.592-5.7h6.7l3.552,7.881L55.907-25.6h6.66l-.592,5.7H60.569L59.089-5.7Zm18.87,2.849L76.22,0H61.531l.592-5.7h1.406l1.48-14.208H63.6l.592-5.661H78.884l2.553,2.849-.888,8.51L78.958-12.8l1.295,1.443ZM73.963-5.7l.444-4.255H69.671L69.227-5.7ZM75-15.614l.444-4.292H70.707l-.444,4.292ZM106.6-2.849,103.452,0H88.763l.592-5.7h1.406l1.48-14.208H90.835l.592-5.661h14.689l2.553,2.849-.888,8.51L106.19-12.8l1.3,1.443Zm-5.4-2.849.444-4.255H96.9L96.459-5.7Zm1.036-9.916.444-4.292H97.939l-.444,4.292ZM117.66-12.8h2.627l-.7-6.142Zm10.508,7.141L127.576,0h-8.51l.592-5.661h1.406L120.916-7.1h-5.069L115.4-5.661h1.406L116.217,0h-8.51l.592-5.661h1.406l4.514-14.245h-1.628l.592-5.661h14.208l-.592,5.661h-1.591l1.554,14.245Zm21.9-19.906-.592,5.7h-1.443L141.9-9.472l-.37,3.811h1.406L142.339,0h-8.51l.592-5.661h1.406l.37-3.811-.259-.74q-.259-.74-.666-1.832t-.888-2.386l-.906-2.442q-.426-1.147-.74-1.98t-.389-1.017h-1.406l.592-5.7h8.51l-.592,5.7h-1.406l1.554,5.217,2.775-5.217h-1.443l.592-5.7Z" transform="translate(180.445 287.073)" fill="#001024"/><path d="M20.5-19.906l-6.7,7.1,5.217,7.1h1.3L19.721,0H11.174l.592-5.7H12.95Q12.173-6.771,11.4-7.826T9.8-9.953H9.1L8.658-5.7H10.1L9.509,0H.962l.592-5.7H3l1.48-14.208H3.034l.592-5.7h8.547l-.592,5.7H10.138l-.444,4.255h.7q1.036-1.073,2.035-2.127t2-2.128H13.246l.592-5.7h8.547l-.592,5.7Zm10.767,7.1h2.627l-.7-6.142ZM41.773-5.661,41.181,0h-8.51l.592-5.661h1.406L34.521-7.1H29.452l-.444,1.443h1.406L29.822,0h-8.51L21.9-5.661H23.31l4.514-14.245H26.2l.592-5.661H41L40.4-19.906H38.813L40.367-5.661ZM59.792-8.51,58.9,0H42.772l.592-5.661H44.77l1.48-14.245H44.844l.592-5.661h8.51l-.592,5.661H51.948L50.468-5.661H53.8l.3-2.849Zm20.461-11.4-6.7,7.1,5.217,7.1h1.295L79.476,0H70.929l.592-5.7h1.184q-.777-1.073-1.554-2.128T69.56-9.953h-.7L68.413-5.7h1.443L69.264,0H60.717l.592-5.7h1.443l1.48-14.208H62.789l.592-5.7h8.547l-.592,5.7H69.893l-.444,4.255h.7q1.036-1.073,2.035-2.127t2-2.128H73l.592-5.7H82.14l-.592,5.7ZM91.02-12.8h2.627l-.7-6.142Zm10.508,7.141L100.936,0h-8.51l.592-5.661h1.406L94.276-7.1H89.207l-.444,1.443h1.406L89.577,0h-8.51l.592-5.661h1.406l4.514-14.245H85.951l.592-5.661h14.208l-.592,5.661H98.568l1.554,14.245ZM124.394-25.6l-.592,5.7h-1.443L120.287,0h-5.772l-3.7-12.21L110.149-5.7h1.443L111,0h-8.547l.592-5.7h1.443l1.48-14.208h-1.443l.592-5.7h6.993l3.848,12.58.74-6.882h-1.443l.592-5.7Z" transform="translate(739.367 1012.595)" fill="#001024"/><path d="M18.574-2.849,15.429,0H3.737L1.184-2.849,3.256-22.718,6.4-25.567H18.093l2.553,2.849-.592,5.661h-5.7l.3-2.849H8.658L7.178-5.661h5.994l.3-2.849h5.7ZM37-2.849,33.855,0H22.829L20.313-2.849l2.072-19.869,3.108-2.849H36.519l2.553,2.849ZM31.6-5.661l1.48-14.245H27.75L26.27-5.661ZM55.537-8.51,54.649,0H38.517l.592-5.661h1.406l1.48-14.245H40.589l.592-5.661h8.51L49.1-19.906H47.693L46.213-5.661h3.33l.3-2.849ZM74.7-2.849,71.558,0H56.425l.592-5.661h1.406L59.9-19.906H58.5l.592-5.661H74.222l2.553,2.849ZM69.3-5.661l1.48-14.245H65.6L64.121-5.661ZM101.6-25.53l-.592,5.661H99.567L97.458.037H91.8l-3.4-6.771L83.1.037H77.441L79.55-19.869H78.107L78.7-25.53h8.547l-.592,5.661H85.211l-.888,8.362,5.254-6.771,3.441,6.771.888-8.362H92.463l.592-5.661ZM110.038-12.8h2.627l-.7-6.142Zm10.508,7.141L119.954,0h-8.51l.592-5.661h1.406L113.294-7.1h-5.069l-.444,1.443h1.406L108.6,0h-8.51l.592-5.661h1.406L106.6-19.906h-1.628l.592-5.661h14.208l-.592,5.661h-1.591L119.14-5.661ZM140.933-25.6l-.888,8.547H135.79l.3-2.849h-1.443L133.163-5.7h1.443L134.014,0h-8.547l.592-5.7H127.5l1.48-14.208h-1.443l-.3,2.849h-4.292l.888-8.547ZM157.065,0H139.823l.592-5.7h1.443l1.48-14.208H141.9l.592-5.7h17.242l-.888,8.547h-5.7l.3-2.849H149l-.444,4.255h5.513l-.592,5.7h-5.513L147.519-5.7h4.44l.3-2.849h5.7Zm20.609-5.661L177.082,0H169.2l.592-5.661h1.147l.444-4.292h-4.44L166.5-5.661h1.443L167.351,0H158.8l.592-5.661h1.443l1.48-14.245h-1.443l.592-5.661h14.393l2.553,2.849-.888,8.51L175.972-12.8l1.258,1.443-.592,5.7Zm-5.7-9.953.444-4.292h-4.44l-.444,4.292ZM204.462-2.849,201.317,0H186.628l.592-5.7h1.406l1.48-14.208H188.7l.592-5.661h14.689l2.553,2.849-.888,8.51L204.055-12.8l1.295,1.443ZM199.06-5.7l.444-4.255h-4.736L194.324-5.7Zm1.036-9.916.444-4.292H195.8l-.444,4.292ZM215.525-12.8h2.627l-.7-6.142Zm10.508,7.141L225.441,0h-8.51l.592-5.661h1.406L218.781-7.1h-5.069l-.444,1.443h1.406L214.082,0h-8.51l.592-5.661h1.406l4.514-14.245h-1.628l.592-5.661h14.208l-.592,5.661h-1.591l1.554,14.245Zm21.9-19.906-.592,5.7H245.9l-6.142,10.4-.37,3.811H240.8L240.2,0h-8.51l.592-5.661h1.406l.37-3.811-.259-.74q-.259-.74-.666-1.832t-.888-2.386l-.906-2.442q-.426-1.147-.74-1.98t-.389-1.017h-1.406l.592-5.7h8.51l-.592,5.7h-1.406l1.554,5.217,2.775-5.217H238.8l.592-5.7Z" transform="translate(528.551 751.407)" fill="#001024"/><path d="M23.717-5.7,23.125,0h-8.51l.592-5.7h1.406l.851-8.325L12.617-6.179,9.472-14.023,8.621-5.7h1.406L9.435,0H.925l.592-5.7H2.923L4.4-19.906H3l.592-5.7h6.7l3.552,7.881L19.129-25.6h6.66l-.592,5.7H23.791L22.311-5.7ZM42.069,0H24.827l.592-5.7h1.443l1.48-14.208H26.9l.592-5.7H44.733l-.888,8.547h-5.7l.3-2.849H34l-.444,4.255h5.513l-.592,5.7H32.967L32.523-5.7h4.44l.3-2.849h5.7ZM62.234-2.849,59.089,0H43.956l.592-5.661h1.406l1.48-14.245H46.028l.592-5.661H61.753l2.553,2.849Zm-5.4-2.812,1.48-14.245h-5.18L51.652-5.661ZM72.964-5.7,72.372,0h-8.51l.592-5.7H65.86l1.48-14.208H65.934l.592-5.7h8.51l-.592,5.7H73.038L71.558-5.7ZM93.684-25.6,92.8-17.057H88.541l.3-2.849H87.394L85.914-5.7h1.443L86.765,0H78.218l.592-5.7h1.443l1.48-14.208H80.29l-.3,2.849H75.7L76.59-25.6ZM109.816,0H92.574l.592-5.7h1.443l1.48-14.208H94.646l.592-5.7H112.48l-.888,8.547h-5.7l.3-2.849h-4.44l-.444,4.255h5.513l-.592,5.7h-5.513L100.27-5.7h4.44l.3-2.849h5.7Zm20.609-5.661L129.833,0h-7.881l.592-5.661h1.147l.444-4.292h-4.44l-.444,4.292h1.443L120.1,0h-8.547l.592-5.661h1.443l1.48-14.245h-1.443l.592-5.661h14.393l2.553,2.849-.888,8.51L128.723-12.8l1.258,1.443-.592,5.7Zm-5.7-9.953.444-4.292h-4.44l-.444,4.292ZM150.22-5.661,149.628,0h-7.881l.592-5.661h1.147l.444-4.292h-4.44l-.444,4.292h1.443L139.9,0H131.35l.592-5.661h1.443l1.48-14.245h-1.443l.592-5.661h14.393l2.553,2.849-.888,8.51L148.518-12.8l1.258,1.443-.592,5.7Zm-5.7-9.953.444-4.292h-4.44l-.444,4.292ZM160.839-12.8h2.627l-.7-6.142Zm10.508,7.141L170.755,0h-8.51l.592-5.661h1.406L164.1-7.1h-5.069l-.444,1.443h1.406L159.4,0h-8.51l.592-5.661h1.406L157.4-19.906H155.77l.592-5.661H170.57l-.592,5.661h-1.591l1.554,14.245ZM194.213-25.6l-.592,5.7h-1.443L190.106,0h-5.772l-3.7-12.21L179.968-5.7h1.443L180.819,0h-8.547l.592-5.7h1.443l1.48-14.208h-1.443l.592-5.7h6.993l3.848,12.58.74-6.882h-1.443l.592-5.7ZM210.271,0H193.029l.592-5.7h1.443l1.48-14.208H195.1l.592-5.7h17.242l-.888,8.547h-5.7l.3-2.849h-4.44l-.444,4.255h5.513l-.592,5.7h-5.513L200.725-5.7h4.44l.3-2.849h5.7ZM221.7-12.8h2.627l-.7-6.142Zm10.508,7.141L231.62,0h-8.51l.592-5.661h1.406L224.96-7.1h-5.069l-.444,1.443h1.406L220.261,0h-8.51l.592-5.661h1.406l4.514-14.245h-1.628l.592-5.661h14.208l-.592,5.661h-1.591l1.554,14.245ZM255.078-25.6l-.592,5.7h-1.443L250.971,0H245.2l-3.7-12.21L240.833-5.7h1.443L241.684,0h-8.547l.592-5.7h1.443l1.48-14.208h-1.443l.592-5.7h6.993l3.848,12.58.74-6.882h-1.443l.592-5.7ZM278.832-2.849,275.687,0H264.661l-2.553-2.849.592-5.7h5.7L268.1-5.7h5.328l.444-4.255H265.7L263.144-12.8l1.036-9.953,3.145-2.849h11.026l2.553,2.849-.592,5.7h-5.7l.3-2.849h-5.328l-.444,4.255h8.177l2.553,2.849ZM297.517,0H280.275l.592-5.7h1.443l1.48-14.208h-1.443l.592-5.7h17.242l-.888,8.547h-5.7l.3-2.849h-4.44l-.444,4.255h5.513l-.592,5.7h-5.513L287.971-5.7h4.44l.3-2.849h5.7ZM308.95-12.8h2.627l-.7-6.142Zm10.508,7.141L318.866,0h-8.51l.592-5.661h1.406L312.206-7.1h-5.069l-.444,1.443H308.1L307.507,0H299l.592-5.661h1.406l4.514-14.245h-1.628l.592-5.661h14.208l-.592,5.661H316.5l1.554,14.245Z" transform="translate(209.551 1058.407)" fill="#aa9e88"/></g></g></svg>