<svg xmlns="http://www.w3.org/2000/svg" width="79.43" height="91.597" viewBox="0 0 79.43 91.597">
  <g id="Group_273" data-name="Group 273" transform="translate(-436 -1523)">
    <g id="Group_120" data-name="Group 120" transform="translate(436 1523)">
      <path id="Path_139" data-name="Path 139" d="M964.535,1014.25c0-2.767.033-5.535-.021-8.3-.016-.816.245-.978,1.008-.975,6.607.03,13.214,0,19.82.037.843,0,1.034-.252,1.025-1.053-.048-4.2-.039-8.391-.05-12.587.011-.178.033-.356.033-.533q-.006-19.411-.019-38.822a6.866,6.866,0,0,0-.07-.7c.2-1.984.042-3.973.086-5.959.018-.8,0-1.6.005-2.4a4.107,4.107,0,0,1,2.873-4.152,3.016,3.016,0,0,0,.368-.208h.894q0,26.8.011,53.594c0,.446.014.893.021,1.339a.3.3,0,0,1,0,.108c-.007,3.481.009,6.963-.038,10.443-.01.76.225.938.955.934,6.368-.027,12.735-.013,19.1-.017,1.517,0,3.034-.025,4.55-.038h0c.549.056.43.476.431.813q0,4.241,0,8.483Z" transform="translate(-952.026 -938.589)" fill="#aa9e88"/>
      <path id="Path_140" data-name="Path 140" d="M921.3,1276.2l50.978,0,9.333.032a3.415,3.415,0,0,1-.437,1.526,15.51,15.51,0,0,1-3.9,5.224,13,13,0,0,1-8.377,3.208c-7.735.085-15.471.029-23.207.023-.313,0-.66.118-.933-.157.114-.173.241-.34.341-.521a2.912,2.912,0,0,0-4.249-3.789c-1.436,1.012-1.589,2.721-.4,4.472h-8.038a8.426,8.426,0,0,0,.55-.912,2.9,2.9,0,0,0-3.551-3.974c-2,.645-2.592,2.788-1.3,4.719-.152.191-.367.166-.574.166h-6.694c-.206,0-.421.031-.582-.148.1-.147.209-.288.3-.441a2.937,2.937,0,0,0-.9-4,2.892,2.892,0,0,0-3.945.791,3.08,3.08,0,0,0,.247,3.8l-7.13.016c-.009-3.117,0-6.235-.04-9.352-.008-.674.348-.684.84-.683Q915.463,1276.2,921.3,1276.2Z" transform="translate(-908.788 -1200.535)" fill="#dee5f2"/>
      <path id="Path_141" data-name="Path 141" d="M908.967,1286.226l7.13-.016c1.869,1.1,2.7,1.071,4.3-.149.161.179.377.148.582.148q3.347,0,6.694,0c.206,0,.422.025.574-.166,1.56,1.237,2.682,1.281,4.306.167h8.038c1.624,1.112,2.739,1.07,4.306-.162.273.275.62.157.933.157,7.736.007,15.472.062,23.207-.023a13,13,0,0,0,8.377-3.208,15.509,15.509,0,0,0,3.9-5.224,3.414,3.414,0,0,0,.437-1.526c1.967-.008,3.934-.008,5.9-.033.473-.006.69.109.7.642.106,4.519-1.093,8.529-4.529,11.66a13.353,13.353,0,0,1-9.246,3.613q-27.095.021-54.19.007c-1.789,0-3.58-.064-5.365.015-2.9.127-5.858-2.216-5.937-5.115A6.414,6.414,0,0,0,908.967,1286.226Z" transform="translate(-908.927 -1200.535)" fill="#c2b59b"/>
      <path id="Path_142" data-name="Path 142" d="M1080.559,1030.777a.3.3,0,0,0,0-.108,33.374,33.374,0,0,0,8.484-17.013,36.279,36.279,0,0,0-.526-14.268,52.459,52.459,0,0,0-4.478-12.189c-.121-.236-.211-.487-.315-.731a.9.9,0,0,1,.664.193,52.67,52.67,0,0,1,5.641,5.423,42.736,42.736,0,0,1,7.677,13.159,54.592,54.592,0,0,1,2.587,9.41,80.38,80.38,0,0,1,1.149,10.839,106.845,106.845,0,0,1-.531,11.813C1094.812,1032.994,1087.851,1031.368,1080.559,1030.777Z" transform="translate(-1042.065 -975.736)" fill="#dee5f2"/>
      <path id="Path_143" data-name="Path 143" d="M974.107,995.368a6.871,6.871,0,0,1,.07.7q.014,19.411.019,38.822c0,.178-.021.355-.033.533-2.567-1.194-5.233-.937-7.883-.461a71.241,71.241,0,0,0-16.348,5.54c-.318.142-.621.382-1.084.206a68.579,68.579,0,0,0,4.919-5.641,70.289,70.289,0,0,0,7.838-12.018c1.913-3.9,3.872-7.778,5.918-11.609a95.749,95.749,0,0,0,6.158-14.9C973.813,996.145,973.965,995.758,974.107,995.368Z" transform="translate(-939.871 -982.644)" fill="#c2b59b"/>
      <path id="Path_144" data-name="Path 144" d="M1103.2,1021.043a106.784,106.784,0,0,0,.531-11.813,80.345,80.345,0,0,0-1.149-10.839,54.569,54.569,0,0,0-2.587-9.41,42.734,42.734,0,0,0-7.677-13.159,52.643,52.643,0,0,0-5.641-5.423.9.9,0,0,0-.664-.193l-.688-1.247c-.019-.393-.038-.787-.526-.908l-.193-.333c.008-.264.017-.528-.349-.557v0c0-.254,0-.505-.343-.54l-.4-.628.091-.482a25.147,25.147,0,0,1,5.486,2.948c8.786,5.8,14.3,13.963,17.286,23.958a60.561,60.561,0,0,1,2.312,13.04,77.959,77.959,0,0,1-.344,15.323,20.636,20.636,0,0,1-.928,5.06h0A19.666,19.666,0,0,0,1103.2,1021.043Z" transform="translate(-1044.357 -959.476)" fill="#c2b59b"/>
      <path id="Path_145" data-name="Path 145" d="M1089.266,976.857c.488.122.507.515.526.908A1.811,1.811,0,0,1,1089.266,976.857Z" transform="translate(-1048.821 -968.281)" fill="#fe883e"/>
      <path id="Path_146" data-name="Path 146" d="M1081.92,964.59l-.091.482c-.143-.171-.295-.335-.425-.515-.058-.08-.129-.221.067-.233.068,0,.14.071.21.109l.215.17Z" transform="translate(-1042.674 -958.557)" fill="#fe883e"/>
      <path id="Path_147" data-name="Path 147" d="M1085.309,970.462c.343.035.345.286.343.54A.772.772,0,0,1,1085.309,970.462Z" transform="translate(-1045.751 -963.319)" fill="#fe883e"/>
      <path id="Path_148" data-name="Path 148" d="M1086.845,972.881c.366.03.357.294.349.558A.831.831,0,0,1,1086.845,972.881Z" transform="translate(-1046.943 -965.196)" fill="#fe883e"/>
      <path id="Path_149" data-name="Path 149" d="M1083.07,964.983l-.215-.17C1082.964,964.822,1083.058,964.851,1083.07,964.983Z" transform="translate(-1043.847 -958.936)" fill="#fd6344"/>
      <path id="Path_150" data-name="Path 150" d="M996.936,1303.41c-1.625,1.114-2.747,1.07-4.306-.167-1.287-1.931-.7-4.075,1.3-4.719a2.9,2.9,0,0,1,3.551,3.974A8.461,8.461,0,0,1,996.936,1303.41Z" transform="translate(-973.311 -1217.735)" fill="#aa9e88"/>
      <path id="Path_151" data-name="Path 151" d="M1051.62,1303.288c-1.567,1.232-2.682,1.274-4.306.162-1.191-1.752-1.039-3.461.4-4.472a2.912,2.912,0,0,1,4.249,3.789C1051.862,1302.948,1051.735,1303.115,1051.62,1303.288Z" transform="translate(-1015.653 -1217.775)" fill="#aa9e88"/>
      <path id="Path_152" data-name="Path 152" d="M942.323,1303.273c-1.593,1.22-2.429,1.249-4.3.149a3.08,3.08,0,0,1-.247-3.8,2.892,2.892,0,0,1,3.945-.791,2.938,2.938,0,0,1,.9,4C942.533,1302.985,942.424,1303.126,942.323,1303.273Z" transform="translate(-930.856 -1217.746)" fill="#aa9e88"/>
    </g>
  </g>
</svg>
