<svg width="65" height="65" viewBox="0 0 65 65" xmlns="http://www.w3.org/2000/svg">
<path d="M32.752 10.295C26.7847 10.295 21.0617 12.6655 16.8421 16.8851C12.6225 21.1047 10.252 26.8276 10.252 32.795C10.252 38.7624 12.6225 44.4853 16.8421 48.7049C21.0617 52.9245 26.7847 55.295 32.752 55.295C38.7194 55.295 44.4424 52.9245 48.6619 48.7049C52.8815 44.4853 55.252 38.7624 55.252 32.795C55.252 26.8276 52.8815 21.1047 48.6619 16.8851C44.4424 12.6655 38.7194 10.295 32.752 10.295ZM41.493 33.689C37.2683 36.4057 33.0433 39.1217 28.8179 41.837C28.6635 41.9723 28.4725 42.0588 28.2689 42.0857C28.0653 42.1126 27.8583 42.0786 27.674 41.988C27.4972 41.883 27.3553 41.7281 27.2663 41.5427C27.1773 41.3573 27.1452 41.1496 27.174 40.946C27.1807 38.1993 27.1807 35.4523 27.174 32.705C27.174 29.987 27.174 27.269 27.174 24.552C27.1451 24.3486 27.1772 24.1413 27.2662 23.9561C27.3552 23.771 27.4971 23.6164 27.674 23.512C27.8586 23.4224 28.0655 23.3894 28.2689 23.4169C28.4722 23.4445 28.6629 23.5315 28.817 23.667C33.0403 26.3857 37.2653 29.1017 41.492 31.815C42.394 32.389 42.393 33.114 41.498 33.689H41.493Z"/>
</svg>
